<svg width="13" height="15" viewBox="0 0 13 15" fill="none" xmlns="http://www.w3.org/2000/svg">
<path d="M12.5357 0.937505H9.05357L8.7808 0.389653C8.72302 0.272529 8.63402 0.174006 8.5238 0.105169C8.41358 0.0363316 8.28652 -8.87099e-05 8.15692 5.13654e-06H4.84018C4.71087 -0.000496734 4.58403 0.0357877 4.47421 0.104701C4.36438 0.173615 4.276 0.272371 4.2192 0.389653L3.94643 0.937505H0.464286C0.341149 0.937505 0.223057 0.986891 0.135986 1.0748C0.0489157 1.16271 0 1.28193 0 1.40625L0 2.34375C0 2.46807 0.0489157 2.5873 0.135986 2.67521C0.223057 2.76312 0.341149 2.8125 0.464286 2.8125H12.5357C12.6589 2.8125 12.7769 2.76312 12.864 2.67521C12.9511 2.5873 13 2.46807 13 2.34375V1.40625C13 1.28193 12.9511 1.16271 12.864 1.0748C12.7769 0.986891 12.6589 0.937505 12.5357 0.937505ZM1.54375 13.6816C1.56589 14.0387 1.72197 14.3737 1.98019 14.6187C2.23842 14.8636 2.5794 15 2.93371 15H10.0663C10.4206 15 10.7616 14.8636 11.0198 14.6187C11.278 14.3737 11.4341 14.0387 11.4562 13.6816L12.0714 3.75H0.928571L1.54375 13.6816Z" fill="#C0C0C0"/>
</svg>
