<svg width="75" height="181" viewBox="0 0 75 181" fill="none" xmlns="http://www.w3.org/2000/svg">
<path d="M36.0203 0.5H34.7148V1.79904H36.0203V0.5Z" fill="#C3C3C3"/>
<path d="M38.585 0.783203H37.8398V1.52199H38.585V0.783203Z" fill="#C3C3C3"/>
<path d="M40.286 0.5H38.9805V1.79904H40.286V0.5Z" fill="#C3C3C3"/>
<path d="M41.7078 0.5H40.4023V1.79904H41.7078V0.5Z" fill="#C3C3C3"/>
<path d="M33.2311 1.8606H31.8086V3.27661H33.2311V1.8606Z" fill="#C3C3C3"/>
<path d="M43.192 1.8606H41.7695V3.27661H43.192V1.8606Z" fill="#C3C3C3"/>
<path d="M31.7621 3.32593H30.4258V4.65575H31.7621V3.32593Z" fill="#C3C3C3"/>
<path d="M33.1317 3.37524H31.9062V4.6004H33.1317V3.37524Z" fill="#C3C3C3"/>
<path d="M43.0949 3.37524H41.8633V4.60656H43.0949V3.37524Z" fill="#C3C3C3"/>
<path d="M37.4838 4.71118H36.0859V6.10873H37.4838V4.71118Z" fill="#C3C3C3"/>
<path d="M40.3354 4.71118H38.9375V6.10257H40.3354V4.71118Z" fill="#C3C3C3"/>
<path d="M35.8838 6.31177H34.8555V7.33376H35.8838V6.31177Z" fill="#C3C3C3"/>
<path d="M37.4984 6.12085H36.082V7.53686H37.4984V6.12085Z" fill="#C3C3C3"/>
<path d="M38.9264 6.11474V4.69873H37.5039V7.53692H38.9264V6.11474Z" fill="#C3C3C3"/>
<path d="M40.273 6.18262H38.9922V7.46319H40.273V6.18262Z" fill="#C3C3C3"/>
<path d="M41.1041 6.77979H41.0117V6.86598H41.1041V6.77979Z" fill="#C3C3C3"/>
<path d="M33.1682 7.59863H31.875V8.89152H33.1682V7.59863Z" fill="#C3C3C3"/>
<path d="M34.3244 7.85718H33.5547V8.62675H34.3244V7.85718Z" fill="#C3C3C3"/>
<path d="M36.0726 7.53687H34.6562V8.94672H36.0726V7.53687Z" fill="#C3C3C3"/>
<path d="M37.4967 7.53687H36.0742V8.95288H37.4967V7.53687Z" fill="#C3C3C3"/>
<path d="M38.9202 7.53687H37.5039V8.94672H38.9202V7.53687Z" fill="#C3C3C3"/>
<path d="M40.3421 7.53687H38.9258V8.94672H40.3421V7.53687Z" fill="#C3C3C3"/>
<path d="M41.5668 7.73389H40.5508V8.74357H41.5668V7.73389Z" fill="#C3C3C3"/>
<path d="M42.9781 7.74634H41.9805V8.7437H42.9781V7.74634Z" fill="#C3C3C3"/>
<path d="M43.192 8.95298V13.2072H44.6145V3.27661H43.192V4.69878H41.7695V7.53697H43.192V8.95298Z" fill="#C3C3C3"/>
<path d="M32.7942 9.39014H32.2461V9.93807H32.7942V9.39014Z" fill="#C3C3C3"/>
<path d="M35.5188 9.50708H35.2109V9.81491H35.5188V9.50708Z" fill="#C3C3C3"/>
<path d="M37.4725 8.97754H36.1055V10.3381H37.4725V8.97754Z" fill="#C3C3C3"/>
<path d="M38.9264 8.95288H37.5039V10.3689H38.9264V8.95288Z" fill="#C3C3C3"/>
<path d="M31.8053 10.3689V7.53692H33.2278V4.69873H30.3828V11.7911H31.8053V10.3689Z" fill="#C3C3C3"/>
<path d="M33.1794 10.4182H31.8555V11.7357H33.1794V10.4182Z" fill="#C3C3C3"/>
<path d="M34.3632 10.6584H33.5195V11.4957H34.3632V10.6584Z" fill="#C3C3C3"/>
<path d="M36.0361 10.406H34.6875V11.7543H36.0361V10.406Z" fill="#C3C3C3"/>
<path d="M37.4225 10.449H36.1602V11.7049H37.4225V10.449Z" fill="#C3C3C3"/>
<path d="M40.3354 10.3875H38.9375V11.7788H40.3354V10.3875Z" fill="#C3C3C3"/>
<path d="M41.7292 10.4121H40.3867V11.7542H41.7292V10.4121Z" fill="#C3C3C3"/>
<path d="M43.1791 10.3813H41.7812V11.7789H43.1791V10.3813Z" fill="#C3C3C3"/>
<path d="M45.6056 10.7937H45.0391V11.3601H45.6056V10.7937Z" fill="#C3C3C3"/>
<path d="M30.124 12.0498H29.2188V12.9487H30.124V12.0498Z" fill="#C3C3C3"/>
<path d="M31.807 11.7913H30.3906V13.2011H31.807V11.7913Z" fill="#C3C3C3"/>
<path d="M33.2243 11.7974H31.8203V13.2011H33.2243V11.7974Z" fill="#C3C3C3"/>
<path d="M34.64 11.7974H33.2422V13.1949H34.64V11.7974Z" fill="#C3C3C3"/>
<path d="M38.5501 12.1667H37.8789V12.8317H38.5501V12.1667Z" fill="#C3C3C3"/>
<path d="M38.9258 13.2073V16.0455H40.3483V17.4615H41.7707V14.6233H40.3483V13.2073H41.7707V11.7913H38.9258V13.2073Z" fill="#C3C3C3"/>
<path d="M43.1859 11.7913H41.7695V13.2011H43.1859V11.7913Z" fill="#C3C3C3"/>
<path d="M31.8053 13.2073H30.3828V14.6233H31.8053V13.2073Z" fill="#C3C3C3"/>
<path d="M37.386 13.3242H36.1914V14.5124H37.386V13.3242Z" fill="#C3C3C3"/>
<path d="M38.9073 13.2256H37.5156V14.6108H38.9073V13.2256Z" fill="#C3C3C3"/>
<path d="M41.4933 13.4841H40.625V14.3522H41.4933V13.4841Z" fill="#C3C3C3"/>
<path d="M42.7635 13.6382H42.2031V14.1923H42.7635V13.6382Z" fill="#C3C3C3"/>
<path d="M46.0245 13.2256H44.6328V14.6108H46.0245V13.2256Z" fill="#C3C3C3"/>
<path d="M31.7576 14.6787H30.4336V15.9962H31.7576V14.6787Z" fill="#C3C3C3"/>
<path d="M32.7312 15.1279H32.3125V15.5466H32.7312V15.1279Z" fill="#C3C3C3"/>
<path d="M36.0748 14.6233V11.7913H34.6523V16.0455H36.0748V14.6233Z" fill="#C3C3C3"/>
<path d="M37.477 14.6477H36.0977V16.0206H37.477V14.6477Z" fill="#C3C3C3"/>
<path d="M38.8208 14.7278H37.6016V15.9468H38.8208V14.7278Z" fill="#C3C3C3"/>
<path d="M44.6139 14.6233H43.1914V16.0393H44.6139V14.6233Z" fill="#C3C3C3"/>
<path d="M31.42 16.4333H30.7734V17.0798H31.42V16.4333Z" fill="#C3C3C3"/>
<path d="M33.2159 16.0637H31.8242V17.449H33.2159V16.0637Z" fill="#C3C3C3"/>
<path d="M33.2311 17.4614H31.8086V20.2996H36.076V18.8836H34.6536V16.0454H33.2311V17.4614Z" fill="#C3C3C3"/>
<path d="M35.9496 16.1685H34.7734V17.3444H35.9496V16.1685Z" fill="#C3C3C3"/>
<path d="M38.6417 16.3225H37.7734V17.1906H38.6417V16.3225Z" fill="#C3C3C3"/>
<path d="M40.3034 16.0823H38.9609V17.4244H40.3034V16.0823Z" fill="#C3C3C3"/>
<path d="M42.9022 16.3347H42.0586V17.172H42.9022V16.3347Z" fill="#C3C3C3"/>
<path d="M44.5471 16.1069H43.2539V17.3998H44.5471V16.1069Z" fill="#C3C3C3"/>
<path d="M35.402 18.1387H35.3281V18.2126H35.402V18.1387Z" fill="#C3C3C3"/>
<path d="M38.5181 17.8677H37.9023V18.4772H38.5181V17.8677Z" fill="#C3C3C3"/>
<path d="M41.7269 17.5044H40.3906V18.8342H41.7269V17.5044Z" fill="#C3C3C3"/>
<path d="M44.4426 17.6399H43.3711V18.705H44.4426V17.6399Z" fill="#C3C3C3"/>
<path d="M37.4832 18.9021H36.0977V20.2812H37.4832V18.9021Z" fill="#C3C3C3"/>
<path d="M38.7534 19.0559H37.6758V20.1272H38.7534V19.0559Z" fill="#C3C3C3"/>
<path d="M40.3095 18.9204H38.9609V20.2687H40.3095V18.9204Z" fill="#C3C3C3"/>
<path d="M40.3477 18.8836V20.2996H43.1926V17.4614H41.7701V18.8836H40.3477Z" fill="#C3C3C3"/>
<path d="M33.2053 20.3242H31.832V21.691H33.2053V20.3242Z" fill="#C3C3C3"/>
<path d="M38.5052 20.7122H37.9141V21.3032H38.5052V20.7122Z" fill="#C3C3C3"/>
<path d="M41.2529 20.823H40.8711V21.1985H41.2529V20.823Z" fill="#C3C3C3"/>
<path d="M43.1617 20.3303H41.8008V21.6848H43.1617V20.3303Z" fill="#C3C3C3"/>
<path d="M44.3258 20.5889H43.4883V21.4262H44.3258V20.5889Z" fill="#C3C3C3"/>
<path d="M33.1968 21.7463H31.8359V23.1008H33.1968V21.7463Z" fill="#C3C3C3"/>
<path d="M43.1201 21.7957H41.8516V23.0578H43.1201V21.7957Z" fill="#C3C3C3"/>
<path d="M44.3561 21.9802H43.457V22.8729H44.3561V21.9802Z" fill="#C3C3C3"/>
<path d="M33.162 23.2056H31.875V24.4923H33.162V23.2056Z" fill="#C3C3C3"/>
<path d="M34.6445 23.1438H33.2344V24.5537H34.6445V23.1438Z" fill="#C3C3C3"/>
<path d="M38.5788 23.4763H37.8398V24.209H38.5788V23.4763Z" fill="#C3C3C3"/>
<path d="M44.4752 23.2793H43.3359V24.4121H44.4752V23.2793Z" fill="#C3C3C3"/>
<path d="M31.5301 24.8369H30.668V25.6927H31.5301V24.8369Z" fill="#C3C3C3"/>
<path d="M33.1423 24.646H31.8984V25.8835H33.1423V24.646Z" fill="#C3C3C3"/>
<path d="M36.9985 25.0586H36.5859V25.4711H36.9985V25.0586Z" fill="#C3C3C3"/>
<path d="M44.5791 24.5908H43.2305V25.9391H44.5791V24.5908Z" fill="#C3C3C3"/>
<path d="M33.2098 25.9944H31.8242V27.3735H33.2098V25.9944Z" fill="#C3C3C3"/>
<path d="M34.6507 25.9758H33.2344V27.3918H34.6507V25.9758Z" fill="#C3C3C3"/>
<path d="M38.9202 25.9758H37.5039V27.3918H38.9202V25.9758Z" fill="#C3C3C3"/>
<path d="M40.3421 25.9758H38.9258V27.3918H40.3421V25.9758Z" fill="#C3C3C3"/>
<path d="M41.764 25.9758H40.3477V27.3918H41.764V25.9758Z" fill="#C3C3C3"/>
<path d="M31.8008 27.3982H30.3906V28.8081H31.8008V27.3982Z" fill="#C3C3C3"/>
<path d="M24.1709 29.3313H23.7891V29.7068H24.1709V29.3313Z" fill="#C3C3C3"/>
<path d="M29.8858 29.3066H29.4609V29.7314H29.8858V29.3066Z" fill="#C3C3C3"/>
<path d="M31.7621 28.8511H30.4258V30.1871H31.7621V28.8511Z" fill="#C3C3C3"/>
<path d="M33.1968 28.8389H31.8359V30.1933H33.1968V28.8389Z" fill="#C3C3C3"/>
<path d="M34.5855 28.8818H33.3047V30.1624H34.5855V28.8818Z" fill="#C3C3C3"/>
<path d="M38.581 29.1465H37.8359V29.8914H38.581V29.1465Z" fill="#C3C3C3"/>
<path d="M41.7595 28.8203H40.3555V30.224H41.7595V28.8203Z" fill="#C3C3C3"/>
<path d="M44.6171 28.808V25.9759H43.1946V23.1377H41.7721V21.7156H33.2311V23.1377H34.6536V24.5538H33.2311V25.9759H34.6536V27.3919H31.8086V28.808H34.6536V30.2301H36.076V23.1377H38.9272V25.9759H41.7721V27.3919H38.9272V30.2301H40.3497V28.808H41.7721V30.2301H44.6171V28.808Z" fill="#C3C3C3"/>
<path d="M52.4801 29.4851H52.4062V29.559H52.4801V29.4851Z" fill="#C3C3C3"/>
<path d="M31.5497 30.4888H30.6445V31.3876H31.5497V30.4888Z" fill="#C3C3C3"/>
<path d="M34.3244 30.5564H33.5547V31.326H34.3244V30.5564Z" fill="#C3C3C3"/>
<path d="M36.0742 30.2302V31.6462H37.5029V33.0684H38.9253V30.2302H36.0742Z" fill="#C3C3C3"/>
<path d="M40.0827 30.4888H39.1836V31.3815H40.0827V30.4888Z" fill="#C3C3C3"/>
<path d="M42.7006 30.7227H42.2695V31.1536H42.7006V30.7227Z" fill="#C3C3C3"/>
<path d="M44.4667 30.3779H43.3398V31.4984H44.4667V30.3779Z" fill="#C3C3C3"/>
<path d="M54.2154 30.5933H53.5195V31.289H54.2154V30.5933Z" fill="#C3C3C3"/>
<path d="M15.9322 31.8677H14.9531V32.8466H15.9322V31.8677Z" fill="#C3C3C3"/>
<path d="M18.6418 32.0032H17.9336V32.7112H18.6418V32.0032Z" fill="#C3C3C3"/>
<path d="M21.2215 32.2681H21.043V32.4466H21.2215V32.2681Z" fill="#C3C3C3"/>
<path d="M24.1164 32.2249H23.8516V32.4834H24.1164V32.2249Z" fill="#C3C3C3"/>
<path d="M27.0208 32.1633H26.6328V32.5512H27.0208V32.1633Z" fill="#C3C3C3"/>
<path d="M32.6515 32.2249H32.3867V32.4834H32.6515V32.2249Z" fill="#C3C3C3"/>
<path d="M35.9945 31.7324H34.7383V32.9822H35.9945V31.7324Z" fill="#C3C3C3"/>
<path d="M37.4838 31.6584H36.0859V33.056H37.4838V31.6584Z" fill="#C3C3C3"/>
<path d="M41.7443 31.6709H40.3711V33.0377H41.7443V31.6709Z" fill="#C3C3C3"/>
<path d="M50.134 31.8247H49.0625V32.8898H50.134V31.8247Z" fill="#C3C3C3"/>
<path d="M52.5773 32.2249H52.3125V32.4834H52.5773V32.2249Z" fill="#C3C3C3"/>
<path d="M55.5879 32.0586H54.9844V32.6619H55.5879V32.0586Z" fill="#C3C3C3"/>
<path d="M58.4462 32.0464H57.8242V32.662H58.4462V32.0464Z" fill="#C3C3C3"/>
<path d="M61.2528 32.0894H60.7109V32.6311H61.2528V32.0894Z" fill="#C3C3C3"/>
<path d="M13.2418 33.136H11.9609V34.4104H13.2418V33.136Z" fill="#C3C3C3"/>
<path d="M25.8044 33.3762H25.0039V34.1704H25.8044V33.3762Z" fill="#C3C3C3"/>
<path d="M37.2951 33.2715H36.2852V34.2812H37.2951V33.2715Z" fill="#C3C3C3"/>
<path d="M38.8253 33.1606H37.5938V34.392H38.8253V33.1606Z" fill="#C3C3C3"/>
<path d="M39.8968 33.5117H39.3672V34.0412H39.8968V33.5117Z" fill="#C3C3C3"/>
<path d="M51.6772 33.1177H50.3594V34.429H51.6772V33.1177Z" fill="#C3C3C3"/>
<path d="M63.0813 33.0991H61.7266V34.4536H63.0813V33.0991Z" fill="#C3C3C3"/>
<path d="M11.866 34.5027H10.4805V35.8818H11.866V34.5027Z" fill="#C3C3C3"/>
<path d="M21.5956 34.7368H20.6719V35.6541H21.5956V34.7368Z" fill="#C3C3C3"/>
<path d="M24.1293 35.0508H23.8398V35.3401H24.1293V35.0508Z" fill="#C3C3C3"/>
<path d="M35.3835 35.1738H35.3398V35.2176H35.3835V35.1738Z" fill="#C3C3C3"/>
<path d="M38.6175 34.7859H37.8047V35.5986H38.6175V34.7859Z" fill="#C3C3C3"/>
<path d="M52.9148 34.7244H51.9727V35.6663H52.9148V34.7244Z" fill="#C3C3C3"/>
<path d="M64.5358 34.4844H63.1133V35.9004H64.5358V34.4844Z" fill="#C3C3C3"/>
<path d="M11.5156 36.2698H10.832V36.9532H11.5156V36.2698Z" fill="#C3C3C3"/>
<path d="M17.4035 36.0789H16.332V37.1439H17.4035V36.0789Z" fill="#C3C3C3"/>
<path d="M55.9641 35.9373H54.6094V37.2917H55.9641V35.9373Z" fill="#C3C3C3"/>
<path d="M57.4163 35.9065H56V37.3164H57.4163V35.9065Z" fill="#C3C3C3"/>
<path d="M58.786 35.9619H57.4805V37.261H58.786V35.9619Z" fill="#C3C3C3"/>
<path d="M59.9242 36.2451H59.1914V36.9716H59.9242V36.2451Z" fill="#C3C3C3"/>
<path d="M65.9531 35.9065H64.543V37.3164H65.9531V35.9065Z" fill="#C3C3C3"/>
<path d="M10.4593 37.3225H9.04297V38.7385H10.4593V37.3225Z" fill="#C3C3C3"/>
<path d="M13.0065 37.6243H12.1875V38.4431H13.0065V37.6243Z" fill="#C3C3C3"/>
<path d="M14.7249 37.3225H13.3086V38.7385H14.7249V37.3225Z" fill="#C3C3C3"/>
<path d="M21.6888 37.4763H20.5742V38.5907H21.6888V37.4763Z" fill="#C3C3C3"/>
<path d="M35.8025 37.5935H34.9219V38.4739H35.8025V37.5935Z" fill="#C3C3C3"/>
<path d="M37.3383 37.4827H36.2422V38.5724H37.3383V37.4827Z" fill="#C3C3C3"/>
<path d="M38.7057 37.5442H37.7266V38.5169H38.7057V37.5442Z" fill="#C3C3C3"/>
<path d="M41.2422 37.8521H40.8789V38.2153H41.2422V37.8521Z" fill="#C3C3C3"/>
<path d="M54.4732 37.4211H53.2539V38.6401H54.4732V37.4211Z" fill="#C3C3C3"/>
<path d="M66.8403 37.8643H66.5078V38.1967H66.8403V37.8643Z" fill="#C3C3C3"/>
<path d="M10.4447 38.7507H9.04688V40.1483H10.4447V38.7507Z" fill="#C3C3C3"/>
<path d="M18.9664 38.7693H17.6055V40.1237H18.9664V38.7693Z" fill="#C3C3C3"/>
<path d="M20.4141 38.7446H19.0039V40.1545H20.4141V38.7446Z" fill="#C3C3C3"/>
<path d="M21.6411 38.9417H20.625V39.9513H21.6411V38.9417Z" fill="#C3C3C3"/>
<path d="M37.1653 39.071H36.4141V39.8221H37.1653V39.071Z" fill="#C3C3C3"/>
<path d="M54.4732 38.8372H53.2539V40.0562H54.4732V38.8372Z" fill="#C3C3C3"/>
<path d="M55.9899 38.7507H54.5859V40.1544H55.9899V38.7507Z" fill="#C3C3C3"/>
<path d="M57.4118 38.7507H56.0078V40.1544H57.4118V38.7507Z" fill="#C3C3C3"/>
<path d="M60.2681 40.1607V41.5767H63.113V42.9927H64.5355V44.4149H65.9642V45.8309H67.3866V40.1607H65.9642V37.3225H54.5781V38.7385H57.4231V40.1607H60.2681Z" fill="#C3C3C3"/>
<path d="M67.275 38.8494H66.0742V40.0437H67.275V38.8494Z" fill="#C3C3C3"/>
<path d="M10.4593 40.1606H9.04297V41.5767H10.4593V40.1606Z" fill="#C3C3C3"/>
<path d="M11.8728 40.1667H10.4688V41.5704H11.8728V40.1667Z" fill="#C3C3C3"/>
<path d="M14.7317 41.5768V40.1607H17.5767V38.7386H20.4216V35.9004H17.5767V37.3226H14.7317V38.7386H11.8867V41.5768H14.7317Z" fill="#C3C3C3"/>
<path d="M16.0968 40.2161H14.7852V41.5213H16.0968V40.2161Z" fill="#C3C3C3"/>
<path d="M18.9984 40.1606H17.582V41.5767H18.9984V40.1606Z" fill="#C3C3C3"/>
<path d="M21.3894 40.6226H20.8906V41.1151H21.3894V40.6226Z" fill="#C3C3C3"/>
<path d="M54.5467 40.1853H53.1797V41.5459H54.5467V40.1853Z" fill="#C3C3C3"/>
<path d="M58.3294 40.678H57.9414V41.0597H58.3294V40.678Z" fill="#C3C3C3"/>
<path d="M9.03351 41.5767H7.61719V42.9927H9.03351V41.5767Z" fill="#C3C3C3"/>
<path d="M13.0672 41.8169H12.125V42.7589H13.0672V41.8169Z" fill="#C3C3C3"/>
<path d="M21.6753 41.749H20.5977V42.8203H21.6753V41.749Z" fill="#C3C3C3"/>
<path d="M37.4916 41.5891H36.0938V42.9805H37.4916V41.5891Z" fill="#C3C3C3"/>
<path d="M53.0749 41.6567H51.8125V42.9127H53.0749V41.6567Z" fill="#C3C3C3"/>
<path d="M58.5372 41.8845H57.7305V42.6849H58.5372V41.8845Z" fill="#C3C3C3"/>
<path d="M59.9916 41.8477H59.1172V42.7219H59.9916V41.8477Z" fill="#C3C3C3"/>
<path d="M10.4622 44.4148V42.9927H11.8846V41.5767H9.03967V42.9927H7.61719V44.4148H10.4622Z" fill="#C3C3C3"/>
<path d="M11.8812 42.9988H10.4648V44.4086H11.8812V42.9988Z" fill="#C3C3C3"/>
<path d="M33.2288 42.9988H31.8125V44.4086H33.2288V42.9988Z" fill="#C3C3C3"/>
<path d="M43.1859 42.9988H41.7695V44.4086H43.1859V42.9988Z" fill="#C3C3C3"/>
<path d="M44.1854 43.4236H43.625V43.9777H44.1854V43.4236Z" fill="#C3C3C3"/>
<path d="M49.8245 43.479H49.375V43.9223H49.8245V43.479Z" fill="#C3C3C3"/>
<path d="M56.0017 44.4148H57.4242V40.1606H54.5792V41.5767H53.1567V42.9927H51.7342V44.4148H41.7707V42.9927H40.3482V44.4148H38.9257V41.5767H37.5032V42.9927H33.2296V44.4148H26.1172V45.8309H34.6521V44.4148H36.0746V45.8309H34.6521V47.253H36.0746V48.669H38.9257V47.253H40.3482V45.8309H54.5792V44.4148H56.0017Z" fill="#C3C3C3"/>
<path d="M58.7534 43.085H57.5156V44.3224H58.7534V43.085Z" fill="#C3C3C3"/>
<path d="M61.3764 43.3066H60.582V44.0947H61.3764V43.3066Z" fill="#C3C3C3"/>
<path d="M64.5245 43.0112H63.1328V44.3965H64.5245V43.0112Z" fill="#C3C3C3"/>
<path d="M8.96835 44.4827H7.6875V45.7632H8.96835V44.4827Z" fill="#C3C3C3"/>
<path d="M10.4531 44.4211H9.04297V45.831H10.4531V44.4211Z" fill="#C3C3C3"/>
<path d="M18.9877 44.4272H17.5898V45.8186H18.9877V44.4272Z" fill="#C3C3C3"/>
<path d="M24.6836 44.4211H23.2734V45.831H24.6836V44.4211Z" fill="#C3C3C3"/>
<path d="M26.06 44.4641H24.7422V45.7755H26.06V44.4641Z" fill="#C3C3C3"/>
<path d="M36.0726 44.4148H34.6562V45.8247H36.0726V44.4148Z" fill="#C3C3C3"/>
<path d="M55.9945 44.4148H54.5781V45.8247H55.9945V44.4148Z" fill="#C3C3C3"/>
<path d="M57.4051 44.4333H56.0195V45.8124H57.4051V44.4333Z" fill="#C3C3C3"/>
<path d="M60.1662 44.5195H58.9531V45.7262H60.1662V44.5195Z" fill="#C3C3C3"/>
<path d="M65.9115 44.4641H64.5938V45.7755H65.9115V44.4641Z" fill="#C3C3C3"/>
<path d="M13.1491 45.991H12.0469V47.0868H13.1491V45.991Z" fill="#C3C3C3"/>
<path d="M18.9984 45.8372H17.582V47.247H18.9984V45.8372Z" fill="#C3C3C3"/>
<path d="M21.714 45.9663H20.5625V47.1114H21.714V45.9663Z" fill="#C3C3C3"/>
<path d="M24.054 46.4651H23.9062V46.6128H24.054V46.4651Z" fill="#C3C3C3"/>
<path d="M26.9988 46.3728H26.6602V46.7114H26.9988V46.3728Z" fill="#C3C3C3"/>
<path d="M29.9836 46.2249H29.3555V46.8528H29.9836V46.2249Z" fill="#C3C3C3"/>
<path d="M41.4135 46.188H40.6992V46.9022H41.4135V46.188Z" fill="#C3C3C3"/>
<path d="M44.086 46.3604H43.7227V46.7236H44.086V46.3604Z" fill="#C3C3C3"/>
<path d="M47.0549 46.2373H46.4453V46.8406H47.0549V46.2373Z" fill="#C3C3C3"/>
<path d="M52.6593 46.3296H52.2344V46.7544H52.6593V46.3296Z" fill="#C3C3C3"/>
<path d="M61.5859 45.9417H60.3789V47.1422H61.5859V45.9417Z" fill="#C3C3C3"/>
<path d="M64.0253 46.3418H63.625V46.742H64.0253V46.3418Z" fill="#C3C3C3"/>
<path d="M67.3812 45.8372H65.9648V47.247H67.3812V45.8372Z" fill="#C3C3C3"/>
<path d="M8.93802 47.3516H7.71875V48.5644H8.93802V47.3516Z" fill="#C3C3C3"/>
<path d="M13.0543 47.5056H12.1367V48.4168H13.0543V47.5056Z" fill="#C3C3C3"/>
<path d="M14.6833 47.3022H13.3594V48.6198H14.6833V47.3022Z" fill="#C3C3C3"/>
<path d="M31.4004 47.6594H30.7969V48.2628H31.4004V47.6594Z" fill="#C3C3C3"/>
<path d="M33.1491 47.333H31.8867V48.589H33.1491V47.333Z" fill="#C3C3C3"/>
<path d="M34.4412 47.4563H33.4375V48.4598H34.4412V47.4563Z" fill="#C3C3C3"/>
<path d="M41.4674 47.5486H40.6484V48.3674H41.4674V47.5486Z" fill="#C3C3C3"/>
<path d="M43.151 47.29H41.8086V48.6322H43.151V47.29Z" fill="#C3C3C3"/>
<path d="M54.5742 47.2532H53.1641V48.663H54.5742V47.2532Z" fill="#C3C3C3"/>
<path d="M63.0836 47.2839H61.7227V48.6384H63.0836V47.2839Z" fill="#C3C3C3"/>
<path d="M64.3212 47.4685H63.3359V48.4474H64.3212V47.4685Z" fill="#C3C3C3"/>
<path d="M67.2279 47.4009H66.1133V48.5152H67.2279V47.4009Z" fill="#C3C3C3"/>
<path d="M7.40834 48.8723H6.39844V49.882H7.40834V48.8723Z" fill="#C3C3C3"/>
<path d="M10.3582 48.7676H9.13281V49.9927H10.3582V48.7676Z" fill="#C3C3C3"/>
<path d="M11.8683 48.6875H10.4766V50.0727H11.8683V48.6875Z" fill="#C3C3C3"/>
<path d="M12.9571 49.0139H12.2305V49.7342H12.9571V49.0139Z" fill="#C3C3C3"/>
<path d="M24.6314 48.7307H23.332V50.0236H24.6314V48.7307Z" fill="#C3C3C3"/>
<path d="M26.0358 48.749H24.7734V50.005H26.0358V48.749Z" fill="#C3C3C3"/>
<path d="M27.3622 48.8477H26.2969V49.9127H27.3622V48.8477Z" fill="#C3C3C3"/>
<path d="M30.1369 48.9153H29.207V49.8449H30.1369V48.9153Z" fill="#C3C3C3"/>
<path d="M38.8467 48.749H37.5781V50.0111H38.8467V48.749Z" fill="#C3C3C3"/>
<path d="M44.2348 49.0508H43.582V49.7034H44.2348V49.0508Z" fill="#C3C3C3"/>
<path d="M47.4031 48.7246H46.0977V50.0236H47.4031V48.7246Z" fill="#C3C3C3"/>
<path d="M48.7234 48.8291H47.6211V49.9311H48.7234V48.8291Z" fill="#C3C3C3"/>
<path d="M50.1901 48.7861H49.0078V49.9682H50.1901V48.7861Z" fill="#C3C3C3"/>
<path d="M53.14 48.6814H51.7422V50.0789H53.14V48.6814Z" fill="#C3C3C3"/>
<path d="M65.9335 48.6938H64.5664V50.0545H65.9335V48.6938Z" fill="#C3C3C3"/>
<path d="M66.9442 49.1062H66.4023V49.648H66.9442V49.1062Z" fill="#C3C3C3"/>
<path d="M68.7901 48.6875H67.3984V50.0727H68.7901V48.6875Z" fill="#C3C3C3"/>
<path d="M7.519 50.1775H6.28125V51.415H7.519V50.1775Z" fill="#C3C3C3"/>
<path d="M10.4655 50.0852H9.04297V51.5012H10.4655V50.0852Z" fill="#C3C3C3"/>
<path d="M11.583 50.3867H10.7578V51.2117H11.583V50.3867Z" fill="#C3C3C3"/>
<path d="M13.2637 50.1343H11.9336V51.4579H13.2637V50.1343Z" fill="#C3C3C3"/>
<path d="M23.255 50.1035H21.8633V51.4887H23.255V50.1035Z" fill="#C3C3C3"/>
<path d="M24.6898 50.0913H23.2734V51.5012H24.6898V50.0913Z" fill="#C3C3C3"/>
<path d="M26.0987 50.1035H24.707V51.4887H26.0987V50.1035Z" fill="#C3C3C3"/>
<path d="M27.5223 50.1099H26.1367V51.4889H27.5223V50.1099Z" fill="#C3C3C3"/>
<path d="M30.384 50.0852H27.5391V52.9234H30.384V50.0852Z" fill="#C3C3C3"/>
<path d="M31.7963 50.1035H30.3984V51.4949H31.7963V50.1035Z" fill="#C3C3C3"/>
<path d="M37.317 50.2698H36.2578V51.3287H37.317V50.2698Z" fill="#C3C3C3"/>
<path d="M40.0152 50.4175H39.2578V51.1747H40.0152V50.4175Z" fill="#C3C3C3"/>
<path d="M43.0623 50.2144H41.8984V51.3779H43.0623V50.2144Z" fill="#C3C3C3"/>
<path d="M51.7288 50.0913H50.3125V51.5012H51.7288V50.0913Z" fill="#C3C3C3"/>
<path d="M53.1445 50.0913H51.7344V51.5012H53.1445V50.0913Z" fill="#C3C3C3"/>
<path d="M64.4077 50.2205H63.25V51.3717H64.4077V50.2205Z" fill="#C3C3C3"/>
<path d="M65.9161 50.1343H64.5859V51.4579H65.9161V50.1343Z" fill="#C3C3C3"/>
<path d="M67.3267 50.1467H66.0273V51.4458H67.3267V50.1467Z" fill="#C3C3C3"/>
<path d="M6.11003 51.5874H4.84766V52.8433H6.11003V51.5874Z" fill="#C3C3C3"/>
<path d="M7.30894 51.8088H6.49609V52.6215H7.30894V51.8088Z" fill="#C3C3C3"/>
<path d="M10.014 51.9507H9.48438V52.4802H10.014V51.9507Z" fill="#C3C3C3"/>
<path d="M18.9971 52.9232H20.4195V51.5072H21.8482V47.253H20.4195V45.8309H23.2707V44.4148H21.8482V42.9927H20.4195V40.1606H18.9971V41.5767H17.5746V44.4148H18.9971V47.253H17.5746V44.4148H16.1521V45.8309H14.7296V48.669H13.3071V51.5072H11.8846V55.7614H7.61719V57.1774H10.4622V58.5996H11.8846V57.1774H13.3071V54.3454H14.7296V52.9232H18.9971Z" fill="#C3C3C3"/>
<path d="M21.8421 51.5073H20.4258V52.9233H21.8421V51.5073Z" fill="#C3C3C3"/>
<path d="M23.2179 51.5627H21.9062V52.8679H23.2179V51.5627Z" fill="#C3C3C3"/>
<path d="M24.651 51.5442H23.3086V52.8863H24.651V51.5442Z" fill="#C3C3C3"/>
<path d="M26.1178 51.5073H24.6953V52.9233H26.1178V51.5073Z" fill="#C3C3C3"/>
<path d="M27.5335 51.5073H26.1172V52.9233H27.5335V51.5073Z" fill="#C3C3C3"/>
<path d="M31.8008 51.5134H30.3906V52.9233H31.8008V51.5134Z" fill="#C3C3C3"/>
<path d="M48.8812 51.5073H47.4648V52.9233H48.8812V51.5073Z" fill="#C3C3C3"/>
<path d="M51.7288 51.5073H50.3125V52.9233H51.7288V51.5073Z" fill="#C3C3C3"/>
<path d="M53.1007 51.5627H51.7891V52.8679H53.1007V51.5627Z" fill="#C3C3C3"/>
<path d="M64.5313 51.5134H63.1211V52.9233H64.5313V51.5134Z" fill="#C3C3C3"/>
<path d="M67.3812 51.5073H65.9648V52.9233H67.3812V51.5073Z" fill="#C3C3C3"/>
<path d="M7.45158 53.0896H6.35547V54.1793H7.45158V53.0896Z" fill="#C3C3C3"/>
<path d="M8.62857 53.3357H8.03125V53.9329H8.62857V53.3357Z" fill="#C3C3C3"/>
<path d="M11.8486 52.9602H10.5V54.3085H11.8486V52.9602Z" fill="#C3C3C3"/>
<path d="M16.1484 52.9294H14.7383V54.3393H16.1484V52.9294Z" fill="#C3C3C3"/>
<path d="M17.5765 52.9294H16.1602V54.3455H17.5765V52.9294Z" fill="#C3C3C3"/>
<path d="M18.9854 52.9417H17.5938V54.3269H18.9854V52.9417Z" fill="#C3C3C3"/>
<path d="M20.4157 52.9294H19.0117V54.3331H20.4157V52.9294Z" fill="#C3C3C3"/>
<path d="M21.7685 53.0034H20.5V54.2655H21.7685V53.0034Z" fill="#C3C3C3"/>
<path d="M23.264 52.9294H21.8477V54.3455H23.264V52.9294Z" fill="#C3C3C3"/>
<path d="M24.6959 52.9233H23.2734V54.3394H24.6959V52.9233Z" fill="#C3C3C3"/>
<path d="M26.0684 52.9727H24.7383V54.2963H26.0684V52.9727Z" fill="#C3C3C3"/>
<path d="M27.4144 53.0464H26.2383V54.2223H27.4144V53.0464Z" fill="#C3C3C3"/>
<path d="M28.9183 52.9663H27.582V54.2961H28.9183V52.9663Z" fill="#C3C3C3"/>
<path d="M30.3486 52.9602H29V54.3085H30.3486V52.9602Z" fill="#C3C3C3"/>
<path d="M31.8053 54.3456V55.7616H33.2278V54.3456H34.6503V55.7616H43.1913V54.3456H44.6138V52.9234H47.4588V51.5074H48.8813V52.9234H50.3038V50.0852H43.1913V51.5074H31.8053V52.9234H30.3828V54.3456H31.8053Z" fill="#C3C3C3"/>
<path d="M46.0183 52.9417H44.6328V54.3207H46.0183V52.9417Z" fill="#C3C3C3"/>
<path d="M47.4031 52.9849H46.0977V54.2839H47.4031V52.9849Z" fill="#C3C3C3"/>
<path d="M48.6256 53.188H47.7266V54.0807H48.6256V53.188Z" fill="#C3C3C3"/>
<path d="M50.2924 52.9355H48.8945V54.3331H50.2924V52.9355Z" fill="#C3C3C3"/>
<path d="M51.7272 52.9233H50.3047V54.3394H51.7272V52.9233Z" fill="#C3C3C3"/>
<path d="M53.14 52.9355H51.7422V54.3331H53.14V52.9355Z" fill="#C3C3C3"/>
<path d="M54.5097 52.991H53.2227V54.2777H54.5097V52.991Z" fill="#C3C3C3"/>
<path d="M55.9832 52.9417H54.5977V54.3207H55.9832V52.9417Z" fill="#C3C3C3"/>
<path d="M57.4112 52.9417H56.0195V54.3269H57.4112V52.9417Z" fill="#C3C3C3"/>
<path d="M58.8337 52.9294H57.4297V54.3331H58.8337V52.9294Z" fill="#C3C3C3"/>
<path d="M10.4509 54.3516H9.04688V55.7553H10.4509V54.3516Z" fill="#C3C3C3"/>
<path d="M14.7137 54.364H13.3281V55.7431H14.7137V54.364Z" fill="#C3C3C3"/>
<path d="M16.14 54.3516H14.7422V55.7491H16.14V54.3516Z" fill="#C3C3C3"/>
<path d="M20.4225 54.3455H19V55.7615H21.8511V54.3455H20.4225Z" fill="#C3C3C3"/>
<path d="M24.6207 54.4131H23.3398V55.6875H24.6207V54.4131Z" fill="#C3C3C3"/>
<path d="M26.1032 54.3516H24.6992V55.7553H26.1032V54.3516Z" fill="#C3C3C3"/>
<path d="M27.4729 54.407H26.1797V55.6999H27.4729V54.407Z" fill="#C3C3C3"/>
<path d="M28.9509 54.3516H27.5469V55.7553H28.9509V54.3516Z" fill="#C3C3C3"/>
<path d="M44.419 54.5425H43.3906V55.5645H44.419V54.5425Z" fill="#C3C3C3"/>
<path d="M47.4402 54.364H46.0547V55.7431H47.4402V54.364Z" fill="#C3C3C3"/>
<path d="M50.3069 54.3455H48.8906V55.7553H50.3069V54.3455Z" fill="#C3C3C3"/>
<path d="M53.0687 54.4255H51.8125V55.6753H53.0687V54.4255Z" fill="#C3C3C3"/>
<path d="M56.0012 54.3455H53.1562V55.7615H56.0012V54.3455Z" fill="#C3C3C3"/>
<path d="M58.3771 54.8071H57.8906V55.2935H58.3771V54.8071Z" fill="#C3C3C3"/>
<path d="M60.2505 54.364H58.8711V55.7369H60.2505V54.364Z" fill="#C3C3C3"/>
<path d="M61.6617 54.3762H60.3008V55.7307H61.6617V54.3762Z" fill="#C3C3C3"/>
<path d="M6.18811 55.7615H7.61675V54.3455H6.18811V52.9233H4.76562V60.0157H6.18811V58.5997H7.61675V57.1775H6.18811V55.7615Z" fill="#C3C3C3"/>
<path d="M7.60548 55.7676H6.19531V57.1774H7.60548V55.7676Z" fill="#C3C3C3"/>
<path d="M14.5149 55.9771H13.5234V56.9683H14.5149V55.9771Z" fill="#C3C3C3"/>
<path d="M16.1417 55.78H14.75V57.1653H16.1417V55.78Z" fill="#C3C3C3"/>
<path d="M20.204 55.9771H19.2188V56.9621H20.204V55.9771Z" fill="#C3C3C3"/>
<path d="M21.6691 55.9338H20.5977V56.9989H21.6691V55.9338Z" fill="#C3C3C3"/>
<path d="M24.6926 55.7615H21.8477V57.1775H24.6926V55.7615Z" fill="#C3C3C3"/>
<path d="M26.0122 55.8662H24.793V57.0791H26.0122V55.8662Z" fill="#C3C3C3"/>
<path d="M27.4599 55.8416H26.1914V57.1037H27.4599V55.8416Z" fill="#C3C3C3"/>
<path d="M28.9357 55.7861H27.5625V57.1529H28.9357V55.7861Z" fill="#C3C3C3"/>
<path d="M34.1964 56.217H33.6914V56.7219H34.1964V56.217Z" fill="#C3C3C3"/>
<path d="M37.4057 55.8538H36.168V57.0912H37.4057V55.8538Z" fill="#C3C3C3"/>
<path d="M38.9073 55.78H37.5156V57.1653H38.9073V55.78Z" fill="#C3C3C3"/>
<path d="M39.9658 56.137H39.3008V56.8019H39.9658V56.137Z" fill="#C3C3C3"/>
<path d="M45.6505 56.1494H45.0039V56.7959H45.6505V56.1494Z" fill="#C3C3C3"/>
<path d="M47.3667 55.8538H46.1289V57.0912H47.3667V55.8538Z" fill="#C3C3C3"/>
<path d="M48.8834 55.7615H47.4609V57.1775H48.8834V55.7615Z" fill="#C3C3C3"/>
<path d="M50.3002 55.7737H48.9023V57.1651H50.3002V55.7737Z" fill="#C3C3C3"/>
<path d="M50.3053 55.7615V57.1775H48.8828V58.5997H51.7339V57.1775H53.1564V55.7615H50.3053Z" fill="#C3C3C3"/>
<path d="M55.9574 55.8047H54.6211V57.1345H55.9574V55.8047Z" fill="#C3C3C3"/>
<path d="M60.1404 55.8909H58.9766V57.0545H60.1404V55.8909Z" fill="#C3C3C3"/>
<path d="M61.5881 55.8662H60.375V57.0729H61.5881V55.8662Z" fill="#C3C3C3"/>
<path d="M61.6912 57.1774H63.1136V58.5996H65.9648V57.1774H67.3873V58.5996H68.8097V61.4377H70.2322V51.5072H68.8097V50.085H67.3873V52.9232H65.9648V51.5072H64.5361V52.9232H63.1136V50.085H64.5361V48.669H61.6912V47.253H60.2687V45.8308H58.8462V44.4148H57.4237V45.8308H54.5787V48.669H53.1562V52.9232H58.8462V54.3454H61.6912V57.1774Z" fill="#C3C3C3"/>
<path d="M8.9667 57.2451H7.67969V58.5318H8.9667V57.2451Z" fill="#C3C3C3"/>
<path d="M10.4531 57.1836H9.04297V58.5935H10.4531V57.1836Z" fill="#C3C3C3"/>
<path d="M13.0801 57.4053H12.1133V58.3657H13.0801V57.4053Z" fill="#C3C3C3"/>
<path d="M15.7177 57.6208H15.1758V58.1626H15.7177V57.6208Z" fill="#C3C3C3"/>
<path d="M21.6276 57.3992H20.6484V58.3719H21.6276V57.3992Z" fill="#C3C3C3"/>
<path d="M23.2466 57.2021H21.8672V58.5751H23.2466V57.2021Z" fill="#C3C3C3"/>
<path d="M24.683 57.196H23.2852V58.5874H24.683V57.196Z" fill="#C3C3C3"/>
<path d="M26.1116 57.1836H24.6953V58.5935H26.1116V57.1836Z" fill="#C3C3C3"/>
<path d="M27.5032 57.2144H26.1484V58.5688H27.5032V57.2144Z" fill="#C3C3C3"/>
<path d="M28.9296 57.2083H27.5625V58.5689H28.9296V57.2083Z" fill="#C3C3C3"/>
<path d="M32.92 57.4854H32.1133V58.2919H32.92V57.4854Z" fill="#C3C3C3"/>
<path d="M36.0394 57.2268H34.7031V58.5566H36.0394V57.2268Z" fill="#C3C3C3"/>
<path d="M37.4838 57.1897H36.0859V58.5872H37.4838V57.1897Z" fill="#C3C3C3"/>
<path d="M38.8208 57.2822H37.6016V58.5012H38.8208V57.2822Z" fill="#C3C3C3"/>
<path d="M40.3421 57.1836H38.9258V58.5935H40.3421V57.1836Z" fill="#C3C3C3"/>
<path d="M41.7382 57.2083H40.3711V58.5689H41.7382V57.2083Z" fill="#C3C3C3"/>
<path d="M44.4364 57.356H43.3711V58.421H44.4364V57.356Z" fill="#C3C3C3"/>
<path d="M47.4486 57.196H46.0508V58.5874H47.4486V57.196Z" fill="#C3C3C3"/>
<path d="M48.8508 57.2144H47.4961V58.5688H48.8508V57.2144Z" fill="#C3C3C3"/>
<path d="M53.103 57.2329H51.7852V58.5443H53.103V57.2329Z" fill="#C3C3C3"/>
<path d="M54.5181 57.239H53.2188V58.538H54.5181V57.239Z" fill="#C3C3C3"/>
<path d="M55.4581 57.7192H55.1133V58.064H55.4581V57.7192Z" fill="#C3C3C3"/>
<path d="M61.6488 57.2207H60.3125V58.5567H61.6488V57.2207Z" fill="#C3C3C3"/>
<path d="M67.3638 57.2021H65.9844V58.5751H67.3638V57.2021Z" fill="#C3C3C3"/>
<path d="M7.58356 58.6304H6.22266V59.9848H7.58356V58.6304Z" fill="#C3C3C3"/>
<path d="M9.02901 58.6057H7.625V60.0094H9.02901V58.6057Z" fill="#C3C3C3"/>
<path d="M10.4189 58.6367H9.07031V59.985H10.4189V58.6367Z" fill="#C3C3C3"/>
<path d="M11.5414 58.9443H10.8086V59.6708H11.5414V58.9443Z" fill="#C3C3C3"/>
<path d="M14.6249 58.7043H13.418V59.9049H14.6249V58.7043Z" fill="#C3C3C3"/>
<path d="M23.2359 58.6304H21.875V59.9848H23.2359V58.6304Z" fill="#C3C3C3"/>
<path d="M24.6252 58.6611H23.332V59.954H24.6252V58.6611Z" fill="#C3C3C3"/>
<path d="M25.8264 58.8828H24.9766V59.7263H25.8264V58.8828Z" fill="#C3C3C3"/>
<path d="M47.46 60.0157V58.5997H46.0375V57.1775H44.615V58.5997H30.384V57.1775H28.9615V58.5997H27.5391V60.0157H28.9615V61.4378H33.229V62.8539H41.7701V61.4378H46.0375V60.0157H47.46Z" fill="#C3C3C3"/>
<path d="M48.6717 58.8091H47.668V59.8126H48.6717V58.8091Z" fill="#C3C3C3"/>
<path d="M51.5733 58.7537H50.4648V59.8618H51.5733V58.7537Z" fill="#C3C3C3"/>
<path d="M53.1462 58.6057H51.7422V60.0094H53.1462V58.6057Z" fill="#C3C3C3"/>
<path d="M54.5226 58.655H53.2109V59.9602H54.5226V58.655Z" fill="#C3C3C3"/>
<path d="M61.5865 58.6982H60.3672V59.9172H61.5865V58.6982Z" fill="#C3C3C3"/>
<path d="M65.9525 58.6121H64.5547V60.0034H65.9525V58.6121Z" fill="#C3C3C3"/>
<path d="M65.9648 60.0156V62.8538H67.3873V58.5996H65.9648V60.0156Z" fill="#C3C3C3"/>
<path d="M68.7924 58.6121H67.3945V60.0096H68.7924V58.6121Z" fill="#C3C3C3"/>
<path d="M7.52741 60.1018H6.27734V61.3454H7.52741V60.1018Z" fill="#C3C3C3"/>
<path d="M9.03967 60.0156H7.61719V61.4316H9.03967V60.0156Z" fill="#C3C3C3"/>
<path d="M24.6836 60.0217H23.2734V61.4316H24.6836V60.0217Z" fill="#C3C3C3"/>
<path d="M26.0442 60.0896H24.7695V61.3579H26.0442V60.0896Z" fill="#C3C3C3"/>
<path d="M27.4964 60.0588H26.1602V61.3948H27.4964V60.0588Z" fill="#C3C3C3"/>
<path d="M28.9509 60.0217H27.5469V61.4254H28.9509V60.0217Z" fill="#C3C3C3"/>
<path d="M47.4228 60.0527H46.0742V61.401H47.4228V60.0527Z" fill="#C3C3C3"/>
<path d="M48.8722 60.0342H47.4805V61.4194H48.8722V60.0342Z" fill="#C3C3C3"/>
<path d="M50.275 60.0464H48.9141V61.4008H50.275V60.0464Z" fill="#C3C3C3"/>
<path d="M53.0642 60.1079H51.8203V61.3454H53.0642V60.1079Z" fill="#C3C3C3"/>
<path d="M7.61389 61.4377H6.19141V62.8538H7.61389V61.4377Z" fill="#C3C3C3"/>
<path d="M8.96835 61.5056H7.6875V62.7862H8.96835V61.5056Z" fill="#C3C3C3"/>
<path d="M24.6684 61.4563H23.2891V62.8292H24.6684V61.4563Z" fill="#C3C3C3"/>
<path d="M26.1116 61.4377H24.6953V62.8476H26.1116V61.4377Z" fill="#C3C3C3"/>
<path d="M27.4144 61.5549H26.2383V62.7308H27.4144V61.5549Z" fill="#C3C3C3"/>
<path d="M28.957 61.4377H27.5469V62.8476H28.957V61.4377Z" fill="#C3C3C3"/>
<path d="M30.3705 61.4441H28.9727V62.8416H30.3705V61.4441Z" fill="#C3C3C3"/>
<path d="M31.6149 61.6226H30.5742V62.663H31.6149V61.6226Z" fill="#C3C3C3"/>
<path d="M33.2243 61.4441H31.8203V62.8478H33.2243V61.4441Z" fill="#C3C3C3"/>
<path d="M43.1859 61.4377H41.7695V62.8476H43.1859V61.4377Z" fill="#C3C3C3"/>
<path d="M44.4106 61.6411H43.3945V62.6508H44.4106V61.6411Z" fill="#C3C3C3"/>
<path d="M46.0251 61.4441H44.6211V62.8478H46.0251V61.4441Z" fill="#C3C3C3"/>
<path d="M47.4616 61.4377H46.0391V62.8538H47.4616V61.4377Z" fill="#C3C3C3"/>
<path d="M48.8289 61.4932H47.5234V62.7922H48.8289V61.4932Z" fill="#C3C3C3"/>
<path d="M50.2811 61.4624H48.9141V62.823H50.2811V61.4624Z" fill="#C3C3C3"/>
<path d="M51.6772 61.4871H50.3594V62.7984H51.6772V61.4871Z" fill="#C3C3C3"/>
<path d="M68.7963 61.4502H67.3984V62.8416H68.7963V61.4502Z" fill="#C3C3C3"/>
<path d="M7.49032 62.9771H6.32031V64.1468H7.49032V62.9771Z" fill="#C3C3C3"/>
<path d="M10.2863 63.0264H9.21484V64.0915H10.2863V63.0264Z" fill="#C3C3C3"/>
<path d="M24.6224 62.9277H23.3477V64.196H24.6224V62.9277Z" fill="#C3C3C3"/>
<path d="M28.9503 62.8723H27.5586V64.2575H28.9503V62.8723Z" fill="#C3C3C3"/>
<path d="M30.3773 62.8538H28.9609V64.2698H30.3773V62.8538Z" fill="#C3C3C3"/>
<path d="M38.5007 63.2725H37.9219V63.8512H38.5007V63.2725Z" fill="#C3C3C3"/>
<path d="M47.4548 62.8601H46.0508V64.2638H47.4548V62.8601Z" fill="#C3C3C3"/>
<path d="M64.0078 63.3833H63.6445V63.7465H64.0078V63.3833Z" fill="#C3C3C3"/>
<path d="M67.3812 62.8538H65.9648V64.2698H67.3812V62.8538Z" fill="#C3C3C3"/>
<path d="M68.7985 62.8601H67.3945V64.2638H68.7985V62.8601Z" fill="#C3C3C3"/>
<path d="M69.8587 63.2295H69.1875V63.8944H69.8587V63.2295Z" fill="#C3C3C3"/>
<path d="M72.6205 63.3096H72.1094V63.8206H72.6205V63.3096Z" fill="#C3C3C3"/>
<path d="M3.05007 64.5654H2.21875V65.3966H3.05007V64.5654Z" fill="#C3C3C3"/>
<path d="M7.47516 64.4114H6.33594V65.5442H7.47516V64.4114Z" fill="#C3C3C3"/>
<path d="M9.03985 64.2698V62.8538H7.61736V67.108H6.18872V69.9461H3.34375V74.2003H4.76623V75.6164H6.18872V74.2003H7.61736V72.7843H9.03985V74.2003H7.61736V75.6164H10.4623V71.3622H9.03985V69.9461H7.61736V68.524H9.03985V65.6919H11.8848V64.2698H9.03985Z" fill="#C3C3C3"/>
<path d="M24.4061 64.5593H23.5625V65.3966H24.4061V64.5593Z" fill="#C3C3C3"/>
<path d="M26.1116 64.2761H24.6953V65.686H26.1116V64.2761Z" fill="#C3C3C3"/>
<path d="M33.1968 64.3008H31.8359V65.6552H33.1968V64.3008Z" fill="#C3C3C3"/>
<path d="M34.6271 64.2944H33.2539V65.6612H34.6271V64.2944Z" fill="#C3C3C3"/>
<path d="M36.0074 64.3438H34.7266V65.6182H36.0074V64.3438Z" fill="#C3C3C3"/>
<path d="M38.9192 64.2698H36.0742V65.6858H38.9192V64.2698Z" fill="#C3C3C3"/>
<path d="M40.2556 64.3623H39.0117V65.5998H40.2556V64.3623Z" fill="#C3C3C3"/>
<path d="M41.7572 64.2822H40.3594V65.6798H41.7572V64.2822Z" fill="#C3C3C3"/>
<path d="M51.7221 64.2883H50.3242V65.6797H51.7221V64.2883Z" fill="#C3C3C3"/>
<path d="M64.5358 64.2698H63.1133V65.6858H64.5358V64.2698Z" fill="#C3C3C3"/>
<path d="M65.9531 64.2761H64.543V65.686H65.9531V64.2761Z" fill="#C3C3C3"/>
<path d="M65.9648 65.6919V67.108H67.3873V64.2698H65.9648V65.6919Z" fill="#C3C3C3"/>
<path d="M68.7553 64.3252H67.4375V65.6366H68.7553V64.3252Z" fill="#C3C3C3"/>
<path d="M73.0642 64.2822H71.6602V65.6859H73.0642V64.2822Z" fill="#C3C3C3"/>
<path d="M3.3337 65.6982H1.92969V67.1019H3.3337V65.6982Z" fill="#C3C3C3"/>
<path d="M7.59873 65.7043H6.20703V67.0896H7.59873V65.7043Z" fill="#C3C3C3"/>
<path d="M10.3599 65.7905H9.14062V67.0034H10.3599V65.7905Z" fill="#C3C3C3"/>
<path d="M12.8964 66.0984H12.293V66.7017H12.8964V66.0984Z" fill="#C3C3C3"/>
<path d="M24.6814 65.6982H23.2773V67.1019H24.6814V65.6982Z" fill="#C3C3C3"/>
<path d="M26.0555 65.7476H24.75V67.0466H26.0555V65.7476Z" fill="#C3C3C3"/>
<path d="M27.5352 65.6982H26.125V67.1081H27.5352V65.6982Z" fill="#C3C3C3"/>
<path d="M31.6772 65.8213H30.5195V66.9726H31.6772V65.8213Z" fill="#C3C3C3"/>
<path d="M33.2227 65.6982H31.8125V67.1081H33.2227V65.6982Z" fill="#C3C3C3"/>
<path d="M34.6507 65.6921H33.2344V67.1082H34.6507V65.6921Z" fill="#C3C3C3"/>
<path d="M37.4484 65.7476H36.1367V67.0528H37.4484V65.7476Z" fill="#C3C3C3"/>
<path d="M38.8831 65.7351H37.5469V67.0649H38.8831V65.7351Z" fill="#C3C3C3"/>
<path d="M64.4509 65.7783H63.207V67.0158H64.4509V65.7783Z" fill="#C3C3C3"/>
<path d="M65.8279 65.8152H64.6641V66.9788H65.8279V65.8152Z" fill="#C3C3C3"/>
<path d="M73.0703 65.6982H71.6602V67.1081H73.0703V65.6982Z" fill="#C3C3C3"/>
<path d="M3.25953 67.2004H2.01562V68.4441H3.25953V67.2004Z" fill="#C3C3C3"/>
<path d="M5.7641 67.533H5.19141V68.1055H5.7641V67.533Z" fill="#C3C3C3"/>
<path d="M10.4531 67.1143H9.04297V68.5241H10.4531V67.1143Z" fill="#C3C3C3"/>
<path d="M11.6262 67.3667H10.7148V68.2717H11.6262V67.3667Z" fill="#C3C3C3"/>
<path d="M26.0055 67.219H24.8047V68.4134H26.0055V67.219Z" fill="#C3C3C3"/>
<path d="M33.2227 67.1143H31.8125V68.5241H33.2227V67.1143Z" fill="#C3C3C3"/>
<path d="M37.3906 67.219H36.1836V68.4195H37.3906V67.219Z" fill="#C3C3C3"/>
<path d="M64.4925 67.1511H63.1562V68.4871H64.4925V67.1511Z" fill="#C3C3C3"/>
<path d="M65.797 67.2744H64.707V68.358H65.797V67.2744Z" fill="#C3C3C3"/>
<path d="M67.3463 67.145H66.0039V68.4872H67.3463V67.145Z" fill="#C3C3C3"/>
<path d="M68.7166 67.2004H67.4727V68.4441H68.7166V67.2004Z" fill="#C3C3C3"/>
<path d="M73.0726 67.1143H71.6562V68.5303H73.0726V67.1143Z" fill="#C3C3C3"/>
<path d="M74.4551 67.1572H73.125V68.4809H74.4551V67.1572Z" fill="#C3C3C3"/>
<path d="M1.92248 68.5242H0.5V69.9402H1.92248V68.5242Z" fill="#C3C3C3"/>
<path d="M4.48261 68.8135H3.63281V69.6569H4.48261V68.8135Z" fill="#C3C3C3"/>
<path d="M6.18976 68.5303H4.77344V69.9463H6.18976V68.5303Z" fill="#C3C3C3"/>
<path d="M9.02901 68.5364H7.625V69.9401H9.02901V68.5364Z" fill="#C3C3C3"/>
<path d="M10.4251 68.561H9.07031V69.9155H10.4251V68.561Z" fill="#C3C3C3"/>
<path d="M11.8121 68.5979H10.5312V69.8785H11.8121V68.5979Z" fill="#C3C3C3"/>
<path d="M12.9874 68.8442H12.1992V69.6261H12.9874V68.8442Z" fill="#C3C3C3"/>
<path d="M38.9057 68.5364H37.5078V69.9339H38.9057V68.5364Z" fill="#C3C3C3"/>
<path d="M52.8048 68.875H52.0781V69.5953H52.8048V68.875Z" fill="#C3C3C3"/>
<path d="M64.4813 68.5857H63.1758V69.8847H64.4813V68.5857Z" fill="#C3C3C3"/>
<path d="M67.3873 68.5242H65.9648V69.9402H67.3873V68.5242Z" fill="#C3C3C3"/>
<path d="M68.7811 68.5549H67.4141V69.9155H68.7811V68.5549Z" fill="#C3C3C3"/>
<path d="M70.0794 68.678H68.9648V69.7923H70.0794V68.678Z" fill="#C3C3C3"/>
<path d="M71.6136 68.5732H70.2773V69.9031H71.6136V68.5732Z" fill="#C3C3C3"/>
<path d="M73.0787 68.5242H71.6562V69.9402H73.0787V68.5242Z" fill="#C3C3C3"/>
<path d="M74.4551 68.5732H73.125V69.8969H74.4551V68.5732Z" fill="#C3C3C3"/>
<path d="M1.91017 69.9524H0.5V71.3623H1.91017V69.9524Z" fill="#C3C3C3"/>
<path d="M2.91419 70.3711H2.34766V70.9375H2.91419V70.3711Z" fill="#C3C3C3"/>
<path d="M10.3099 70.1001H9.19531V71.2144H10.3099V70.1001Z" fill="#C3C3C3"/>
<path d="M11.8873 69.9463H10.4648V71.3623H11.8873V69.9463Z" fill="#C3C3C3"/>
<path d="M13.0913 70.1555H12.0938V71.1529H13.0913V70.1555Z" fill="#C3C3C3"/>
<path d="M64.5374 69.9463H63.1211V71.3561H64.5374V69.9463Z" fill="#C3C3C3"/>
<path d="M65.7082 70.1987H64.7969V71.1037H65.7082V70.1987Z" fill="#C3C3C3"/>
<path d="M67.3744 69.9585H65.9766V71.3499H67.3744V69.9585Z" fill="#C3C3C3"/>
<path d="M68.8092 69.9463H67.3867V71.3623H68.8092V69.9463Z" fill="#C3C3C3"/>
<path d="M70.2092 69.9709H68.8359V71.3377H70.2092V69.9709Z" fill="#C3C3C3"/>
<path d="M72.9254 70.094H71.8047V71.2145H72.9254V70.094Z" fill="#C3C3C3"/>
<path d="M74.449 69.9956H73.125V71.3131H74.449V69.9956Z" fill="#C3C3C3"/>
<path d="M1.92248 71.3623H0.5V74.2005H1.92248V71.3623Z" fill="#C3C3C3"/>
<path d="M11.8789 71.3684H10.4688V72.7783H11.8789V71.3684Z" fill="#C3C3C3"/>
<path d="M12.9223 71.7502H12.2695V72.4028H12.9223V71.7502Z" fill="#C3C3C3"/>
<path d="M24.3483 71.707H23.6094V72.4397H24.3483V71.707Z" fill="#C3C3C3"/>
<path d="M30.3728 71.3745H28.9688V72.7782H30.3728V71.3745Z" fill="#C3C3C3"/>
<path d="M31.7766 71.3992H30.4219V72.7536H31.7766V71.3992Z" fill="#C3C3C3"/>
<path d="M44.5358 71.4424H43.2734V72.6983H44.5358V71.4424Z" fill="#C3C3C3"/>
<path d="M46.0245 71.3806H44.6328V72.7658H46.0245V71.3806Z" fill="#C3C3C3"/>
<path d="M64.5358 71.3623H63.1133V72.7783H64.5358V71.3623Z" fill="#C3C3C3"/>
<path d="M65.9531 71.3684H64.543V72.7783H65.9531V71.3684Z" fill="#C3C3C3"/>
<path d="M67.2256 71.5225H66.1172V72.6306H67.2256V71.5225Z" fill="#C3C3C3"/>
<path d="M68.8047 71.3684H67.3945V72.7783H68.8047V71.3684Z" fill="#C3C3C3"/>
<path d="M70.2221 71.3806H68.8242V72.772H70.2221V71.3806Z" fill="#C3C3C3"/>
<path d="M71.6569 71.3623V69.9463H70.2344V74.2005H71.6569V71.3623Z" fill="#C3C3C3"/>
<path d="M72.9732 71.467H71.7539V72.686H72.9732V71.467Z" fill="#C3C3C3"/>
<path d="M74.5006 71.3623H73.0781V74.2005H74.5006V71.3623Z" fill="#C3C3C3"/>
<path d="M3.3331 72.7966H1.94141V74.1819H3.3331V72.7966Z" fill="#C3C3C3"/>
<path d="M9.02901 72.7905H7.625V74.1942H9.02901V72.7905Z" fill="#C3C3C3"/>
<path d="M11.8812 72.7844H10.4648V74.1943H11.8812V72.7844Z" fill="#C3C3C3"/>
<path d="M24.573 72.9014H23.3906V74.0834H24.573V72.9014Z" fill="#C3C3C3"/>
<path d="M31.5604 73.0308H30.6367V73.9481H31.5604V73.0308Z" fill="#C3C3C3"/>
<path d="M37.4787 72.8091H36.1055V74.1758H37.4787V72.8091Z" fill="#C3C3C3"/>
<path d="M38.8815 72.8213H37.5391V74.1634H38.8815V72.8213Z" fill="#C3C3C3"/>
<path d="M46.0183 72.803H44.6328V74.1821H46.0183V72.803Z" fill="#C3C3C3"/>
<path d="M48.4875 73.1785H47.8594V73.8064H48.4875V73.1785Z" fill="#C3C3C3"/>
<path d="M51.7227 72.7905H50.3125V74.2004H51.7227V72.7905Z" fill="#C3C3C3"/>
<path d="M64.5374 72.7844H63.1211V74.1943H64.5374V72.7844Z" fill="#C3C3C3"/>
<path d="M67.3767 72.7905H65.9727V74.1942H67.3767V72.7905Z" fill="#C3C3C3"/>
<path d="M68.7963 72.7966H67.3984V74.188H68.7963V72.7966Z" fill="#C3C3C3"/>
<path d="M70.2266 72.7905H68.8164V74.2004H70.2266V72.7905Z" fill="#C3C3C3"/>
<path d="M73.0029 72.8584H71.7344V74.1205H73.0029V72.8584Z" fill="#C3C3C3"/>
<path d="M1.7366 74.3853H0.683594V75.438H1.7366V74.3853Z" fill="#C3C3C3"/>
<path d="M3.34436 74.2004H1.92188V75.6165H3.34436V74.2004Z" fill="#C3C3C3"/>
<path d="M4.72299 74.2437H3.38672V75.5735H4.72299V74.2437Z" fill="#C3C3C3"/>
<path d="M7.60098 74.2126H6.20312V75.6102H7.60098V74.2126Z" fill="#C3C3C3"/>
<path d="M24.6656 74.2312H23.3047V75.5856H24.6656V74.2312Z" fill="#C3C3C3"/>
<path d="M27.5352 74.2065H26.125V75.6164H27.5352V74.2065Z" fill="#C3C3C3"/>
<path d="M35.8041 74.4714H34.9297V75.3457H35.8041V74.4714Z" fill="#C3C3C3"/>
<path d="M38.5052 74.613H37.9141V75.2041H38.5052V74.613Z" fill="#C3C3C3"/>
<path d="M44.4909 74.3235H43.3086V75.5055H44.4909V74.3235Z" fill="#C3C3C3"/>
<path d="M50.1256 74.3789H49.0664V75.4378H50.1256V74.3789Z" fill="#C3C3C3"/>
<path d="M53.0081 74.3481H51.875V75.4748H53.0081V74.3481Z" fill="#C3C3C3"/>
<path d="M64.0247 74.7175H63.6367V75.0992H64.0247V74.7175Z" fill="#C3C3C3"/>
<path d="M64.5352 75.6165H65.9638V77.0386H67.3863V74.2004H65.9638V72.7844H64.5352V75.6165Z" fill="#C3C3C3"/>
<path d="M68.7985 74.2065H67.3945V75.6102H68.7985V74.2065Z" fill="#C3C3C3"/>
<path d="M70.2249 74.2065H68.8086V75.6164H70.2249V74.2065Z" fill="#C3C3C3"/>
<path d="M71.6439 74.2126H70.2461V75.6102H71.6439V74.2126Z" fill="#C3C3C3"/>
<path d="M71.6562 75.6165V78.4546H73.0787V81.2928H74.5012V77.0386H73.0787V74.2004H71.6562V75.6165Z" fill="#C3C3C3"/>
<path d="M74.449 74.2498H73.125V75.5673H74.449V74.2498Z" fill="#C3C3C3"/>
<path d="M1.91017 75.6226H0.5V77.0324H1.91017V75.6226Z" fill="#C3C3C3"/>
<path d="M3.3337 75.6287H1.92969V77.0324H3.3337V75.6287Z" fill="#C3C3C3"/>
<path d="M6.18976 75.6226H4.77344V77.0324H6.18976V75.6226Z" fill="#C3C3C3"/>
<path d="M7.60098 75.6287H6.20312V77.0262H7.60098V75.6287Z" fill="#C3C3C3"/>
<path d="M9.03351 75.6226H7.61719V77.0324H9.03351V75.6226Z" fill="#C3C3C3"/>
<path d="M10.4189 75.6533H9.07031V77.0016H10.4189V75.6533Z" fill="#C3C3C3"/>
<path d="M23.1443 75.752H21.9805V76.9094H23.1443V75.752Z" fill="#C3C3C3"/>
<path d="M24.5084 75.8013H23.4492V76.8602H24.5084V75.8013Z" fill="#C3C3C3"/>
<path d="M26.0297 75.7026H24.7734V76.9524H26.0297V75.7026Z" fill="#C3C3C3"/>
<path d="M27.5397 75.6165H26.1172V77.0325H27.5397V75.6165Z" fill="#C3C3C3"/>
<path d="M28.9554 75.6226H27.5391V77.0324H28.9554V75.6226Z" fill="#C3C3C3"/>
<path d="M48.8638 75.6411H47.4844V77.014H48.8638V75.6411Z" fill="#C3C3C3"/>
<path d="M50.2491 75.678H48.9375V76.9832H50.2491V75.678Z" fill="#C3C3C3"/>
<path d="M51.6468 75.7026H50.3906V76.9524H51.6468V75.7026Z" fill="#C3C3C3"/>
<path d="M65.6218 75.9612H64.8828V76.6938H65.6218V75.9612Z" fill="#C3C3C3"/>
<path d="M68.803 75.6226H67.3867V77.0324H68.803V75.6226Z" fill="#C3C3C3"/>
<path d="M70.2249 75.6226H68.8086V77.0324H70.2249V75.6226Z" fill="#C3C3C3"/>
<path d="M71.3845 75.8875H70.5039V76.7678H71.3845V75.8875Z" fill="#C3C3C3"/>
<path d="M74.4619 75.6533H73.1133V77.0016H74.4619V75.6533Z" fill="#C3C3C3"/>
<path d="M1.92248 77.0386H0.5V78.4546H1.92248V77.0386Z" fill="#C3C3C3"/>
<path d="M4.65783 77.1494H3.45703V78.3438H4.65783V77.1494Z" fill="#C3C3C3"/>
<path d="M7.57515 77.0757H6.22656V78.424H7.57515V77.0757Z" fill="#C3C3C3"/>
<path d="M9.03967 77.0386H7.61719V78.4546H9.03967V77.0386Z" fill="#C3C3C3"/>
<path d="M24.4926 77.2417H23.4766V78.2514H24.4926V77.2417Z" fill="#C3C3C3"/>
<path d="M27.5335 77.0386H26.1172V78.4484H27.5335V77.0386Z" fill="#C3C3C3"/>
<path d="M30.3773 77.0386H28.9609V78.4484H30.3773V77.0386Z" fill="#C3C3C3"/>
<path d="M47.4531 77.0447H46.043V78.4545H47.4531V77.0447Z" fill="#C3C3C3"/>
<path d="M51.7227 77.0447H50.3125V78.4545H51.7227V77.0447Z" fill="#C3C3C3"/>
<path d="M67.3121 77.1064H66.0312V78.387H67.3121V77.1064Z" fill="#C3C3C3"/>
<path d="M68.8047 77.0447H67.3945V78.4545H68.8047V77.0447Z" fill="#C3C3C3"/>
<path d="M70.2311 77.0386H68.8086V78.4546H70.2311V77.0386Z" fill="#C3C3C3"/>
<path d="M1.90282 78.4792H0.523438V79.8522H1.90282V78.4792Z" fill="#C3C3C3"/>
<path d="M4.75498 78.4731H3.36328V79.8584H4.75498V78.4731Z" fill="#C3C3C3"/>
<path d="M5.83767 78.8057H5.11719V79.526H5.83767V78.8057Z" fill="#C3C3C3"/>
<path d="M6.19141 79.8768V81.2928H7.62005V78.4546H6.19141V79.8768Z" fill="#C3C3C3"/>
<path d="M23.2533 78.467H21.8555V79.8646H23.2533V78.467Z" fill="#C3C3C3"/>
<path d="M30.2986 78.5469H29.0547V79.7843H30.2986V78.5469Z" fill="#C3C3C3"/>
<path d="M31.7621 78.4978H30.4258V79.8276H31.7621V78.4978Z" fill="#C3C3C3"/>
<path d="M44.6049 78.467H43.207V79.8646H44.6049V78.467Z" fill="#C3C3C3"/>
<path d="M45.7931 78.7009H44.8633V79.6306H45.7931V78.7009Z" fill="#C3C3C3"/>
<path d="M47.4548 78.467H46.0508V79.8707H47.4548V78.467Z" fill="#C3C3C3"/>
<path d="M54.1834 78.8425H53.543V79.4828H54.1834V78.8425Z" fill="#C3C3C3"/>
<path d="M68.7963 78.4731H67.3984V79.8645H68.7963V78.4731Z" fill="#C3C3C3"/>
<path d="M70.203 78.4854H68.8359V79.846H70.203V78.4854Z" fill="#C3C3C3"/>
<path d="M72.9164 78.6208H71.8203V79.7106H72.9164V78.6208Z" fill="#C3C3C3"/>
<path d="M1.80117 80H0.625V81.1759H1.80117V80Z" fill="#C3C3C3"/>
<path d="M4.51684 80.1292H3.60547V81.0342H4.51684V80.1292Z" fill="#C3C3C3"/>
<path d="M23.2595 79.8831H21.8555V81.2868H23.2595V79.8831Z" fill="#C3C3C3"/>
<path d="M28.9486 79.8892H27.5508V81.2806H28.9486V79.8892Z" fill="#C3C3C3"/>
<path d="M30.3834 79.8767H28.9609V82.7087H31.8059V81.2927H30.3834V79.8767Z" fill="#C3C3C3"/>
<path d="M31.7766 79.9077H30.4219V81.2622H31.7766V79.9077Z" fill="#C3C3C3"/>
<path d="M40.3354 79.8892H38.9375V81.2806H40.3354V79.8892Z" fill="#C3C3C3"/>
<path d="M46.0313 79.8831H44.6211V81.2929H46.0313V79.8831Z" fill="#C3C3C3"/>
<path d="M47.4593 79.8767H46.043V81.2866H47.4593V79.8767Z" fill="#C3C3C3"/>
<path d="M70.2137 79.8953H68.8281V81.2743H70.2137V79.8953Z" fill="#C3C3C3"/>
<path d="M72.7586 80.197H71.9766V80.9728H72.7586V80.197Z" fill="#C3C3C3"/>
<path d="M1.83765 81.3853H0.59375V82.6227H1.83765V81.3853Z" fill="#C3C3C3"/>
<path d="M3.07365 81.5637H2.19922V82.438H3.07365V81.5637Z" fill="#C3C3C3"/>
<path d="M5.96739 81.5144H4.98828V82.4933H5.96739V81.5144Z" fill="#C3C3C3"/>
<path d="M7.55098 81.3545H6.25781V82.6474H7.55098V81.3545Z" fill="#C3C3C3"/>
<path d="M21.8444 81.2927H20.4219V82.7087H21.8444V81.2927Z" fill="#C3C3C3"/>
<path d="M23.1123 81.4468H22.0039V82.555H23.1123V81.4468Z" fill="#C3C3C3"/>
<path d="M26.0381 81.3728H24.7695V82.6349H26.0381V81.3728Z" fill="#C3C3C3"/>
<path d="M27.5409 81.2928V79.8768H28.9634V77.0386H27.5409V78.4546H26.1184V77.0386H24.6959V78.4546H23.2734V81.2928H26.1184V82.7088H27.5409V81.2928Z" fill="#C3C3C3"/>
<path d="M28.9509 81.2991H27.5469V82.7028H28.9509V81.2991Z" fill="#C3C3C3"/>
<path d="M33.0339 81.4961H32.0117V82.5119H33.0339V81.4961Z" fill="#C3C3C3"/>
<path d="M43.1791 81.3052H41.7812V82.6966H43.1791V81.3052Z" fill="#C3C3C3"/>
<path d="M53.04 81.4099H51.8516V82.592H53.04V81.4099Z" fill="#C3C3C3"/>
<path d="M68.6514 81.4468H67.543V82.555H68.6514V81.4468Z" fill="#C3C3C3"/>
<path d="M70.1384 81.3853H68.8945V82.6227H70.1384V81.3853Z" fill="#C3C3C3"/>
<path d="M74.4984 81.2991H73.082V82.7089H74.4984V81.2991Z" fill="#C3C3C3"/>
<path d="M1.8854 82.752H0.542969V84.0879H1.8854V82.752Z" fill="#C3C3C3"/>
<path d="M4.19958 83.2751H3.91016V83.5645H4.19958V83.2751Z" fill="#C3C3C3"/>
<path d="M7.57005 82.7642H6.24609V84.0817H7.57005V82.7642Z" fill="#C3C3C3"/>
<path d="M21.8421 82.7151H20.4258V84.1311H21.8421V82.7151Z" fill="#C3C3C3"/>
<path d="M24.2158 83.189H23.7539V83.6507H24.2158V83.189Z" fill="#C3C3C3"/>
<path d="M27.4403 82.8074H26.2148V84.0325H27.4403V82.8074Z" fill="#C3C3C3"/>
<path d="M27.5388 84.1311H26.1163V82.7151H24.6938V85.5533H23.2714V91.2296H21.8489V89.8136H20.4264V88.3976H19.0039V94.074H20.4264V96.9122H19.0039V98.3282H20.4264V99.7442H19.0039V102.582H20.4264V101.166H24.6938V99.7504H26.1163V98.3343H28.9613V96.9183H30.3838V89.8259H28.9613V82.7336H27.5388V84.1496V84.1311ZM26.1163 88.3853H24.6938V86.9693H26.1163V88.3853Z" fill="#C3C3C3"/>
<path d="M30.1756 82.9182H29.1719V83.9217H30.1756V82.9182Z" fill="#C3C3C3"/>
<path d="M31.807 82.7151H30.3906V84.1311H31.807V82.7151Z" fill="#C3C3C3"/>
<path d="M33.2288 82.7151H31.8125V84.1311H33.2288V82.7151Z" fill="#C3C3C3"/>
<path d="M43.1701 82.7397H41.7969V84.1065H43.1701V82.7397Z" fill="#C3C3C3"/>
<path d="M44.6077 82.7151H43.1914V84.1311H44.6077V82.7151Z" fill="#C3C3C3"/>
<path d="M48.8205 82.7766H47.5273V84.0695H48.8205V82.7766Z" fill="#C3C3C3"/>
<path d="M50.3069 82.7151H48.8906V84.1311H50.3069V82.7151Z" fill="#C3C3C3"/>
<path d="M55.9029 82.8135H54.6836V84.0263H55.9029V82.8135Z" fill="#C3C3C3"/>
<path d="M69.9351 83.0044H69.0977V83.8417H69.9351V83.0044Z" fill="#C3C3C3"/>
<path d="M72.7221 83.0659H72.0078V83.7801H72.7221V83.0659Z" fill="#C3C3C3"/>
<path d="M1.8405 84.2109H0.578125V85.4669H1.8405V84.2109Z" fill="#C3C3C3"/>
<path d="M3.12199 84.3464H2.13672V85.3315H3.12199V84.3464Z" fill="#C3C3C3"/>
<path d="M7.53972 84.2109H6.27734V85.4669H7.53972V84.2109Z" fill="#C3C3C3"/>
<path d="M20.1608 84.3896H19.2617V85.2824H20.1608V84.3896Z" fill="#C3C3C3"/>
<path d="M21.836 84.1372H20.4258V85.5471H21.836V84.1372Z" fill="#C3C3C3"/>
<path d="M23.1668 84.2295H21.9414V85.4547H23.1668V84.2295Z" fill="#C3C3C3"/>
<path d="M24.6533 84.168H23.3047V85.5163H24.6533V84.168Z" fill="#C3C3C3"/>
<path d="M30.3418 84.1802H29.0117V85.5038H30.3418V84.1802Z" fill="#C3C3C3"/>
<path d="M31.6772 84.2664H30.5195V85.4176H31.6772V84.2664Z" fill="#C3C3C3"/>
<path d="M33.2227 84.1372H31.8125V85.5471H33.2227V84.1372Z" fill="#C3C3C3"/>
<path d="M34.2525 84.5312H33.6367V85.1407H34.2525V84.5312Z" fill="#C3C3C3"/>
<path d="M37.1092 84.5188H36.4688V85.1591H37.1092V84.5188Z" fill="#C3C3C3"/>
<path d="M39.9029 84.5742H39.3672V85.1098H39.9029V84.5742Z" fill="#C3C3C3"/>
<path d="M43.151 84.168H41.8086V85.5101H43.151V84.168Z" fill="#C3C3C3"/>
<path d="M44.5791 84.168H43.2305V85.5163H44.5791V84.168Z" fill="#C3C3C3"/>
<path d="M45.9015 84.2664H44.75V85.4115H45.9015V84.2664Z" fill="#C3C3C3"/>
<path d="M54.5726 84.1311H53.1562V85.541H54.5726V84.1311Z" fill="#C3C3C3"/>
<path d="M74.2215 84.408H73.3594V85.2637H74.2215V84.408Z" fill="#C3C3C3"/>
<path d="M1.84891 85.6208H0.574219V86.8891H1.84891V85.6208Z" fill="#C3C3C3"/>
<path d="M4.76789 85.5532H3.35156V86.9631H4.76789V85.5532Z" fill="#C3C3C3"/>
<path d="M7.42125 85.7441H6.38672V86.7723H7.42125V85.7441Z" fill="#C3C3C3"/>
<path d="M20.4141 85.5532H19.0039V86.9631H20.4141V85.5532Z" fill="#C3C3C3"/>
<path d="M21.8354 85.5654H20.4375V86.9568H21.8354V85.5654Z" fill="#C3C3C3"/>
<path d="M23.2246 85.5962H21.8945V86.9199H23.2246V85.5962Z" fill="#C3C3C3"/>
<path d="M30.3273 85.6025H29.0156V86.9077H30.3273V85.6025Z" fill="#C3C3C3"/>
<path d="M34.5968 85.6025H33.2852V86.9077H34.5968V85.6025Z" fill="#C3C3C3"/>
<path d="M35.6205 86.0027H35.1094V86.5137H35.6205V86.0027Z" fill="#C3C3C3"/>
<path d="M41.6533 85.6641H40.4648V86.8461H41.6533V85.6641Z" fill="#C3C3C3"/>
<path d="M43.1875 85.5532H41.7773V86.9631H43.1875V85.5532Z" fill="#C3C3C3"/>
<path d="M46.0268 85.5654H44.6289V86.9568H46.0268V85.5654Z" fill="#C3C3C3"/>
<path d="M47.4531 85.5532H46.043V86.9631H47.4531V85.5532Z" fill="#C3C3C3"/>
<path d="M69.9368 85.8425H69.1055V86.6737H69.9368V85.8425Z" fill="#C3C3C3"/>
<path d="M71.6439 85.5654H70.2461V86.9568H71.6439V85.5654Z" fill="#C3C3C3"/>
<path d="M73.0574 85.5654H71.6719V86.9445H73.0574V85.5654Z" fill="#C3C3C3"/>
<path d="M1.77534 87.1169H0.648438V88.2374H1.77534V87.1169Z" fill="#C3C3C3"/>
<path d="M3.03881 87.2771H2.23828V88.0713H3.03881V87.2771Z" fill="#C3C3C3"/>
<path d="M5.84998 87.314H5.11719V88.0404H5.84998V87.314Z" fill="#C3C3C3"/>
<path d="M20.4202 86.9692H19.0039V88.3791H20.4202V86.9692Z" fill="#C3C3C3"/>
<path d="M21.836 86.9753H20.4258V88.3852H21.836V86.9753Z" fill="#C3C3C3"/>
<path d="M23.2421 86.9939H21.875V88.3545H23.2421V86.9939Z" fill="#C3C3C3"/>
<path d="M26.1116 86.9692H24.6953V88.3791H26.1116V86.9692Z" fill="#C3C3C3"/>
<path d="M30.3705 86.9753H28.9727V88.3729H30.3705V86.9753Z" fill="#C3C3C3"/>
<path d="M33.2278 86.9693V85.5471H30.3828V88.3853H31.8053V89.8013H33.2278V86.9693Z" fill="#C3C3C3"/>
<path d="M34.64 86.9753H33.2422V88.3729H34.64V86.9753Z" fill="#C3C3C3"/>
<path d="M41.7572 86.9753H40.3594V88.3729H41.7572V86.9753Z" fill="#C3C3C3"/>
<path d="M44.6151 86.9693V85.5471H43.1926V86.9693H41.7701V89.8013H40.3477V92.6395H41.7701V91.2235H43.1926V88.3853H44.6151V86.9693Z" fill="#C3C3C3"/>
<path d="M46.0313 86.9753H44.6211V88.3852H46.0313V86.9753Z" fill="#C3C3C3"/>
<path d="M71.2615 87.3572H70.6211V87.9975H71.2615V87.3572Z" fill="#C3C3C3"/>
<path d="M74.4029 87.0676H73.1836V88.2805H74.4029V87.0676Z" fill="#C3C3C3"/>
<path d="M1.84726 88.4529H0.566406V89.7335H1.84726V88.4529Z" fill="#C3C3C3"/>
<path d="M3.20788 88.5269H2.0625V89.6658H3.20788V88.5269Z" fill="#C3C3C3"/>
<path d="M6.1791 88.3975H4.78125V89.795H6.1791V88.3975Z" fill="#C3C3C3"/>
<path d="M7.05339 88.9456H6.75781V89.2411H7.05339V88.9456Z" fill="#C3C3C3"/>
<path d="M9.87297 88.9763H9.63281V89.2164H9.87297V88.9763Z" fill="#C3C3C3"/>
<path d="M21.8376 88.3914H20.4336V89.7951H21.8376V88.3914Z" fill="#C3C3C3"/>
<path d="M30.3705 88.3975H28.9727V89.7888H30.3705V88.3975Z" fill="#C3C3C3"/>
<path d="M31.7637 88.4346H30.4336V89.7582H31.7637V88.4346Z" fill="#C3C3C3"/>
<path d="M35.6502 88.8162H35.0898V89.3703H35.6502V88.8162Z" fill="#C3C3C3"/>
<path d="M41.7656 88.3914H40.3555V89.8012H41.7656V88.3914Z" fill="#C3C3C3"/>
<path d="M44.5336 88.4714H43.2773V89.7212H44.5336V88.4714Z" fill="#C3C3C3"/>
<path d="M47.4593 88.3853H46.043V89.8013H47.4593V88.3853Z" fill="#C3C3C3"/>
<path d="M70.2249 88.3853H68.8086V89.8013H70.2249V88.3853Z" fill="#C3C3C3"/>
<path d="M74.4984 88.3853H73.082V89.8013H74.4984V88.3853Z" fill="#C3C3C3"/>
<path d="M1.90957 89.8198H0.511719V91.2112H1.90957V89.8198Z" fill="#C3C3C3"/>
<path d="M3.00683 90.146H2.26172V90.8848H3.00683V90.146Z" fill="#C3C3C3"/>
<path d="M6.11003 89.8875H4.84766V91.1434H6.11003V89.8875Z" fill="#C3C3C3"/>
<path d="M7.61164 89.8074H6.19531V91.2172H7.61164V89.8074Z" fill="#C3C3C3"/>
<path d="M8.79989 90.0413H7.85156V90.9894H8.79989V90.0413Z" fill="#C3C3C3"/>
<path d="M10.3167 89.949H9.18359V91.0756H10.3167V89.949Z" fill="#C3C3C3"/>
<path d="M23.2308 89.8506H21.8945V91.1804H23.2308V89.8506Z" fill="#C3C3C3"/>
<path d="M31.5975 90.0105H30.5938V91.014H31.5975V90.0105Z" fill="#C3C3C3"/>
<path d="M33.2243 89.8135H31.8203V91.2172H33.2243V89.8135Z" fill="#C3C3C3"/>
<path d="M34.653 89.8013H33.2305V92.6395H34.653V89.8013Z" fill="#C3C3C3"/>
<path d="M39.9546 90.1953H39.3203V90.8294H39.9546V90.1953Z" fill="#C3C3C3"/>
<path d="M44.5161 89.906H43.2969V91.1189H44.5161V89.906Z" fill="#C3C3C3"/>
<path d="M46.0183 89.8259H44.6328V91.205H46.0183V89.8259Z" fill="#C3C3C3"/>
<path d="M47.4357 89.8259H46.0625V91.1927H47.4357V89.8259Z" fill="#C3C3C3"/>
<path d="M57.1108 90.1152H56.3164V90.9033H57.1108V90.1152Z" fill="#C3C3C3"/>
<path d="M68.8092 89.8013H67.3867V91.2173H68.8092V89.8013Z" fill="#C3C3C3"/>
<path d="M70.203 89.832H68.8359V91.1926H70.203V89.832Z" fill="#C3C3C3"/>
<path d="M73.0787 89.8013V88.3853H71.6562V92.6395H73.0787V94.0616H74.5012V91.2234H73.0787V89.8013Z" fill="#C3C3C3"/>
<path d="M74.4984 89.8074H73.082V91.2172H74.4984V89.8074Z" fill="#C3C3C3"/>
<path d="M1.91633 91.2234H0.5V92.6332H1.91633V91.2234Z" fill="#C3C3C3"/>
<path d="M7.34768 91.488H6.46094V92.3746H7.34768V91.488Z" fill="#C3C3C3"/>
<path d="M10.0027 91.6851H9.50391V92.1776H10.0027V91.6851Z" fill="#C3C3C3"/>
<path d="M31.7621 91.2666H30.4258V92.5964H31.7621V91.2666Z" fill="#C3C3C3"/>
<path d="M33.2098 91.2419H31.8242V92.621H33.2098V91.2419Z" fill="#C3C3C3"/>
<path d="M36.0681 91.2295H34.6641V92.6332H36.0681V91.2295Z" fill="#C3C3C3"/>
<path d="M40.2747 91.2974H39V92.5656H40.2747V91.2974Z" fill="#C3C3C3"/>
<path d="M43.1791 91.2358H41.7812V92.6272H43.1791V91.2358Z" fill="#C3C3C3"/>
<path d="M44.5836 91.2542H43.2227V92.6086H44.5836V91.2542Z" fill="#C3C3C3"/>
<path d="M67.3873 91.2234H65.9648V92.6394H67.3873V91.2234Z" fill="#C3C3C3"/>
<path d="M70.2266 91.2295H68.8164V92.6394H70.2266V91.2295Z" fill="#C3C3C3"/>
<path d="M1.90282 92.6641H0.523438V94.037H1.90282V92.6641Z" fill="#C3C3C3"/>
<path d="M3.0849 92.8979H2.17969V93.7968H3.0849V92.8979Z" fill="#C3C3C3"/>
<path d="M5.88091 92.9473H5.07422V93.7538H5.88091V92.9473Z" fill="#C3C3C3"/>
<path d="M7.469 92.7871H6.33594V93.9138H7.469V92.7871Z" fill="#C3C3C3"/>
<path d="M8.57752 93.095H8.06641V93.606H8.57752V93.095Z" fill="#C3C3C3"/>
<path d="M10.4161 92.6887H9.08594V94.0124H10.4161V92.6887Z" fill="#C3C3C3"/>
<path d="M31.7031 92.7502H30.4961V93.9508H31.7031V92.7502Z" fill="#C3C3C3"/>
<path d="M34.6159 92.6826H33.2734V94.0248H34.6159V92.6826Z" fill="#C3C3C3"/>
<path d="M34.6523 94.0616V98.3158H36.0748V92.6394H34.6523V94.0616Z" fill="#C3C3C3"/>
<path d="M38.9258 94.0616V98.3158H40.3483V92.6394H38.9258V94.0616Z" fill="#C3C3C3"/>
<path d="M41.7595 92.6516H40.3555V94.0553H41.7595V92.6516Z" fill="#C3C3C3"/>
<path d="M42.9151 92.9165H42.0469V93.7846H42.9151V92.9165Z" fill="#C3C3C3"/>
<path d="M44.5336 92.7256H43.2773V93.9754H44.5336V92.7256Z" fill="#C3C3C3"/>
<path d="M57.3551 92.7134H56.0742V93.9878H57.3551V92.7134Z" fill="#C3C3C3"/>
<path d="M65.948 92.658H64.5625V94.037H65.948V92.658Z" fill="#C3C3C3"/>
<path d="M69.8935 92.978H69.1484V93.723H69.8935V92.978Z" fill="#C3C3C3"/>
<path d="M71.1447 93.1443H70.7383V93.5506H71.1447V93.1443Z" fill="#C3C3C3"/>
<path d="M1.7815 94.2031H0.648438V95.3298H1.7815V94.2031Z" fill="#C3C3C3"/>
<path d="M3.21629 94.1909H2.05859V95.3422H3.21629V94.1909Z" fill="#C3C3C3"/>
<path d="M4.74432 94.0862H3.37109V95.4529H4.74432V94.0862Z" fill="#C3C3C3"/>
<path d="M9.92747 94.5911H9.57031V94.9481H9.92747V94.5911Z" fill="#C3C3C3"/>
<path d="M12.8852 94.4802H12.3125V95.0528H12.8852V94.4802Z" fill="#C3C3C3"/>
<path d="M18.5294 94.5234H18.043V95.0098H18.5294V94.5234Z" fill="#C3C3C3"/>
<path d="M20.4096 94.0676H19.0117V95.4652H20.4096V94.0676Z" fill="#C3C3C3"/>
<path d="M31.7576 94.1108H30.4336V95.4283H31.7576V94.1108Z" fill="#C3C3C3"/>
<path d="M32.9845 94.3018H32.0547V95.2314H32.9845V94.3018Z" fill="#C3C3C3"/>
<path d="M41.7292 94.0986H40.3867V95.4408H41.7292V94.0986Z" fill="#C3C3C3"/>
<path d="M44.5897 94.0862H43.2227V95.4468H44.5897V94.0862Z" fill="#C3C3C3"/>
<path d="M64.3196 94.271H63.3281V95.2622H64.3196V94.271Z" fill="#C3C3C3"/>
<path d="M70.0665 94.2278H68.9766V95.3113H70.0665V94.2278Z" fill="#C3C3C3"/>
<path d="M71.6226 94.0923H70.2617V95.4467H71.6226V94.0923Z" fill="#C3C3C3"/>
<path d="M72.9474 94.1848H71.7773V95.3546H72.9474V94.1848Z" fill="#C3C3C3"/>
<path d="M4.57135 95.6746H3.54297V96.6966H4.57135V95.6746Z" fill="#C3C3C3"/>
<path d="M4.76562 96.8936V98.3157H6.18811V95.4775H4.76562V96.8936Z" fill="#C3C3C3"/>
<path d="M11.6824 95.6807H10.6602V96.6965H11.6824V95.6807Z" fill="#C3C3C3"/>
<path d="M20.4202 95.4775H19.0039V96.8936H20.4202V95.4775Z" fill="#C3C3C3"/>
<path d="M31.734 95.5454H30.4531V96.826H31.734V95.5454Z" fill="#C3C3C3"/>
<path d="M34.4064 95.7239H33.4766V96.6535H34.4064V95.7239Z" fill="#C3C3C3"/>
<path d="M41.6123 95.6316H40.5039V96.7398H41.6123V95.6316Z" fill="#C3C3C3"/>
<path d="M44.5055 95.5884H43.3047V96.7828H44.5055V95.5884Z" fill="#C3C3C3"/>
<path d="M46.0374 95.4775H44.6211V96.8936H46.0374V95.4775Z" fill="#C3C3C3"/>
<path d="M55.9899 95.4836H54.5859V96.8873H55.9899V95.4836Z" fill="#C3C3C3"/>
<path d="M57.418 95.4836H56.0078V96.8935H57.418V95.4836Z" fill="#C3C3C3"/>
<path d="M62.677 95.9148H62.1289V96.4627H62.677V95.9148Z" fill="#C3C3C3"/>
<path d="M70.1339 95.5698H68.9023V96.8011H70.1339V95.5698Z" fill="#C3C3C3"/>
<path d="M71.6569 95.4775H70.2344V96.8936H71.6569V95.4775Z" fill="#C3C3C3"/>
<path d="M4.5775 97.0906H3.54297V98.1187H4.5775V97.0906Z" fill="#C3C3C3"/>
<path d="M18.7906 97.1091H17.793V98.1065H18.7906V97.1091Z" fill="#C3C3C3"/>
<path d="M30.3722 96.9121H28.9805V98.2973H30.3722V96.9121Z" fill="#C3C3C3"/>
<path d="M31.8008 96.8997H30.3906V98.3095H31.8008V96.8997Z" fill="#C3C3C3"/>
<path d="M41.5191 97.1521H40.6016V98.0633H41.5191V97.1521Z" fill="#C3C3C3"/>
<path d="M44.5897 96.9243H43.2227V98.2849H44.5897V96.9243Z" fill="#C3C3C3"/>
<path d="M44.6172 98.3157V99.7317H46.0397V96.8936H44.6172V98.3157Z" fill="#C3C3C3"/>
<path d="M47.429 96.9307H46.0742V98.2851H47.429V96.9307Z" fill="#C3C3C3"/>
<path d="M48.8821 98.3157V99.7317H50.3046V101.148H53.1495V102.564H55.9945V103.98H57.417V101.142H55.9945V96.8873H54.572V95.4713H57.417V94.0553H55.9945V84.1248H54.572V85.5408H53.1495V84.1248H54.572V81.2866H53.1495V82.7026H50.3046V84.1186H47.4596V82.7026H50.3046V81.2866H53.1495V75.6102H51.727V78.4484H50.3046V77.0324H47.4596V81.2866H44.6146V79.8706H43.1921V78.4545H44.6146V77.0385H47.4596V75.6225H48.8821V74.2065H47.4596V72.7905H48.8821V74.2065H50.3046V71.3683H51.727V65.6919H50.3046V64.2759H51.727V62.8599H47.4596V64.2759H46.0371V62.8599H44.6146V64.2759H41.7696V65.6919H38.9247V69.9461H37.5022V68.5301H36.0797V65.6919H34.6572V67.108H33.2347V68.524H30.3898V65.6858H31.8123V64.2698H27.5448V62.8538H24.6998V64.2698H26.1223V65.6858H27.5448V67.1018H26.1223V68.5178H24.6998V67.1018H23.2773V71.356H24.6998V74.1942H26.1223V72.7782H27.5448V75.6164H28.9673V77.0324H30.3898V78.4484H31.8123V81.2866H33.2347V82.7026H34.6572V84.1186H41.7758V81.2804H43.1983V82.6964H46.0433V85.5346H47.4657V86.9506H46.0433V88.3666H47.4657V91.2048H44.6208V95.459H46.0433V96.875H47.4657V98.291H48.8882L48.8821 98.3157ZM34.6511 78.4545H33.2286V77.0385H34.6511V78.4545ZM40.341 81.2927H38.9185V79.8767H40.341V81.2927ZM41.7635 75.6164H30.3775V72.7782H28.955V71.3622H31.7999V72.7782H43.186V71.3622H46.0309V74.2003H44.6085V75.6164H41.7635Z" fill="#C3C3C3"/>
<path d="M57.4163 96.8997H56V98.3157H57.4163V96.8997Z" fill="#C3C3C3"/>
<path d="M69.9845 97.1399H69.0547V98.0695H69.9845V97.1399Z" fill="#C3C3C3"/>
<path d="M72.5924 97.3799H72.1367V97.8355H72.5924V97.3799Z" fill="#C3C3C3"/>
<path d="M3.12364 98.5374H2.14453V99.5101H3.12364V98.5374Z" fill="#C3C3C3"/>
<path d="M4.74206 98.3403H3.375V99.7009H4.74206V98.3403Z" fill="#C3C3C3"/>
<path d="M5.88932 98.6174H5.07031V99.4363H5.88932V98.6174Z" fill="#C3C3C3"/>
<path d="M18.8557 98.4573H17.7227V99.5839H18.8557V98.4573Z" fill="#C3C3C3"/>
<path d="M20.4141 98.322H19.0039V99.7319H20.4141V98.322Z" fill="#C3C3C3"/>
<path d="M27.5268 98.3281H26.1289V99.7195H27.5268V98.3281Z" fill="#C3C3C3"/>
<path d="M30.065 98.636H29.2891V99.4117H30.065V98.636Z" fill="#C3C3C3"/>
<path d="M31.7766 98.3467H30.4219V99.7011H31.7766V98.3467Z" fill="#C3C3C3"/>
<path d="M36.0664 98.322H34.6562V99.7319H36.0664V98.322Z" fill="#C3C3C3"/>
<path d="M40.3421 98.3157H38.9258V99.7317H40.3421V98.3157Z" fill="#C3C3C3"/>
<path d="M41.4394 98.6421H40.6758V99.4055H41.4394V98.6421Z" fill="#C3C3C3"/>
<path d="M48.715 98.4819H47.625V99.5655H48.715V98.4819Z" fill="#C3C3C3"/>
<path d="M57.4118 98.322H56.0078V99.7257H57.4118V98.322Z" fill="#C3C3C3"/>
<path d="M69.9542 98.5928H69.0859V99.4609H69.9542V98.5928Z" fill="#C3C3C3"/>
<path d="M71.5446 98.4265H70.3438V99.6209H71.5446V98.4265Z" fill="#C3C3C3"/>
<path d="M7.19213 100.15H6.61328V100.729H7.19213V100.15Z" fill="#C3C3C3"/>
<path d="M18.8945 99.8425H17.6875V101.043H18.8945V99.8425Z" fill="#C3C3C3"/>
<path d="M26.0122 99.8364H24.793V101.049H26.0122V99.8364Z" fill="#C3C3C3"/>
<path d="M30.2014 99.9165H29.1484V100.969H30.2014V99.9165Z" fill="#C3C3C3"/>
<path d="M31.7592 99.7871H30.4414V101.098H31.7592V99.7871Z" fill="#C3C3C3"/>
<path d="M36.0664 99.738H34.6562V101.148H36.0664V99.738Z" fill="#C3C3C3"/>
<path d="M40.3421 99.738H38.9258V101.148H40.3421V99.738Z" fill="#C3C3C3"/>
<path d="M41.4916 100.003H40.6172V100.877H41.4916V100.003Z" fill="#C3C3C3"/>
<path d="M44.2528 100.089H43.5508V100.791H44.2528V100.089Z" fill="#C3C3C3"/>
<path d="M46.0313 99.738H44.6211V101.148H46.0313V99.738Z" fill="#C3C3C3"/>
<path d="M49.9116 100.126H49.2773V100.76H49.9116V100.126Z" fill="#C3C3C3"/>
<path d="M69.8958 100.064H69.1445V100.815H69.8958V100.064Z" fill="#C3C3C3"/>
<path d="M72.5772 100.23H72.1523V100.655H72.5772V100.23Z" fill="#C3C3C3"/>
<path d="M6.02355 101.32H4.93359V102.404H6.02355V101.32Z" fill="#C3C3C3"/>
<path d="M7.61389 101.154H6.19141V102.57H7.61389V101.154Z" fill="#C3C3C3"/>
<path d="M18.9119 101.24H17.668V102.478H18.9119V101.24Z" fill="#C3C3C3"/>
<path d="M21.8292 101.166H20.4375V102.551H21.8292V101.166Z" fill="#C3C3C3"/>
<path d="M23.2578 101.154H21.8477V102.564H23.2578V101.154Z" fill="#C3C3C3"/>
<path d="M30.3773 101.154H28.9609V102.564H30.3773V101.154Z" fill="#C3C3C3"/>
<path d="M31.7834 101.179H30.4102V102.545H31.7834V101.179Z" fill="#C3C3C3"/>
<path d="M34.3761 101.425H33.5078V102.293H34.3761V101.425Z" fill="#C3C3C3"/>
<path d="M36.0726 101.154H34.6562V102.564H36.0726V101.154Z" fill="#C3C3C3"/>
<path d="M40.3376 101.16H38.9336V102.564H40.3376V101.16Z" fill="#C3C3C3"/>
<path d="M41.5236 101.394H40.5938V102.324H41.5236V101.394Z" fill="#C3C3C3"/>
<path d="M44.3387 101.431H43.4766V102.287H44.3387V101.431Z" fill="#C3C3C3"/>
<path d="M46.0251 101.16H44.6211V102.564H46.0251V101.16Z" fill="#C3C3C3"/>
<path d="M53.1507 101.154H51.7344V102.564H53.1507V101.154Z" fill="#C3C3C3"/>
<path d="M68.7098 101.246H67.4844V102.472H68.7098V101.246Z" fill="#C3C3C3"/>
<path d="M70.1333 101.252H68.9141V102.465H70.1333V101.252Z" fill="#C3C3C3"/>
<path d="M7.01465 103.167H6.79297V103.389H7.01465V103.167Z" fill="#C3C3C3"/>
<path d="M18.8754 102.693H17.6992V103.869H18.8754V102.693Z" fill="#C3C3C3"/>
<path d="M21.4197 103.001H20.8594V103.555H21.4197V103.001Z" fill="#C3C3C3"/>
<path d="M30.3834 102.57H28.9609V103.986H30.3834V102.57Z" fill="#C3C3C3"/>
<path d="M31.7895 102.595H30.4102V103.968H31.7895V102.595Z" fill="#C3C3C3"/>
<path d="M35.8474 102.798H34.8867V103.752H35.8474V102.798Z" fill="#C3C3C3"/>
<path d="M41.6421 102.705H40.4844V103.857H41.6421V102.705Z" fill="#C3C3C3"/>
<path d="M44.4252 102.767H43.3906V103.795H44.4252V102.767Z" fill="#C3C3C3"/>
<path d="M45.9813 102.625H44.6758V103.925H45.9813V102.625Z" fill="#C3C3C3"/>
<path d="M47.005 103.032H46.5V103.53H47.005V103.032Z" fill="#C3C3C3"/>
<path d="M55.8518 102.712H54.7188V103.838H55.8518V102.712Z" fill="#C3C3C3"/>
<path d="M66.9246 103.032H66.4258V103.524H66.9246V103.032Z" fill="#C3C3C3"/>
<path d="M69.647 103.155H69.3945V103.407H69.647V103.155Z" fill="#C3C3C3"/>
<path d="M8.61626 104.405H8.03125V104.989H8.61626V104.405Z" fill="#C3C3C3"/>
<path d="M18.9293 104.06H17.6484V105.34H18.9293V104.06Z" fill="#C3C3C3"/>
<path d="M30.3031 104.072H29.0469V105.322H30.3031V104.072Z" fill="#C3C3C3"/>
<path d="M31.8008 103.992H30.3906V105.402H31.8008V103.992Z" fill="#C3C3C3"/>
<path d="M34.6204 104.023H33.2656V105.377H34.6204V104.023Z" fill="#C3C3C3"/>
<path d="M41.7466 104.011H40.3672V105.384H41.7466V104.011Z" fill="#C3C3C3"/>
<path d="M44.4881 104.115H43.3242V105.279H44.4881V104.115Z" fill="#C3C3C3"/>
<path d="M47.1543 104.3H46.3477V105.1H47.1543V104.3Z" fill="#C3C3C3"/>
<path d="M57.3489 104.066H56.0742V105.334H57.3489V104.066Z" fill="#C3C3C3"/>
<path d="M18.8928 105.513H17.6797V106.72H18.8928V105.513Z" fill="#C3C3C3"/>
<path d="M31.7621 105.451H30.4258V106.781H31.7621V105.451Z" fill="#C3C3C3"/>
<path d="M32.8739 105.765H32.1719V106.467H32.8739V105.765Z" fill="#C3C3C3"/>
<path d="M41.2832 105.895H40.8398V106.332H41.2832V105.895Z" fill="#C3C3C3"/>
<path d="M44.5426 105.476H43.2617V106.756H44.5426V105.476Z" fill="#C3C3C3"/>
<path d="M31.7379 106.898H30.457V108.172H31.7379V106.898Z" fill="#C3C3C3"/>
<path d="M33.2159 106.843H31.8242V108.228H33.2159V106.843Z" fill="#C3C3C3"/>
<path d="M43.1488 106.867H41.8125V108.203H43.1488V106.867Z" fill="#C3C3C3"/>
<path d="M44.5403 106.898H43.2656V108.166H44.5403V106.898Z" fill="#C3C3C3"/>
<path d="M21.3445 108.745H20.9258V109.164H21.3445V108.745Z" fill="#C3C3C3"/>
<path d="M32.7509 108.72H32.2891V109.182H32.7509V108.72Z" fill="#C3C3C3"/>
<path d="M44.4235 108.437H43.3828V109.472H44.4235V108.437Z" fill="#C3C3C3"/>
<path d="M31.5604 109.915H30.6367V110.832H31.5604V109.915Z" fill="#C3C3C3"/>
<path d="M21.4568 111.472H20.8164V112.113H21.4568V111.472Z" fill="#C3C3C3"/>
<path d="M44.1579 111.534H43.6406V112.051H44.1579V111.534Z" fill="#C3C3C3"/>
<path d="M31.634 112.673H30.5625V113.738H31.634V112.673Z" fill="#C3C3C3"/>
<path d="M45.5769 112.962H45.0781V113.455H45.5769V112.962Z" fill="#C3C3C3"/>
<path d="M54.2541 112.827H53.4844V113.596H54.2541V112.827Z" fill="#C3C3C3"/>
<path d="M44.1579 114.366H43.6406V114.883H44.1579V114.366Z" fill="#C3C3C3"/>
<path d="M31.4503 115.69H30.7422V116.398H31.4503V115.69Z" fill="#C3C3C3"/>
<path d="M24.6207 116.823H23.3398V118.103H24.6207V116.823Z" fill="#C3C3C3"/>
<path d="M44.0253 117.346H43.7852V117.586H44.0253V117.346Z" fill="#C3C3C3"/>
<path d="M52.9277 116.982H51.9609V117.943H52.9277V116.982Z" fill="#C3C3C3"/>
<path d="M23.2595 118.183H21.8555V119.587H23.2595V118.183Z" fill="#C3C3C3"/>
<path d="M50.294 118.189H48.9023V119.574H50.294V118.189Z" fill="#C3C3C3"/>
<path d="M21.8444 119.593H20.4219V121.009H21.8444V119.593Z" fill="#C3C3C3"/>
<path d="M23.264 119.593H21.8477V121.009H23.264V119.593Z" fill="#C3C3C3"/>
<path d="M27.5409 119.593H26.1184V118.171H23.2734V122.425H26.1184V121.009H27.5409V119.593Z" fill="#C3C3C3"/>
<path d="M29.8971 120.073H29.4414V120.529H29.8971V120.073Z" fill="#C3C3C3"/>
<path d="M44.369 119.839H43.4453V120.756H44.369V119.839Z" fill="#C3C3C3"/>
<path d="M46.9943 120.061H46.5078V120.547H46.9943V120.061Z" fill="#C3C3C3"/>
<path d="M48.8508 119.624H47.4961V120.978H48.8508V119.624Z" fill="#C3C3C3"/>
<path d="M54.5597 119.605H53.168V120.99H54.5597V119.605Z" fill="#C3C3C3"/>
<path d="M21.8376 121.015H20.4336V122.419H21.8376V121.015Z" fill="#C3C3C3"/>
<path d="M23.264 121.015H21.8477V122.425H23.264V121.015Z" fill="#C3C3C3"/>
<path d="M27.5335 121.015H26.1172V122.425H27.5335V121.015Z" fill="#C3C3C3"/>
<path d="M28.9419 121.034H27.5625V122.407H28.9419V121.034Z" fill="#C3C3C3"/>
<path d="M31.7098 121.107H30.4844V122.333H31.7098V121.107Z" fill="#C3C3C3"/>
<path d="M47.3296 121.144H46.1719V122.296H47.3296V121.144Z" fill="#C3C3C3"/>
<path d="M48.8228 121.071H47.5234V122.37H48.8228V121.071Z" fill="#C3C3C3"/>
<path d="M51.7339 122.425H53.1564V118.171H50.3053V119.593H48.8828V122.425H51.7339Z" fill="#C3C3C3"/>
<path d="M54.5742 121.015H53.1641V122.425H54.5742V121.015Z" fill="#C3C3C3"/>
<path d="M21.8185 122.456H20.4453V123.823H21.8185V122.456Z" fill="#C3C3C3"/>
<path d="M24.6443 122.48H23.3203V123.798H24.6443V122.48Z" fill="#C3C3C3"/>
<path d="M26.0942 122.45H24.7148V123.823H26.0942V122.45Z" fill="#C3C3C3"/>
<path d="M27.4964 122.468H26.1602V123.804H27.4964V122.468Z" fill="#C3C3C3"/>
<path d="M28.9357 122.456H27.5625V123.823H28.9357V122.456Z" fill="#C3C3C3"/>
<path d="M30.0043 122.813H29.3516V123.465H30.0043V122.813Z" fill="#C3C3C3"/>
<path d="M47.4183 122.468H46.082V123.804H47.4183V122.468Z" fill="#C3C3C3"/>
<path d="M48.8379 122.474H47.5078V123.798H48.8379V122.474Z" fill="#C3C3C3"/>
<path d="M50.2699 122.474H48.9336V123.804H50.2699V122.474Z" fill="#C3C3C3"/>
<path d="M53.1075 122.474H51.7773V123.798H53.1075V122.474Z" fill="#C3C3C3"/>
<path d="M54.4428 122.56H53.2852V123.718H54.4428V122.56Z" fill="#C3C3C3"/>
<path d="M21.8202 123.872H20.4531V125.232H21.8202V123.872Z" fill="#C3C3C3"/>
<path d="M27.3538 124.032H26.3008V125.085H27.3538V124.032Z" fill="#C3C3C3"/>
<path d="M28.957 123.853H27.5469V125.263H28.957V123.853Z" fill="#C3C3C3"/>
<path d="M30.3615 123.872H28.9883V125.239H30.3615V123.872Z" fill="#C3C3C3"/>
<path d="M45.7173 124.167H44.9414V124.943H45.7173V124.167Z" fill="#C3C3C3"/>
<path d="M47.4616 123.847H46.0391V125.263H47.4616V123.847Z" fill="#C3C3C3"/>
<path d="M48.816 123.915H47.5352V125.195H48.816V123.915Z" fill="#C3C3C3"/>
<path d="M21.5978 125.51H20.668V126.439H21.5978V125.51Z" fill="#C3C3C3"/>
<path d="M27.287 125.516H26.3633V126.439H27.287V125.516Z" fill="#C3C3C3"/>
<path d="M30.2234 125.423H29.1211V126.525H30.2234V125.423Z" fill="#C3C3C3"/>
<path d="M47.4245 125.306H46.082V126.648H47.4245V125.306Z" fill="#C3C3C3"/>
<path d="M48.8318 125.312H47.5078V126.63H48.8318V125.312Z" fill="#C3C3C3"/>
<path d="M49.8139 125.762H49.3828V126.193H49.8139V125.762Z" fill="#C3C3C3"/>
<path d="M27.4964 126.729H26.1602V128.058H27.4964V126.729Z" fill="#C3C3C3"/>
<path d="M28.8144 126.833H27.6875V127.96H28.8144V126.833Z" fill="#C3C3C3"/>
<path d="M30.1453 126.926H29.2031V127.867H30.1453V126.926Z" fill="#C3C3C3"/>
<path d="M48.6475 126.919H47.6992V127.867H48.6475V126.919Z" fill="#C3C3C3"/>
<path d="M54.1592 127.098H53.5742V127.683H54.1592V127.098Z" fill="#C3C3C3"/>
<path d="M20.377 128.151H19.0469V129.474H20.377V128.151Z" fill="#C3C3C3"/>
<path d="M21.3558 128.588H20.9062V129.037H21.3558V128.588Z" fill="#C3C3C3"/>
<path d="M27.306 128.335H26.3516V129.283H27.306V128.335Z" fill="#C3C3C3"/>
<path d="M30.0133 128.477H29.3359V129.148H30.0133V128.477Z" fill="#C3C3C3"/>
<path d="M46.9426 128.618H46.5547V129.006H46.9426V128.618Z" fill="#C3C3C3"/>
<path d="M50.2334 128.181H48.9648V129.443H50.2334V128.181Z" fill="#C3C3C3"/>
<path d="M20.4225 129.517H19V130.933H20.4225V129.517Z" fill="#C3C3C3"/>
<path d="M22.9955 129.794H22.1211V130.669H22.9955V129.794Z" fill="#C3C3C3"/>
<path d="M25.9128 129.72H24.8906V130.736H25.9128V129.72Z" fill="#C3C3C3"/>
<path d="M27.347 129.714H26.3125V130.743H27.347V129.714Z" fill="#C3C3C3"/>
<path d="M28.7218 129.757H27.7734V130.705H28.7218V129.757Z" fill="#C3C3C3"/>
<path d="M47.306 129.671H46.1914V130.785H47.306V129.671Z" fill="#C3C3C3"/>
<path d="M48.5936 129.807H47.75V130.644H48.5936V129.807Z" fill="#C3C3C3"/>
<path d="M18.3969 131.543H18.1875V131.746H18.3969V131.543Z" fill="#C3C3C3"/>
<path d="M20.4202 130.939H19.0039V132.349H20.4202V130.939Z" fill="#C3C3C3"/>
<path d="M21.5366 131.253H20.7422V132.041H21.5366V131.253Z" fill="#C3C3C3"/>
<path d="M27.0292 131.45H26.6289V131.851H27.0292V131.45Z" fill="#C3C3C3"/>
<path d="M30.2559 131.063H29.0859V132.232H30.2559V131.063Z" fill="#C3C3C3"/>
<path d="M47.0353 131.364H46.4688V131.931H47.0353V131.364Z" fill="#C3C3C3"/>
<path d="M50.0475 131.198H49.1484V132.091H50.0475V131.198Z" fill="#C3C3C3"/>
<path d="M52.5947 131.5H52.293V131.801H52.5947V131.5Z" fill="#C3C3C3"/>
<path d="M21.7208 132.485H20.5508V133.655H21.7208V132.485Z" fill="#C3C3C3"/>
<path d="M25.9752 132.497H24.8359V133.63H25.9752V132.497Z" fill="#C3C3C3"/>
<path d="M30.3834 132.355H28.9609V133.771H30.3834V132.355Z" fill="#C3C3C3"/>
<path d="M46.0397 132.355H44.6172V133.771H46.0397V132.355Z" fill="#C3C3C3"/>
<path d="M48.5891 132.651H47.7578V133.482H48.5891V132.651Z" fill="#C3C3C3"/>
<path d="M50.1772 132.491H49.0195V133.642H50.1772V132.491Z" fill="#C3C3C3"/>
<path d="M54.1244 132.811H53.6133V133.322H54.1244V132.811Z" fill="#C3C3C3"/>
<path d="M57.4163 132.362H56V133.771H57.4163V132.362Z" fill="#C3C3C3"/>
<path d="M18.9984 133.778H17.582V135.194H18.9984V133.778Z" fill="#C3C3C3"/>
<path d="M21.7837 133.839H20.4844V135.138H21.7837V133.839Z" fill="#C3C3C3"/>
<path d="M27.4419 133.876H26.2227V135.089H27.4419V133.876Z" fill="#C3C3C3"/>
<path d="M30.3728 133.784H28.9688V135.188H30.3728V133.784Z" fill="#C3C3C3"/>
<path d="M47.2128 134.024H46.2891V134.947H47.2128V134.024Z" fill="#C3C3C3"/>
<path d="M48.7553 133.907H47.5977V135.064H48.7553V133.907Z" fill="#C3C3C3"/>
<path d="M49.9481 134.135H49.2461V134.837H49.9481V134.135Z" fill="#C3C3C3"/>
<path d="M30.384 135.194H27.5391V136.61H30.384V135.194Z" fill="#C3C3C3"/>
<path d="M31.7379 135.268H30.457V136.542H31.7379V135.268Z" fill="#C3C3C3"/>
<path d="M46.0313 135.2H44.6211V136.61H46.0313V135.2Z" fill="#C3C3C3"/>
<path d="M47.4486 135.206H46.0508V136.604H47.4486V135.206Z" fill="#C3C3C3"/>
<path d="M51.6036 135.317H50.4336V136.487H51.6036V135.317Z" fill="#C3C3C3"/>
<path d="M54.3435 135.428H53.3828V136.382H54.3435V135.428Z" fill="#C3C3C3"/>
<path d="M57.4237 135.194V133.778H56.0012V128.101H54.5787V138.032H53.1562V142.286H54.5787V139.448H56.0012V136.61H57.4237V135.194Z" fill="#C3C3C3"/>
<path d="M18.9939 136.622H17.5898V138.026H18.9939V136.622Z" fill="#C3C3C3"/>
<path d="M18.9967 138.032H20.4192V140.87H21.8478V135.194H20.4192V132.355H18.9967V135.194H17.5742V136.61H18.9967V138.032Z" fill="#C3C3C3"/>
<path d="M24.2832 137.022H23.6797V137.626H24.2832V137.022Z" fill="#C3C3C3"/>
<path d="M27.2437 136.905H26.4062V137.743H27.2437V136.905Z" fill="#C3C3C3"/>
<path d="M30.3705 136.628H28.9727V138.02H30.3705V136.628Z" fill="#C3C3C3"/>
<path d="M44.337 136.887H43.4688V137.755H44.337V136.887Z" fill="#C3C3C3"/>
<path d="M46.0374 136.616H44.6211V138.032H46.0374V136.616Z" fill="#C3C3C3"/>
<path d="M47.1976 136.875H46.3047V137.767H47.1976V136.875Z" fill="#C3C3C3"/>
<path d="M54.5423 136.647H53.1875V138.001H54.5423V136.647Z" fill="#C3C3C3"/>
<path d="M57.4135 136.622H56.0156V138.02H57.4135V136.622Z" fill="#C3C3C3"/>
<path d="M58.8079 136.647H57.4531V138.001H58.8079V136.647Z" fill="#C3C3C3"/>
<path d="M20.3725 138.081H19.0547V139.392H20.3725V138.081Z" fill="#C3C3C3"/>
<path d="M25.6921 138.45H25.1133V139.029H25.6921V138.45Z" fill="#C3C3C3"/>
<path d="M31.4823 138.358H30.7188V139.122H31.4823V138.358Z" fill="#C3C3C3"/>
<path d="M45.7606 138.309H44.8984V139.165H45.7606V138.309Z" fill="#C3C3C3"/>
<path d="M51.5991 138.167H50.4414V139.319H51.5991V138.167Z" fill="#C3C3C3"/>
<path d="M24.1467 139.996H23.8203V140.316H24.1467V139.996Z" fill="#C3C3C3"/>
<path d="M26.0942 139.473H24.7148V140.846H26.0942V139.473Z" fill="#C3C3C3"/>
<path d="M47.0898 139.817H46.4062V140.501H47.0898V139.817Z" fill="#C3C3C3"/>
<path d="M50.1256 139.633H49.0664V140.692H50.1256V139.633Z" fill="#C3C3C3"/>
<path d="M55.9029 139.552H54.6836V140.765H55.9029V139.552Z" fill="#C3C3C3"/>
<path d="M21.8308 140.889H20.4453V142.268H21.8308V140.889Z" fill="#C3C3C3"/>
<path d="M22.9781 141.159H22.1406V141.997H22.9781V141.159Z" fill="#C3C3C3"/>
<path d="M26.1178 140.87H24.6953V142.286H26.1178V140.87Z" fill="#C3C3C3"/>
<path d="M45.6247 141.282H45.0273V141.88H45.6247V141.282Z" fill="#C3C3C3"/>
<path d="M50.0952 141.079H49.0977V142.077H50.0952V141.079Z" fill="#C3C3C3"/>
<path d="M51.4497 141.153H50.5938V142.003H51.4497V141.153Z" fill="#C3C3C3"/>
<path d="M24.0215 142.957H23.9414V143.037H24.0215V142.957Z" fill="#C3C3C3"/>
<path d="M26.0858 142.317H24.7188V143.677H26.0858V142.317Z" fill="#C3C3C3"/>
<path d="M29.8252 142.846H29.5234V143.148H29.8252V142.846Z" fill="#C3C3C3"/>
<path d="M47.0898 142.656H46.4062V143.339H47.0898V142.656Z" fill="#C3C3C3"/>
<path d="M50.2856 142.311H48.9062V143.684H50.2856V142.311Z" fill="#C3C3C3"/>
<path d="M52.6621 142.779H52.2188V143.216H52.6621V142.779Z" fill="#C3C3C3"/>
<path d="M26.0942 143.727H24.7148V145.1H26.0942V143.727Z" fill="#C3C3C3"/>
<path d="M30.065 144.028H29.2891V144.804H30.065V144.028Z" fill="#C3C3C3"/>
<path d="M47.1976 143.967H46.3047V144.859H47.1976V143.967Z" fill="#C3C3C3"/>
<path d="M50.2621 143.745H48.9258V145.081H50.2621V143.745Z" fill="#C3C3C3"/>
<path d="M51.3571 144.078H50.6797V144.749H51.3571V144.078Z" fill="#C3C3C3"/>
<path d="M26.0684 145.174H24.7383V146.497H26.0684V145.174Z" fill="#C3C3C3"/>
<path d="M47.2369 145.346H46.2578V146.319H47.2369V145.346Z" fill="#C3C3C3"/>
<path d="M50.1149 145.315H49.0742V146.356H50.1149V145.315Z" fill="#C3C3C3"/>
<path d="M52.7267 145.549H52.1602V146.115H52.7267V145.549Z" fill="#C3C3C3"/>
<path d="M26.0313 146.626H24.7812V147.87H26.0313V146.626Z" fill="#C3C3C3"/>
<path d="M28.8335 146.676H27.6758V147.827H28.8335V146.676Z" fill="#C3C3C3"/>
<path d="M50.0413 146.805H49.1484V147.698H50.0413V146.805Z" fill="#C3C3C3"/>
<path d="M51.452 146.817H50.5898V147.679H51.452V146.817Z" fill="#C3C3C3"/>
<path d="M24.0495 148.603H23.9141V148.738H24.0495V148.603Z" fill="#C3C3C3"/>
<path d="M27.1398 148.356H26.5117V148.984H27.1398V148.356Z" fill="#C3C3C3"/>
<path d="M46.8494 148.572H46.6523V148.769H46.8494V148.572Z" fill="#C3C3C3"/>
<path d="M49.8251 148.437H49.3633V148.898H49.8251V148.437Z" fill="#C3C3C3"/>
<path d="M52.6879 148.424H52.1953V148.911H52.6879V148.424Z" fill="#C3C3C3"/>
<path d="M19.9659 149.84H19.4609V150.339H19.9659V149.84Z" fill="#C3C3C3"/>
<path d="M25.8134 149.674H24.9883V150.499H25.8134V149.674Z" fill="#C3C3C3"/>
<path d="M27.4167 149.495H26.2344V150.677H27.4167V149.495Z" fill="#C3C3C3"/>
<path d="M48.6992 149.563H47.6523V150.61H48.6992V149.563Z" fill="#C3C3C3"/>
<path d="M51.6036 149.502H50.4336V150.671H51.6036V149.502Z" fill="#C3C3C3"/>
<path d="M24.0844 151.404H23.875V151.607H24.0844V151.404Z" fill="#C3C3C3"/>
<path d="M27.4425 150.893H26.2109V152.124H27.4425V150.893Z" fill="#C3C3C3"/>
<path d="M49.7386 151.361H49.4492V151.65H49.7386V151.361Z" fill="#C3C3C3"/>
<path d="M52.6015 151.349H52.2812V151.663H52.6015V151.349Z" fill="#C3C3C3"/>
<path d="M55.4165 151.379H55.1641V151.632H55.4165V151.379Z" fill="#C3C3C3"/>
<path d="M20.0872 152.549H19.3359V153.3H20.0872V152.549Z" fill="#C3C3C3"/>
<path d="M25.8454 152.488H24.9648V153.368H25.8454V152.488Z" fill="#C3C3C3"/>
<path d="M27.3622 152.395H26.2969V153.46H27.3622V152.395Z" fill="#C3C3C3"/>
<path d="M51.6468 152.297H50.3906V153.546H51.6468V152.297Z" fill="#C3C3C3"/>
<path d="M24.2832 154.045H23.6797V154.649H24.2832V154.045Z" fill="#C3C3C3"/>
<path d="M27.1527 154.021H26.5V154.673H27.1527V154.021Z" fill="#C3C3C3"/>
<path d="M49.8504 154.094H49.3516V154.587H49.8504V154.094Z" fill="#C3C3C3"/>
<path d="M52.6509 154.137H52.2383V154.55H52.6509V154.137Z" fill="#C3C3C3"/>
<path d="M55.484 154.144H55.0898V154.538H55.484V154.144Z" fill="#C3C3C3"/>
<path d="M20.1069 155.369H19.3125V156.157H20.1069V155.369Z" fill="#C3C3C3"/>
<path d="M24.3916 155.35H23.5664V156.175H24.3916V155.35Z" fill="#C3C3C3"/>
<path d="M25.8089 155.356H24.9961V156.169H25.8089V155.356Z" fill="#C3C3C3"/>
<path d="M51.6856 155.098H50.3555V156.422H51.6856V155.098Z" fill="#C3C3C3"/>
<path d="M21.3878 156.927H20.8828V157.431H21.3878V156.927Z" fill="#C3C3C3"/>
<path d="M24.6094 156.557H23.3594V157.801H24.6094V156.557Z" fill="#C3C3C3"/>
<path d="M50.1497 156.625H49.0352V157.739H50.1497V156.625Z" fill="#C3C3C3"/>
<path d="M52.7503 156.877H52.1406V157.481H52.7503V156.877Z" fill="#C3C3C3"/>
<path d="M55.8041 156.668H54.7695V157.696H55.8041V156.668Z" fill="#C3C3C3"/>
<path d="M20.0075 158.299H19.4102V158.897H20.0075V158.299Z" fill="#C3C3C3"/>
<path d="M24.6465 157.936H23.3164V159.26H24.6465V157.936Z" fill="#C3C3C3"/>
<path d="M25.969 158.035H24.8359V159.161H25.969V158.035Z" fill="#C3C3C3"/>
<path d="M50.0475 158.152H49.1484V159.044H50.0475V158.152Z" fill="#C3C3C3"/>
<path d="M51.6423 157.979H50.3984V159.217H51.6423V157.979Z" fill="#C3C3C3"/>
<path d="M53.04 158.004H51.8516V159.186H53.04V158.004Z" fill="#C3C3C3"/>
<path d="M54.2974 158.17H53.4414V159.02H54.2974V158.17Z" fill="#C3C3C3"/>
<path d="M55.8906 157.998H54.6836V159.198H55.8906V157.998Z" fill="#C3C3C3"/>
<path d="M20.4135 159.321H19.0156V160.713H20.4135V159.321Z" fill="#C3C3C3"/>
<path d="M21.814 159.34H20.4531V160.694H21.814V159.34Z" fill="#C3C3C3"/>
<path d="M24.6752 159.321H23.2773V160.719H24.6752V159.321Z" fill="#C3C3C3"/>
<path d="M26.0729 159.346H24.7305V160.688H26.0729V159.346Z" fill="#C3C3C3"/>
<path d="M49.8874 159.728H49.3086V160.307H49.8874V159.728Z" fill="#C3C3C3"/>
<path d="M51.6423 159.395H50.3984V160.633H51.6423V159.395Z" fill="#C3C3C3"/>
<path d="M53.1507 159.309H51.7344V160.725H53.1507V159.309Z" fill="#C3C3C3"/>
<path d="M53.1569 159.309V160.725H51.7344V163.563H56.0018V159.309H53.1569Z" fill="#C3C3C3"/>
<path d="M21.836 160.731H20.4258V162.141H21.836V160.731Z" fill="#C3C3C3"/>
<path d="M24.6898 160.731H23.2734V162.147H24.6898V160.731Z" fill="#C3C3C3"/>
<path d="M26.1032 160.737H24.6992V162.141H26.1032V160.737Z" fill="#C3C3C3"/>
<path d="M51.7204 160.737H50.3164V162.141H51.7204V160.737Z" fill="#C3C3C3"/>
<path d="M23.2736 162.147V159.309H21.8511V162.147H20.4225V160.725H19V163.563H24.6961V164.979H26.1186V162.147H23.2736Z" fill="#C3C3C3"/>
<path d="M50.0413 162.406H49.1484V163.298H50.0413V162.406Z" fill="#C3C3C3"/>
<path d="M51.7204 162.153H50.3164V163.557H51.7204V162.153Z" fill="#C3C3C3"/>
<path d="M20.2282 163.754H19.1875V164.795H20.2282V163.754Z" fill="#C3C3C3"/>
<path d="M21.6107 163.797H20.6562V164.751H21.6107V163.797Z" fill="#C3C3C3"/>
<path d="M23.0129 163.822H22.1016V164.727H23.0129V163.822Z" fill="#C3C3C3"/>
<path d="M24.619 163.631H23.332V164.918H24.619V163.631Z" fill="#C3C3C3"/>
<path d="M50.1278 163.742H49.0625V164.807H50.1278V163.742Z" fill="#C3C3C3"/>
<path d="M51.7204 163.569H50.3164V164.973H51.7204V163.569Z" fill="#C3C3C3"/>
<path d="M54.4664 163.674H53.2656V164.868H54.4664V163.674Z" fill="#C3C3C3"/>
<path d="M55.8838 163.68H54.6953V164.862H55.8838V163.68Z" fill="#C3C3C3"/>
<path d="M56.994 163.994H56.4336V164.548H56.994V163.994Z" fill="#C3C3C3"/>
<path d="M20.4028 165.004H19.0234V166.377H20.4028V165.004Z" fill="#C3C3C3"/>
<path d="M24.6752 164.991H23.2773V166.389H24.6752V164.991Z" fill="#C3C3C3"/>
<path d="M49.7925 165.49H49.3984V165.884H49.7925V165.49Z" fill="#C3C3C3"/>
<path d="M51.6727 165.041H50.3672V166.34H51.6727V165.041Z" fill="#C3C3C3"/>
<path d="M52.9087 165.226H51.9727V166.161H52.9087V165.226Z" fill="#C3C3C3"/>
<path d="M55.6502 165.33H54.9297V166.05H55.6502V165.33Z" fill="#C3C3C3"/>
<path d="M18.685 166.715H17.8906V167.503H18.685V166.715Z" fill="#C3C3C3"/>
<path d="M20.1737 166.648H19.25V167.565H20.1737V166.648Z" fill="#C3C3C3"/>
<path d="M23.2292 166.438H21.8867V167.781H23.2292V166.438Z" fill="#C3C3C3"/>
<path d="M24.5213 166.568H23.4375V167.645H24.5213V166.568Z" fill="#C3C3C3"/>
<path d="M25.6231 166.888H25.1797V167.325H25.6231V166.888Z" fill="#C3C3C3"/>
<path d="M51.5446 166.592H50.5039V167.627H51.5446V166.592Z" fill="#C3C3C3"/>
<path d="M52.9671 166.586H51.9141V167.639H52.9671V166.586Z" fill="#C3C3C3"/>
<path d="M57.4051 166.42H56.0195V167.799H57.4051V166.42Z" fill="#C3C3C3"/>
<path d="M18.9619 167.854H17.6133V169.203H18.9619V167.854Z" fill="#C3C3C3"/>
<path d="M21.4501 168.218H20.8281V168.833H21.4501V168.218Z" fill="#C3C3C3"/>
<path d="M24.5404 167.971H23.4258V169.086H24.5404V167.971Z" fill="#C3C3C3"/>
<path d="M53.1136 167.861H51.7773V169.19H53.1136V167.861Z" fill="#C3C3C3"/>
<path d="M55.4233 168.39H55.1523V168.661H55.4233V168.39Z" fill="#C3C3C3"/>
<path d="M58.3181 168.347H57.9609V168.704H58.3181V168.347Z" fill="#C3C3C3"/>
<path d="M17.207 169.609H16.5234V170.286H17.207V169.609Z" fill="#C3C3C3"/>
<path d="M18.8428 169.394H17.7344V170.502H18.8428V169.394Z" fill="#C3C3C3"/>
<path d="M21.8477 170.656V172.072H23.2701V169.24H21.8477V170.656Z" fill="#C3C3C3"/>
<path d="M24.5281 169.394H23.4258V170.496H24.5281V169.394Z" fill="#C3C3C3"/>
<path d="M51.4649 169.504H50.5781V170.391H51.4649V169.504Z" fill="#C3C3C3"/>
<path d="M53.1569 169.24H51.7344V170.656H53.1569V169.24Z" fill="#C3C3C3"/>
<path d="M57.1776 169.486H56.2539V170.403H57.1776V169.486Z" fill="#C3C3C3"/>
<path d="M58.8483 169.24H57.4258V170.656H58.8483V169.24Z" fill="#C3C3C3"/>
<path d="M17.5765 170.656H16.1602V172.065H17.5765V170.656Z" fill="#C3C3C3"/>
<path d="M18.877 170.779H17.707V171.949H18.877V170.779Z" fill="#C3C3C3"/>
<path d="M21.4265 171.074H20.8477V171.653H21.4265V171.074Z" fill="#C3C3C3"/>
<path d="M24.5387 170.803H23.418V171.924H24.5387V170.803Z" fill="#C3C3C3"/>
<path d="M53.1507 170.656H51.7344V172.065H53.1507V170.656Z" fill="#C3C3C3"/>
<path d="M54.5119 170.717H53.2188V172.01H54.5119V170.717Z" fill="#C3C3C3"/>
<path d="M55.6137 171.037H54.9609V171.69H55.6137V171.037Z" fill="#C3C3C3"/>
<path d="M58.6253 170.883H57.6523V171.85H58.6253V170.883Z" fill="#C3C3C3"/>
<path d="M17.3541 172.293H16.375V173.272H17.3541V172.293Z" fill="#C3C3C3"/>
<path d="M19.9339 172.558H19.4844V173.008H19.9339V172.558Z" fill="#C3C3C3"/>
<path d="M21.7556 172.164H20.5117V173.402H21.7556V172.164Z" fill="#C3C3C3"/>
<path d="M23.1685 172.176H21.9492V173.395H23.1685V172.176Z" fill="#C3C3C3"/>
<path d="M24.6449 172.115H23.3086V173.451H24.6449V172.115Z" fill="#C3C3C3"/>
<path d="M25.9819 172.207H24.8242V173.364H25.9819V172.207Z" fill="#C3C3C3"/>
<path d="M51.7272 172.072H50.3047V173.488H51.7272V172.072Z" fill="#C3C3C3"/>
<path d="M53.0687 172.158H51.8125V173.408H53.0687V172.158Z" fill="#C3C3C3"/>
<path d="M54.2031 172.441H53.5195V173.124H54.2031V172.441Z" fill="#C3C3C3"/>
<path d="M57.1024 172.392H56.3203V173.174H57.1024V172.392Z" fill="#C3C3C3"/>
<path d="M58.7769 172.146H57.4961V173.42H58.7769V172.146Z" fill="#C3C3C3"/>
<path d="M60.246 172.103H58.8789V173.463H60.246V172.103Z" fill="#C3C3C3"/>
<path d="M16.012 173.635H14.8789V174.762H16.012V173.635Z" fill="#C3C3C3"/>
<path d="M18.5379 173.956H18.0391V174.448H18.5379V173.956Z" fill="#C3C3C3"/>
<path d="M21.8376 173.5H20.4336V174.904H21.8376V173.5Z" fill="#C3C3C3"/>
<path d="M24.6959 173.494H23.2734V174.91H24.6959V173.494Z" fill="#C3C3C3"/>
<path d="M26.1116 173.494H24.6953V174.904H26.1116V173.494Z" fill="#C3C3C3"/>
<path d="M27.1892 173.845H26.4688V174.565H27.1892V173.845Z" fill="#C3C3C3"/>
<path d="M49.9133 173.888H49.2852V174.51H49.9133V173.888Z" fill="#C3C3C3"/>
<path d="M51.7227 173.5H50.3125V174.91H51.7227V173.5Z" fill="#C3C3C3"/>
<path d="M52.9974 173.648H51.8828V174.762H52.9974V173.648Z" fill="#C3C3C3"/>
<path d="M55.7996 173.691H54.7773V174.707H55.7996V173.691Z" fill="#C3C3C3"/>
<path d="M58.6366 173.703H57.6328V174.707H58.6366V173.703Z" fill="#C3C3C3"/>
<path d="M60.1966 173.568H58.9219V174.836H60.1966V173.568Z" fill="#C3C3C3"/>
<path d="M61.5078 173.678H60.4609V174.725H61.5078V173.678Z" fill="#C3C3C3"/>
<path d="M14.6272 175.014H13.4141V176.221H14.6272V175.014Z" fill="#C3C3C3"/>
<path d="M17.1447 175.335H16.5781V175.901H17.1447V175.335Z" fill="#C3C3C3"/>
<path d="M18.7821 175.131H17.7969V176.11H18.7821V175.131Z" fill="#C3C3C3"/>
<path d="M20.3596 174.978H19.0664V176.27H20.3596V174.978Z" fill="#C3C3C3"/>
<path d="M21.7882 174.965H20.4766V176.271H21.7882V174.965Z" fill="#C3C3C3"/>
<path d="M23.2117 174.971H21.9062V176.27H23.2117V174.971Z" fill="#C3C3C3"/>
<path d="M24.6207 174.984H23.3398V176.258H24.6207V174.984Z" fill="#C3C3C3"/>
<path d="M25.7309 175.292H25.0781V175.944H25.7309V175.292Z" fill="#C3C3C3"/>
<path d="M51.3722 175.267H50.6641V175.975H51.3722V175.267Z" fill="#C3C3C3"/>
<path d="M53.1249 174.941H51.7578V176.301H53.1249V174.941Z" fill="#C3C3C3"/>
<path d="M54.5007 174.99H53.2383V176.246H54.5007V174.99Z" fill="#C3C3C3"/>
<path d="M55.8922 175.021H54.6914V176.215H55.8922V175.021Z" fill="#C3C3C3"/>
<path d="M57.1714 175.162H56.2539V176.074H57.1714V175.162Z" fill="#C3C3C3"/>
<path d="M58.6107 175.144H57.6562V176.092H58.6107V175.144Z" fill="#C3C3C3"/>
<path d="M59.9607 175.224H59.1602V176.018H59.9607V175.224Z" fill="#C3C3C3"/>
<path d="M12.9374 176.695H12.2539V177.379H12.9374V176.695Z" fill="#C3C3C3"/>
<path d="M16.0536 176.424H14.8281V177.649H16.0536V176.424Z" fill="#C3C3C3"/>
<path d="M18.936 176.387H17.6367V177.686H18.936V176.387Z" fill="#C3C3C3"/>
<path d="M21.8005 176.381H20.4766V177.699H21.8005V176.381Z" fill="#C3C3C3"/>
<path d="M23.2611 176.344H21.8633V177.736H23.2611V176.344Z" fill="#C3C3C3"/>
<path d="M24.4713 176.554H23.4922V177.526H24.4713V176.554Z" fill="#C3C3C3"/>
<path d="M53.1333 176.351H51.7539V177.723H53.1333V176.351Z" fill="#C3C3C3"/>
<path d="M54.5439 176.363H53.1953V177.711H54.5439V176.363Z" fill="#C3C3C3"/>
<path d="M55.9877 176.338H54.5898V177.736H55.9877V176.338Z" fill="#C3C3C3"/>
<path d="M57.3506 176.406H56.082V177.668H57.3506V176.406Z" fill="#C3C3C3"/>
<path d="M58.654 176.517H57.6133V177.557H58.654V176.517Z" fill="#C3C3C3"/>
<path d="M61.5016 176.523H60.4609V177.557H61.5016V176.523Z" fill="#C3C3C3"/>
<path d="M12.9807 178.074H12.2109V178.844H12.9807V178.074Z" fill="#C3C3C3"/>
<path d="M14.5823 177.89H13.4492V179.016H14.5823V177.89Z" fill="#C3C3C3"/>
<path d="M16.0316 177.871H14.8555V179.047H16.0316V177.871Z" fill="#C3C3C3"/>
<path d="M17.5158 177.81H16.2227V179.102H17.5158V177.81Z" fill="#C3C3C3"/>
<path d="M18.7215 178.025H17.8594V178.887H18.7215V178.025Z" fill="#C3C3C3"/>
<path d="M20.4225 177.748H19V179.164H20.4225V177.748Z" fill="#C3C3C3"/>
<path d="M21.7702 177.828H20.5078V179.084H21.7702V177.828Z" fill="#C3C3C3"/>
<path d="M23.1101 177.908H22.0078V179.004H23.1101V177.908Z" fill="#C3C3C3"/>
<path d="M24.4303 178.007H23.5312V178.899H24.4303V178.007Z" fill="#C3C3C3"/>
<path d="M52.9429 177.957H51.9453V178.955H52.9429V177.957Z" fill="#C3C3C3"/>
<path d="M54.326 178H53.4023V178.918H54.326V178Z" fill="#C3C3C3"/>
<path d="M55.9703 177.779H54.6094V179.133H55.9703V177.779Z" fill="#C3C3C3"/>
<path d="M57.3141 177.859H56.1133V179.053H57.3141V177.859Z" fill="#C3C3C3"/>
<path d="M58.5562 178.037H57.7188V178.875H58.5562V178.037Z" fill="#C3C3C3"/>
<path d="M60.0213 178H59.0977V178.918H60.0213V178Z" fill="#C3C3C3"/>
<path d="M62.9426 177.92H61.8711V178.986H62.9426V177.92Z" fill="#C3C3C3"/>
<path d="M15.93 179.392H14.957V180.358H15.93V179.392Z" fill="#C3C3C3"/>
<path d="M18.9203 179.25H17.6641V180.5H18.9203V179.25Z" fill="#C3C3C3"/>
<path d="M21.6343 179.379H20.6367V180.377H21.6343V179.379Z" fill="#C3C3C3"/>
<path d="M52.634 179.681H52.2461V180.069H52.634V179.681Z" fill="#C3C3C3"/>
<path d="M55.5401 179.62H55.0352V180.124H55.5401V179.62Z" fill="#C3C3C3"/>
<path d="M58.6927 179.318H57.5781V180.432H58.6927V179.318Z" fill="#C3C3C3"/>
<path d="M61.4084 179.453H60.5586V180.297H61.4084V179.453Z" fill="#C3C3C3"/>
</svg>
