<svg width="16" height="13" viewBox="0 0 16 13" fill="none" xmlns="http://www.w3.org/2000/svg">
<path d="M14.0938 6.5H11.75V4.64286C11.75 3.61853 12.5908 2.78571 13.625 2.78571H13.8594C14.249 2.78571 14.5625 2.47522 14.5625 2.08929V0.696429C14.5625 0.310491 14.249 0 13.8594 0H13.625C11.0352 0 8.9375 2.07768 8.9375 4.64286V11.6071C8.9375 12.3761 9.56738 13 10.3438 13H14.0938C14.8701 13 15.5 12.3761 15.5 11.6071V7.89286C15.5 7.12388 14.8701 6.5 14.0938 6.5ZM5.65625 6.5H3.3125V4.64286C3.3125 3.61853 4.15332 2.78571 5.1875 2.78571H5.42188C5.81152 2.78571 6.125 2.47522 6.125 2.08929V0.696429C6.125 0.310491 5.81152 0 5.42188 0H5.1875C2.59766 0 0.5 2.07768 0.5 4.64286V11.6071C0.5 12.3761 1.12988 13 1.90625 13H5.65625C6.43262 13 7.0625 12.3761 7.0625 11.6071V7.89286C7.0625 7.12388 6.43262 6.5 5.65625 6.5Z" fill="#C0C0C0"/>
</svg>
