<?xml version="1.0" encoding="UTF-8"?>
<svg id="_Слой_2" data-name="Слой 2" xmlns="http://www.w3.org/2000/svg" viewBox="0 0 448.54 177.63">
  <defs>
    <style>
      .cls-1 {
        fill: #c3c3c3;
        stroke-width: 0px;
      }
    </style>
  </defs>
  <g id="_Слой_1-2" data-name="Слой 1">
    <g>
      <path class="cls-1" d="m444.32,151.78q.67-2.69,2.99-2.95l-1.49-2.29c-1.14.33-1.65,1.79-3.18.89l2.58-1.59c-.55-1.49-.92-2.86-1.54-4.1-.7-1.41-1.09-2.6.92-3.25-1.64-1.01-3.02-.65-4.58.82l-.44-2.8-2.7.85c.4-.86,1.14-1.27,1.63-1.87.19-.24-.08-.85-.18-1.32-.65,2.07-2.13.55-3.16.7-.54-1.19-.93-2.31-1.53-3.3-.68-1.13-1.52-2.08-.77-3.59.26-.53-.22-1.42-.36-2.14h-1.83l.49-1.49-3.8,1.34c-1.12-2.39,2.85-1.67,1.92-3.65-.98-.13-2.05.02-2.72-.43-1.09-.74-1.37,1.2-2.19.47-.95-.85-1.8-1.81-2.72-2.74l1.92-2.98-3.02-.26.5,3.21-.4.29-1.63-1.69c-.76-2.45,3.24-2.98,1.29-5.46-1.2,1.81-2.61,2.76-3.16,2.02l-.28-2.33-2.54-.73c.17-1.33,1.96-2.49-.12-3.78.76,0,1.4.07,1.83.4.86.66,1.29.08,1.56-.51.28-.63.25-1.37-.59-1.64-.44-.14-.94-.15-1.41-.11-1.86.16-2.16-1.37-2.81-2.52-1.02,1.2-2.06,1.97-3.86,1.42-1.54-.47-3.04-1.39-4.81-1-.21.05-.54-.46-.83-.77.6.05,1.21.1,1.93.15l.56-2.55.72,1.39,2.59-2.33v2.29c1.52-2.96,1.61-3.22,1.5-4.35l-.74-.72-.26,1.41c-1.04-.16-2.08-.65-2.83-.37-2.14.79-3.88-.17-5.68-.91-.87-.36-2.87-1.09-3.12-.85-1.01.99-1.45-.12-2.9-.37l3.08-2.05-3.15-1.78-1.25,3.64c-.92-1.14-1.24-2.2-1.52-3.28-.07-.26.05-.56.08-.84l.61-.55.46,1.89.5-.45-.29-2.54c2.13.62,3.98,1.29,5.83.04.31-.21.96-.02,1.41.12,1.04.32,2.05.72,2.83,1,.55-.77.79-1.31,1.2-1.62.29-.22.81-.13,1.22-.18-.74-.68-1.51-1.15-2.21-1.05-3.79.54-7.42-.67-11.13-.93-1.23-.08-2.83.07-3.2-1.8-.02-.08-.55-.1-.84-.08q-3.73.17-5.17-.62c.69-.34,1.33-.94,1.86-.85,1.75.28,3.34-.34,4.82-.9,2.46-.94,5.12-1.07,7.5-2.15.93-.42,1.96-.83,2.09-2.46-2.21.35-4.49.22-6.23,1.12-2.09,1.09-3.88,2.31-6.32,1.35-.2-.08-.52.17-.79.21-1.11.14-2.24.2-3.34.41-1.42.26-2.89-.31-4.13-.12-1.86.28-3.2-.18-4.52-1.05-.26-.83,1.19-1.72-.36-2.33l-1.13,2.22c-1.54-.37-3.01-.78-3.5-2.62l1.18-.39v-.03c.61.23,1.63.69,1.69.59,1.11-1.89,2.64-.74,4.22-.42l-.67-1.79,5.34-.37c-.02-.24.08-.95-.13-1.05-.74-.36-1.57-.67-2.39-.73-.98-.07-1.98.14-2.99.23l-.72,1.32-1.38-1.14c1.09-1.67,2.39-2.55,4.25-2.4.38.03.83.1,1.13-.07,2.2-1.25,4.46-2.18,7.08-1.88.29.03.63-.36.93-.54.7.79,1.67,2.01,2.38.99,1.06-1.53,2.46-1.23,4.45-1.29-1.19-1.38-2.1-2.24-2.75-3.27-.43-.68-1.66-1.82.4-2.17.36.43.42,1.37,1.44.69.28-.18.95.22,1.85.47l-1.88,1.1,2.52,1.19c1.53-.44,2.85-.88,4.19-1.19.8-.18,2.49,1.07,2.65,1.87.36,1.8,1.15,3.27,2.93,4.04l-.07.1c.78-.93,1.53-1.92,2.8-.58.11.12.49-.02.78-.08-.23-.89-.22-2.24-.76-2.51-1.3-.64-2.74-.13-4.16,1.31.15-1.83.62-3.04-.65-4.2-.78-.72-.11-1.97,1.01-2.58.69-.38,1.3-.89,1.89-1.31-1.71-.21-3.29-.73-4.71-.44-.68.14-1.27.4-1.62-.11-.39-.58-.57-1.39-.61-2.11-.02-.45.4-.92.69-1.53l-2.16-.21,1.43-2.28-2.53.21c-.59-.6-.09-1.85-1.6-1.31-1.24.44-2.21.17-3.02-.88-.11-.14-.57-.02-.85-.02l.23-2.12,1.88-.34q.6,1.78,2,.24c-.98-.51-1.86-1.14-2.84-1.41-1.06-.3-1.61-1.6-2.92-1.42-.06,0-.29-1.18-.33-1.35l-4.69-2.27.21-.78,3.1.33-5.47-3.92-1.36,1.48-.47-.32.65-1.51-1.43-2.17c.43,0,1-.09,1.16.12.65.87,1.41,1.08,2.32.64,1.19-.57,1.82,0,2.4.94.25.4.61.88,1.02.99,2.34.65,4.12,1.88,4.85,4.37l1.63-.5,1.23,1.86,2.07-1.14v3.53c1.09.3,2.29.62,3.49.98.43.13.94.25,1.22.55,1,1.09,1.92,2.24,2.87,3.38h-.02s.97,2.31.97,2.31c1.87-2.06,3.25-.71,4.79.04l.36,2.3,3.33.23-2.82,1.27c2.11,1.12,4.82-1.54,6.32,1.79l1.01-1.83c-.32,2.77,1.71,4.24,2.94,6.3l.84-2.42c.99,2.71.84,3.16-1.21,4.23,2.16-.6,2.99.86,3.55,2.28.48,1.2,1.01,1.75,2.82,1.42l-1.87-2.86,2.96-.2c-.71,1.59-.89,3,0,3.55l3.88.54c-.35-.43-.65-.95-1.1-1.21-.56-.32-1.28-.38-1.99-.86,2.38-.28,2.73-2.58,4.17-3.69l-1.2-2.55-1.81-.24,1.39,2.59q-1.85-.37-1.39-2.59l-.36-.68h3.13c-1.54-2.55-3.25-5-5.22-7.21-1.93-2.17-4.09-4.11-6.38-5.89-1.14.32-2.23.43-3.39-.24.71-.19,1.41-.48,2.15-.69-.54-.4-1.09-.79-1.64-1.18-.65.95-1.14.83-1.78-.29h1.35c-.35-.24-.71-.48-1.06-.72-1.34-.89-2.71-1.75-4.08-2.59l-.85,2.28-1.15-.4c.38-.47,1.07-.98.99-1.3-.17-.68-.03-.94.29-1.01-1.75-1.07-3.51-2.13-5.26-3.2-1.2,0-2.49,1.01-3.5-.67l3.46.64c-.53-.33-1.05-.65-1.58-.98-4.33-2.74-8.36-5.89-12.54-8.84-1.01-.71-2.03-1.42-3.04-2.12-.06.11-.13.23-.18.34l-.54-.15v-.69c-.71-.49-1.43-.98-2.14-1.47-.46.19-.94.36-1.43.43-.17.02-.62-.58-.57-.84.04-.23.16-.52.31-.75l-1.37-.94s.02.06.02.09c-.05,1.12-.17,2.24-.27,3.35-1.68.15-.46-1.39-1.22-1.91l-1.94.35c.56-1.01,1.2-1.94.36-3.3l-1.24.99-.44-.45,1.35-1.44c-.51-.35-8.58-6.02-8.73-6.13l-.1,1.51c-.86-1.01-1.08-1.27-.57-2-1.86-1.36-3.71-2.73-5.62-4.02-2.24-1.51-4.53-2.94-6.91-4.22-.14-.08-.29-.15-.43-.23l-.64.23-.27-.38c.06-.07.12-.15.19-.23-1.93-.99-3.88-1.85-6.01-2.41-.71-.19-1.42-.35-2.14-.51l.35.77q-.8.82-1.87-.8l-.89,2.77-3.89-.57,1.03-1.35.03-.38c-.72-.48-2.37-.02-1.86-1.84,0-.02-.09-.09-.23-.17-.45-.12-.89-.25-1.34-.38-.72.91-1.33,1.91-1.97,2.88-.05-.58-.14-1.17-.1-1.75.04-.62-1.09-2.6-1.55-2.48l-.94,2.59-.54-2.62-.44.02-.23,2.01c-1.49.09-3,.11-4.48.31-1.34.18-2.65.54-4.11.85l.41-1.38c-2.1-.78-4.1,1.94-6.28-.06l-.2,2c-.45-.04-.89-.08-1.36-.12l.85-1.94-2.5.37v2.79l-1.95-1.76v1.82l-1.59-2.63h-6.6l.9,2.78c-1.71,1.26-2.91-1.55-4.57-.38-.21.15-1.1-.63-1.63-1.04-.11-.08.1-.51,0-.68-.12-.19-.42-.28-.83-.51l-.16,2.41c-.97-.18-1.8-.47-2.63-.46-.78,0-1.56.32-2.43.52-.2-1.02-1.02-1.87-2.08-.85-.84.81-1.37.06-1.95.2-.75.17-1.35.92-2.09,1.28-.23.12-.68-.2-1.01-.31l.22-1.96c-.74.67-2.6-.51-2.23,1.42-.57.1-1.14.3-1.69.25-.34-.03-.69-.68-.97-.63-3.4.6-3.35.51-6.1-.68-.74-.32-1.92.08-2.75.45-.34.15-.3,1.14-.45,1.8l-2.5-2.05c-1.36,2.08-3.32,2.6-3.56,1.2-.42-2.43-1.88-1.21-3.16-1.13l1.72,1.22c-.71,1.27-1.7,1.33-2.55.75-1.31-.89-2.48-.76-3.54.15-.24-.17-.36-.22-.39-.29-.32-.77-.63-1.55-.96-2.35-.67.49-1.21,1.1-1.89,1.35-.77.29-1.72.51-2.46.31-.76-.2-1.37-.96-2.34-1.7l-.51,3.89c-2.53-2.97-4.81-1.52-7.06-.14v-1.58l-1.71.88-.81-1.56c-1.02,1.03-1.59,2.24-3.25,1.47-.51-.24-1.47.7-2.26.8-.69.09-1.43-.26-2.15-.4-.07-.01-.16.11-.26.13-1.06.23-1.96,1.18-3.28.17-.43-.33-1.81.72-2.8.89-.46.08-1.02-.45-1.54-.7l-1.94-1c-.36,1.97-2.27,1.4-3.42,2.07-.09.06-.29-.07-.39-.1v-2.74l-1.78,1.73c-.86-1.47-1.31-1.48-2.83-.12l-1.56-1.1.53,2.76c-1.41-.68-2.44-1.44-3.57-1.65-1.68-.32-2.14,1.07-2.23,2.01l-3.21,1.36c-.47-.4-1.2-.79-1.59-1.41-.43-.69-.54-1.57-.76-2.26-2.2.03-2.93,1.49-3.58,3.54l-.75-2.58c-1.25.22-2.99.01-3.67.76-1.16,1.29-2.26,1.2-3.6.99v.02c-.32-.26-.69-.69-.89-.62-1.97.67-3.92,1.42-5.84,2.23-.52.22-.93.7-1.52,1.15l-.88-1.66-3.36,1.99c-1.5-.37-3.01-.31-4.52-.39-1.3-.08-2.77.14-3.86-.53-1.44-.9-2.42-.32-3.51.43l1.38,1.23c-.78.88-1.37,1.41-2.53.9-.72-.32-1.83-.39-2.5-.05-.95.48-1.52-.37-2.41-.24-1.72.25-3.52-.13-5.29-.13-.47,0-.94.46-1.47.75l-1.77-2.66c-.44.73-.8,1.52-1.33,2.16-.33.4-.97.87-1.39.81-2.67-.42-4.9.31-6.76,2.23,1.1.18,1.74.46,2.73,1.3-1.61.1-3.18.66-4.28.17-1.79-.8-2.72-.32-3.49,1.17l-2.17-1.14-.08.06c-.08.09-.16.18-.26.26-.35.48-.72.84.04,1.41.44.33.57,1.09.83,1.66l.02.57,2.38,1.13c-.59,1.34-.97,2.83-.08,4.29l2.41.2v-1.5l3.27.68-2.41,1.45,1.11.86c-.12.25-.18.62-.36.69-1.37.54-2.74,1.12-4.16,1.48-.43.11-1.41.03-1.23-1.1.09-.53-.19-1.11-.3-1.67l-1.81.09c-.21.66-.3,1.41-.69,1.97-.26.38-.93.48-1.5.74l.3,1.44-5.28,1.18-3.64,2.09-.69-.95c-.84.39-1.51.84-2.25,1.02-.97.24-2.06.08-2.97.43-.83.31-1.47,1.1-2.23,1.61-.37.24-.84.32-1.47.56l-.3-2.31-.4.03-.5,1.94c-1.04.33-1.87.52-2.65.85-1.3.54-2.51,1.37-3.85,1.71-1.22.3-2.22.63-3.23,1.49-1.16.99-2.68,1.8-4.16,2.1-1.42.28-2.51.77-3.62,1.65-.68.54-1.79.53-3,.83-.7,1.26-2.1,1.82-3.78,2.51-2.1.86-3.91,2.27-6.29,2.83-3.08.72-3.01,1.02-4.85.81-.47,1.96-.8,2.58-3.19,3.03-2.25.42-4.01,1.44-5.69,2.82-.5.41-1.11.7-1.77,1.12-.28-.72-.4-1.29-.72-1.72-.15-.2-.68-.13-1.16-.2l.74,1.39c-2,1.52-1.26-1.33-2.43-1.33l-.71,3.95c-.82.35-2.29-.76-2.54,1.03-.32-.09-.67-.29-.96-.24-.89.15-2.5.36-2.51.63-.13,2.34-1.7,2.06-3.14,1.85-1.87-.28-3.45.61-4.03,2.01-.52,1.25-1.29.97-2.01,1.17-.85.24-2.16,0-2.51.51-.46.65-.15,1.83-.2,2.77,0,.13-.15.25-.33.53-.46-.3-.9-.82-1.33-.82-.58,0-1.14.56-1.74.63-2.19.23-4.5-.15-6.34,1.61-.88.84-1.95,1.49-2.97,2.19-1.55,1.06-3.02,2.33-5.16,1.43-.34-.14-.89.23-1.29.35,0,.93.11,1.73-.02,2.49-.31,1.79-1.42,2.47-3.48,2.25l.07.08c-1.96-.4-.96,1.89-2.14,2.29l-1.3-1.23-1.05,2.03c-1.83-.86-2.33.87-3.39,1.56,1.4.43,2.74.56,3.82-.58.67-.7,1.2-.84,2.26-.58.84.21,2.54.18,2.47-1.73,0-.26.68-1.23.98.05.01.05.48.11.63,0,.73-.48,1.42-1.02,2.25-1.64l-.32-2.09,2.66,1.71c.16-.78.24-1.14.3-1.5.23-1.35,1.25-2.06,1.98-1.22.71.82,1.15.61,1.93.48.57-.1,1.22.23,1.83.37l.43.76-2.32,1.5,2.53.86-.07-.06,1.71-1.08,2.61,2.18c.07,1.38-2.39.81-1.89,2.47l1.01.47,2.84,2.55c.63-.64,1.51-1.2,1.9-1.99,1.29-2.64,1.22-2.68,3.12-4.47.46,1.75-2.74,2.4-1.27,4.64l1.13-1.98,1.04,2.15.76-1.62.92,1.74c2.07-.54.65-2.1,1.19-3.25l-2.7,1.04c1.5-2.86,3.35-4.62,6.07-5.72-.19.9-.23,1.68-.54,2.33-.3.63-.87,1.12-1.43,1.8l1.82-.09,1.72-.85c-.79-1.3-.75-2.59,1.16-3.88-.58,2.2-.55,3.98.98,5.34l2.75.89,1.47.35c-.6,2.07.34,3.96,1.12,6.36l-2.72-1.47,1.47-1.75-2.82-.29c-.33-.49,1.34-1.41-.3-1.64-.87,1.35-1.29,2.72.62,4.48l-3.12.33-.73,1.54q-1.99-.49-2.39,3.33l2.71-2.15c1.35.86,2.49-.38,3.77-.94h.02c.48.85-.12,1.2-.58,1.43l1.63,1.87-.33.55c-2.09-1.21-4.15-1.81-5.95-.29.12,2.12.62,3.89,1.99,5.3.05.05-.25.44-.36.63-1.51-.11-1.57-2.35-3.32-2.01-1.85.36-2.01-.91-2-2.47-1.62.43-3.24.69-4.36-1.43-.47,1.63.03,1.98,1.07,2.25,1.62.42,2.68,1.59,3.16,3.19.09.29-.21.69-.37,1.19l-2.08-1.27-2.9,2.03.79,1.49q2.3-1.15,3.64-.37c-.79.24-1.63.63-2.5.72-.97.11-1.97-.08-2.96-.09-.49,0-.98.09-1.47.15-1.06-1.2-1.96-.2-2.32.54-.33.66-1.15,2,.51,2.42l-1.57,1.39c-.05,1.69,1.02,1.68,2.27,1.38-1.76,1-2.86.98-3.44-.15-.83-1.6-2.19-1.9-3.77-1.93.46.6,1.21.86,1.61,1.39.36.46.34,1.22.46,1.71-.9.14-2.02.05-2.83.5-2.18,1.19-2.12,1.27-4.61.43-.29-.1-.86,0-1,.22-.15.23-.07.85.14,1.02.64.53,1.39.93,2.33,1.52-3.26.06-4.7,1.02-4.36,2.79l1.46-.72c.4.67-1.1,1.82.62,2.02.68-1.56.87-1.63,1.73-.68.25.28.49.58.73.87l-1.07.29q2.42.03,3.83.96c2.24-1.01.36-2.66.5-4.05,1.24-.24,1.95-.16,2.03,1.31.03.6.75,1.15,1.17,1.74l1.49-1.66c-1.65-.21-1.35-1.44-1.71-2.19l4.47-.71v3.25l-1.51-.42c-.06.44.02.97-.2,1.3-.99,1.51-2.33,2.8-2.52,4.78-.03.28-1.08.66-1.64.63-1.35-.05-2.69-.32-4.11-.51l.64,2.18-1.87-.95.64,3.76c-.27.1-.53.19-.8.28l-.96,5.83-2.26-1.86,1.47-1.25-.31-.41-3.31,2.41,1.09,1.68c.62-.09,1.66-.47,1.84-.22.97,1.32,2.1.48,3.16.43-.08,1.06-.17,2.13-.27,3.47-2.09-1.57-1.49,1.04-2.52,1.5l-2.32-.8-.2.31,1.45,1.55c-1.21-.1-2.22-.2-3.23-.24-.26-.01-.53.18-1.23.44l2.64,1.5c-.72.03-1.18.06-1.65.08-.4.01-.81,0-1.97,0,3.81,1.74,5.27,4.02,4.28,7.37-1.03.51-1.52-1.87-2.72-.38l.17.73c.76.49,1.94,1.56,2.21,1.37,1.61-1.15,3.21-.8,4.88-.48.57.11,1.67-1.19,1.56.71-.02.26,1.45.5,2.12.93.4.25.57.85.85,1.3.27.12.58.4.78.33,1.53-.54,3.67.58,4.63-1.68.08-.19,1.01-.03,1.61-.03-.12.43-.11.7-.23.78-1.2.82-2.43,1.61-3.74,2.47l.64,1.03c1,2.34.83,3.07-1.07,4.44l1,.83c-.5.54-.89,1.16-1.45,1.51-.53.33-1.16.49-.69,1.21.28.43.86.98,1.23.93.53-.07,1.11-.56,1.45-1.03.36-.5.31-1.36.73-1.74,1.11-1.02.16-1.84-.25-2.83,2.02.87,3.97.74,5.88.67l.52,2.41,2.29-1.16c-1.31-.83-.94-2.12-.85-3.34l.07.06c-1.49-4.19-.71-5.42,3.95-6.13-.03-.28-.17-1.82-.21-2.3.52.06,1.05.08,1.56.2.27.06.49.3.76.41,1.3.55,2.62,1.53,3.91,1.51,1.33-.03,2.81-.79,3.36-2.6l1.19,2.17,1.66-2.36c-1.57-.01-2.82-.69-4.23-.35-.29.07-.86-1-1.47-1.75l5.62-1.44-1.18-2.7c1.51.09,2.2,1.81,3.83,1.04,1.13-.53,2.91,1.6,3.86-.45l-.38-1.51c.67.18.87.57,1.14.9.39.47.89,1.32,1.24,1.27,2.46-.34,3.93.89,4.83,3.03l.91-.64.09-1.67,1.17.49-.09-.04.57-1.55,1.07.4.53-2.2,1.41,2.17,2.57.68c.13-.13.36-.51.7-.66.35-.17,1.04-.32,1.17-.15.57.71-.4.58-.52.85-.18.39.03.96.12,2.1,1.13-2.41,2.57-1.11,3.88-1.24l.77-2.01c1.02.38,1.87,1.71,3.13.49-.68-.33-1.42-.56-2.01-1-.6-.45-.28-.76.36-.78,1.18-2.64,1.82-2.85,4.08-1.36.16.11.5-.1.75-.08.69.05,1.37.14,2,.21l.14-1.74c-1.27-.97-.47-2.3-.55-3.47l-1.36,1.51-1.06-1.69,5.23-3.13c-.03,1.89,1.64,1.94,3.06,2.31l-1.11,1.84c6.05.68,8.11.49,9.5-.93.78.94,1.71,1.75,2.92.63l.87,1.61,2.95-.61,2.75-5.43c-1.15.74-2.51,1.13-2.55,2.84-.02.8-.83,1.3-1.7.81l.74-3.33c-1.55-.01-2.81.67-3.82-.78-.34-.48-1.64-.21-2.43-.48-1.22-.42-1.4.98-2.2,1.32-.24-.66-.29-1.31-.64-1.59-.35-.28-1-.19-1.71-.29v-6.77l2.06-1.13-.74-2.54,3.01-.8,1.94,1.49.68-1.27-3.59-1.54c1.38-1.19,2.58-1.85,4.3-1.68.04.39-.07.93.14,1.1,1.77,1.46,3.78,2.74,3.22,5.54,1.26-.31,1.05.27.6.99-.1.16-.22.32-.51.71l2.57-.56,1.26,4.06h1.9c.27.76.47,1.37.7,1.96.28.71.59,1.41.71,1.68,1.11.35,2.28.39,2.44.83.44,1.13.43,2.42.61,3.7l1.85-.45c1.93-3.15-2.49-3.51-2.2-5.97-1.52.19-2.06-1.21-2.62-2.02-2.16-3.16-4.15-6.46-5.3-10.2l2.66.28c1.28-1.56-1.47-1.79-.53-3.52.68-1.25,1.67-1.75,2.77-2.46l-1.98-1.05-1.12.62-2.6,3.19q-1.05-1.61-.55-3.96l2.9-.47.16-.25-2.98-.74c.95-.69,1.88-1.08,2.37-1.77.97-1.38,1.72-1.65,3.24-.94.39.19,1-.07,1.81-.16l-1.37-1.43,4.45-4.5c-.53-1.03-.71-2.04-1.28-2.35-1.24-.67-1.11-1.45-.6-2.38.55-.99,1.3-1.71,2.58-1.37.43.11,1.13.42,1.25.26.64-.78,1.39-.8,2.02-.26.49.42.72,1.16,1.07,1.76l3.54-2.59c.25.52.36.88.57,1.16.17.22.46.42.72.48.44.1,1.17.26,1.31.06.27-.38.24-.96.32-1.47l-1.51.56v-3.37c-1.26-.99-2.32-.25-3.39.45q.19,1.6-.81,3.12l-.48-2.95-1.85,1.87c-.35-.71-.8-1.26-.79-1.8,0-.26.82-.6,1.31-.77,1.9-.67,3.81-1.3,5.72-1.94-.3-1.53,1.34-.74,1.96-2.01l.48,2.66,1.15.51c1.8.04.83-2.33,2.36-2.52l-2.22-2.12c1.71.1,1.74-2.23,3.46-1.36l2.12-3.28.43,3.12.41.03,1.62-5.26.44.09-.09,1.15c.81.37,1.57,1.56,2.81.62l-2.14-4.28,2.56-.44c.36,1.71-.15,3.54,1.89,4.13l.86-3.07,3.94,3.18-.08-.07c.24-.25.52-.47.7-.76.53-.87.82-2,1.55-2.62,1.42-1.2,3.62-3.17,4.29-4.3l3.94-.48,1.91,2.57c-1.93.84-3.55,2.68-5.75.61-.13-.12-.8.33-1.32.57l1.23,1.06-1.39,2.76c3.33-.48,6.38-.77,9.01-2.73l1.22,2.56,1.04-.69,1.95,2.46c-1.62.23-2.71.84-2.7,2.53,1.22-.2,2.11.21,2.73,1.22l1.86.66c-1.18,1.22-1.76,2.69-3.63,2.36-.52.64.08,1.68-1.08,2.27-.69.36-.8,1.82-1.35,3.27q2.39-1.85,4.7-.32c.18.12.53,0,.8-.02.71-.81,1.21-.19,1.52.39.21.39.17.96.13,1.44-.14,1.59-.07,3.03,1.73,3.77.14.06-.09,1.02-.16,1.64l-2.7-1.44v2.6l-2.68.65.13.87c1.07-.87,2.13,0,3.36-.51.59-.24,2.22.58,2.44,1.24.38,1.11.91,2.74-1.07,3.4-.44.14-.7.81-1.15,1.36.52.17.78.28,1.05.33.61.12,1.28-1.19,1.87.12.54,1.21,2.29,2.48,1.21,3.64-1.92,2.07.13,2.04.99,2.83l.29-2.27.65.05v2.79c.68.26,1.63.44,1.64.65.09,2.97,2.28,5.87.11,8.92,1.18.22,2.27-1.24,3.18.46-.74.95-.51,1.77.58,2.66.76.62,1.09,1.77,1.65,2.75q1.57-.61,3.6,1.28l.28,2.34c1.38-.42,1.4.81,1.73,1.52.62,1.32.97,2.74,2.7,3.22.47.13.69,1.17.99,1.71l3.87-1.09-1.14,1.86c.59.74,1.5,1.37,1.45,1.89-.2,1.82,1.2,2.19,2.23,2.91.55.39,1.5.55,1.69,1.04.81,2.01,2.68,2.19,4.28,2.45,1.7.27,2.7,1.16,3.48,2.42.72-.05.36-1.11,1.63-.92,2.86.43,5.75.53,8.65.96,4.4.66,8.93.64,13.41.93,1.69.11,3.42-.04,5.06.29,1.66.34,3.21-.33,4.84-.1.79.11,1.65-.24,2.75-.43-1.06-1.71-.6-2.95.24-3.88.36.25.75.75,1.09.71,2.91-.3,5.75.97,8.72.04,3.71-1.17,7.77-.13,11.52-1.52.58-.22,1.43.28,2.26.47l-1.4,3.12c1.23.23,2.24.49,3.27.58,1.14.1,2.43.37,3.4-.04,2.02-.85,4.08-1.04,6.18-1.11,2.13-.07,4.26-.02,6.73-.02l.9-1.32c1.12-.28,1.49,1.33,2.76.52.62-.4,1.85.16,2.8.29l-.17-.99c.92-.55,1.35,1.44,2.28.2.8-1.06,1.87-.45,2.92-.03l.6-2.07,2.7.51-1.87.39.6,2.78-3.14.68q.52,1.01,5.37.2c-.48-.76-.49-1.14-.05-1.74,1.92.26,3.7-.81,5.65-.64l-.17-2.27c-.98-.64-2.14,1.64-2.97-.52-.31-.8-2.41.1-2.65-1.78l5.89-5.29-.68-1.47c1-.21,2.08-.25,2.38-1.58.31-1.37.46-3.49,1.31-3.87,1.49-.66,1.39-2.02,2.2-2.9.74-.79,1.72-1.31,2.33-2.17.99-1.38,1.84-2.85,2.9-4.52,0-.35-.26-1.66.05-1.81,1-.48,1.01-1.3,1.38-2.1.47-1.01.56-2.55,2.3-2.55.15,0,.52-.81.41-1.11-.18-.48-.67-.85-1.18-1.45.89-.94,1.73-1.81,2.54-2.71.19-.21.47-.61.4-.73-.8-1.35,1.1-2.54.22-3.87,2.08-.76.84-2.66,1.38-3.95.58-1.36,1.15-2.67.91-4.24-.06-.4.65-.93,1.02-1.43l-1.67-1.16,2.37-.89c.44-1.48-1.37-2.5-.63-4.1.52-1.14,1.13-2.81.67-3.71-.87-1.7.18-2.48.81-3.57-1.65-1.09-.48-2.33-.29-2.98l-1.92-2.72c-.13-1.34,2.21-.98.69-2.5-.39-.39-.17-1.4-.23-2.2,2.91.95,5.05,3.23,7.11,6.76l1.07-2.5.62.26c-.61,1.55-.43,2.52,1.15,3.33,1.04.53,2.03,1.92,2.26,3.08.26,1.3.9,2.01,1.65,2.84,1.24-.61,2.27-1.74,3.56-.51.1,2.97.63,3.54,2.64,2.61l-.28,1.15,2.99,1.16-3.45,2.32.79,1.38,3.15-2.52.43.62-1.91,1.18,1.73.67-.7,2.14c1.4.02,2.65.09,3.28,1.64.12.29.97.27,1.49.4l.18-2.7,1.12,2.86h-1.11l.84,2.03c.39.08.78.12,1.15.24,1.73.55,1.76.83.57,2.51-.25.36-.21.94-.25,1.42,0,.1.19.22.33.37l.61-1.08c1.14.86,1.53,2.75,3.54,2.57-1.1.47-2.19.95-3.1.72-.77-.2-1.33-1.22-1.99-1.87l-1.53.17c-.04.18-.08.37-.15.77l2.04.56-.41,2.18,2.13-1.52.24,2.48,2.21.63-.94,2.46c.79-.08,1.31.01,1.64-.2,1.66-1.07,1.35-2.98,1.83-4.6.55,1.35,1.81,2.65.05,3.94-.83.61-.89,1.6-.26,1.97,1.36.79-.2,1.25-.03,1.84l3.14.38c-1.4,1.48-1.48,1.7-.74,2.68.89,1.17.99,2.87,2.53,3.66-.47.03-.74-.15-1.03-.28-.4-.17-.81-.29-1.02-.36l-.63,3.43c.91-.37,1.82-.77,2.87.52l-1.07.33.14.32h2.49l.07.5-3.53.77v4.66l-.62.29.16,2.63h1.56c.21-.73.24-1.73.59-1.86,1.09-.4,2.29-.48,3.53-.69l.48-1.65.47.07-.16,2.89,1.55-.81,1.59,1.71-4.28.53c-.05,1.07-.6,1.88-1.9,1.94-.11,0-.23-.32-.34-.54l-1.23-.25.55,2.05c-1.46.54-3.52.67-4.1,1.66-.78,1.34-2.12,2-3.02,3.68,1.18-.07,2.82-.42,2.95-.12.64,1.45,1.69.77,2.81.77,0,.69-.09,1.34.03,1.94.11.57.42,1.11.67,1.65.01.03.28-.05.57-.11l-.71-1.62,3.42-1.76.62,3.28,1.89-.7-1.1-1.74c.88.2,1.31.31,1.76.39.56.1,1.12.16,1.59.23,0,.58-.16,1.27.03,1.39.51.32,1.21.62,1.76.53,1.19-.2,2.15-.66,3.51.11.95.54,2.56-.14,3.88-.2.34-.02.92.14,1,.36.62,1.62,2.16,1.38,3.22,1.6l.55,2.41-1.55.37c1.17,2.18,2.38,1,3.59.34-.1-1.02-1.82-1.69-.37-2.76,1.81.77,2.69,2.1,2.62,4.2l2.83-3c.84,2.47,2.87,2.89,4.39,4.16.11-.93-.52-2.14.54-1.87l1.86,3.07c-.01-3.43.39-3.65,2.98-3.22,1,.17,1.14.87,1.68,1.34.52.45,1.57.3,2.06.76,1.04.96,1.87,2.14,2.82,3.27,2.32-2.38-2.55-2.37-1.57-4.08.73,0,1.42.21,1.85-.04,1.9-1.11,3.8-.65,5.89-.12l.75-3.18,2.14,2.5.32-1.57c-.66-.04-1.24-.23-.67-.98.18-.23,1.01-.31,1.21-.11.71.68.99.5,1.54-.23.56-.73,1.45-1.22,2.2-1.81-.86.06-1.74.2-2.59.13-.33-.03-.62-.53-.96-.84,1.66-1.31,2.3.9,3.54.68.08.06.15.14.24.16.09.02.28-.04.28-.04-.05-.77-.12-1.54-.2-2.46,1.25-1.41,3.14-1,5.28-1.19-1.18-1.65-2.49-2.31-4.22-2.18Zm-46.91-94.72l-.7,1.83c-.57-1.34-.59-1.4.7-1.83Zm.82,5.75l-2.78,1.27-.42-2.73,3.2,1.46Zm24.7,1.56l1.64.92c-.89.66-.9.65-1.64-.92Zm1.79.87l.78-1.86c.3,1.56.31,1.61-.78,1.86Zm4.12-6.07l-.92,2.45c.98-.52,1.39-.15,1.39.85-1.64.94-3.15-.13-4.73-.61l3.34-.24c.09-1.25-.92-1.16-1.68-1.38h0s2.6-1.07,2.6-1.07Zm-2.36-1.39l-.25,2.45c-.74-1.54-1.23-.5-1.89.36l-.91-1.53,3.05-1.27Zm-2.51-4.84v1.86l-1.91-1.04,1.91-.82Zm-3.5-2.18l.2.49c-.46.24-.91.52-1.4.68-.09.03-.34-.38-.51-.58l1.71-.6Zm-1.36,4.34c.24.49.41,1.02.59,1.53l-.97.26c-.12-.54-.26-1.08-.33-1.62,0-.02.68-.22.71-.17Zm-2.87,2.18l-.51-.56c.37-.31.72-.63,1.11-.91.04-.03.26.2.4.3l-1,1.17Zm1.47-2.56c-.41-1.57-2.46-1.4-3.52-3.21q3.13,1.31,3.52,3.21Zm-5.38-3.83c.26.22.39.34.39.34-.38.76-.94,1.22-1.96.92l1.57-1.26Zm-5.3-9.72l1.36,1.83-1.36.69v-2.52Zm-3.05,11.62c.43-1.47,1.16-1.33,2.02.14l-2.02-.14Zm1.44-11.39c.35.01.66,1.06.99,1.64l-.6.36c-.32-.39-.59-1.02-.98-1.11-.56-.13-1.21.14-1.82.25l-.12-.43c.85-.27,1.7-.73,2.54-.7Zm-19-10.47l-2.5-1.73c1.54-.56,2.05.07,2.5,1.73Zm-243.39-4.31c.25-1.77-3.05-1.65-1.16-3.84l-3.61-1.83.03-.83c1.58,1.36,2.43.14,3.77-1.07.33,1.47.45,2.55.83,3.52.33.86.95,1.62,1.61,2.71l-1.47,1.34Zm-106.74,51.08l1.82-2.34c.79,2.01-.98,1.86-1.82,2.34Zm3.64,2.92l-2.33-1.15c.78-1.66,3.22-2.21,2-4.81l.87.32.22,2.06,1.61.5c-.76.97-1.51,1.95-2.37,3.07Zm3.99,8.43c-1.09-.28-2.18-.55-3.28-.83l1.42-.98,1.95,1.5-.09.32Zm-1.54-11.52c-.26-.85-.57-1.69-.73-2.55-.05-.3.3-.67.54-1.15l1.88,4.29-1.69-.59Zm-7.91,43.82c-.47.85-2.42-.8-2.25,1.26h0c-.16-1.18-1.21-2.71,1.29-2.79.43-.01.83-1.03,1.46-1.88l-.5,3.4Zm21.62-11.66c.55.24,1.1.51,2,.94-1.8,1.28-2.01.23-2.41-.69.25-.16.36-.27.41-.25Zm-2.66-4.74l1.11.9-.43.43-.96-1.06.27-.27Zm-2.29,3.67c1.85,1.38.16,1.7-.08,2.39l-.63-.17.71-2.22Zm-.15,23.28s.14.11.15.18c.02.09-.01.19-.02.29l2.21.22-1.69,1.84-.79-1.68-1.05,1.59c-.75-1.8-.61-2.1,1.18-2.44Zm-3.84,1.06h-2.49l2.46-3.43c1.49,1.44.27,2.39.03,3.43Zm-2.6-12.63l-.18-1.56.6-.14.46,1.59-.88.1Zm-.3-12.34c.47,1.34-.13,1.5-1.82.98l1.82-.98Zm-1.68,2.89c.34-.15.87-.48.95-.39.99,1.07,1.66,2.28.93,3.9h1.92c-.15.24-.24.58-.41.62-1.8.46-2.27.22-2.19-1.37.06-1.2-.28-2.08-1.2-2.75Zm.69,21.34l.49,1.51-.55.21-.57-1.49.63-.23Zm-3.11,19.63v2.48c-1.04-1.12-1.02-1.15,0-2.48Zm-7.79-12.62q.64-1.31,2.14,0c.09-.05.23-.08.25-.14.1-.37.18-.74.26-1.1l1.59,1.15-2.17,2.4-2.07-2.3h0Zm-2.66,11.04l-2.61-2.22.69-1.33,3.71,1.27-2.04.66.25,1.61Zm-.28-4.71l2.98.15c-.93.34-1.9,2.36-2.98-.15Zm4.67,6.96l-.78-1.35-.98,2.72c-.82-1.64-.42-2.76.08-3.88l3.1.77c-.44.56-.89,1.11-1.41,1.74Zm1.5-1.82c-.35-.98-.7-1.97.49-3.13l1.68,2.1-2.17,1.03Zm-1.35-16.72c-1.4.31-2.1-.14-1.83-1.64.63-.49,1.34-.91,1.85-1.51,1.15-1.35,1.58-1.35,2.88.24,1.06.93,1.4,2.12,1.35,3.69-1.56.1-3.02.5-4.26-.79Zm5.9,21.06c0,.18-.02.36-.06.84-.57-.25-1.47-.44-1.49-.69-.1-1.3,1.02-.47,1.55-.76.01.2,0,.4,0,.6Zm1-3.54l2.89-1.2c.04,1.55-.03,1.58-2.89,1.2Zm.41,11.93c.32-1.14-.38-3,2.18-3.33l-.83,2.13,1.46.36c.04.62.09,1.23.13,1.89l-2.94-1.06Zm6.01,1.44c-.49-.28-.92-.47-1.29-.76-.63-.48-1.22-1.02-1.82-1.53v-1.22l3.11,1.25v2.25Zm1.37-9.04c-.99,1.46-2.12,2.82-3.61,4.74-.08-1.98,1.09-3.62-1.25-4.71l4.37-1.4c.2.51.65,1.15.49,1.37Zm.44-1.35l1.21-1.73.88,2-2.09-.26Zm4.57-2.05c-2.19.17-.72-2.47-2.37-2.63l1.23-.63c.35.07.71.12,1.14.18v3.08Zm-1.08-3.45c.53-2.03,1.49-2.16,3.54-.34-1.21.42-2.73-1.4-3.54.34Zm7.24,6.54h-3.75l-.09-.48,2.06-1,1.78,1.49Zm-1.14-55.54v2.03c-.72-.06-1.73.05-1.82-.2-.29-.73-.56-1.78-.23-2.38.96-1.78,2.32-.38,3.6.31l-1.54.24Zm58.83,41.67l.36-2.38c1.53,1.01,1.46,1.44-.36,2.38Zm269.6-75.43l.34-3.1,1.73,3.48-2.07-.38Zm5.57-5.95l1.04,1.15-2.43,1.43,1.39-2.58Zm-1.61-.96c-.57.86-.64,2-2.08,2.14-.56.05-1.03,1.07-1.55,1.66h0c-5.19,2.91-10.37,5.9-16.92,4.96-.05-.41-.19-.88-.16-1.33.04-.45.25-.89.44-1.52l2.45.84c1.35-1.9,3.08-3.14,5.37-3.72,2.46-.63,4.75-1.74,7.06-2.79,1.26-.57,2.56-1.05,3.87-1.58l1.5,1.36Zm-2.31-7.51c.09-.26.53-.39.82-.57.12.23.36.47.34.68-.03.28-.27.54-.61,1.14-.31-.67-.63-1.03-.55-1.25Zm-2.04-4.5c1.34.6,1.52,1.37.82,2.72-.93-.85-1.8-1.42-.82-2.72Zm-5.36-4.71l.66.58-.69.7c-.17-.19-.49-.39-.47-.56.02-.23.29-.44.5-.73Zm-1.82-8.05l.36.22c-.22.73-.45,1.47-.68,2.2l-1.18-.56,1.49-1.87Zm-2.68,1.16l-1.73-1.56c1.82-.44,1.97.31,1.73,1.56Zm-2.62-14.17l-3.19-.2c.93-.17,1.89-1.76,3.19.2Zm-3,2.76l1.66,1.1-.19.34-1.85-.84.38-.6Zm1.93,4h-1.78q.75-.8,1.78,0Zm-4.13-11.39l.27,1.56-.46.02-.12-1.54.31-.04Zm-2.95-2.09l-.6,1.85-.99-1.54,1.59-.3Zm.68,5.05c-1.17,1.29-1.58.27-1.84-.75l1.84.75Zm-11.57-4.94c.22-.16.46-.28,1.18-.7-.44.83-.62,1.52-.86,1.54-.57.06-1.25-.18-.32-.84Zm-2.65-2.75c.2-.01.43.42.74.75-.46.3-.83.68-.99.61-.28-.13-.43-.53-.63-.82.29-.2.58-.53.88-.55Zm-11.96,8.84l.45.29-.63,1.14c-.15-.11-.45-.28-.43-.31.18-.38.4-.75.61-1.12Zm-1.43-16.63l-.58.82c-.21-.26-.43-.52-.64-.79l1.23-.03Zm-.43,15.97c-.47,2.15-1.55.36-3.06.5-.08-.45-.15-1.04-.24-1.81l3.3,1.31Zm-1.11,1.89c-1.35.03-1.7-.01-1.94-1.36l1.94,1.36Zm-6.03-18.51q.14,1.35-1.35.91l1.35-.91Zm-2.36,13.63l2.35,1.25-2.34.99-.47-1.78.46-.47Zm-7.19-12.21c-1.31.06-2.21-.09-2.54-1.33,1.1-.33,2.13-.48,2.54,1.33Zm-4.3,15.42l.65,2.02-2.07-.38,1.42-1.64Zm-6.94.94c1.38.38,1.29-.78,1.52-1.5l2.18,1.21c-.03-.08.04.04.02.06-.67.68-1.25,1.58-2.07,1.95-.54.24-1.42-.29-2.15-.47.17-.44.45-1.27.49-1.25Zm-4.29-4.65l-1.38,1.63-.46-1.73,1.85.1Zm-8.45-3.53l1.76,1.41c-.96-.07-1.4.01-1.7-.15-.24-.13-.33-.56-.48-.86l.42-.4Zm-23.29,13.01c1.2-2.82-.05-6.07,1.86-8.68.19-.26-.39-1.03-.21-1.35.28-.51.89-1.2,1.36-1.19,2.23.04,2.51.03,4.18-1.32.53.32,1.09.7,1.68,1,.99.51,1.87.61,2.84-.26,1.24-1.11,2.77-1,4.28.1.64-1.64,1.73-1.73,3.21-.77l.23,2.51c.82.29,1.27-1.64,2.18-.4.15.21-.23.82-.43,1.42,2.05-.02,3.78,3.66,6.33.09l-2.12-.34.26-1.55,2.78,1.12v2.14l-1.39,1.15c.57.28,1.56.9,1.63.8.99-1.26,2.13-1.33,3.54-.88.41.13,1.01-.3,1.58-.5,1.24,1.98-1.63,1.2-1.37,2.66l2.07,2.01,4.53-.54v3.01h2.24l-1.14-1.25,3.51-2.65h0c.18.41.36.82.54,1.24,1.51.08,2.69-.56,3.51-1.87l.63-.61,3.51-1.07.91-1.95.32,2-3.02,2.24,1.83,1.16.56-.07,1.07-2.14h2.36l.58.66-1.83.62-.27.74c.45.19,1.07.68,1.31.54,1.72-1.07,2.99,1.67,4.59.52.97-.69,1.8-1.57,2.69-2.38h0c.84-.2,1.21,0,1.17.95-.03.52.38,1.06.77,2.06l1.31-1.99.21.13-.2.77h.03c-.24.46-.36,1.08-.69,1.22-.86.36-1.81.48-2.77.71l.36,2.98c-1.53-.15-2.5.4-3.52,1.69-1.77,2.24-3.57,4.61-6.23,6.26l-2.19-2.08c-1.42.13-3.03-.03-2.99,2.55-.82-1.1-2.04-1.46-1.37-2.9.17-.37-.05-.99-.24-1.42-.12-.27-.53-.5-.84-.54-.14-.02-.4.44-.52.72-.26.62-2.15,2.85-2.67,2.91-.76.09-1.53.02-2.45.02l-.26,1.7c-1.59-.31-.36-2.04-1.69-2.75-.94-.51-1.23-2.21-1.8-3.36l2.6-1.03-2.16-1.07c-1.12.79-1.79,2.13-3.51,1.91-.4-.05-1.83.92-.96,2.19l2.59-1.3-.66,3.11,1.65,1.28c-1.03.83-.68,2.61-2.44,2.68-.93.04-.93.12-2.17-1.45l1.04-2.6c-1.68-.52-1.57,1.41-2.63,2.08-.38-.7-.74-1.24-.99-1.84-.77-1.76-1.11-1.87-2.75-.75-.32.22-.59.52-1.1.97l-.33-2.53-2.47.37,2.06,1.81c-1.23-.16-2.03-.03-2.39-.36-.76-.72-1.18-1.79-1.95-2.5-.56-.52-1.54-.19-1.7-1.61-.15-1.41-1.45-1.71-4.86-2l-.86,2.61c-1.1-1.27-2.16-2.6-3.27-3.88-.92-1.06-.95-2.98-3.3-3.18,1.11,2.23-1.58,3.58-.77,5.66q1.6-1.93,3.51.46l-1.77,4.53c-.26-1.19-.52-1.76-.49-2.33.06-1.07-.1-1.94-1.24-2.33l-.78,1.54c-.82-1.16-2.31-.2-3.32-1.66-1.03-1.48-1.43-3.17-.93-4.35Zm50.16,63.65c-.17-.2-.48-.4-.47-.59.01-.22.3-.42.58-.75.17.37.37.61.35.84-.01.18-.29.34-.46.5Zm2.08,5.55c-.82.2-1.66.58-2.48.54-.81-.04-1.6-.51-2.33-.77,1.25-.75,2.15-.72,4.81.22Zm-6.48-17.43c-.07,1.28-.88,1.25-1.98.71l.75-1.77c.46.38,1.25.74,1.23,1.06Zm-5.74,2.28l-1.16-2.43,3.23.33-2.08,2.1Zm.04,1.42c-.54.18-1.08.37-1.63.51-.06.02-.2-.28-.3-.43l1.77-.64.16.56Zm-2.6-7.84c1-.19,2-.4,2.14,1.09q-1.52-.09-2.14-1.09Zm-2.43,17.68h0s1.43-1.65,1.43-1.65q.05,1.46-1.42,1.65Zm-6.52-6.87h-2.36c.52-1.26,1.21-2.38,1.4-3.59.09-.58-.67-1.41-1.22-1.94-.35-.34-1.02-.35-1.5-.49l-.36-3.71c1.03,1.09,1.81,2.2,3.45,1.15.17-.11.78.47,1.18.72.65-.77,1.3-1.54,2.17-2.56l1.03,2.01-4.47,2.53c2.8,2.02,2.83,2.77.69,5.87Zm-3.74-47.62l1.45-.25-.02.78c-.44,0-.89.02-1.32-.02-.05,0-.07-.33-.11-.5Zm9.35,44.43q-1.28,1.57-2.89.04c1-.54,1.89-.73,2.89-.04Zm-16.58-43.06l1.66-1.13q.3,1.47-1.66,1.13Zm-5.01-6.58c1.21-.04,2.54.83,2.8,1.94.12.51.09,1.06.13,1.78l-2.48-.87.94-2.2-1.38-.65Zm-1.94,63.15c0,2.16-.04,4.31-.15,6.47-.05.94-.41,1.86-.48,2.79-.09,1.23-.02,2.48-.02,3.87-3.14.63-5.97-.46-8.8-1.1-2.8-.63-5.94-.13-8.29-2.06l1.61-6.62c-2.4.51-4.78.5-5.72-1.41-.9-1.84-.52-4.11,2.34-5.43-3.01-.76-3.57-2.62-3.44-4.89.1-1.74.16-3.48.25-5.22.13-2.53,1.36-4.42,3.41-5.82.8-.55,1.61-1.11,2.49-1.49.72-.31,1.55-.35,2.75-.6.79-2.57,3.66-2.72,6.12-3.77,1.72,1.94,1.32,3.97.49,6.01,1.95,2.18,2.44,4.82,2.69,7.54.03.38.03.76.11,1.13.71,3.13.32,3.74-2.8,4.35-.27.05-.52.19-.85.32.18.15.29.33.39.32,4-.27,4.11-.21,4.05,3.65-.03,1.83.51,3.75-.71,5.47-.19.27.11.9.18,1.37l.79,5.34c.35-.15.81-.23.84-.39.53-2.52,1.43-4.99.86-7.67-.39-1.82-.54-3.69-.71-5.54-.1-1.11.02-2.21,1.55-2.67,1.16,1.87,1.06,3.99,1.07,6.07Zm-22.52,38l1.03-.87c-1.66-1.23-2-1.15-5.93,1.41.45,2.53.14,2.78.06,4.01-.08,1.16.59,2.36.99,3.78-1.58-1.5-3.03,1.4-4.67.13-.65-.65,1.36-1.07-.05-1.8-1.12-.57.2-1.02.29-1.55l.47-1.51.14-1.44c1.44.28,1.71-.76,2.15-1.97l-3.81-.72-.17.57,1.53.67c-.32,1.61-1.42.18-2.22.61l.43,1.19-1.26.09.24-3.28-2.7-.79-.31-1.84,2.39.78c.66-.25.45-2.57,1.82-.68l.75-.07c.91-.34,1.84-.54,2.15-1.75.16-.61.82-1.09,1.56-2.01l-2.95-.23.04-.38h4.75c.25,1.11.76,2.23-.79,3.09.5-.04,1-.15,1.49-.1,1.19.12,2.61-.16,3.1,1.42.32,1.03,2.36.76,1.71,2.72-.29.87.82,2.19,1.39,3.53l-1.45.19-1.47,1.59-.2-2.44,1.68.39-2.18-2.7Zm-2.3,3.6l2.64,1.72c-.62.31-1.1.6-1.63.79-.46.16-1.21.45-1.4.26-.9-.9.68-.45.61-.98-.07-.52-.13-1.05-.22-1.79Zm-13.18-47.36c-.68-1.19-1.18-2.48-1.75-3.73l.49-.33,2.29,1.33,1.82-.98c-.54,1.34-1.1,2.69-1.73,4.23-.21-.09-.91-.16-1.12-.51Zm.73,28.9l-2.43,1.08-.81-1.41c1.23-.71,2.21-.8,3.25.34Zm2.75-26.93l-.53.15-1.09-2.43,2.17.13-.55,2.16Zm.82,35.51l-.59-1.87c.25.55,1.88.59.59,1.87Zm-3.46-44.59c.88,1.2,2.04,1.88,2.02,3.35-1.2-.63-2.85-.97-2.02-3.35Zm8.79,39.21c-.54-1.24-.05-1.8,1.57-1.53l-1.55,1.54h-.02Zm-.01,0c-.8-.26-2.01.16-2.16-1.5,1,.24,1.64.78,2.16,1.5Zm3.44-.67l2.21.61q-.99.63-2.21-.61Zm2.9,4.08c.21.66.24,1.53.69,1.93.48.43,1.36.43,2.49.73q-2.77,1.08-3.18-2.66Zm.02-19.58l1.84.39-1.58,2.39-.26-2.77Zm1.83,17.34l1.52-.75q-.29,1.31-1.52.75Zm2.56-89.74l-.3,1.83c-1.63.4-3.36.78-4.56-1.52,1.71-1.2,3.36-.61,4.85-.31Zm-1.09-2.87l.43-3.1q1.89.8-.43,3.1Zm-1.47,13.6l-.3.32-1.29-.79.08-.37c.31.02.67-.05.92.09.26.15.4.49.59.75Zm12.09-8.89l.26-.5,1.54.78-.43.64-1.37-.93Zm4.37,36.01c-.05.78-.47,1.44-1.25,1.12-.46-.19-.93-1.02-.9-1.53.06-.9.6-1.64,2.16-1.34,0,.64.03,1.2,0,1.75Zm.5,2.3c1.53,4.51,2.79,8.6,2.21,12.98l-.88.22c-.26-.75-.55-1.49-.76-2.26-.69-2.43-1.33-4.88-2.03-7.31-.36-1.24-.24-2.29,1.46-3.63Zm-17.43-58.73l1.42,1.17-1.79,2c-1.17-1.35-.63-2.22.37-3.18Zm-12.66,5.97c1.11-.58,2.18-1.06,1.43-2.83,1.23.08,2.38-.83,3.08.73l2.53-1.48,1.08-2.23c.23,1.19,1.52,1.43,1.8,2.74.38,1.8,2.36.13,3.56.58l.75.1c.68.76,1.06,1.96,2.56,1.6l.68-2.32,2.11,1.25v-2.75l2.67,1.81c-.59,1.1-.65,2.74-.21,3.55.17.3.3.7.25,1.03-.36,2.4-.77,4.79-1.2,7.39l-1.88,1.19-1.19-1.08c.93-1.93,1.54-3.77.86-5.7l-.67-.13-.92,2.21-2.7.3.67-2.82-1.37.1.04-.06c-2.46,1.19-3.76,3.27-4.41,5.84-.15.57-1.76,1.99-2.47,2.25-.92.34-1.81.75-2.82,1.17-.1-.23-.83-.26-.06-1.39,1.59-2.31,3.97-4.25,4.56-7.54-2.03,2.29-4.66,3.66-5.45,6.72l-2.15-.87c.22-1.9,2.94-3.98-.39-5.53-1.55,1.66-.33,4.92-3.25,5.9l-.86-1.8c-1.12,1.59-3.01,1.99-3.59,3.8-.67-3.39.02-6.47,2.31-8.87,1.22-1.28,3.05-2,4.66-2.86Zm-8.4-3.4l1.61.36c-.78,2.87-.78,6.11-4.01,8.26-1.18-3.61,1.64-5.84,2.39-8.62Zm1.18,97.35l-.16,2.38-.33-.03.17-2.31.32-.04Zm-2.41,2.86l-1.44,1.32c-.53-1.61.28-1.6,1.44-1.32Zm-.83-48.94l-1.55-2.71q1.84.49,1.55,2.71Zm-2.96-51.59l.76-.02v4.07c-1.62-1.49-.51-2.79-.76-4.05Zm-1.02,3.41l-.18.62c-.4-.05-.88.02-1.18-.18-.18-.12-.1-.65-.16-1.29l1.53.86Zm-25.81,4.39l3,1.6-.78-2.17h4.2l-.11-1.61,1.47.46.95.53,3.3.06s-.18-.64.04-.91c.34-.41.97-.58,1.5-.87l.85,2.46c1.64-2.18,2.72-3.08,4.69-2.14l.72-4.31c1.88-.11,1.7,2.89,3.84,2.74l-.84.91c1.6.93,4.49-.48,4.84,3.14-.64,1.63-2.41,3.41-1.73,5.74l-2.11,2.37.29.39-3.27.44,1.85-2c-.17-.07-.51-.33-.64-.25-.64.4-1.73.89-1.73,1.35,0,1.92-2.36,2.4-1.95,4.43l-.64-.18c-.06-.38-.24-.8-.14-1.14.35-1.17-.21-1.87-1.13-2.4-.88-.51-1.98-.41-2.36.39-.84,1.79-2.68,1.25-3.8,1.43-1.22.2-2.03.89-3.06,1.21-1.06-1.28-1.98-2.89-4.08-1.58-.21.13-.72-.15-1.07-.29-2.66-1.1-3.44-4.33-1.63-6.99l-1.24-.6.8-2.22Zm26.84,52.23l-.5.4c-.8-1.02-2.62-1.02-2.58-2.94h2.31l.77,2.55Zm-7.07,10.73c-.26.04-.58-.35-.87-.54l1.33-1.63c.56,1.25.71,2.01-.46,2.18Zm-5.41,8.49l-.36-.56,1.63-1.07.38.58-1.65,1.04Zm-.18,3.78l1.21-1.33q.18,1.4-1.21,1.33Zm.93-11.46c-1.14-.6-2.31-1.27-3.23-2.15-.95-.9.17-1.57.98-2.83l.24,2.3,1.32-2.38c.72,1.9-.33,4.47,2.77,4.38-.61,1.21-1.45,1.02-2.08.69Zm-9.09-1.13c-.3-3.34-.13-3.51,1.71-2.78l-1.71,2.78Zm.1,12.41c-.19.06-.43.22-.51.16-.84-.59-.83-.6-.22-1.82l.74,1.66Zm4.72-13.13l.33,3.28c-1.16-.92-1.55-2.44-3.68-2.44q1.7-1.46,3.35-.84Zm-1.94,3.43l-.74,1.89-.77-.58c.81-.13-.44-2.03,1.51-1.31Zm2.41,4.33l.28.37-.62.85,1.45,1.09-2.02.95-1.7-2.03,2.61-1.22Zm.99-2.86l-.47-.61.99-.73.32.47-.84.87Zm-.52-51.06l.28-1.49c.13.13.35.24.37.38.05.41.02.82.02,1.24l-.67-.12Zm-11.39,48.09l2.65-1.23.72,3.93c-1.57-.98-3.42-.56-3.37-2.7Zm2.55,7.93l-2.54-.47,2.3-1.72.24,2.18Zm-7.74-74.58l1.76.78-.19.53-1.82-.65.25-.66Zm-3.94,3.21l1.55.34-.06.52-1.58-.11.1-.75Zm.16,3.58l-1.77-1.63c1.96-.32,1.78.72,1.77,1.63Zm-1.7.06l-2.61.18.69-1.44,1.92,1.26Zm-2.48-2.62l.53,1.33c-1.16.24-2.33.48-3.5.73l-.18-.33,3.15-1.73Zm-12.69,2.01l1,2.36c-1.69-.52-2.02-1.27-1-2.36Zm-1.82-9.07l.64.1-.26,1.11h-.38v-1.21Zm-5.23,1.49l-.64-1.49-1.07,1.02-.52-1.99c2.45-.2,2.5-.16,2.23,2.47Zm-1.51,12.23c-2.45-.11-2.53-.18-3.12-3.36.73.07,1.46.15,2.28.23l.84,3.13Zm-4.25,5.06c-.86-.25-1.72-.5-2.56-.77-.49-.15-.97-.34-1.4-.49.89-.63,1.72-1.07,2.32-1.72.2-.21-.19-.97-.35-1.64.91-1.08,2.23.96,3.72-.63l-.53,2.42c-.51.19-1,.37-1.44.53l.24,2.3Zm3.49-.94c-1.92.77-1.86-.75-2.19-1.82,1.77.1,1.79.13,2.19,1.82Zm-1.56-16.68l.52.43-2.25,2.51c-.6-1.87,1.06-2.08,1.73-2.95Zm-1.91,7.49l.95,1.61c-1.25-.08-2.7.56-3.52-1.08l2.57-.53Zm-2.63-5.89l.36.09-.47,1.92-.48-.2.59-1.81Zm.38,10.33c-1.55.52-2.89,1.22-3.1,2.99l-2.64.24.52-1.52,2.11,1.27c-.35-.71-.72-1.44-1.09-2.17,1.71.48,2.4-2.36,4.2-.8Zm-2.82,8.58v2.43l-1.13-1.97,1.13-.46Zm-3.06.62l-3.45,2.68c-1.09-1.35-.69-1.99.36-2.6.79-.46,1.47-1.13,2.2-1.71l-.27.08c-.11-.5-.43-1.38-.3-1.45,1.17-.65-.92-3.04,1.55-2.89.19.26.38.54.68.97l-1.19.18-.21,2.92.62,1.81Zm-7.37,4.91c-.54-.91-.16-1.69.54-2.25.22-.18.86.16,1.3.26.17,1.53-1.23,1.37-1.83,1.99Zm-2.12-.22l-1.47-.87,1.96-1.4-.49,2.27Zm-1.73-1.31c-2.9-1.84-.52-3.42-1.01-5.36l1.86,1.01c-2.33.63-1.59,2.34-.85,4.34Zm-1.62-8.01l.47-.12.41,1.62-.63.1-.24-1.61Zm3.11-11.79c.73,1.36-.06,1.78-1.63,2.15l1.63-2.15h0Zm-.01,17.73c-1.42-.42-.68-1.44-.62-2.27.48.69,1.93,1.14.62,2.27Zm-.77-3.81l-.11-.39,1.24-.42.16.63-1.28.17Zm.79,3.82c1.01-.47,2.04-.71,3.16-.03-1.12.95-2.14,1.2-3.16.03Zm1.23-5.48l2.09-.16-.76,2.25h-.73l-.6-2.09Zm1.54-2.78c1.32-.33,2.17-1.1,2.54.84l-2.54-.84Zm2.37,3.51l.55.05.25,2.91c-.75-1-1.21-1.36-1.3-1.81-.07-.34.32-.77.5-1.16Zm7.84-6.86l-2.53.9-.09-1.73,2.62.84Zm-8.3-11.16c1.14,1.06,1.34,1.8,0,2.78v-2.78Zm4.2,1.65l1.37.96c-.4.28-.84.45-1.07.77-.48.68-.44.71-1.03-.26-1.22,1.69-2.73,2.46-4.8,1.41,2.46.19,3.81-1.71,5.52-2.89Zm-5.7,5.99l-3.19-2.62q2.12-.41,3.19,2.62Zm-6-6.15l-.31,1.33,2.43,1.49-2.59,1.69.53-2.18-1.64.9c-.1-1.07,1.11-2.44-.71-3.23h2.29Zm-4.52,4.6c.72-1.16,1.84-1.13,2.89-1.25l.38,1.51-3.27-.27Zm1.11,12.35l1.65-1.37q.1,1.28-1.65,1.37Zm1.25-19.15l-4.2-2.01c2.61-2.03,2.85-1.93,4.2,2.01Zm-3.76,3.18l1.98,1.59-3.24.88,1.27-2.47Zm1.13,5.19c-1.17,1.22-1.89.98-2.57-.09.85-1.25,1.58-.76,2.57.09Zm-3.67,9.59l.71,1.73c-.36.11-.67.31-.88.24-.42-.15-.8-.46-1.3-.77l1.47-1.19Zm-2.95,9.17l.41,1.76-.67.17-.24-1.78.5-.15Zm-4.48,3.44l1.26,2.2-.53.43-1.15-2.4.42-.22Zm-.67,5.94q-1.55.93-2.05-.18l2.05.18Zm-.35,3.02q-.91.83-2,0h2Zm-5.13-3.92c-.03.46-.35.95-.65,1.34-.3.38-.75.66-1.3,1.11l-.16-2.51-2.14,1.07-.53-1.11,4.37-1.33c.14.45.44.95.41,1.43Zm-3.25-6.25l-.04.31-2.31.16.13-1.14,2.22.68Zm-2.51.62c-.3.84-.65,1.63-2.32.8l2.32-.8Zm-2.54,11.45c-.61-.47-1.21-.95-1.65-1.29l2.18-2.08-.53,3.37h0Zm-.32-12.84l-1.97-1.06q1.67-.89,1.97,1.06Zm-1.86,1.44l-5.93.64-.09-.61c1.8-.31,3.53-1.56,6.02-.03Zm.1,5.05l-2.2.73c.15-.5.24-1.04.52-1.46.21-.32.72-.43,1.1-.63l.58,1.35Zm-3.37-2.88c-1.17,1.25-3.36,1.44-3.28,3.65l-1.15-1.91c1.01-1.53,2.43-1.97,4.43-1.74Zm-.52,14.92l-.7.44-1.11-1.81c1.21.02,2.06.26,1.8,1.36Zm-2.13-7.1v3.94c-.34-.12-1.01-.15-1.14-.43-.63-1.38.38-2.4,1.14-3.51Zm.16,7.49l-.26.69-1.78-.71c1.1-1.38,1.58-.74,2.04.01Zm-3.78-11.04c.27.27.64.49.79.82.13.3.03.71.03,1.07l-.49.11-.64-1.74.31-.25Zm-1.48,2.01l.12.45-2.87.94-.32-.72,3.06-.67Zm.09,3.63q-.56,1.46-2.06.67l2.06-.67Zm-6.83,1.97v.41s-2.13,0-2.13,0l-.05-.41h2.18Zm-1.94,4.37c.62-.76,1.14-1.29,2.05-.42q-1.58,1.45-1.62,3.41c-.72-1.16-1.34-1.89-.43-2.99Zm-3.29-8.98c.35,0,.7.21,1.04.33l-.48.58-2.24-.5c.94-.25,1.31-.43,1.68-.42Zm-.56,7l-.77,2.05q-.69-1.38.77-2.05Zm1.11,6.73l-1.86.93c.39-.5.35-2.66,1.86-.93Zm-1.04,6.19l-3.6,1.64,1.54-1.97c.71-.46,1.33-.37,2.05.33Zm-1.73,4.4l1.29-.61q.06,1.24-1.29.61Zm.9,50.32l-.07,1.5-.23.04c-.06-.27-.14-.53-.16-.8-.02-.25.02-.5.04-.75l.43.02Zm-2.29-50.29l-2.92.95c.87-.61,1.52-1.79,2.92-.95Zm-2.2-2.29l.23-.51,2.03.9-.36.49-1.9-.88Zm2.98,14.32l-2.24,2.69c-.68-2.27-.29-2.81,2.24-2.69Zm.3-16.88c-.35-.15-.82-.48-.99-.37-.97.63-1.61.33-2.29-.7,1.09.04,2.34.39,1.95-1.59l2.07,1.03-.73,1.62Zm-.85-3.88c-.18-.3-.42-.57-.5-.89-.04-.17.19-.41.44-.88.29.49.59.77.59,1.04,0,.25-.34.49-.52.74Zm-1.19-15.52l1.18,2.09c-2.14-.17-1.45-1.08-1.18-2.09Zm-.78,2.59l2.16,1.64c-.61,1.64-1.82.13-2.59.76l-.45-.61.88-1.79Zm-2.54-.91l.57,1.6c-.33-.18-.72-.31-.96-.57-.16-.17-.1-.53-.14-.81l.53-.22Zm.69,5.75l-.36-1.55,3.18.38-3.35,2.43c-.76-.96-1.94-1.29-1.86-2.74l2.39,1.48Zm2.12,6.16l.3,1.7-1.87-.29,1.57-1.4Zm-2.17-3.51l2.45-.29-1.58,2.79-.87-2.5Zm-2.11,3.23c1.08,1.62,1.45,3.81,4.6,3.33-2.1,1.55-3.22.77-4.36-.58l-1.65,3.25-1.07-2.22c2.49-.18,2.45-1.93,2.48-3.77Zm-3.89,8.93l4.3-.38c-1.97,1.33-2.08,1.32-4.3.38Zm2.53,2.88l-1.41.51c-.05-.17-.17-.49-.14-.5.43-.2.88-.37,1.32-.54l.23.54Zm-2.52-19.3c.08.39.28.81.2,1.17-.07.33-.35.61-.57.9v-2.01l.37-.06Zm-.43,2.32c.29.85.63,1.72-.64,2.44-.46-1.13-.84-2.03.64-2.44Zm-.83-2.88v1.43c-.19-.02-.51,0-.53-.07-.12-.44-.18-.9-.26-1.35h.79Zm-4.06,13.98c.24-.15.62-.09.93-.12l.14.53-1.49.72-.3-.29c.23-.29.41-.65.71-.84Zm-2.47,3.01l1.98.66-.68,2.47h-3.31c.04-1.92,1.58-1.12,2.61-1.39l-.6-1.74Zm3.38,6.73c-1.06.46-2.14.91-3.43,1.45l-.1-1.18c1.12-.84,2.34-.38,3.53-.27Zm.14-.06c-.82-.9-.49-1.56.65-2.26.2,1,.78,1.89-.65,2.26Zm.74-5.56l-1.48-1.77c.2-.14.35-.33.45-.31,1.1.22,2.09.53,1.03,2.08Zm-2.52-6.54c-1.08,1.31-1.88,3.07-4.18,1.52l4.18-1.52Zm-3.12,5.5l-2.25,1.09q-.13-1.34,2.25-1.09Zm-1.02,6.07c-.51-.08-1.08-.08-1.45-.35-.3-.22-.31-.85.02-1.54l1.43,1.89Zm-1.6-15.81l.35.41-1.03,1.42-.58-.58,1.26-1.26Zm-2.85-.84l.48.51-1.28,1.11-.4-.44,1.21-1.17Zm-.22,12.61c.35-.54.39-.5,1.24-.47-.44.81-.7,1.86-1.37,2.31-.51.34-1.53-.09-2.52-.2.56,2.08.29,3.98-1.1,5.86-.72-2.57.06-5.35,2-7.63.52.82,1.05,1.19,1.74.13Zm-1.74,9.72l-.76-1.63h1.87l-1.11,1.63Zm.62,5.27l-1.08-1.31c1.52-.72,1.19.53,1.08,1.31Zm-4.14-23.45l.56-.32,1.52,2.01-1.89,1.62-.25-.26.92-1.23-.86-1.82Zm-.83,9.13l-2.57.4-1.35-1.92c1.08-.87,1.84-2.44,3.7-2.21-1.52,1.26.3,2.36.22,3.74Zm-.1-3.75l.65-.99.6.19-.51,2.6-.74-1.8Zm.75,1.82h0c.53-.38,1.37-.66,1.51-1.14.5-1.72,1.35-.57,2.22-.41-1.74.39-.69,2.52-2.41,3.11l-1.32-1.56Zm-1.68,19.67c-.13-1.89.71-2.25,1.81-2.42l-1.81,2.42Zm.89-4.33c-.78-.54-1.45-1.25-2.16-1.89l1.82-.37c.26,1.78,1.48,1.88,3.15,1.22-.73,1.76-1.72,1.78-2.81,1.04Zm4.34,27.05l-2.38-1.41,2.85-2.35.74.58-1.2,3.18Zm2.01,24.23l-1.39-.6,1.42-1.69.48.45-.51,1.85Zm.48-57.35c1.46.83,2.85-1.14,4.62-.11-2.5,1.45-2.63,1.52-4.62.11Zm4.19-3.93c1.32-1.42,1.48.14,1.97.82-.8.1-1.6.18-1.97-.82Zm2.57,59.47c-.3-.37-.59-.59-.56-.72.07-.3.31-.55.47-.82.2.16.58.33.57.46-.03.31-.25.59-.48,1.08Zm.24,1.2l3.07-2.32,1.1,1.23c-1.69-.22-1.99,2.27-4.17,1.1Zm3.23-76.22l2.15-.16-1.14,2.98-1.01-2.82Zm1.58,16.71l1.71-.48q-.27,1.36-1.71.48Zm.24,3.85l-.03-.47,2.73.15-2.69.32Zm2.72-.37c.02-1.2.02-2.41.02-3.45.87,1.71.87,1.73-.02,3.45Zm1.3,54.63l1.33-.53.43,1.75-1.76-1.22Zm1-60.72l-.06-.5,2.27-.28.07.64-2.28.13Zm1.72-5.24l-.4-1.62,2.68,1.31-2.28.31Zm1.74,66.69q.94-1.2,2.76-1.17l-2.76,1.17Zm1.49-6.95l-.18-.52,1.62-.51.13.37-1.57.66Zm6-.31l-1.54.21.29,2.85c-1.78.4-1.77-1.62-2.81-2.07l2.29-2.28,1.81.86-.05.43Zm.08-70.51c-.11-1-1.08-2.06.49-3.11l.17,3.06-.66.04Zm1.49,9.64l.45,1.61q-1.18-.27-.45-1.61Zm-.26,55.29c.04-.24.73-.37,1.12-.55l.67,1.62c-1.18.04-2,.05-1.8-1.08Zm1.67-56.27c-.36-.96-.67-1.96-2.05-1.7l-.08-1.07,2.39.34.36,2.44c-.3,0-.6.05-.62,0Zm1.74,56.81c-.3-.06-.54-.44-.81-.69.27-.16.53-.44.8-.45.3-.01.6.23,1.31.53-.71.35-1.04.66-1.3.6Zm3.21-74.89l-1.04,1.79q-.78-.91,1.04-1.79Zm-1.15,73.53l-.17-.32,1.4-.76.18.33-1.4.76Zm3.41-24.17c-.2.64-.68,1.19-1.32,2.21l-1.49-2.22,1.26-.15-.14-1.41c.48.06,1.1-.05,1.35.21.29.29.46.96.33,1.36Zm-2.71-35.72l2.85.89q-1.97,1.87-2.85-.89Zm5.53,64.95l-2.07,1.67c.35-1.01-.03-2.96,2.07-1.67Zm-1.65-59.37l-.49-.25.9-1.85.65.4-1.07,1.71Zm-.29-6.41l.66-.42.95,1.52-.63.4-.98-1.51Zm1.43,48.67l.54-4.14q.85,1.77-.54,4.14Zm-3.78-48.37c.22-1.11,1.1-2.09-.1-2.72v.04c-.47-.28-1.09-.46-1.38-.87-.4-.58-.54-1.33-.73-1.85l4.24.27.15-.58-1.7-1.05h2.9l-.27,1.37,2.12-.72c.72.65.19,1.4-1.47,2.04.06.18.08.39.18.55.2.32.45.62.52.71l1.51-.33.23.73-6.21,2.42Zm8.53-2.28c.02,1.16,2.87-.22,1.66,1.97l-2.44-.78,1.36,2.65-.59.4-2.28-3.08,1.04-.73.81-3.43.57.04.46,1.44,1.55-.82c.58,2.18-1.6,1.37-2.12,2.32Zm2.24-14.16c-.16-1.62-.16-1.68.74-1.57l-.74,1.57Zm3.07,14.44l2.1-.12c-.09-1.88-1.48-1.94-2.63-2.29l-.2,2.29-.6.05c-.33-.93-.74-1.85-.93-2.81-.06-.3.51-.72.79-1.09l.88.88,1.22-.51c-.97-1.32-1.99-1.71-3.49-1.14v-3.5l1.4,1.87,3.92-.72c-.09.68-.18,1.36-.3,2.03-.1.53-.24,1.06-.4,1.74.88.18,2.38.15,1.32,2.1l3.4-.17-1.07,1.62c.45.66,2.03,1.05.84,2.46-1.33-.39-2.76-1.9-4.14.68l-2.1-3.37Zm2.76,33.47l.36,2.01c-1.76-.88-1.85-1.46-.36-2.01Zm1.05-.29l-.97.15c.06-.74.08-1.47.25-2.17.07-.28.52-.61.83-.64.28-.03.74.25.85.5.08.19-.19.66-.43.84-.46.36-1.09.57-.54,1.32Zm.61,5.53l1.34-2.64,1.22,3.39-2.56-.75Zm3.88-32.55l-.2-1.43.78-.07.11,1.4-.7.09Zm1.43-8.64c-.42.52-.4,1.39-.67,2.52q-.07-1.96-2.31-3.49l1.79-1.22,3.26,1.22c-.82.36-1.67.49-2.07.98Zm1.99,12.52c-.26-.35-.53-.56-.54-.78,0-.16.31-.34.49-.52.18.18.47.34.5.54.03.19-.23.41-.44.76Zm.13-15.65c-2.4-1.48-2.39-1.46-4.68.14-.39.27-.93.32-1.41.47-.13-.6-.36-1.2-.35-1.8,0-.61.25-1.22.39-1.83l-3.27,1.41c.04-1.91-1.8-.51-2.59-1.29,1.18-1.24,2.63-.31,3.82-.68.18-1.35-1.01-.95-1.63-1.28l3.03-1.34-1.4,2.62c.68.19,1.36.38,2.04.56-.16-.44-.33-.87-.54-1.44l1.59-.22v1.21l3.89,1.3-1.26-2.62c-.51.09-1.33.41-1.47.22-.74-1-1.31-2.14-2.13-3.56,1.63.9,3.05,1.36,3.61,2.87.18-.7,1.61-1.06.53-2.18-.14-.14.65-1.18,1.5-1.66v6.52l1.26.73-.93,1.84Zm-.68-22.4c1.05-.95,2.23-.67,3.65-.55-1.18,1.96-2.59-.21-3.65.55Zm2.33,20.05l.61-2.4,1.58,2.1-2.19.3Zm.25,30.06c.33-2.61,2.81-2.85,4.73-4.55-1.03,2.94-2.72,4.46-4.73,4.55Zm5.75-30.83c-.48-.12-.96-.27-1.43-.42l.32-.67c.44.19.88.37,1.3.59.02.01-.18.5-.18.5Zm-2.48-3.72c1.2.2,2.37-1.85,3.62.04q-1.12.7-3.62-.04Zm4.47-1.6l-4.21-.64c1.08-1.8,2.48-.53,4.02-.49l-1.84-2.21,3.65.45-1.61,2.88Zm2.62,3.52c-1.77.22-.85-1.26-1.04-1.95-.45-1.59,1.25-1.09,1.84-1.47l-.79,3.42Zm3.29,24.41l-.24-.72,1.43-.39.13.43-1.31.68Zm2.29-23.26l-.54-.22-.28-3.2-1.46-.62-.73-2.97c-1.1.29-.64,2.39-2.36,1.08l-.13-2.01,1.78-.62-1.01-2.57c2.57.81,2.04,3.38,3.03,4.4,1.03.16,2.06,0,2.48.45.91.95-.63,1.21-1.27,2.12l3.03.54-2.55,3.62Zm1.89-8.01l-2.69-1.27c1.32-.96,3.16-.67,3.36-2.53.02-.17,1.28-.55.66-1.37-.19-.25-1.05-.19-1.5-.02-1.77.69-1.77.72-1.99-1.8,1.4.89,2.68-1.57,4.28.1l-1.18.56c.13.15.22.36.33.37,2.31.12,2.34.12,2.66-1.64.68.06,1.37.12,2.05.18-.42,1.64-.82,3.86-2.31,4.16-2.01.41-2.96,1.39-3.67,3.26Zm5.64,6.15l-.2.34c-.66-.42-1.32-.84-1.97-1.28,0,0,.1-.21.24-.52l1.92,1.46Zm-3.19,2.78l2.5-1.67,1.46,1.67h-3.96Zm4.64-4.27l-.69-.3.66-1.44.49.16-.46,1.59Zm.52-4.5c-.32.02-.67-.59-1.31-1.2l2.27-.25c.39.91-.09,1.4-.96,1.45Zm.95-1.54c-.32-.54-.63-1.08-1.05-1.8.67-.38,1.25-1.27,1.97.24.36.75,1.01,1.37,1.7,2.27l-2.62-.7Zm4.59,23.43l-.67-1.47.74-.29.47,1.56-.53.2Zm1.98-24.05l3.17-.84c-.45,1.15-1.05,2.02-3.17.84Zm3.21-.94l-2.88-3.11-1.99,1.62-1.96-.54c.14-.35.33-.65.36-.97.04-.39-.05-.8-.09-1.2-.32.2-.85.35-.92.61-.45,1.75-1.88,1.05-2.89,1.09-.44.02-.92-.78-1.38-1.21l.34-.46,2.38.54,1.65-2.35c1.95-.49,3.06.67,4.22,1.71-.57-2.5-.53-2.6,1.25-3.3.33.38.6.92,1.03,1.14,1.2.59,1.22,1.33.72,2.44-.23.51-.15,1.33.1,1.85.37.76.67,1.4.05,2.13Zm1.48-9.35l-3.29-.79c.76-1.37,1.02-1.47,3.44-1.43l-.16,2.23Zm1.79-3.54c1.62-.33,2,.93,2.52,2.05-1.53.1-2.19-.78-2.52-2.05Zm5.24-1.02l2,1.84-2.2-.52,1.11,3.27.37.85-2.12,1.61c-.33-1.48-.56-2.52-.76-3.56,0-.03.46-.14.71-.21l-1.04-1.79,1.92-1.48Zm-1.25,32.73c-.2-.18-.51-.34-.56-.55-.05-.19.2-.44.35-.73l.8.46-.59.83Zm6.01,13.21c-.62.44-1.33.74-2.07,1.15-.68-.56-2.88-.6-2.74-2.93,1.6-.76,1.52-.74,1.75.7.08.5.7.92,1.07,1.37.38-.34.84-.63,1.11-1.05.17-.25.08-.69.15-1.58,1.26.97,1.86,1.54.73,2.33Zm2.29-38.57l-2.07-.35.09-.48,2.07.32-.09.5Zm1.54-7.86l1.68-.61c.2.84.45,1.53.5,2.23.04.61.26,1.42-.73,1.61.62.6.52,1.27.14,1.93-.34.58-.75,1.13-1.17,1.74l-1.35-.97c2.67-1.32,1.08-3.32.86-5.13l-1.05,2.86-.92-2.38-.37.07-.14,2.2c-1.9.53-2.99.22-3.73-1.05,2.52.31,3.39-1.84,4.67-3.54-1.57-.16-3.18-.49-4.56,1.22l-1.91-3.09,1.41-2.26,2.02.98c-.81,1.31.8,1.17.97,2.38.51-.98.65-1.74,1.04-1.9,1.13-.45,2.34-.71,3.54-.91.38-.06.84.3,1.52.56-1.36,1.22-2.79,2.17-2.41,4.06Zm2.36-24.76l-.32-.57,2.64-1.12c-.26,1.33-1.59,1.06-2.32,1.69Zm1.85,14.54l-.89,1.58c-.55-1.25-.54-1.26.89-1.58Zm-1.03,6.93l1.05,2.56q-1.21-.89-1.05-2.56Zm.22-5.23l2.65-.27c-1.19,1.73-1.92,1.07-2.65.27Zm1.79,3.53c-.07-.17-.24-.38-.19-.5.11-.26.32-.47.5-.7l.73.61-1.03.59Zm2.11,2.43c0-.51-.05-.83,0-1.14.22-1.2.81-1.03,1.78-.32l-1.79,1.46Zm3.74.25c-1.84-1.18-1.04-3.68-3.17-4.43l2.12-.73.21,2.68,1.38.21-.53,2.27Zm.88-.78c.58-.84,1.41-.86,2.22-.26l-2.04,2.28c-.11-1.06-.39-1.71-.18-2.02Zm2.3-.33c.09-1.55-.43-3.32,1.52-4.18v.04c1.06.07,2.13.21,3.18.15.33-.02.63-.58.94-.89l-.58-2.73,2.11-.24c-.77,1.06-1.87,1.59-1.5,2.98l2.25,3.89-3.5-.16-.9-1.65-3.52,2.79Zm1.21.88l1.89-.93c.74,1.39-.39,1.61-1.01,2.22l-.87-1.29Zm.7,4.16l-.44-.55,1.87-2.62,1.56,2.46-2.99.71Zm4.93,66.17l-2.87-1.89c2.62.42,2.69.44,2.87,1.89Zm-4.65,10.76c1.29-.73,2.13-1.98,3.66-.76-1.28-.28-1.94,1.89-3.66.76Zm5.41.74l-1.03-1.11.75-.74.89,1.31-.6.54Zm1.7,5.52l-.05-.53,2.44-.14.04.78-2.43-.11Zm.03-5.04c.22-.49.42-.98.68-1.44.03-.05.51.1.51.1-.05.53-.13,1.06-.21,1.59l-.98-.25Zm5.85,13.21c-.04.07-1.4-.44-1.94-.91-.54-.48-.82-1.25-1.21-1.89q1.52-.74,1.96,1.34l2.66-1.77c.22.81-.2,1.99,1.06,2.2l.13,1.16c-.94-.4-1.87-1.44-2.65-.13Zm-1.52-4.46l1.5-2.5c0,1.02.66,2.39-1.5,2.5Zm4.81,22.95l-1.42-3.27,3.16,2.34-1.74.94Zm.37-23.23c.07.66-.1,1.75.35,2.39.46.65.55,1.03-.03,1.33-.36.18-.91-.01-1.39-.07,1.07-1.48-.25-2.98.18-4.64l2.54-.19.14.34-1.8.83Zm.86-2.99l1.61-1.51-1.5-1.2-1.01,2.36c-1.32-.33-1.2-1.56-1.95-2.4l-.41,1.92c-1.07-.62-2.02.05-3.15.4,1.18-1.42.44-3.72,2.5-4.44-.13-.68-.23-1.36-.39-2.03-.15-.61-.39-1.21-.59-1.81-.77-.13-1.96.37-1.78-1.18l-1.82-1.25-.33,2.43c-.76-.37-1.34-.84-1.96-.89-.5-.04-1.04.44-1.77.46.68-1.07,2.38-1.48,1.69-3.16-1.13-1.19-1.27-2.3.42-3.32l-2.3-1.78c.39-.15.79-.31,1.23-.49-.29-.86-.5-1.8-.9-2.64-.88-1.83-.79-2.06,1.28-2.37.27-.04.53-.13,1.11-.27l-2.29-.66c.07-.35.06-.63.15-.67.56-.23,1.63-.6,1.64-.57.73,1.83,2.3.92,3.76,1.05l-1.51,2.35,2.58-.35c1.08,1.17.05,2.45-.02,3.94.25-.36.43-.79.75-1.05.42-.34,1.19-.87,1.4-.73.95.65,1.7.77,2.62-.04.64-.56,1.44-.94,2.36-1.53l2.12,1.52-1.45,1.07-.82-1.04c-.21.27-.67.64-.6.79.76,1.73-1.67,1.3-1.65,2.48-1.42-.51-1.17.88-1.64,1.45l.61,1.46c.79-.37,1.77-.51,2.01-1,.56-1.14,1.13-1.02,2.06-.63.12.05,1.01-1.06,1.06-1.68.09-1.07.52-1.61,1.51-1.66.9-.04,1.74.06,1.53,1.41-.03.17,1.15.83,1.6.7,1.21-.35,2.32-1.01,3.47-1.55l.44,1.57.56.14c.18-.51.44-1.01.52-1.53.09-.6.02-1.22.02-1.93l1.73,1.09-1.67,3.58c1.22-.88,2.44-.18,3.63-.08.19.02.5.1.53.21.1.43.25,1.22.13,1.27-1.23.5-.57,1.46-.69,2.25-.19,1.32-1.02.99-2-.13l.45,2.12-.33.17-1.05-1.23c-1.3.07-.79,2.56-2.55,1.72.78-1.22-.58-1.48-1.01-2.15h-.76l-1.37,1.8c-.54-1.09-.85-2.11-1.47-2.87-.58-.71-1.49-1.16-2.21-1.68-1.29-.19-2.14,2.11-3.53.38-.38,1.97,2.11,2.15,2.49,3.86-1.47.22-2.03-2.22-3.37-.73l3.42,2.52.59-.97h.46c.01.53.17,1.11,0,1.57-.35.97-.78,1.76.49,2.49.84.48.74,1.41-.09,1.87-1.11.62-1.06,1.44-.76,2.42l1.99,1.06q-1.77,1.26-2.31-.91l-3.53.22Zm15.63-3.08l-1.79,2.02-.15-3.14c.63.36,1.26.72,1.94,1.12Zm-1.98-1.14l-1.12,1.6c.04-.71-1.13-1.32.05-2.2.94-.7.76.34,1.08.59Zm-4.11,1.14c-.52-.82.96-1.87-.31-2.44l1.9-.21c-.58,1.07.63,2.68-1.59,2.65Zm-.45-2.5c-1.28-.21-2.2-.67-1.4-2.44l2.13.65-.72,1.79Zm-.05,1.62l-3.74,3.22c.61-2.28,1.73-3.33,3.74-3.22Zm1.31,1.95c-1.42,1.31-1.75,3.27-4.16,2.8,1.23-1.2,1.74-2.9,4.16-2.8Zm.31-4.5c-.2-.82-1.02-1.69.28-2.3.39.8.63,1.58-.28,2.3Zm-5.11,14.02l.53,2.14c-1.19-.48-1.69-1.01-.53-2.14Zm-1.45-2.88c-.38-.78.25-1.38.5-2.04l.61.09.49,3c-.77-.48-1.41-.66-1.6-1.05Zm.32,14.78c-.23.2-.63.21-1.34.41l1.32-1.9.63.54c-.2.33-.33.72-.61.95Zm-3.24-.82c.32-1.55,2-4.54,2.93-4.84.42-.13,1.3.11,1.46.43.32.66.28,1.48.43,2.48-1.72-.27-2.31,0-4.82,1.93Zm8.86-2.88c-.28-.04-.54-.16-1.02-.3-.1.53-.33,1-.24,1.39.15.64.87,1.36.71,1.81-.32.88-1.09,1.6-1.74,2.48l-2.11-1.21c.5-1.12.75-2.62,1.63-3.46,1.31-1.23-.86-.59-.49-1.3.99-1.9.44-3.93.41-5.93-.01-.8.46-1.6.76-2.59h-1.89l1.71-4.06c1.79.58-.59,1.93.62,2.67l2.47-3.7q.26,2.38,2.58,3.17l.35-2.35,1.7,1.92.36-4.93,4.03,3.65.71-1-2.81-2.02.24-.38,3.16.67c.34-.48-.06-1.71,1.24-1.2l-.94-1.82.35-.25,3.9,2.26-1.53.53,1.14,1.43c-1.95.66-2.6,2.75-4.32,3.7-1.53,1.41-1.55,4.41-4.71,4.17-1.09-.08-.74,1.29-.9,2.06,2.46.45.41,2.07.82,3.1l1.63-.35c0,.24.06.46,0,.51-2.36,1.86-5.08,1.67-7.81,1.31Zm6.04,2l-.98,1.36-.43-.23.76-1.49.64.36Zm.16,12.76c.7-1.95-1.14-1.48-1.49-2.33-.35-.86-.88-1.65-1.39-2.57l3.8-1.55,2.46,2.59c-1.22.6-1.13,1.14.14,1.7l2.24-2.38.83,1.37c-.98.88-1.77,1.91-2.82,2.45-1.07.55-2.47-.59-3.78.72Zm3.79-5.65l2.8-1c-.65,1.91-1.48,1.9-2.8,1Zm3.86,7.64c-1.01-.51-1.92-.79-3.02-.17,1.3-1.26,2.49-2.71,4.32-.97.04.88-.35,1.62-1.29,1.14Zm-.59-5.78l1.98-2.26q0,2.93-1.98,2.26Zm.84-4.13c-1.16.88-2.09-.09-3.03-.95l.69-2.07c-.47-.81-1.16-1.52-1.28-2.31-.12-.84.3-1.76.65-2.7-.11,2.14,3.24,2.94,1.88,5.62l1.35.47c.14-.85-.42-2.15,1.3-2.01.77,1.84-.35,3.03-1.57,3.95Zm-.91-8.16l1.98,2.09c-1.01-.24-2.61.17-1.98-2.09Zm.88-3.65l2,.63c-.67-2.31-.92-2.49-3.57-2.89l4.17-1.24-.58,4.1c.61,1.11,1.22,2.2,1.91,3.44l-1.61.64-2.32-4.68Zm13.43,19.39l-1.66-.93c.11,1.23.18,2.16.28,3.08.08.73.21,1.46.37,2.59-2.13-.7-3.88.05-5.48-1.14-.6-.44-1.79-.07-3.08-.07,1.08-1.39,2.32-1.8,3.61-2.13.17.03.34.03.52,0l.27-2.62c.77-.68,2.78.05,2.43-1.96l-.5-.61c-.85.18-1.77-.23-2.22,1.25-.39,1.29-1.64,2.36-2.62,3.43-.22.24-.88.08-1.63.11l.72-2.76c1.07.56,1.85.51,1.53-1.2l-1.88-.38-1.37-2.56c.44-.62.79-1.51,1.44-1.94.52-.34,1.4-.11,2.64-.14.04.09.18.34.37.56.52.62.98.75,1.61-.02,1.29-1.55,1.52-1.5,2.71-.06.31.37.72.66,1.09.99.1-.17.22-.33.29-.51.83-2.31,1.3-2.55,3.7-1.92.18.05.37.04.56.07.17.02.35.05.61.09-.18,1.65,1.12,3.45-.79,5.05l-1.87-.86.54,1.65-2.21,2.95Zm7.26.16c-.56.94-1.03,2.17-2.5,2.03-.85-.08-2.57-1.94-2.63-2.92-.05-.73.05-1.48.09-2.21h1.53c.04.27.09.76.19,1.24.11.51,1.7,1.22,2.09.96.31-.21.65-.39.97-.59.1.51.46,1.17.26,1.5Zm-.56-3.82l2.64-.73c-.72,1.6-1.76.91-2.64.73Zm20.02,3.16c-.74-.37-1.36-.66-2.02.21-.11.15-.93-.22-1.66-.42,1.64-1.93,2.98-.44,4.42-.23-.25.16-.6.5-.74.43Zm11.53-.11q-1.07,1.16-2.76,1.33l-.4-2.85c2.67-.4,5.37-1.83,7.73.68-1.59-.65-3.42-.41-4.56.83Zm3.89-3.23c-.6-.05-1.21.08-1.42-.15-1.14-1.27-.54-2.95,1.72-4.02l-1.3,2.26,1,1.92Zm16.9,7.1l.42.3c-.34.56-.67,1.12-1.02,1.69l-1.92-1.02,2.52-.96Zm6.04-22.48c-2.22-.48-.57-1.97-.94-2.92q1.34,1.12.94,2.92Zm-1.55-8.92v-2.17c.84.75,1.36,1.53,0,2.17Zm-.92-25.15c1.36,1.51-.51,2.42-.68,3.64l1.26.35-.02.5c-1.25.04-2.5.06-3.75.14-.35.02-.89.15-.98.38-.8,1.88-3.08,3.19-2.2,5.71.12.35.12.74.2,1.33-1.01-.1-2.01-.24-2.42.87-.79,1.51.5,1.34,1.27,1.5,1.47.3,2.96.53,4.55.8,1.14-1.1-2.2-1.66-.02-3l-1.81.18.52-2.4c.36.05.64.04.9.12.7.22,1.22,1.26,2.11-.1.49-.75,1.24.04,1.13,2.35l2.5-1.33c1.14.68,1.03,2.05,1.11,3.49h2.04l.38,2.16c-2.29.14-3.33-1.74-4.98-3.21l-.42,5.39-1.57.7,1.9.62c-2.32,2.71-4.73,3.43-6.85,2.03l-1.42,1.07c.63.71,1.13,1.66,1.91,2.06,1.1.57,1.5,1.02,1.14,2.33-.31,1.11-.06,2.38-.06,3.84l2.23-.69c.66.64.08,1.63-1.36,2.11-.94.31-1.88.64-3.47,1.17,1.71.54,2.95-1.17,3.77.32.27.49.27,1.14.39,1.71l-.56.26c-.22-.25-.42-.67-.68-.72-.45-.09-1.33,0-1.34.12-.1.61.02,1.26.06,1.89l-2.11.71.29,4.13h-5.84l-1.13,2.57-2.9.64c-.15-.8-1.97-1.45-.16-2.3l-3.48-2.77-1.11,2.23,1.32,1.41-6.39,1.92,1,1.29c-.71,1.4-1.83,1.04-2.95.68l-2.2,4.49,1.66.69-2.57.9c-1.1-.98-1.21-3.18-.19-4.22.66-.67,1.45-1.23,2.18-1.84h-1.43l-.72-3.27c-.12.91-.1,1.18-.2,1.39-.11.24-.29.53-.51.6-.36.11-.76.06-1.53.1l.81-3.66q-1.94-.5-3.46,5.1l-2.18-3.83-1.2,4.2c-2.25-1.17.44-3.54-1.37-4.91l4.15-.19.39-1.46c-1.76.29-3.23.02-4.55-.95l.47-2.15c-1.06.02-2.09.19-1.46-1.4.3-.75.34-1.6.5-2.44l-.84-.21c-.27,1.37-2.24,2.2-1.08,3.95-.68,0-1.41-.21-1.64.04-.7.78-.02,1.77,1.21,1.78.27,0,.53-.23.81-.26.14-.02.3.17.93.58l-3.12.58.66,4.06c-.44.34-.84.8-1.35,1.02-1.45.63-1.87,1.21-.19,2.13.17.1-.08.97-.17,1.75l2.59-1.41c-1.18-1.98,1.24-2.96.79-4.89,1.72,1.56,1.65,1.97-.18,3.3,1.51.83-1.04,2.54.71,3.32-.06-1.09.52-1.49,1.73-1.48l-.47,1.55.44,1.76-7.98,2.27-.72-1.61-.71,1.66-3.5-1.66c.41-1.04,2.3-.4,2.13-2.09-.1-1.07.37-2.21.61-3.31.08-.35.29-.68.37-1.03.45-2.04,1.26-4.02.17-6.19-.41-.82-.07-2.02-.07-3.17h1.92l.15-.41-2.38-1.54c2.12-2.24.27-5.01,1.18-7.54l2.5.96c-.52-1.32,2.38-.39,1.44-2.16-.1-.19,1.25-1.62,1.84-1.57,1.04.09,1.44,0,1.45-1.05-1.2-1.04-3-.47-4.57-1.64,2.1-.43,3.83-.88,5.6-.07l.77-.02c1.25-.53,2.55-.97,3.75-1.6,1.72-.9,3.72-1.63,4.97-3,1.63-1.78,3.75-3.22,4.78-5.7l1.65.29c.12-.26.23-.52.35-.77.41-.84.75-2.35,1.26-2.41,2.32-.28,2.51-2.4,3.71-3.62.72-.74.37-2.63,2.22-2.23.04,0,.24-.49.29-.76.1-.48-.03-1.14.24-1.42,2.2-2.21,1.49-4.44.17-6.71-.08-.13,0-.35.03-.74l2.43-.55-2.27-4.03,1.32-1.52,2.52,1.25c.13,1.32.04,2.87,1.26,3.82-.62-.14-1.1.45-1.13.84-.04.68.53,1.45.98,2.08.33.45.92.72,1.39,1.08l-.07-.07c1.85-1.04,3.8-.21,5.83-.29.41.66.78,1.44,1.31,2.08.74.9,1.48.16,2.41-.3l.26,2.21,1.32-.73c2.98-1.12,3.47-.99,5.45,1.67l-2.28.13c1.08.99,1.73,2.43,3.46,1.4-.3.99-1.7,2.8-2.8,3.61-.8-1.99-1.54-4-2.43-5.95-.19-.42-.93-.59-1.41-.87Zm1.26,6.01c-.24.3-.43.71-.74.89-1.39.81-2.81,1.57-4.24,2.31-.11.06-.35-.12-.84-.3l1.61-2.54c.78.04,1.51.19,2.19.07.65-.12,1.24-.52,1.85-.8l.17.37Zm6.14-11.61l-.79-2.22q1.14.36.79,2.22Zm7.34-37.92c-.08.04-.46-.44-.7-.67l-1.4-1.74-3.04.59.78-4.18c.99,0,1.31,1.63,2.8.87.8-.41,1.87.81,1.97,2.07l2.41,1.19c-1.15.78-1.96,1.36-2.82,1.86Zm1.92-6.47c-.87-1.5-2.53-2.44-2.87-4.27-.03-.15-.27-.27-.55-.53-1.26.25-1.64.88-.59,2.57-3.12-1.31-6.51-.08-9.09-2.85,1.04-.38,1.84-.65,2.61-.97.33-.13.86-.39.86-.59.01-1.92,1.45-2.65,2.73-3.6.58-.43,1.09-1.15,1.32-1.83.4-1.22,1.13-1.86,2.3-2.4,1.31-.6,2.42-1.63,3.6-2.49.19-.14.45-.43.42-.6-.49-2.17,1.36-2.44,2.57-3.23.14-.82.36-1.63.37-2.45,0-.25-.47-.5-.77-.75l6.45.14,1.07,1.08.05,1.2,1.62-.69,2.98,2.45,1.22-2.14,2.61,4.15c.31-1.71,2.04-.41,2.94-1.24l.89,2.48h-2.22c.05.28.05.57.1.59,1.25.27,2.75.17,3.69.85.73.53,2.62,1.18.79,3.18,2.47-.5,1.77-2.72,3.05-3.45,1.03.67-.65,2.7,1.45,2.65.31,1.31,1.3.92,2.61.48l-5.25,6.81c-1.91,1.28-3.77,2.64-5.73,3.82-2.22,1.33-4.54,2.51-6.82,3.76l-1.32-1.22c-1.87,1.91-3.96,2.45-6.41,1.4-.44-.19-.98-.15-1.43-.31-1.78-.66-4.19-.12-5.27-1.98Zm5.9,6.3c-.41.1-.99-.44-2.09-1.01l2.55-.84.52.54c-.32.47-.57,1.22-.98,1.32Zm1.77,2.34c-.82-1.17-.18-1.54.85-1.71-.01.67.34,1.49-.85,1.71Zm1.94,1.22c.06-.5.04-1.22.17-1.25.66-.14,1.35-.12,2.03-.14l-2.2,1.39Zm2.67,16.62c.11-1.75,1.01-1.82,2.27-1.25l-2.27,1.25Zm1.25-10.48c.44-1.53,1.3-1.21,2.14-.95l-2.14.95Zm4.23,14h3.38c-1.01,1.3-1.29,1.35-3.38,0Zm4.48,4.9l-.64-.36,1.03-1.78.5.25-.89,1.88Zm-4.31-21.78c-.44-.31-.76-.78-1.21-1.07-1.15-.75-1.69-2.39-3.51-2.26-.41.03-.88-.84-1.32-1.33h0c-.54-1.54-1.86-1.58-3.16-1.65.8-.59,2.55-.14,1.8-1.97,1.98-.42,3.76-.21,5.11-1.66.59-.63,1.48-.35,2.55.21,1.1-.92,2.11-1.75,3.1-2.61,1.88-1.63,3.67-3.37,5.66-4.86.84-.63.04-.93.04-1.35,2.52.05,4.12-1.42,5.35-3.46l6.26,4.42,1.42-1.1.31,2.66c2.13.03,2.49.82,1.5,3.23l2.5-.57c-.71,2.47-.62,2.55,2.13,1.96.06.55.09,1.1.19,1.63.11.56.29,1.1.31,1.16l4.1,2.69c-1.01.65-1.8,1.2-2.62,1.7-2.96,1.79-6.43,2.23-9.52,3.6-3.25,1.43-6.62,1.94-10.04,2.46-3.86.59-7.59.55-10.94-1.83Zm6.42,20.97c1.76-1.81,1.98.58,3.22.62-1.87,2.26-1.92-1.16-3.22-.62Zm6.38-6.41l-6.04-1.51.09-.64c2.28-.08,4.6.08,6.81-.34,1.02-.19,1.27,1.77,2.25.47.06.42.21,1.18.16,1.2-1.08.29-1.48.8-.78,1.82-.36.01-.71.03-1.07.04l-.27-2.5h-.58s-.57,1.45-.57,1.45Zm10.74,14.16c-.34-.78-.47-1.59-.94-2.01-.6-.54-1.51-.75-.41-1.67l2.47,1.77-1.12,1.91Zm8.98,4.05l-.38-1.52-3.33-.68,3.77-2.46,2.33.32c1.11,2.43-1.84,2.65-2.4,4.34Zm-5.64,54.96c.26-.14.57-.41.7-.35.63.31.61.34.92,1.73l-1.62-1.39Zm20.83-48.37c-.42.93-.68,1.49-.93,2.05l-1.16-1.58,2.09-.46Zm.45,41.56l-2.01.33-1.83-2.15c1.75.65,3.71-.91,3.84,1.82Zm-4.47-2.18c-.62,2.33-1.56,1.34-2.38.12l2.38-.12Zm-4.59,1.18l3.66,1.63-.9,1.16-3.17-2.48.41-.32Zm-3.9,8.72c-.26-.11-.39-.52-.57-.79.38-.03.83-.2,1.11-.05.25.14.35.56.5.89-.36,0-.74.08-1.04-.05Zm.94,3.87l1.04-1.52c-1.3-.38-1.74-1.08-.9-2.25.52-.04,1.05-.08,1.73-.14l-.75,2.43,1.51,1.06-2.64.42Zm.63-6.82c2.55-3.23,5.38-1.71,8.56-1.5l-1.38,2.87c-1.61-.92-2.9-1.47-3.52-2.77-1.14.53-1.89,1.74-3.66,1.41Zm2.43,3.98l.85-1.57.48.19-.59,1.78-.74-.41Zm1.81,2.81c-.95-.82-.36-1.75.16-2.48.54-.76,1.31-1.42,2.11-1.92.2-.13,1.19.42,1.29.79.28,1.15,1.22,1.03,1.97,1.3-1.81.77-3.62,1.53-5.52,2.32Zm6.1-3.02c-.18.16-.31.37-.45.58.11-.43.23-.87.3-1.31.08-.55.28-1.53.11-1.6-1.75-.75.34-1.12.12-1.67,2.04,1.89,2.03,2.13-.08,4Zm0-7.52l1.07-.99,1.9,1.25c-1.24.22-2.14,1.57-2.97-.26Zm2.03-4.14l6.21,1.39q-4.71,1.29-6.21-1.39Zm5.36,8.8q-2.29.19-1.67-2.63l1.67,2.63Zm-3.69-2.65l-.16-2.23,1.79-.17-1.07,2.52-.55-.12Zm.36,5.55l2.85-1.13q-1.63,2.11-2.85,1.13Zm2.96,8.69c.57-1.22,1.18-1.64,2.4-.15l-2.4.15Zm2.88-47.3h-.38v-2.05l.38.16v1.89Zm5.63,46.94c-.29-.1-.71.14-1.07.23l-.16-.42c.47-.27.93-.66,1.43-.74.22-.04.82.58.78.83-.18,1.2-.58.24-.98.1Zm4.29-33c-.15-.21-.48-.54-.43-.62.21-.31.53-.53.81-.79l.49.51-.86.9Zm2.82,36.61c-1.35-.97-1.76-1.65-.94-2.34.26-.22.98.11,1.5.19l-.55,2.14Zm1.9-3.61l1.75,2.38q-1.37-.05-1.75-2.38Zm11.44-18.13l-.12-.73,1.36-.27.15.78-1.39.22Zm3.34,12.92l-.64.09-.71-3.14q1.67,1.26,1.35,3.05Z"/>
      <path class="cls-1" d="m28.91,93.12l-.64.39-2.06-1.61c.75-.89,1.9-1.72,1.49-3.3-.08-.29.53-.76.82-1.15.17-.08.34-.15.52-.2l2.99,2.26c.15-.54.36-1.04.43-1.57.13-.94.24-1.92-1.2-1.9l-2.19-1.38c.67-2.19,1.86.2,2.75-.43l-.63-1.3c2.12.93,3.89,2.33,6.04,1.36l-.07-.06-.63,4.17,1.22,1.85.1-.11-2.51,3.92-2.79-1.65-.68,3.3-2.18-5.11-.86,2.62.08-.07Z"/>
      <path class="cls-1" d="m137.33,22l.02.57-1.32,2.44c-1.02-1.75-2.39-.77-3.89-.64.05.84.04,1.59.15,2.33.18,1.21.53,2.39.63,3.6.04.43-.46.9-.71,1.37-1.79-1.37-.47-2.51-.31-3.12l-3.5-3.02.09.11-.63-2.76-.44.06-.81,2.12.08-.09c-1.32-.65-2.36.28-3.24.87-2.03,1.38-1.96,1.49-4.3.87l.82-1.41-1-.75,2.88-1.29c-.05.28-.21.61-.11.81.17.32.51.54.78.81.1-.3.28-.61.29-.91,0-.25-.2-.5-.32-.75l1.74.27c1.33-1.35,1.34-3.72,3.26-4.73l-.04-.04.49,2.7,2.12,1.12,4.44-2.34.3.42-1.49,1.84,4.03-.45Z"/>
      <path class="cls-1" d="m137.45,158.59c1.01-.82,1.02-3.18,3.17-2.1.86-1.37,2.11-1.74,4.21-1.3l-1.81-1.59.98-1.07,1.22.99c1.4-1.02.09-1.97.04-2.94l4.03,1.77-2.98,2.82.59,1.45h-2.93c-.39.61-.82,1.46-.93,1.42-1.96-.73-3.61.83-5.58.55Z"/>
      <path class="cls-1" d="m274.78,170.51c.32.42-1.05,2.04,1.09,1.17l.18,2.19c-.33.05-.57.17-.65.1-.91-.86-1.69-1.91-2.72-2.59-1.65-1.1-2.64-3.12-5.15-3.17-.77-.02-1.56-1.89-2.24-2.98-.23-.37-.17-.93-.23-1.39l-1.64-.46.1-.44,3.31.68c-.02.1-.1.24-.06.28.91,1.07,2.88.16,3.48,2.1.4,1.28,1.43,2.41,2.38,3.43.52.56,1.43.75,2.14,1.08Z"/>
      <path class="cls-1" d="m28.84,93.19c.48.38,1.71.23.89,1.53-.16.26.83,1.24,1.52,2.22l-3.24.33-.24,1.34-2.2-.54h0c.43-.15,1.02-.19,1.23-.5.2-.28,0-.85-.03-1.29-.48.14-1.28.17-1.38.44-.27.79-.33,1.58-1.53,1.11l.34-3.12-2.56.14,1.6-4.63c3.18.48,1.7,4.02,3.98,4.73,1.38.25,1.79-.55,1.68-1.83l-.08.07Z"/>
      <path class="cls-1" d="m55.41,165.26l1.04-1.63,4.74-.45,1.08,6.26-4.87-4.33c-.72,1.25-2.02,2.16-3.96,2.72-.86-1.6.91-.96,1.36-1.59l-1.92-.84c.05-.33.02-.56.12-.67.83-.9,1.54-.56,2.4.51Z"/>
      <path class="cls-1" d="m24.05,168.98l.18-3.65-3.39-1.3-1.07,2.68-2.52.15c-.04-.16-.21-.44-.14-.65.21-.62.39-1.32.8-1.8.66-.78,1.88-.89,2.21-2.19.16-.63,3.27-.61,4.12.06.74.58.86,1.51.68,2.49-.14.74-.11,1.51-.16,2.41l2.4.82-3.11.97Z"/>
      <path class="cls-1" d="m24.53,154.05l.17.73c-1.45,0-1.15,1.42-1.57,2.14-.66,1.13-.85,2.53-1.23,3.83l-2.2-.52,2.16-.99c-1.09-1.21,1.09-3.4-1.49-4.25-.8.66.74,2.59-1.54,2.54.04-.42.2-.86.1-1.24-.43-1.78-.39-1.61,1.49-2.29.8-.29,1.28-1.44,2.22-2.57-.29-.04.05.04.39.04,1.22.02,1.52.49.81,1.53-.15.23-.22.51-.33.76l1.02.29Z"/>
      <path class="cls-1" d="m111.36,32.69l-.31-2.55c.27.01.73.17,1.03.01.31-.16.47-.61.69-.94-1.87-1.17.08-2.22.44-2.12,1.62.46,1.04-.97,1.49-1.45.26-.27.52-.54.78-.81l3.06,2.22-.31.54-1.91-.58.21,2.12-1.7.19s-1.59,2.52-1.74,2.7l.08-.08-1.88.67.07.07Z"/>
      <path class="cls-1" d="m222.69,172.19c0-.86-.07-1.57.02-2.26.09-.64.48-1.25.5-1.87.03-1.09-.75-2.37.9-2.94-.41-1.18.7-2.05.76-2.9.15-2.11,1.2-2.28,2.97-2.07-.12,1.02.72,2.4-1.34,2.4-.17,0-.37.54-.49.86-1.09,2.84-1.28,5.98-3.31,8.78Z"/>
      <path class="cls-1" d="m39.52,101.48c1.67-.2,2.62.55,2.68,2.51l3.12-.89-1.5-1.09.14-.38,2.05.43-.12-1.5,2.44,1.17c-.27,2.73-.49,2.96-3.43,3.01-.74.01-1.48-.36-2.23-.39-.72-.03.51,1.38-.73,1.15-.19-.04-.37-.06-.77-.12.44-1.67-.72-2.75-1.57-3.97l-.08.07Z"/>
      <path class="cls-1" d="m284.12,166.97c1.5-2.79,3.84-2.68,6.03-2.43,1.69.19,3.3.99,5.25,1.61-1.91,1.16-3.93.36-5.75.74-1.77.37-3.68.08-5.53.08Z"/>
      <path class="cls-1" d="m214.14,169.24l-1.04-.22.49,2c-.34.09-.52.14-.52.14-.67-1.47-1.33-2.94-2.07-4.61,2.8-.42,1.96-3.26,3.34-5.02l2.48.69c-2.15,1.97-3.23,4.11-2.69,7.02Z"/>
      <path class="cls-1" d="m262.43,165.65c1.54,1.1-.25,1.59-.86,2.35-.14,1.42,1.57,2.89.02,4.31l-2.24-3.14c-2.45.74-1.36-1.68-2.25-2.2l5.32-1.33Z"/>
      <path class="cls-1" d="m127.56,32.42c.45-1.44,1.17-2.86.09-4.51-.56-.05-1.27,0-1.89-.21-.54-.19-1.38-.67-1.38-1.03-.02-.91.63-.89,1.45-.64.82.26.91-.45.86-1.09l-.08.09,1.89.59-.09-.11c.14.63.11,1.38.46,1.85.96,1.28.12,2.86.85,4.13-1.58.68-.44,2.01-.71,3.01l.08-.04c-.82-.47-1.67-.91-1.48-2.1l-.04.05Z"/>
      <path class="cls-1" d="m31.56,132.59c-.93.5-1.65,1.88-3.05.65l2.17-1.93-5.61-1.59,1.33-2.87,1.91,2.67,1.49-2.03c.59,1.85,1.13,3.52,1.67,5.17l.09-.07Z"/>
      <path class="cls-1" d="m141.79,150.71l-2.26.52-1.22-2.05c.28-.14.53-.23.75-.38.7-.45,1.35-.99,2.09-1.35.46-.22,1.05-.18,1.58-.26.04.5.08,1,.12,1.5.04.43-.04.93.15,1.28.58,1.09.62,1.07-.6,2.07l-.61-1.33Z"/>
      <path class="cls-1" d="m100.63,141.17c.71-1.32,1.62-.43,2.36-.11.59.26,1.04.83,1.59,1.31-2.77,2.15,1.41,3.52.48,5.71-.29-1.33-1.52-.59-2.09-1.22-.64-.7-1.23-1.45-1.83-2.18l.08.08,1.42-1.57-2.06-2.12.06.1Z"/>
      <path class="cls-1" d="m180.31,154.48c-.94,1.92-2.12,1.65-3.42.75-1.16-.81-2.26-1.08-2.94.13l-2.7-1.39.58-.73c1.16-.3,2.31-.62,3.48-.89.12-.03.3.21.45.33l-.32,1.11,4.87.68Z"/>
      <path class="cls-1" d="m26.99,158.22l1.62,2.77.05-.06c-1.75.16-.95,1.65-1.3,2.52l.05-.06c-.74-1.13-1.16-2.72-3.1-2.01l-.61-3.09h3.36l-.07-.06Z"/>
      <path class="cls-1" d="m117.26,33.94c.45-.59.91-1.17,1.33-1.79.15-.22.27-.75.23-.77-2.82-1.32.25-1.78.44-2.88.62,1.6.39,3.41,2.35,4.2.97.39.47,1.56-1.03,2.33-.78-.1-.09-3.09-2.04-1.04-.19.2-.92-.09-1.39-.16l.11.1Z"/>
      <path class="cls-1" d="m109.58,28.51c-.38.59-.64,1.48-1.18,1.72-1.32.58-2.77.87-4.44,1.35l.28-2.01-1.98-.27c1.06-.69,1.42-1.52,2.73-.7.92.57,2.46.17,3.72.15.08,0,.15-.44.23-.68l.64.44Z"/>
      <path class="cls-1" d="m66.84,152.44q2.33-1.62,3.79-.91l-.5,2.32,3.67-.93.26.59c-.84.46-1.74.84-2.51,1.4-.47.34-.73.95-1.09,1.44l-.72.09c.37-1.37-.58-2.26-1.08-3.36-.51-1.13-1.29-.43-1.89-.71l.06.07Z"/>
      <path class="cls-1" d="m124.44,143.97l2.28.4-2.67,1.97c-.11-.99-.04-1.75-.31-2.36-.2-.45-.84-.7-1.1-1.5l2.34.34-1.04-2.79h2.67c-.34.92-.97,1.75-.78,2.32.47,1.45-.9.95-1.38,1.61Z"/>
      <path class="cls-1" d="m144.46,94.95l1.15.51c1.29.69,1.18,2.25,2.23,3.33l-1.79.93-1.27-1.79-.96,1.13.06.04v-4.17l.28.04.29-.02Z"/>
      <path class="cls-1" d="m252.75,162.85c.68,0,1.36.05,2.02-.01.73-.07,1.44-.25,2.18-.39.53.63,1.07,1.18,1.46,1.81.22.36.2.87.28,1.31-.53.07-1.06.2-1.59.2-.27,0-.72-.17-.78-.35-.54-1.82-2.2-1.78-3.58-2.56Z"/>
      <path class="cls-1" d="m59.31,85.99l2.75.89-1.81,1.55.11-.1-1.83.64c-.45-.46-.86-.87-1.27-1.28,0,0-.16.08-.19.15-.04.08-.03.19-.03.28v.02s-.87-2.13-.87-2.13c.52.2,1.04.56,1.55.55.54,0,1.07-.36,1.61-.57Z"/>
      <path class="cls-1" d="m163.97,85.39l2.17,2.2-.3.61c-1.11-1.35-2.11-1.69-3.55-.58-1.15.89-2.48-.22-2.98-2.25l-.09.1.92-.38.85,1.48,3.06-1.12-.08-.07Z"/>
      <path class="cls-1" d="m152.9,156.41c1.25,1.51,2.51.23,3.92.22v1.98c-1.19,0-2.39-.29-3.3.09-.77.32-1.21,1.43-1.8,2.19l-.65-.4,1.84-4.08Z"/>
      <path class="cls-1" d="m125.98,116.23l-1.12.62-.24-1.24.16-.25q1.38-2.47,2.99-2.51c-.65,1.2.82,3.17-1.78,3.37Z"/>
      <path class="cls-1" d="m129.3,143.94l-1.15,2.65q-.28-2.74,3.31-3.84l1.28,3.33c-.92.84-1.66.52-1.6-.26.11-1.34-.45-1.75-1.85-1.87Z"/>
      <polygon class="cls-1" points="155.76 150.65 154.22 152.76 149.5 151.4 155.35 150.04 155.76 150.65"/>
      <path class="cls-1" d="m23.4,129.62c-1.27-.98-2.11-2.35-3.44-.88l-1.01-3.02c1.71,1.2,4.89-.32,4.45,3.89Z"/>
      <path class="cls-1" d="m172.37,87.58c-.74.16-1.46.41-2.21.47-2.21.18-2.21.15-1.4,2.38-.31-.03-.78-.01-.79-.09-.22-1.02-.65-2.1-.48-3.07.21-1.23,1.06-.88,2.01-.45.85.39,1.93.28,2.91.39l-.04.37Z"/>
      <path class="cls-1" d="m40.01,161.53l-5.25,3.36c-.26-.43-.84-.95-.75-1.32.13-.53.67-1.25,1.15-1.36,1.59-.36,3.23-.48,4.86-.69h0Z"/>
      <path class="cls-1" d="m180.62,93.13c-.57-.32-1.14-.89-1.71-.89-.61,0-.76.19-.69-.6.06-.68-.3-1.39-.48-2.12,2.24,2.01,2.02,2.59,4.64.67l-.08-.06c.67,1,.63,1.62-.77,1.86-.38.07-.66.77-.99,1.18l.06-.04Z"/>
      <path class="cls-1" d="m29.75,122.44c-.19,1.62.81,2.38,2.89,2.86l-4.73,1.85-.39-.45c1.73-.99,2.27-2.5,2.23-4.28h0Z"/>
      <path class="cls-1" d="m314.58,160.53c-.38.47-.75,1.34-1.14,1.35-1.69.03-2.4,1.19-3.02,2.58l-.57-.38c.38-.91.54-2.08,1.21-2.66.8-.7,2.03-.9,3.08-1.32l.44.44Z"/>
      <path class="cls-1" d="m21.51,137.39c.52-.53,1.22-1.59,1.52-1.49,1.41.48,1.38-.6,1.74-1.3l.73.05-1.37,4.02-2.7-1.34.09.05Z"/>
      <polygon class="cls-1" points="47.38 92.36 49.18 89.54 51.45 93.06 48.68 93.53 49.61 92.06 47.38 92.36"/>
      <path class="cls-1" d="m120.59,21.4c-.67.95-.86,2.47-2.45,1.57l1.19-2.1-2.92.85c1.29-.66,2.55-2.77,4.18-.32Z"/>
      <path class="cls-1" d="m39.54,87.76l.14,2.53-1.65,1.89-.19-2.07-.1.11c1.86-1.04-.35-1.83-.16-2.77.85-.75,1.46-.34,2.02.4l-.06-.09Z"/>
      <path class="cls-1" d="m33.94,161.92c-2.22-.75-1.67-2.37-1.45-4.28.69.18,1.51.15,1.92.55.46.45.41,1.02-.53,1.43-1.39.61.67,1.34.06,2.3Z"/>
      <path class="cls-1" d="m21.42,137.34c1.31.89.65,2.15.64,3.25l-2.95.72c.84-.84,1.82-1.42,1.75-1.81-.17-.93-.55-1.68.66-2.1l-.1-.06Z"/>
      <path class="cls-1" d="m54.6,91.22l.86-.3-1.32,3.83-2.13-2.44c.78-.87,1.47-1.5,2.63-1.1h-.05Z"/>
      <path class="cls-1" d="m127.49,18.75h4.31c.86,1.83-1.19,1.84-2.26,2.83.15-1.72-.66-2.53-2.08-2.85l.03.03Z"/>
      <path class="cls-1" d="m51.88,161.39l-2.45-.26q.26-1.55,3.4-2.4l-1.04,2.73.09-.08Z"/>
      <path class="cls-1" d="m12.28,91.25c-1.8.54-2.85.09-3.46-1.09-.18-.35.27-1.03.48-1.72l2.98,2.81Z"/>
      <polygon class="cls-1" points="167.62 153.66 167.62 152.32 169.26 154.18 170.96 153.89 171.24 155.4 169.6 156.17 167.55 153.58 167.62 153.66"/>
      <path class="cls-1" d="m108.1,147.62l-2.17-2.86c.7-1.7,1.92.12,2.78-.58l-.61,3.43Z"/>
      <path class="cls-1" d="m54.71,158.86q1.4-.96,3.92,1.41c-2.07.32-2.24.25-3.92-1.41Z"/>
      <path class="cls-1" d="m136.51,141.78l-.65,2.74c-1.93-.01-1.74-1.39-1.42-2.44.34-1.1,1.25-1.04,2.06-.3Z"/>
      <path class="cls-1" d="m67.28,157.53l.12,2.19c-1.47-.58-3.28.86-4.4-1.32l4.27-.87Z"/>
      <path class="cls-1" d="m140,144.47c-1.53,1.8-2.68,2.49-4.3,1.39,1.35-.11,2.1-1.97,4.3-1.39Z"/>
      <path class="cls-1" d="m230.33,168.77c.73-.33,1.44-.5,1.93-.92.45-.39.65-1.05,1.15-1.92.29.58.37.79.48.98.1.16.22.3.34.44q-1.92,1.6-3.9,1.42Z"/>
      <path class="cls-1" d="m68.45,164.18c-.17.56-.27,1.56-.53,1.61-1.07.18-2.18.08-3.28.08l-.12-.62,2.11-1.49.58,1.29.98-.8.25-.05Z"/>
      <path class="cls-1" d="m25.57,98.07l2.2,3.16-4.44-.52c.67-.94,2.74-.8,2.25-2.63h0Z"/>
      <path class="cls-1" d="m101.56,32.59h-2.42c-.56-1.13-1.13-2.21.39-3.55.1,1.57.34,2.97,2.03,3.55Z"/>
      <path class="cls-1" d="m69.75,156.44l.72-.09c.18.31.54.86.51.88-.84.58-1.72,1.12-2.7,1.73-.54-1.68-.12-2.48,1.46-2.52Z"/>
      <path class="cls-1" d="m17.61,161.28l-1.01-2.8q1.83.18,2.21,2.86l-1.2-.06Z"/>
      <path class="cls-1" d="m111.28,32.62l-.24,1.69-3.44,1.1c1.01-1.87,2.54-2.07,3.75-2.72l-.07-.07Z"/>
      <path class="cls-1" d="m212.32,156.34l-.79-1.19c2.33-1.35,2.48-1.35,3.33-.02l-1.48.07c.68,1.41-1.14.31-1.09,1.08l.03.06Z"/>
      <polygon class="cls-1" points="26.98 107.3 27.42 105.42 30.77 107.7 30.68 108.02 26.98 107.3"/>
      <path class="cls-1" d="m39.6,101.41c-2.3-.6-1.23-2.12-.99-3.57l1.7,2.07-.79,1.57.08-.07Z"/>
      <polygon class="cls-1" points="105.52 22.31 109.08 22.79 109.24 25.14 105.52 22.31"/>
      <path class="cls-1" d="m75.99,41.39c-1.43.72-2.87.96-4.21.1l.05-.68c.7.05,1.4.06,2.09.16.7.1,1.38.28,2.07.42Z"/>
      <path class="cls-1" d="m115.49,144.2h-3.41c-.25-.77-.02-1.49.81-1.24.85.26,2.51-.99,2.6,1.24Z"/>
      <path class="cls-1" d="m183.36,10.6c.07-.17.17-.33.2-.51.08-.5.12-1,.18-1.5.49.17,1.06.24,1.46.54.32.24.44.75.97,1.72-1.32-.14-2.09-.23-2.87-.31l.07.06Z"/>
      <path class="cls-1" d="m27.06,158.28q1.58-2.03,4.83-.73l-4.89.67.06.06Z"/>
      <path class="cls-1" d="m115.12,146.08l-3.53,1.28-.22-.59c1.1-.62,1.97-1.78,3.75-.69Z"/>
      <path class="cls-1" d="m17.89,92.64l3.23-.87c.25,1.45-.91,1.83-2.15,2.36l-1.08-1.49Z"/>
      <polygon class="cls-1" points="54.6 91.22 54.64 91.22 55.06 87.02 57.03 88.14 57.03 88.12 54.6 91.22"/>
      <path class="cls-1" d="m26.91,172.56l.31-1.67.96,1.02,1.6-2.45c.76,1.59-.04,2.45-2.87,3.1Z"/>
      <path class="cls-1" d="m157.04,150.7c1.39.32,2.11,1.06,2.82,2.04q-1.46.17-2.82-2.04Z"/>
      <path class="cls-1" d="m44.83,168.49c-.08.74-.22,1.48-.24,2.23-.01.65.11,1.29.2,2.23-1.32-2.18-1.37-3.13.04-4.46Z"/>
      <polygon class="cls-1" points="39.58 105.33 41.61 107.2 39.66 108.48 38.96 105.83 39.58 105.33"/>
      <path class="cls-1" d="m48.15,97.32q1.14-2.15,3.09-1.21l-3.09,1.21Z"/>
      <polygon class="cls-1" points="112.55 38.41 110.63 37.12 114.23 35.65 112.55 38.41"/>
      <path class="cls-1" d="m25.5,134.66c-.24-.02-.49-.03-.73-.05-1.89-.15-.63-1.47-.73-2.32.4.86,3.13.13,1.46,2.38Z"/>
      <path class="cls-1" d="m134.3,101.38l-1.55,2.08-.65-.26c.14-.61.13-1.33.47-1.8.23-.33.93-.34,1.43-.49l.3.47Z"/>
      <path class="cls-1" d="m42.08,91.38l3.03.73-.13.66c-1.03-.14-2.18.51-3.09-.49l.19-.9Z"/>
      <path class="cls-1" d="m136.71,18.67c-.08.09-.16.18-.26.26l-2.76.62c.05-.58-.07-1.27.19-1.49.3-.25.97-.16,1.45-.08.34.06.64.35.95.54.14.04.28.09.42.15Z"/>
      <polygon class="cls-1" points="206.71 166.51 210.19 168.74 209.84 169.33 206.25 167.32 206.71 166.51"/>
      <path class="cls-1" d="m117.15,33.84l1.4,1.76-2.05.78c-.75-.85-.15-2.2.75-2.43l-.11-.1Z"/>
      <path class="cls-1" d="m281.47,166.47c-1.15.02-2.3.11-3.43,0-.37-.04-.69-.61-.79-1.36l4.14,1.44.08-.08Z"/>
      <polygon class="cls-1" points="60.06 162.85 60.06 158.9 60.42 158.72 61.61 161.62 60.06 162.85"/>
      <polygon class="cls-1" points="80.42 150.57 81.36 153.77 80.8 154.01 79.28 151.77 79.24 151.84 80.51 150.61 80.42 150.57"/>
      <path class="cls-1" d="m137.67,150.19l.5,3.2q-1.53-.29-.5-3.2Z"/>
      <path class="cls-1" d="m167.55,153.58c-.24,1.31-1.22,1.67-2.38,2.02.27-1.98.26-2,2.45-1.95l-.07-.08Z"/>
      <path class="cls-1" d="m212.28,156.27l-3.6.69c.94-1.72,1.02-1.73,3.63-.64l-.03-.05Z"/>
      <polygon class="cls-1" points="149.15 156.1 150.83 155.94 150.25 157.85 148.62 157.3 149.24 156.01 149.15 156.1"/>
      <path class="cls-1" d="m18.82,98c.44-1.17.5-2,.87-2.17.39-.18,1.07.26,2.29.64l-3.16,1.53Z"/>
      <polygon class="cls-1" points="297.67 158.36 298.99 158.5 298.32 161.25 297.67 161.16 297.67 158.36"/>
      <path class="cls-1" d="m28.61,160.99l2.79-2.41-1.04,3.43c-.64-.42-1.16-.76-1.69-1.09l-.06.07Z"/>
      <path class="cls-1" d="m51.79,161.47l2.26-.26.3,2.3-.63.29c-.61-.81-1.22-1.61-1.84-2.41l-.09.09Z"/>
      <path class="cls-1" d="m30.81,163.43c-1.15,1.06-2.26.2-3.39-.07l-.06.08c1.13-.65,2.28-1.85,3.37.08l.08-.09Z"/>
      <path class="cls-1" d="m30.74,163.52l1.51.69c-.57.59-.14,1.99-1.89,1.33.15-.71.3-1.4.45-2.1l-.07.08Z"/>
      <path class="cls-1" d="m106.4,24.76l-2.69,1.97q.25-2.11,2.69-1.97Z"/>
      <path class="cls-1" d="m178.89,7.72l-1.5.3.11,1.66c-1.39-.42-1.75-1.2-1.35-2.72l2.68.83.07-.07Z"/>
      <path class="cls-1" d="m15.82,95.46v1.67l-.37.12c-.27-.58-.56-1.14-.79-1.73-.22-.59-.38-1.2-.72-2.32l1.93,2.33-.05-.06Z"/>
      <path class="cls-1" d="m178.82,7.79c.3.27.88.59.84.8-.15.77-.5,1.5-.8,2.3-1.3-1.01.12-2.11.04-3.16l-.07.07Z"/>
      <polygon class="cls-1" points="23.17 89.34 22.22 87.79 24.72 87.94 24.85 88.39 23.17 89.34"/>
      <path class="cls-1" d="m46.51,177.63c.54-1.91,1.52-1.51,2.58-.87-.35.13-.7.26-1.05.38-.41.14-.82.26-1.53.49Z"/>
      <polygon class="cls-1" points="66.78 152.37 67.32 153.93 64.68 153.5 64.68 151.81 66.84 152.44 66.78 152.37"/>
      <polygon class="cls-1" points="133.4 111.21 132.71 113.04 131.53 112.36 132.7 110.82 133.4 111.21"/>
      <path class="cls-1" d="m46.34,169.12l3.35,1.82c-2.12.76-2.68-.63-3.35-1.82Z"/>
      <path class="cls-1" d="m6.88,62.7c.72.87,1.06,1.37,1.49,1.77.29.27.72.39.97.76-1.64.34-2.1-.7-2.46-2.53Z"/>
      <path class="cls-1" d="m127.6,32.38c-.49-.03-1.26.12-1.43-.12-.5-.73-.76-1.62-1.19-2.63.83-.26,1.33-.08,1.64.81.24.69.61,1.34.93,1.99l.05-.05Z"/>
      <polygon class="cls-1" points="141.08 106.79 140.99 108.71 138.29 106.79 141.08 106.79"/>
      <polygon class="cls-1" points="296.5 166.83 299.41 167.14 298.22 169.1 296.5 166.83"/>
      <path class="cls-1" d="m281.38,166.56c1.46.15.37,1.18.52,1.76.04.17-.77.55-1.49,1.04l1.06-2.87-.08.08Z"/>
      <path class="cls-1" d="m4.39,94.53v2.15c-.45,0-.71.08-.8-.01-.87-.9-1.02-1.66.8-2.14Z"/>
      <path class="cls-1" d="m63.48,165.41l2.63,2.05q-2.27-.41-2.63-2.05Z"/>
      <path class="cls-1" d="m94.61,37.79c-.31.45-.63.9-1.06,1.53l-1.54-.82c.76-1.22,1.61-1.28,2.6-.71Z"/>
      <polygon class="cls-1" points="15.26 101.47 13.92 97.99 15.73 98.31 15.26 101.47"/>
      <path class="cls-1" d="m59.64,44.6q-.5,1.74-2.22,1.53l2.22-1.53Z"/>
      <polygon class="cls-1" points="68.45 164.18 68.2 164.24 68.38 161.95 69.04 161.95 69.77 164.91 68.45 164.18"/>
      <path class="cls-1" d="m37.47,100.94c-1.62,1.66-2.31.16-3.24.45l.06-.67,3.18.22Z"/>
      <path class="cls-1" d="m74.14,161.93c.6-.08,1.5-.3,1.55-.19.23.59.25,1.27-.19,2.1l-1.36-1.91Z"/>
      <path class="cls-1" d="m184.53,102.45q-1.76,1.24-2.04-.82l2.04.82Z"/>
      <path class="cls-1" d="m320.02,158.19l2.34.91c-1.79,1.99-1.53-.83-2.34-.91Z"/>
      <path class="cls-1" d="m35.49,106.24l.3-3.01c.73,2.03.71,2.2-.3,3.01Z"/>
      <path class="cls-1" d="m80.41,35.86c.49,1.6-.56,1.74-1.7,1.81l1.7-1.81Z"/>
      <path class="cls-1" d="m49.78,166.84c.42-.77-.26-2.54,1.81-1.9.13,1.42-.74,1.74-1.88,1.8l.07.1Z"/>
      <path class="cls-1" d="m39.92,103.96l-1.77,1.99q-.48-1.93,1.77-1.99Z"/>
      <polygon class="cls-1" points="333.51 157.57 331.01 157.79 330.93 157.26 333.42 156.87 333.51 157.57"/>
      <polygon class="cls-1" points="122.1 28.66 123.26 30.28 120.83 31.04 122.1 28.66"/>
      <path class="cls-1" d="m126.85,155.39l-2.18.51q.22-1.36,2.18-.51Z"/>
      <path class="cls-1" d="m71.5,170.24c.45-.69-.24-2.35,1.8-1.89l-1.8,1.89Z"/>
      <path class="cls-1" d="m113.55,23l-2.31.11c.34-.67.51-1.49.85-1.58,1-.24,1.72.17,1.46,1.47Z"/>
      <polygon class="cls-1" points="73.46 151.95 75.63 150.23 76.43 152.11 73.46 151.95"/>
      <path class="cls-1" d="m12.87,89.31l.66-2.46q1.36.99-.66,2.46Z"/>
      <polygon class="cls-1" points="222.64 173.09 221.83 175.5 220.19 173.99 222.64 173.09"/>
      <path class="cls-1" d="m83.96,149.38q-.25,1.91-2.29,1.03l2.35-.98-.06-.05Z"/>
      <path class="cls-1" d="m29.62,86.59l-.58.66c-.18.05-.35.12-.52.2l-1.31.49.84-2.38,1.57,1.03Z"/>
      <path class="cls-1" d="m155.19,89.93l-1.24-1.71c.66.24,2.45-.57,1.24,1.71Z"/>
      <path class="cls-1" d="m121.49,156.05l-1.48.77c-.14-.31-.43-.66-.37-.93.05-.22.51-.46.79-.48.24-.01.5.29,1.06.64Z"/>
      <path class="cls-1" d="m45.08,94.95c1.3-1.32,2.01-1.46,2.84.15l-2.84-.15Z"/>
      <path class="cls-1" d="m36.73,53.21c-1.37-.57-1.6-1.19-.47-2.51l.47,2.51Z"/>
      <path class="cls-1" d="m45.86,96.44l.37,2.29c-.47-.12-.71-.11-.78-.21-.49-.65-.78-1.31.41-2.08Z"/>
      <path class="cls-1" d="m10.6,161.2l-2.52.86c.46-1.84,1.66-.94,2.27-1.55l.25.68Z"/>
      <path class="cls-1" d="m37.21,45.47c-.86.67-1.2,1.09-1.37,1.03-.38-.14-.91-.49-.94-.8-.03-.3.46-.89.76-.92.41-.03.85.35,1.54.69Z"/>
      <polygon class="cls-1" points="148.78 99.8 149.58 101.25 148.96 101.55 148.21 100.09 148.78 99.8"/>
      <path class="cls-1" d="m101.36,42.13c.44,1.42.19,1.85-1.38,1.39l1.38-1.39Z"/>
      <path class="cls-1" d="m7.43,102.34c-.93.43-1.86.84-2.43-.96l2.43.96Z"/>
      <path class="cls-1" d="m19.85,101.18l2.11,1.84c-1.97.36-1.81-.98-2.11-1.84Z"/>
      <path class="cls-1" d="m88.74,32.34l.79-2.44c.19.94.68,1.97-.79,2.44Z"/>
      <path class="cls-1" d="m111.79,26.82l-.74,1.66q-.93-.98.74-1.66Z"/>
      <path class="cls-1" d="m305.14,171.46q-1.73-1-.99-2.27l.99,2.27Z"/>
      <path class="cls-1" d="m115.48,24.84l-.78.81-1.73-.46c.89-.54,1.67-1.3,2.52-.36Z"/>
      <path class="cls-1" d="m33.17,110.65c.06.57.15,1.14.13,1.7,0,.06-.6.11-.93.16l.1-1.78.7-.09Z"/>
      <path class="cls-1" d="m30.66,113.11h-2.51c.83-1.65,1.78.02,2.51,0Z"/>
      <polygon class="cls-1" points="15.27 173.47 15.08 171.05 15.46 170.98 15.8 173.5 15.27 173.47"/>
      <polygon class="cls-1" points="24.38 117.35 23.03 116.73 23.91 115.61 24.38 115.78 24.38 117.37 24.38 117.35"/>
      <polygon class="cls-1" points="25.21 119.13 22.76 120.37 22.55 119.99 24.94 118.63 25.21 119.13"/>
      <path class="cls-1" d="m24.34,123.48l.7-3.01q.94,1.9-.79,2.9l.09.1Z"/>
      <polygon class="cls-1" points="137.78 135.61 135.96 135.75 136.5 134.36 137.95 135.05 137.78 135.61"/>
      <path class="cls-1" d="m35.29,126.56l1.37-2.21q.77,1.44-1.37,2.21Z"/>
      <path class="cls-1" d="m190.99,127.34l-.56-2.68q.81.55.56,2.68Z"/>
      <path class="cls-1" d="m112.19,128.36q.89,1.18,0,2.63v-2.63Z"/>
      <path class="cls-1" d="m124.29,133.65c-.53,0-1.06,0-1.58-.02-.03,0-.03-.35-.05-.54l1.6-.11.03.67Z"/>
      <path class="cls-1" d="m26.14,123.97l.33,1.92q-1.22-.62-.33-1.92Z"/>
      <path class="cls-1" d="m24.38,117.37c.75-.58,1.32-1.74,2.54-.79-.41,1.79-1.71.5-2.55.76v.02Z"/>
      <path class="cls-1" d="m185.26,111.95l-.84.76c-.22-.28-.6-.57-.6-.85,0-.26.42-.52.65-.78l.8.87Z"/>
      <polygon class="cls-1" points="27.95 109.73 30.51 109.73 30.51 110.24 28.02 110.24 27.95 109.73"/>
      <path class="cls-1" d="m8.35,108.57l-1.86-.26q.94-.61,1.86.26Z"/>
      <path class="cls-1" d="m134.11,105.13l.72,1.9c-1.09-.25-1.58-.76-1.38-1.64l.66-.27Z"/>
      <polygon class="cls-1" points="31.02 102.91 32.41 101.94 32.78 102.39 31.65 103.61 31.02 102.91"/>
      <path class="cls-1" d="m4.51,102.23l-1.71-1.81c1.69-.2,1.68.6,1.71,1.81Z"/>
      <path class="cls-1" d="m183.62,98.43q.74.79.1,1.87c-1.03-.64-.4-1.29-.03-1.93l-.07.05Z"/>
      <path class="cls-1" d="m53.12,99.68c-2.33-.6-.72-1.6-1.11-2.32l.75-.12.36,2.44Z"/>
      <rect class="cls-1" x="116.17" y="144.1" width=".61" height="1.67" transform="translate(-14.24 12.7) rotate(-5.88)"/>
      <polygon class="cls-1" points="6.8 97.94 5.49 95.94 7.39 96.54 6.8 97.94"/>
      <polygon class="cls-1" points="118.54 148.65 118.54 146.68 120.33 147.22 118.54 148.65"/>
      <path class="cls-1" d="m84.94,153.69c-.29-.34-.58-.57-.71-.88-.05-.13.25-.41.4-.62l.99.75-.68.75Z"/>
      <path class="cls-1" d="m159.36,154.53c1.28-.78,1.85-.48,2.11,1l-2.11-1Z"/>
      <polygon class="cls-1" points="138.03 154.47 139.8 154.35 139.91 154.75 138.14 155.3 138.03 154.47"/>
      <path class="cls-1" d="m164.08,154.49l-.19,1.78q-1.07-.82.19-1.78Z"/>
      <path class="cls-1" d="m113.35,159.83l-2.02.5q.65-1.21,2.02-.5Z"/>
      <path class="cls-1" d="m294.96,158.36l2.17,1.76c-1.54.59-2.03.17-2.17-1.76Z"/>
      <polygon class="cls-1" points="307.59 163.98 308.77 165.8 308.42 166.07 306.92 164.5 307.59 163.98"/>
      <path class="cls-1" d="m84.43,35.34l2.24-.81.19.23c-.36.3-.68.66-1.09.87-.37.19-.83.21-1.26.3l-.09-.59Z"/>
      <polygon class="cls-1" points="60.69 35.98 61.36 34.3 61.85 34.45 61.39 36.12 60.69 35.98"/>
      <path class="cls-1" d="m87.04,32.64l1.61,1.09q-1.8.31-1.61-1.09Z"/>
      <polygon class="cls-1" points="103.02 33.27 104.28 32.13 104.7 32.51 103.71 33.84 103.02 33.27"/>
      <path class="cls-1" d="m113.09,32.03h2.04q-.85.81-1.96-.08l-.07.08Z"/>
      <path class="cls-1" d="m139.69,167.85c-.37.32-.71.82-1.13.9-.55.11-.39-.65.31-.97.19-.09.38-.19.57-.29l.24.36Z"/>
      <path class="cls-1" d="m100.56,27.3l.25-2.23c.37.08.64.05.72.16.49.73.56,1.4-.97,2.07Z"/>
      <path class="cls-1" d="m101.88,22.21c-.75.3-1.06.54-1.27.47-.37-.12-.68-.42-1.01-.65.19-.17.39-.49.58-.48.33.01.65.23,1.7.66Z"/>
      <path class="cls-1" d="m35.22,172.37l-1.05-1.56q1.32-.23,1.05,1.56Z"/>
      <polygon class="cls-1" points="102.1 22.73 103.96 21.22 104.13 21.4 102.44 23.15 102.1 22.73"/>
      <path class="cls-1" d="m26.37,174.86l2.19.1q-.98.94-2.19-.1Z"/>
      <path class="cls-1" d="m107.2,16.29l-1.84-.68q1.19-.44,1.84.68Z"/>
      <polygon class="cls-1" points="67.38 173.69 65.69 173.04 65.82 172.62 67.55 173.07 67.38 173.69"/>
      <path class="cls-1" d="m17.8,174.48l1.06-1.65.26.08c-.09.36-.14.73-.28,1.07-.12.32-.33.6-.51.89l-.54-.38Z"/>
      <path class="cls-1" d="m136.71,18.67c-.14-.06-.28-.11-.42-.15l-.54-1.62q1.39.15,1.04,1.71l-.08.06Z"/>
      <polygon class="cls-1" points="230.03 172.46 230.68 171.08 230.99 171.15 230.64 172.7 230.03 172.46"/>
      <path class="cls-1" d="m99.86,24.76l-.72.61c-.19-.3-.44-.59-.54-.92-.03-.1.46-.49.5-.47.27.2.49.48.77.78Z"/>
      <polygon class="cls-1" points="93.58 28.89 92.3 29.77 92 29.33 93.26 28.42 93.58 28.89"/>
      <polygon class="cls-1" points="274.33 167.85 275.83 167.26 275.97 167.59 274.57 168.29 274.33 167.85"/>
      <path class="cls-1" d="m95.28,33.51l-.79-.87.73-.63c.19.25.46.47.54.75.04.15-.23.39-.48.76Z"/>
      <polygon class="cls-1" points="31.99 168.66 31.99 167.03 32.24 167.01 32.53 168.53 31.99 168.66"/>
      <polygon class="cls-1" points="5.21 165.67 6.38 166.74 5.77 167.42 4.47 166.41 5.21 165.67"/>
      <polygon class="cls-1" points="96.27 33.75 98.12 34.01 98.08 34.58 96.15 34.43 96.27 33.75"/>
      <polygon class="cls-1" points="98.1 165.49 100.16 165.99 100.02 166.55 97.97 165.99 98.1 165.49"/>
      <path class="cls-1" d="m37.41,166.61c-.36-.19-.72-.37-1.06-.58,0,0,.19-.45.22-.44.39.1.78.25,1.16.38l-.32.64Z"/>
      <polygon class="cls-1" points="94.61 37.79 91.84 36.33 94.37 36.2 94.61 37.79 94.61 37.79"/>
      <path class="cls-1" d="m82.15,37.63l1.19,1.52-.33.36c-.29-.25-.64-.46-.86-.77-.19-.26-.23-.64-.33-.96l.33-.15Z"/>
      <path class="cls-1" d="m87.53,39.05l-.68-.74.91-.82c.13.21.4.45.36.61-.08.3-.34.55-.6.94Z"/>
      <path class="cls-1" d="m73.62,163.68c-.56.21-.86.37-1.18.43-.07.01-.32-.43-.28-.47.17-.18.4-.38.63-.41.18-.02.39.2.83.45Z"/>
      <path class="cls-1" d="m48.88,163.49l2.37-.69c-.71,1.86-1.65.74-2.43.64l.06.06Z"/>
      <path class="cls-1" d="m101.59,40.93l-2.36.98c.38-.71.44-.98.56-1.01.54-.17,1.11-.28,1.66-.41l.13.45Z"/>
      <path class="cls-1" d="m41.76,44.83l.42-1.88c1.3.93.12,1.37-.42,1.88Z"/>
      <polygon class="cls-1" points="16.47 163.87 15.14 162.79 15.78 162.12 17.07 163.17 16.47 163.87"/>
      <path class="cls-1" d="m96.52,162.86l-2.12-.68c.9-1.27,1.18-.13,2.12.68Z"/>
      <polygon class="cls-1" points="88.31 43.34 88.9 44.77 88.37 45.01 87.72 43.59 88.31 43.34"/>
      <polygon class="cls-1" points="9.22 45.22 10.51 44.63 10.73 45.03 9.58 45.76 9.22 45.22"/>
      <path class="cls-1" d="m3.87,45.8c.24.48.46.86.59,1.26.02.05-.55.39-.59.35-.29-.31-.54-.67-.73-1.04-.02-.05.38-.3.73-.57Z"/>
      <path class="cls-1" d="m68.75,45.78l1.67.38c-.1.25-.25.73-.28.72-.53-.13-1.04-.33-1.56-.51l.18-.59Z"/>
      <path class="cls-1" d="m66.38,46.39c.34.17.69.34,1.02.54.02.01-.13.31-.2.48l-1.03-.7.2-.32Z"/>
      <path class="cls-1" d="m36.32,158.62l.13,2.72c-2.09-1.26-.12-1.91-.12-2.72h-.01Z"/>
      <path class="cls-1" d="m47.73,49.32c1.69.88.62,1.52.31,2.16l-.31-2.16Z"/>
      <polygon class="cls-1" points="273.11 158.87 271.46 159.05 271.42 158.57 273.22 158.37 273.11 158.87"/>
      <path class="cls-1" d="m53.53,54.4l-1.5.95q.17-1.38,1.5-.95Z"/>
      <path class="cls-1" d="m326.44,157.67c-.34.31-.67.63-1.03.92-.02.02-.39-.33-.37-.35.26-.39.57-.76.86-1.14l.55.57Z"/>
      <polygon class="cls-1" points="74.06 155.31 75.29 156.35 74.88 156.84 73.7 155.73 74.06 155.31"/>
      <polygon class="cls-1" points="149.24 156.01 147.81 155.48 148.96 153.82 149.15 156.1 149.24 156.01"/>
      <path class="cls-1" d="m8.83,69.5q1.22.9,0,1.7v-1.7Z"/>
      <path class="cls-1" d="m1.4,71.57c-.3.27-.58.55-.91.77-.03.02-.32-.34-.49-.52l1-.72.41.47Z"/>
      <path class="cls-1" d="m5.04,70.41l.6,1.71q-1.49-.11-.6-1.71Z"/>
      <polygon class="cls-1" points="167.84 150.55 169.33 150.39 169.41 150.95 168.03 151.17 167.84 150.55"/>
      <path class="cls-1" d="m23.66,83.24l-.39-1.85c.35,0,.83-.14.98.02.88.96-.2,1.25-.66,1.75l.07.08Z"/>
      <path class="cls-1" d="m156.96,85.95q1.16.72.51,2.39c-.21-1.17-.33-1.81-.45-2.46l-.07.07Z"/>
      <polygon class="cls-1" points="22.27 148.1 20.75 148.48 20.59 147.95 22.07 147.45 22.27 148.1"/>
      <path class="cls-1" d="m155,91.18c-.56.44-.79.74-1.08.81-.19.05-.46-.22-.7-.34.17-.32.27-.75.54-.91.17-.1.59.19,1.24.44Z"/>
      <polygon class="cls-1" points="38.85 95.93 37.78 94.97 38.34 94.37 39.36 95.42 38.85 95.93"/>
      <path class="cls-1" d="m15.87,95.52q1.72-.52,1.72,1.03l-1.77-1.09.05.06Z"/>
      <path class="cls-1" d="m134.35,144.94c.14.38.31.75.38,1.15.01.06-.4.21-.62.32l-.3-1.27.54-.19Z"/>
      <polygon class="cls-1" points="157.98 95.93 158.86 97.81 158.33 98.07 157.23 96.31 157.98 95.93"/>
      <path class="cls-1" d="m12.36,123.85q.44-1.57,1.53-.89l-1.53.89Z"/>
      <path class="cls-1" d="m24.13,123l-2,.28q.82-.92,1.95-.27h.06Z"/>
      <path class="cls-1" d="m24.08,123.02c.09.15.17.3.26.46l-.09-.1c-.09.57-.18,1.14-.28,1.73-.79-.74-.67-1.43.15-2.1h-.04Z"/>
      <polygon class="cls-1" points="115.32 133.38 114.4 131.96 114.97 131.63 115.74 133.11 115.32 133.38"/>
      <path class="cls-1" d="m230.89,110.34c-2.72.03-1.47-2.07-1.6-3.61.6.48,1.21,1.36,1.79,1.34.77-.02,1.52-.76,2.27.64l-1.7,1.63c-.25,0-.51,0-.76,0Z"/>
      <path class="cls-1" d="m342.92,27.38c1.28-.55,2.59-1.03,3.81-1.68.48-.25.75-.88,1.12-1.34l1.07,1.08c-1.71.43-.73,2.4-2.05,3.47l-.3-1.53h-3.65Z"/>
      <path class="cls-1" d="m255.97,147.69l-1.99-2.19c1.19-.66,1.92.12,2.64.93.78.87,1.54,1.75,2.5,2.83l-1.27.66c-.56-.65-1.71-2.03-1.87-2.23Z"/>
      <path class="cls-1" d="m323.4,21.44l1.81,1.16c-.1,1.21-1.6,2.1-.08,3.67l-.95-.05-1.41-4.17.63-.61Z"/>
      <path class="cls-1" d="m327.52,23.75c.75,1.22-.4,2.33.16,3.73-1.68-1.02-1.73-1.54-.72-3.67l.56-.07Z"/>
      <path class="cls-1" d="m180.44,42.03c-.43.76-.91.96-1.35.05-.36-.74-.61-1.54-.91-2.31,1.33-.47,1.04,1.23,1.89,1.41l.37.85Z"/>
      <polygon class="cls-1" points="266.56 17.9 266.56 20.15 264.1 19.85 265.81 17.8 266.56 17.9"/>
      <path class="cls-1" d="m254.34,129.82l1.72,1.42-.16.38c-.82-.26-1.66-.51-2.46-.83-.06-.03.09-.59.15-.91l.75-.07Z"/>
      <polygon class="cls-1" points="255.35 136.71 256.68 137.08 255.55 139.96 254.88 138.22 255.35 136.71"/>
      <path class="cls-1" d="m220.8,23.18c-.52,1.04-1.1,1.89-2.26.62l-.04.08,1.35-1.23.95.53Z"/>
      <path class="cls-1" d="m253.77,152.88l1.36.86-.44.52c-.48-.46-.97-.92-1.45-1.37.17.03.35.03.52,0Z"/>
      <polygon class="cls-1" points="278.91 122.8 280.03 121.02 280.81 121.01 280.17 123.39 278.91 122.8"/>
      <path class="cls-1" d="m279.52,132.3c-.14-.74-.37-1.48-.4-2.22-.03-.86.11-1.73.2-2.94-.56-.56-2.24.43-2.88-1l3.69-2.83,5.45-1.53c.62,1.57-1.44,1.5-2.12,2.53.03.53.39,1.46.07,1.91-.81,1.13-.9,2.12-.15,3.23l-.86.43-1.18-1.75-1.38,1.53.26.59,2.34-.43-1.19,2.26-1.86.22Z"/>
      <path class="cls-1" d="m284.9,138.77c.35-.34.68-.7,1.05-1.02,1.23-1.08,2.09-.64,3.04.6-.2-.71-.37-1.43-.62-2.12-.28-.8-.63-1.57-1.01-2.49h4.53l-1.97,2.77,2,1.75c-.19.86-.53,1.7-.5,2.52.02.64,1.29.94.72,1.92l.05-.07c-.72-.38-1.61-.6-2.11-1.17-1.28-1.46-2.58-2.63-4.71-2.15-.09.02-.28-.39-.42-.59l-.05.05Z"/>
      <path class="cls-1" d="m297.73,139.04l2.42-1.48-.66,2.59c-1.02-.47-1.94-.73-2.67-1.26-2.52-1.83-1.89-4.52-1.92-7.14h2.22c-1.35,1.35.89,1.51.63,2.46q-1.59.98-.01,4.84Z"/>
      <path class="cls-1" d="m316.97,124.72q-1.83,3.11-4.63,2.28c-.48-1.43-.59-2.81.53-3.81,2.18-.83,1.18,3.31,4.1,1.52Z"/>
      <polygon class="cls-1" points="275.97 128.09 277.11 127.74 277.47 132.61 279.59 132.2 279 133.46 275.98 135.46 273.94 132.66 276.67 133.14 275.97 128.09"/>
      <path class="cls-1" d="m303.03,124.16l.19,2.7h.52l.25-2.91c1.47,1.63.86,3.46,1.16,5.13-2.47-.13-2.46-2.49-3.99-3.74l1.87-1.18Z"/>
      <path class="cls-1" d="m314.47,106.15l-.11,1.59-1.44-.59c-.32.88-.24,2.37-1.49,2.25-.82-.08-1.55-1.03-2.1-2.06h1.26l2.82-1.73,1.07.54Z"/>
      <path class="cls-1" d="m307.59,119.38l-1.15,4.69c.14-1.96-2.88-3.14-1.18-5.31l2.32.63Z"/>
      <path class="cls-1" d="m310.9,136.05c-.11.8-.9,1.42-1.89,1.44-1.13.02-1.61-.79-1.67-1.95-.03-.61-.46-1.19-.74-1.85l4.3,2.37Z"/>
      <path class="cls-1" d="m308.53,122.47c.04-.49-.01-.91.12-1.27.45-1.2,1.26-1.49,1.81-.46.66,1.25,1.3.67,2.32.4l-.94,2.1-3.3-.78Z"/>
      <path class="cls-1" d="m314.47,106.15l-1.07-.54c-.51-1.36-1.06-2.72-1.51-4.1-.07-.22.33-.6.9-1.57l.77,3.65,1.73.43-.82,2.14Z"/>
      <path class="cls-1" d="m301.46,114.76c-1.97-.62-3.19-1.61-2.74-3.74,2.31,1,2.96,1.84,2.74,3.74Z"/>
      <path class="cls-1" d="m310.5,99.97l.41,3.35-.56.31c-.61-.59-1.52-1.09-1.77-1.81-.27-.8.16-1.73,1.92-1.86Z"/>
      <path class="cls-1" d="m293.22,146.49h-1.25c.07-1.28.15-2.57.22-3.86l-.05.07c.51,0,1.02,0,1.85,0-1.43,1.11.48,2.63-.77,3.8Z"/>
      <path class="cls-1" d="m316.61,135.89l-2.67-.84.03-.82c.16-.79.6-.99,1.15-.39.56.63,1,1.37,1.49,2.07h0Z"/>
      <path class="cls-1" d="m303.91,106.32c-.42.93-.52,2.33-.37,2.61-1.29.74-1.71.09-1.78-1.16l2.15-1.45Z"/>
      <path class="cls-1" d="m311.85,129c-.09.04-.23.13-.27.1-1.2-1.09-1.59-2.55-1.93-4.04.68,1.36,2.57,2.09,2.13,3.99l.07-.06Z"/>
      <path class="cls-1" d="m311.78,129.06q1.72,1.49,1.28,4.18c-.6-1.49-2.22-2.45-1.22-4.23l-.06.05Z"/>
      <polygon class="cls-1" points="303.38 131.7 306.14 130.73 307.34 132.71 303.45 132.08 303.38 131.7"/>
      <path class="cls-1" d="m286.87,121.46l.56-1.73c.12,0,.31-.04.39.04.5.48,1.58.68,1.07,1.71-.51,1.01-1.22.6-2.01-.02Z"/>
      <path class="cls-1" d="m301.89,128.51h-3.18q.74-1.53,3.18,0Z"/>
      <path class="cls-1" d="m310.69,95.22l.55,1.64c-.52.6-1.16,1.21-1.75.21-.81-1.38.41-1.49,1.28-1.76l-.07-.08Z"/>
      <path class="cls-1" d="m313.98,134.23l-.03.82-2.32,2.03c.48-1.85.59-3.07,2.36-2.85Z"/>
      <polygon class="cls-1" points="293.75 141.26 292.52 138.54 294.14 138.54 294.14 141.21 293.75 141.26"/>
      <path class="cls-1" d="m287.92,126.89l-.45-3.17q1.66.82.45,3.17Z"/>
      <path class="cls-1" d="m297.92,114.12c.58,1.43.94,2.31-.68,3.12l.68-3.12Z"/>
      <polygon class="cls-1" points="284.94 138.72 282.81 138.85 282.52 137.2 284.9 138.77 284.94 138.72"/>
      <path class="cls-1" d="m293.32,130.84c.73.99.37,1.79-.47,2.57-.85-1.09-.07-1.8.47-2.57Z"/>
      <path class="cls-1" d="m306.23,100.65q1.42-.12,1.58,1.38l-1.58-1.38Z"/>
      <path class="cls-1" d="m313.23,111.11c-.61.28-1.19.68-1.82.78-.52.08-1.09-.22-1.55-.78h3.37Z"/>
      <path class="cls-1" d="m310.91,130.91q-1.45.13-2.12-1.78l2.12,1.78Z"/>
      <path class="cls-1" d="m293.32,130.84l3.26-1.01c-.72,2.02-2.23.74-3.27,1.02h0Z"/>
      <path class="cls-1" d="m293.47,121.33l-.58-2.04c.4.12.69.14.89.28,1,.7.67,1.25-.3,1.76Z"/>
      <path class="cls-1" d="m311.3,139.33c.43-.13.86-.28,1.3-.35.05,0,.18.47.27.72l-1.4.33-.17-.7Z"/>
      <path class="cls-1" d="m315.81,114.76l.25-1.5c.18.03.52.05.53.1.04.48.02.97.02,1.46l-.8-.07Z"/>
      <path class="cls-1" d="m292.31,24.56l-.24,3.05q-1.38-.79.24-3.05Z"/>
      <path class="cls-1" d="m322.35,28.43c2.23.46,1.45,2.27,1.75,3.45l-1.75-3.45Z"/>
      <path class="cls-1" d="m335.25,27.6l.33-1.82.46-.05c.14.49.37.98.4,1.48.02.37-.24.76-.37,1.13l-.83-.74Z"/>
      <path class="cls-1" d="m310.71,29.53q-1.9-.76-1.24-2.2l1.24,2.2Z"/>
      <path class="cls-1" d="m292.18,23.05h-2.16c.73-.99,1.45-.68,2.16,0Z"/>
      <polygon class="cls-1" points="281.82 17.04 280.29 17.04 280.24 16.57 281.78 16.36 281.82 17.04"/>
      <polygon class="cls-1" points="282.72 20.79 281.31 21.62 281 21.16 282.29 20.17 282.72 20.79"/>
      <path class="cls-1" d="m330.8,24.96c.35.46.69.77.85,1.17.05.11-.44.44-.68.66-.26-.35-.58-.68-.76-1.07-.05-.11.3-.39.59-.76Z"/>
      <path class="cls-1" d="m334.98,28.45c-.65.21-.96.41-1.25.38-.24-.03-.44-.34-.66-.52.26-.25.5-.68.78-.71.25-.03.55.39,1.13.85Z"/>
      <path class="cls-1" d="m326.14,27.56c1.06,1.61.47,1.96-1,2.26l1-2.26Z"/>
      <path class="cls-1" d="m341.73,27.32h1.25c.19,1.53,1.39,1.1,2.49.86l.14.58-1.97,2.31-1.91-3.75Z"/>
      <polygon class="cls-1" points="344.01 31.73 346.83 31 345.19 33.64 344.01 31.73"/>
      <path class="cls-1" d="m343.99,47.34l1.29,1.56q-1.77.25-1.29-1.56Z"/>
      <path class="cls-1" d="m339.51,46.43c-.4-.22-.8-.43-1.17-.69-.03-.02.21-.43.33-.66l1.19.67-.35.69Z"/>
      <polygon class="cls-1" points="339.12 33.72 339.72 32.26 340.03 32.38 339.56 33.88 339.12 33.72"/>
      <path class="cls-1" d="m272.38,104.46c.51-2.78-1-4.9-.16-7.49.57-1.76.11-3.89-.1-5.83-.13-1.2.23-1.55,1.09-1.56.17,3.04.4,5.92.48,8.81.05,1.73-.11,3.47-.24,5.2-.01.19-.41.34-1.08.87Z"/>
      <polygon class="cls-1" points="269.18 89.21 269.9 90.55 267.78 91.07 267.48 90.64 269.18 89.21"/>
      <path class="cls-1" d="m220.03,25.4l1.84,1.7c-1.6.53-1.74-.58-1.84-1.7Z"/>
      <path class="cls-1" d="m221.95,29.71c.17.32.49.64.47.96-.01.34-.33.67-.65,1.24l-.44-2.04.62-.15Z"/>
      <path class="cls-1" d="m266.25,23.46l-2.38-.56-1.21.65c-.49-.98.45-2.12,1.83-2.31.95-.13,1.89-.3,2.83-.42.93-.12,1.86-.2,2.73-.29-.62,1.32-.62,1.39-2.54,1.44-1.16.03-2.07,0-1.3,1.54l.04-.06Z"/>
      <path class="cls-1" d="m253.66,20.69c-.65,1.12-.87,1.81-1.35,2.16-.21.15-.94-.41-1.94-.89l3.29-1.27Z"/>
      <path class="cls-1" d="m259.36,16.74l2.29.92c-1.72.52-2.12-.03-2.23-.98l-.06.06Z"/>
      <path class="cls-1" d="m213.25,110.34c-.46-.08-.96-.07-1.37-.27-.43-.2-.76-.59-1.14-.9.59-.87,1.14-1.76,1.77-2.6.5-.67,1.83.19,2.1-1.28.15-.8,0,1.87.99.34.19-.29,1.15-.07,1.75-.09.16.6.36,1.2.48,1.81.09.47.29,1.06.1,1.41-.4.72-.92.51-1.25-.16-.48-.96-1.29,1.59-1.83-.19-.1-.34-1.24-.37-2.42-.67l.82,2.58Z"/>
      <path class="cls-1" d="m216.7,112.73l.47-1.1-2.23-.1.31-1.36,3.24.7c.15,1.34-.94,1.49-1.79,1.86Z"/>
      <path class="cls-1" d="m217.76,116.56c.98-1.84,2.39.16,3.5-.48-1.01,1.77-2.2,1.4-3.46.39l-.04.09Z"/>
      <path class="cls-1" d="m217.31,105.6v-2.08q1.61,1.01,1.83,2.72c-.57-.32-.93-1.25-1.83-.64Z"/>
      <polygon class="cls-1" points="224.04 115.2 223.79 117.92 223.23 117.87 223.38 115.14 224.04 115.2"/>
      <polygon class="cls-1" points="220.88 110.44 219.22 109.58 219.32 109.24 221.16 109.78 220.88 110.44"/>
      <path class="cls-1" d="m237.43,108.91q-1.53-1.47-.24-2.28l.24,2.28Z"/>
      <path class="cls-1" d="m219.12,112.88c.31.38.63.76.92,1.16l-.36.32c-.36-.34-.69-.69-1.03-1.05l.47-.44Z"/>
      <path class="cls-1" d="m274.21,127.46l1.37.6-.46,1.47.04-.04c-1.74-.24-1.76-.3-.94-2.03Z"/>
      <path class="cls-1" d="m275.11,129.54l.57,1.28-2.14.79c0-.37-.07-.6.01-.68.51-.49,1.05-.94,1.59-1.42l-.03.03Z"/>
      <path class="cls-1" d="m235.71,132.97c.46.68,1.04,1.3.95,1.44-.48.67-1.13,1.21-2.17,1.46l1.22-2.9Z"/>
      <path class="cls-1" d="m240.63,125.78l-2.07.52c.58-1.54,1.34-.94,2.07-.52Z"/>
      <polygon class="cls-1" points="232.25 132.23 233.96 133.01 233.81 133.36 232.08 132.69 232.25 132.23"/>
      <path class="cls-1" d="m258.37,144.97c.66-.38,1.3-.76,1.97-1.13,1.36-.75,1.73-.55,2.34,1.13h-4.31Z"/>
      <path class="cls-1" d="m213.26,99.71c-.56.99-1.97,1.72-1.12,3.3l-1.8-2.19c1.2-.42,2.09-.73,2.99-1.04l-.07-.08Z"/>
      <path class="cls-1" d="m139.77,27.91l-1.87,1.28-1.44-2.55c.02-.12,0-.24-.06-.36l1.61-1.16.57,2.78h1.19Z"/>
      <path class="cls-1" d="m136.4,26.28c.06.11.08.23.06.36-1.77,1.89-1.98-.39-2.79-1.1l2.72.74Z"/>
      <path class="cls-1" d="m106.8,70.14c1-.3,1.87-1.95,3.38-.03-1.33-.17-2.24,1.23-3.38,0v.04Z"/>
      <path class="cls-1" d="m337.07,51.58c-.07,1.01.42,2.29-1.26,2.48l1.26-2.48Z"/>
      <path class="cls-1" d="m242.78,121.52l1.56.79-.28-1.76,1.36,1.24c-1.02.94-1.61,2.25-3.25,1.61l.61-1.88Z"/>
      <path class="cls-1" d="m37.24,131.02c0,2.03-1.27,2.77-3.04,3.03.02-.28-.02-.8.07-.82,1.14-.28,1.96-.82,2.14-2.09.01-.08.54-.08.83-.12Z"/>
    </g>
  </g>
</svg>