<svg width="133" height="59" viewBox="0 0 133 59" fill="none" xmlns="http://www.w3.org/2000/svg">
<g clip-path="url(#clip0_656_2648)">
<path d="M116.084 3.42995C116.084 3.42995 116.024 3.42995 115.994 3.42995L103.414 1.29995C103.144 1.24995 102.954 0.999949 102.994 0.729949V0.659949C103.044 0.389949 103.284 0.199949 103.554 0.219949L113.024 1.07995C113.074 1.07995 113.134 1.09995 113.184 1.11995L116.284 2.45995C116.524 2.55995 116.644 2.82995 116.574 3.06995C116.504 3.28995 116.304 3.43995 116.084 3.43995V3.42995Z" fill="#D6D6D6"/>
<path d="M112.974 2.15996C112.974 2.15996 112.944 2.15996 112.924 2.15996L103.454 1.29996C103.184 1.27996 102.974 1.03996 102.994 0.769961V0.699961C103.014 0.429961 103.234 0.209961 103.514 0.209961L108.464 0.269961C108.464 0.269961 108.524 0.269961 108.544 0.269961L113.074 1.06996C113.344 1.11996 113.524 1.36996 113.494 1.63996V1.70996C113.454 1.96996 113.234 2.14996 112.974 2.14996V2.15996Z" fill="#D6D6D6"/>
<path d="M108.441 1.36L103.501 1.3C103.431 1.3 103.371 1.29 103.301 1.26L102.651 0.98C102.421 0.88 102.301 0.64 102.351 0.4C102.411 0.16 102.621 0 102.871 0L108.471 0.26C108.751 0.27 108.961 0.51 108.961 0.78V0.85C108.961 1.13 108.721 1.35 108.451 1.35L108.441 1.36Z" fill="#D6D6D6"/>
<path d="M97.733 1.43001C97.463 1.43001 97.233 1.21001 97.223 0.94001V0.87001C97.213 0.59001 97.423 0.36001 97.703 0.34001L103.013 0.0100098C103.093 0.0100098 103.183 0.0100098 103.253 0.0500098L103.873 0.32001C104.093 0.42001 104.213 0.65001 104.173 0.89001C104.123 1.13001 103.923 1.30001 103.683 1.30001L97.743 1.43001C97.743 1.43001 97.743 1.43001 97.733 1.43001Z" fill="#D6D6D6"/>
<path d="M93.4324 2.28996C93.1824 2.28996 92.9624 2.10996 92.9224 1.84996V1.77996C92.8724 1.50996 93.0524 1.25996 93.3124 1.19996L97.6124 0.339961C97.6124 0.339961 97.6724 0.339961 97.7024 0.339961L103.482 0.209961C103.752 0.209961 103.982 0.419961 104.002 0.689961V0.759961C104.022 1.02996 103.822 1.26996 103.542 1.29996L93.4624 2.28996C93.4624 2.28996 93.4324 2.28996 93.4124 2.28996H93.4324Z" fill="#D6D6D6"/>
<path d="M90.7209 3.59C90.5009 3.59 90.3109 3.45 90.2409 3.24C90.1609 3 90.2709 2.74 90.4909 2.62L93.1809 1.25C93.2409 1.22 93.3009 1.2 93.3709 1.19L103.451 0.200002C103.721 0.170002 103.971 0.370002 104.011 0.640002V0.710002C104.061 0.980002 103.871 1.24 103.601 1.29L90.8209 3.58C90.8209 3.58 90.7609 3.58 90.7309 3.58L90.7209 3.59Z" fill="#D6D6D6"/>
<path d="M131.643 25.02C131.443 25.02 131.263 24.91 131.173 24.72L124.683 10.21C124.573 9.95002 124.683 9.65002 124.943 9.54002L125.013 9.51002C125.273 9.39002 125.573 9.51002 125.693 9.76002L130.493 20.29L132.183 24.27C132.293 24.53 132.183 24.83 131.913 24.94L131.843 24.97C131.773 25 131.703 25.01 131.643 25.01V25.02Z" fill="#D6D6D6"/>
<path d="M116.313 4.81989C116.313 4.81989 116.223 4.81989 116.173 4.79989L103.353 1.27989C103.093 1.20989 102.933 0.939889 102.993 0.679889L103.013 0.609889C103.073 0.339889 103.333 0.169889 103.593 0.219889L115.873 2.29989C116.063 2.32989 116.233 2.46989 116.293 2.64989L116.783 4.15989C116.843 4.33989 116.793 4.53989 116.663 4.66989C116.563 4.76989 116.433 4.82989 116.293 4.82989L116.313 4.81989ZM114.153 3.10989L115.423 3.45989L115.373 3.31989L114.153 3.10989Z" fill="#D6D6D6"/>
<path d="M126.472 13.4499C126.352 13.4499 126.242 13.4099 126.142 13.3299L115.892 4.6699C115.822 4.6099 115.762 4.5299 115.732 4.4399L115.222 2.8899C115.152 2.6799 115.222 2.4399 115.412 2.3099C115.592 2.1799 115.842 2.1799 116.022 2.3099L125.522 9.5399C125.592 9.5899 125.652 9.6699 125.692 9.7499L126.942 12.7299C127.032 12.9499 126.962 13.1999 126.772 13.3399C126.682 13.4099 126.572 13.4399 126.472 13.4399V13.4499ZM120.242 6.9099L124.982 10.9199L124.732 10.3299L120.232 6.9099H120.242Z" fill="#D6D6D6"/>
<path d="M75.4024 25.83C75.3524 25.83 75.3024 25.83 75.2424 25.81C74.9924 25.73 74.8424 25.48 74.8924 25.22L75.7524 20.89C75.7524 20.89 75.7724 20.81 75.7924 20.77L80.9024 9.85996C81.0124 9.62996 81.2724 9.50996 81.5124 9.58996C81.7524 9.65996 81.9024 9.90996 81.8624 10.16L81.3624 13.27C81.3624 13.27 81.3424 13.36 81.3224 13.4L75.8524 25.53C75.7724 25.72 75.5824 25.83 75.3824 25.83H75.4024Z" fill="#D6D6D6"/>
<path d="M90.8733 4.99988C90.7633 4.99988 90.6533 4.95988 90.5633 4.88988C90.4333 4.78988 90.3633 4.62988 90.3633 4.46988L90.4133 2.95988C90.4133 2.71988 90.5933 2.51988 90.8333 2.46988L103.403 0.209879C103.673 0.159879 103.933 0.329879 103.993 0.599879L104.013 0.669879C104.073 0.929879 103.923 1.19988 103.663 1.27988L91.0233 4.97988C91.0233 4.97988 90.9233 4.99988 90.8833 4.99988H90.8733ZM91.4933 3.46988V3.69988L93.5333 3.09988L91.4933 3.46988Z" fill="#D6D6D6"/>
<path d="M80.7809 13.78C80.6909 13.78 80.6109 13.76 80.5309 13.72C80.3409 13.62 80.2409 13.4 80.2709 13.19L80.7409 10.22C80.7609 10.09 80.8309 9.96998 80.9409 9.88998L90.6909 2.50998C90.8509 2.38998 91.0609 2.36998 91.2309 2.45998C91.4109 2.54998 91.5109 2.72998 91.5109 2.92998L91.4609 4.45998C91.4609 4.59998 91.3909 4.73998 91.2809 4.82998L81.1109 13.65C81.0109 13.73 80.9009 13.78 80.7709 13.78H80.7809ZM81.7909 10.63L81.6109 11.78L90.3709 4.17998V4.13998L81.7909 10.63Z" fill="#D6D6D6"/>
<path d="M108.883 57.63C108.693 57.63 108.523 57.53 108.433 57.35C108.313 57.12 108.383 56.83 108.603 56.69L114.043 53.07C114.043 53.07 114.103 53.03 114.143 53.02L121.653 50.18C121.903 50.09 122.183 50.2 122.303 50.45L122.333 50.52C122.443 50.76 122.353 51.05 122.113 51.18L113.543 55.88C113.543 55.88 113.503 55.9 113.483 55.91L109.073 57.6C109.013 57.62 108.953 57.63 108.893 57.63H108.883ZM114.593 54.02L114.363 54.17L114.743 53.96L114.583 54.02H114.593Z" fill="#D6D6D6"/>
<path d="M98.5212 57.7199C98.4712 57.7199 98.4112 57.7199 98.3612 57.6899L93.7712 56.1499C93.7712 56.1499 93.7112 56.1299 93.6812 56.1099L85.5812 51.5999C85.3512 51.4699 85.2512 51.1899 85.3612 50.9499L85.3912 50.8799C85.5012 50.6399 85.7712 50.5199 86.0212 50.5999L94.0612 53.2599C94.1112 53.2799 94.1612 53.2999 94.2112 53.3399L98.8212 56.7999C99.0212 56.9499 99.0812 57.2199 98.9712 57.4499C98.8812 57.6199 98.7012 57.7199 98.5212 57.7199ZM94.1712 55.1299L95.2812 55.4999L93.6412 54.2699L91.1512 53.4499L94.1712 55.1299Z" fill="#D6D6D6"/>
<path d="M121.662 51.47C121.562 51.47 121.452 51.44 121.372 51.38C121.162 51.23 121.092 50.94 121.222 50.72L126.632 40.85C126.632 40.85 126.672 40.78 126.702 40.75L131.002 36.08C131.182 35.89 131.472 35.86 131.682 36.01C131.892 36.16 131.952 36.45 131.822 36.68L125.702 47.18C125.702 47.18 125.662 47.24 125.642 47.26L122.052 51.3C121.952 51.41 121.812 51.47 121.672 51.47H121.662ZM127.552 41.43L124.662 46.7L124.772 46.58L128.152 40.78L127.552 41.43Z" fill="#D6D6D6"/>
<path d="M85.984 51.8C85.864 51.8 85.734 51.76 85.644 51.67L81.414 47.81C81.414 47.81 81.344 47.73 81.314 47.69L75.354 37.36C75.234 37.14 75.284 36.87 75.474 36.71C75.664 36.55 75.944 36.56 76.134 36.71L81.284 41.2C81.284 41.2 81.374 41.29 81.404 41.35L86.444 51.05C86.554 51.27 86.494 51.54 86.304 51.69C86.214 51.76 86.104 51.8 85.994 51.8H85.984ZM82.214 47.06L83.954 48.64L80.484 41.96L78.054 39.84L82.214 47.05V47.06Z" fill="#D6D6D6"/>
<path d="M103.832 58.1399C103.832 58.1399 103.802 58.1399 103.782 58.1399L98.2723 57.6499C98.1723 57.6499 98.0823 57.6099 98.0023 57.5499L93.4723 54.1499C93.2923 54.0099 93.2223 53.7699 93.3023 53.5599C93.3823 53.3499 93.5923 53.2099 93.8223 53.2299L104.312 54.1299C104.452 54.1399 104.582 54.2099 104.672 54.3199C104.762 54.4299 104.802 54.5699 104.782 54.7099L104.342 57.6999C104.302 57.9499 104.092 58.1399 103.832 58.1399ZM98.5223 56.5699L103.332 56.9899L103.602 55.1599L95.7623 54.4899L98.5323 56.5699H98.5223Z" fill="#D6D6D6"/>
<path d="M103.753 58.1401C103.613 58.1401 103.483 58.0801 103.383 57.9801C103.273 57.8701 103.223 57.7101 103.243 57.5501L103.683 54.5601C103.713 54.3301 103.903 54.1501 104.133 54.1301L114.433 52.9701C114.663 52.9401 114.893 53.0801 114.973 53.3001C115.053 53.5201 114.973 53.7701 114.773 53.9001L109.483 57.4201C109.413 57.4601 109.333 57.5001 109.253 57.5101L103.823 58.1301C103.823 58.1301 103.783 58.1301 103.763 58.1301L103.753 58.1401ZM104.703 55.1701L104.443 56.9601L108.983 56.4401L112.153 54.3301L104.703 55.1701Z" fill="#D6D6D6"/>
<path d="M114.143 6.1599C114.073 6.1599 114.003 6.1399 113.933 6.1099L103.273 1.2499C103.033 1.1399 102.913 0.859897 103.003 0.609897L103.023 0.539897C103.113 0.289897 103.383 0.149897 103.643 0.219897L116.473 3.7399C116.663 3.7899 116.813 3.9599 116.843 4.1599C116.873 4.3599 116.783 4.5599 116.613 4.6699L114.413 6.0799C114.333 6.1299 114.233 6.1599 114.133 6.1599H114.143ZM109.933 3.0899L114.093 4.9899L114.923 4.4599L109.933 3.0899Z" fill="#D6D6D6"/>
<path d="M93.4209 6.31007C93.3409 6.31007 93.2609 6.29007 93.1909 6.26007L90.5809 4.89007C90.4009 4.79007 90.2909 4.59007 90.3109 4.39007C90.3309 4.18007 90.4809 4.01007 90.6809 3.95007L103.351 0.23007C103.601 0.16007 103.871 0.29007 103.971 0.53007L104.001 0.60007C104.101 0.85007 103.991 1.13007 103.751 1.24007L93.6809 6.25007C93.6009 6.29007 93.5209 6.31007 93.4309 6.31007H93.4209ZM92.3609 4.58007L93.4309 5.14007L97.7209 3.01007L92.3609 4.58007Z" fill="#D6D6D6"/>
<path d="M127.061 41.7199C126.991 41.7199 126.931 41.7099 126.871 41.6799C126.671 41.5999 126.551 41.3999 126.551 41.1899L127.021 28.4099C127.021 28.2799 127.081 28.1499 127.181 28.0599L131.371 24.0299C131.521 23.8899 131.741 23.8499 131.931 23.9299C132.121 24.0199 132.241 24.2099 132.231 24.4199L131.711 36.7099C131.711 36.8299 131.661 36.9599 131.581 37.0499L127.441 41.5499C127.341 41.6599 127.201 41.7199 127.061 41.7199ZM128.101 28.6899L127.701 39.6499L130.621 36.4699L131.071 25.8299L128.101 28.6899Z" fill="#D6D6D6"/>
<path d="M122.883 16.1499C122.743 16.1499 122.603 16.0899 122.503 15.9799L113.733 5.97988L113.703 5.94988C113.603 5.83988 113.563 5.68988 113.583 5.53988C113.603 5.38988 113.693 5.25988 113.813 5.17988L115.983 3.78988C116.173 3.66988 116.413 3.67988 116.593 3.82988L126.773 12.4299C126.893 12.5299 126.953 12.6799 126.953 12.8299C126.953 12.9799 126.883 13.1299 126.763 13.2199L123.203 16.0399C123.113 16.1099 122.993 16.1499 122.883 16.1499ZM114.973 5.72988L122.953 14.8399L125.513 12.8099L116.203 4.93988L114.963 5.72988H114.973Z" fill="#D6D6D6"/>
<path d="M127.553 29.0301C127.553 29.0301 127.473 29.0301 127.433 29.0201C127.263 28.9801 127.123 28.8601 127.063 28.7001L122.363 15.7801V15.7601C122.283 15.5501 122.343 15.3201 122.513 15.1801L126.063 12.3601C126.183 12.2601 126.353 12.2301 126.503 12.2601C126.653 12.3001 126.783 12.4001 126.853 12.5501L132.183 24.2901C132.273 24.4901 132.233 24.7201 132.073 24.8701L127.903 28.8901C127.803 28.9801 127.683 29.0301 127.553 29.0301ZM123.533 15.7701L127.793 27.4701L131.023 24.3601L126.173 13.6701L123.533 15.7601V15.7701Z" fill="#D6D6D6"/>
<path d="M80.9514 42.21C80.8314 42.21 80.7114 42.17 80.6114 42.08L75.5514 37.67C75.4414 37.58 75.3814 37.44 75.3814 37.3L74.9414 24.94C74.9414 24.74 75.0414 24.56 75.2214 24.47C75.4014 24.38 75.6114 24.4 75.7714 24.52L80.8914 28.46C81.0114 28.55 81.1014 28.71 81.1014 28.86L81.4714 41.67C81.4714 41.87 81.3614 42.06 81.1814 42.15C81.1114 42.18 81.0414 42.2 80.9614 42.2L80.9514 42.21ZM76.4714 37.01L80.3314 40.38L80.0114 29.18L76.0814 26.15L76.4714 37.01Z" fill="#D6D6D6"/>
<path d="M109.751 7.14991C109.621 7.14991 109.481 7.09991 109.391 7.01991L102.961 1.00991C102.781 0.839912 102.751 0.559912 102.881 0.349912C103.021 0.139912 103.291 0.0699123 103.521 0.169912L114.461 5.15991C114.661 5.24991 114.781 5.45991 114.761 5.67991C114.741 5.89991 114.581 6.07991 114.361 6.12991L109.871 7.13991C109.871 7.13991 109.791 7.14991 109.751 7.14991ZM106.321 2.64991L109.911 6.00991L112.431 5.43991L106.321 2.64991Z" fill="#D6D6D6"/>
<path d="M98.1135 7.23993C98.1135 7.23993 98.0535 7.23993 98.0235 7.23993L93.2235 6.28993C93.0135 6.24993 92.8435 6.06993 92.8135 5.85993C92.7835 5.64993 92.8935 5.42993 93.0935 5.32993L103.433 0.179933C103.653 0.0699327 103.923 0.129933 104.073 0.329933C104.223 0.529933 104.213 0.799933 104.043 0.979933L98.5135 7.04993C98.4135 7.15993 98.2635 7.22993 98.1135 7.22993V7.23993ZM95.1135 5.53993L97.9135 6.08993L101.143 2.53993L95.1235 5.52993L95.1135 5.53993Z" fill="#D6D6D6"/>
<path d="M85.0811 16.4601C84.9911 16.4601 84.8911 16.4301 84.8011 16.3801L80.4811 13.6101C80.3411 13.5201 80.2611 13.3801 80.2511 13.2201C80.2411 13.0601 80.3011 12.9001 80.4211 12.8001L90.5411 4.03008C90.7011 3.89008 90.9511 3.85008 91.1311 3.95008L93.7111 5.31008C93.8511 5.38008 93.9411 5.51008 93.9711 5.66008C94.0011 5.81008 93.9711 5.97008 93.8611 6.09008L85.4611 16.2901C85.3611 16.4101 85.2111 16.4801 85.0611 16.4801L85.0811 16.4601ZM81.7411 13.1101L84.9611 15.1701L92.5711 5.92008L90.9811 5.08008L81.7311 13.1001L81.7411 13.1101Z" fill="#D6D6D6"/>
<path d="M80.5731 29.4801C80.4631 29.4801 80.3531 29.4401 80.2631 29.3701L75.1431 25.4301C74.9531 25.2901 74.8931 25.0301 74.9931 24.8101L80.3531 12.9101C80.4131 12.7701 80.5331 12.6701 80.6731 12.6301C80.8131 12.5901 80.9731 12.6101 81.0931 12.6901L85.4031 15.4501C85.6031 15.5801 85.6831 15.8201 85.6131 16.0501L81.0631 29.1301C81.0131 29.2901 80.8831 29.4101 80.7231 29.4501C80.6731 29.4601 80.6231 29.4701 80.5731 29.4701V29.4801ZM76.1831 24.8401L80.2931 28.0101L84.4231 16.1301L81.0731 13.9801L76.1831 24.8401Z" fill="#D6D6D6"/>
<path d="M104.021 7.53998C104.021 7.53998 104.001 7.53998 103.991 7.53998L97.9912 7.22998C97.7912 7.21998 97.6212 7.09998 97.5412 6.90998C97.4612 6.72998 97.5012 6.51998 97.6312 6.36998L103.131 0.319982C103.271 0.169982 103.481 0.109982 103.671 0.179982C103.861 0.249982 104.001 0.419982 104.011 0.619982L104.501 6.97998C104.511 7.12998 104.461 7.26998 104.361 7.37998C104.261 7.47998 104.131 7.52998 103.991 7.52998L104.021 7.53998ZM99.2912 6.19998L103.391 6.40998L103.051 2.05998L99.2912 6.19998Z" fill="#D6D6D6"/>
<path d="M103.951 7.54004C103.691 7.54004 103.461 7.34004 103.441 7.07004L102.951 0.700039C102.931 0.490039 103.051 0.290039 103.241 0.200039C103.431 0.110039 103.661 0.140039 103.811 0.290039L110.191 6.26004C110.341 6.40004 110.391 6.61004 110.321 6.81004C110.251 7.00004 110.081 7.13004 109.871 7.15004L103.981 7.55004C103.981 7.55004 103.961 7.55004 103.951 7.55004V7.54004ZM104.161 2.12004L104.491 6.41004L108.461 6.14004L104.161 2.12004Z" fill="#D6D6D6"/>
<path d="M114.281 54.1099C114.151 54.1099 114.021 54.0599 113.921 53.9599C113.781 53.8199 113.731 53.6099 113.801 53.4199L117.061 44.2899V44.2699C117.121 44.1299 117.231 44.0199 117.381 43.9599L127.011 40.5599C127.211 40.4899 127.431 40.5499 127.571 40.7099C127.711 40.8699 127.731 41.0999 127.631 41.2899L122.321 50.9699C122.261 51.0799 122.171 51.1599 122.051 51.1999L114.461 54.0699C114.401 54.0899 114.341 54.0999 114.281 54.0999V54.1099ZM118.001 44.9099L115.251 52.6099L121.461 50.2599L125.931 42.1099L118.001 44.9099Z" fill="#D6D6D6"/>
<path d="M93.9516 54.3499C93.9016 54.3499 93.8416 54.3499 93.7916 54.3199L85.6716 51.6399C85.5416 51.5999 85.4316 51.5099 85.3716 51.3899L80.3916 41.7899C80.2916 41.6099 80.3216 41.3899 80.4516 41.2299C80.5816 41.0699 80.8016 41.0099 80.9916 41.0699L91.3216 44.2499C91.4816 44.2999 91.6316 44.4299 91.6816 44.5999L94.4416 53.6999C94.5016 53.8799 94.4416 54.0799 94.3116 54.2099C94.2116 54.2999 94.0816 54.3599 93.9516 54.3599V54.3499ZM86.2416 50.6699L93.0716 52.9299L90.7316 45.2099L82.0116 42.5299L86.2416 50.6799V50.6699Z" fill="#D6D6D6"/>
<path d="M104.253 55.2199C104.253 55.2199 104.223 55.2199 104.213 55.2199L93.8331 54.3299C93.6231 54.3099 93.4431 54.1699 93.3831 53.9699L90.6231 44.8899C90.5731 44.7299 90.6131 44.5499 90.7131 44.4199C90.8231 44.2899 90.9831 44.2199 91.1531 44.2299L104.613 45.2999C104.883 45.3199 105.093 45.5499 105.083 45.8299L104.763 54.7399C104.763 54.8799 104.693 55.0099 104.593 55.1099C104.503 55.1899 104.383 55.2399 104.253 55.2399V55.2199ZM94.3131 53.2699L103.693 54.0799L103.973 46.3399L91.9231 45.3799L94.3131 53.2699Z" fill="#D6D6D6"/>
<path d="M104.183 55.2201C104.053 55.2201 103.933 55.1701 103.833 55.0801C103.723 54.9801 103.663 54.8401 103.673 54.6901L103.993 45.7801C103.993 45.5301 104.193 45.3201 104.453 45.2901L117.583 43.9201C117.763 43.9001 117.933 43.9701 118.043 44.1101C118.153 44.2501 118.183 44.4301 118.123 44.6001L114.863 53.7301C114.793 53.9101 114.633 54.0401 114.443 54.0701L104.253 55.2101C104.253 55.2101 104.213 55.2101 104.203 55.2101L104.183 55.2201ZM105.073 46.3301L104.793 54.0501L113.943 53.0201L116.773 45.1001L105.073 46.3201V46.3301Z" fill="#D6D6D6"/>
<path d="M115.004 18.22C114.814 18.22 114.624 18.11 114.544 17.93L109.244 6.79003C109.174 6.65003 109.174 6.49003 109.244 6.35003C109.314 6.21003 109.444 6.11003 109.594 6.07003L114.044 5.07003C114.224 5.03003 114.414 5.09003 114.544 5.23003L123.344 15.27C123.464 15.4 123.504 15.59 123.444 15.76C123.394 15.93 123.254 16.06 123.084 16.1L115.134 18.2C115.134 18.2 115.044 18.22 115.004 18.22ZM110.544 6.98003L115.324 17.02L121.894 15.28L113.944 6.21003L110.544 6.98003Z" fill="#D6D6D6"/>
<path d="M93.544 18.41C93.544 18.41 93.464 18.41 93.424 18.4L84.894 16.43C84.724 16.39 84.584 16.26 84.524 16.1C84.464 15.93 84.504 15.75 84.614 15.61L93.004 5.42998C93.124 5.27998 93.324 5.19998 93.514 5.23998L98.254 6.17998C98.404 6.20998 98.534 6.29998 98.604 6.43998C98.674 6.56998 98.684 6.72998 98.624 6.87998L94.004 18.11C93.924 18.31 93.734 18.43 93.534 18.43L93.544 18.41ZM86.064 15.57L93.194 17.22L97.354 7.09998L93.654 6.36998L86.074 15.57H86.064Z" fill="#D6D6D6"/>
<path d="M117.851 32.03C117.761 32.03 117.671 32.01 117.591 31.96C117.471 31.89 117.381 31.76 117.351 31.62L114.481 17.74C114.421 17.47 114.591 17.21 114.851 17.14L122.781 15.04C123.041 14.97 123.301 15.11 123.391 15.36L128.091 28.29C128.141 28.42 128.131 28.57 128.071 28.69C128.011 28.82 127.901 28.91 127.761 28.95L118.001 31.99C118.001 31.99 117.901 32.01 117.851 32.01V32.03ZM115.661 18.07L118.291 30.77L126.851 28.1L122.541 16.24L115.661 18.06V18.07Z" fill="#D6D6D6"/>
<path d="M117.541 45.04C117.431 45.04 117.331 45.01 117.241 44.94C117.101 44.84 117.031 44.68 117.031 44.51L117.331 31.42C117.331 31.2 117.481 31.01 117.691 30.94L127.451 27.9C127.611 27.85 127.781 27.88 127.911 27.98C128.041 28.08 128.121 28.24 128.111 28.4L127.641 41.11C127.641 41.32 127.501 41.53 127.301 41.6L117.701 44.99C117.641 45.01 117.591 45.02 117.531 45.02L117.541 45.04ZM118.421 31.88L118.151 43.7L126.581 40.73L127.001 29.21L118.431 31.88H118.421Z" fill="#D6D6D6"/>
<path d="M91.0034 32.29C91.0034 32.29 90.9134 32.29 90.8734 32.27L80.3734 29.42C80.2334 29.38 80.1234 29.29 80.0534 29.17C79.9834 29.04 79.9734 28.9 80.0234 28.76L84.5734 15.69C84.6634 15.44 84.9134 15.3 85.1734 15.36L93.6834 17.33C93.9534 17.39 94.1234 17.65 94.0734 17.92L91.5234 31.88C91.4934 32.02 91.4134 32.15 91.2934 32.22C91.2134 32.27 91.1134 32.3 91.0234 32.3L91.0034 32.29ZM81.2534 28.53L90.5434 31.05L92.8834 18.26L85.4334 16.54L81.2634 28.53H81.2534Z" fill="#D6D6D6"/>
<path d="M91.2039 45.3399C91.1539 45.3399 91.1039 45.3399 91.0539 45.3199L80.7339 42.1399C80.5239 42.0799 80.3839 41.8899 80.3739 41.6699L80.0039 28.8799C80.0039 28.7199 80.0739 28.5599 80.2039 28.4599C80.3339 28.3599 80.4939 28.3299 80.6539 28.3699L91.1539 31.2199C91.3739 31.2799 91.5339 31.4799 91.5339 31.7099L91.7239 44.8199C91.7239 44.9799 91.6539 45.1399 91.5239 45.2399C91.4339 45.3099 91.3239 45.3399 91.2139 45.3399H91.2039ZM81.4539 41.2199L90.6039 44.0399L90.4339 32.1699L81.1139 29.6399L81.4439 41.2199H81.4539Z" fill="#D6D6D6"/>
<path d="M104.411 19.0499C104.411 19.0499 104.391 19.0499 104.381 19.0499L93.4309 18.3899C93.2709 18.3899 93.1209 18.2899 93.0309 18.1499C92.9409 18.0099 92.9309 17.8399 92.9909 17.6799L97.6109 6.43992C97.6909 6.23992 97.8909 6.10992 98.1109 6.11992L104.051 6.42992C104.311 6.43992 104.531 6.65992 104.531 6.91992L104.931 18.5099C104.931 18.6499 104.881 18.7899 104.781 18.8899C104.681 18.9799 104.561 19.0299 104.421 19.0299L104.411 19.0499ZM94.3109 17.3499L103.801 17.9199L103.441 7.50992L98.4509 7.24992L94.3009 17.3499H94.3109Z" fill="#D6D6D6"/>
<path d="M104.344 19.05C104.214 19.05 104.094 19 104.004 18.92C103.904 18.83 103.834 18.7 103.834 18.56L103.434 6.97002C103.434 6.69002 103.634 6.46002 103.914 6.44002L109.724 6.05002C109.934 6.03002 110.154 6.15002 110.244 6.34002L115.544 17.48C115.614 17.63 115.614 17.81 115.524 17.96C115.444 18.11 115.294 18.2 115.124 18.21L104.394 19.05C104.394 19.05 104.364 19.05 104.354 19.05H104.344ZM104.554 7.50002L104.914 17.91L114.194 17.18L109.434 7.17002L104.564 7.50002H104.554Z" fill="#D6D6D6"/>
<path d="M104.574 33.24C104.574 33.24 104.554 33.24 104.534 33.24L90.8939 32.28C90.7439 32.28 90.6139 32.2 90.5239 32.08C90.4339 31.97 90.3939 31.82 90.4239 31.67L92.9739 17.71C93.0239 17.46 93.2439 17.27 93.5039 17.29L104.424 17.95C104.694 17.97 104.904 18.19 104.904 18.45L105.064 32.71C105.064 32.85 105.004 32.99 104.904 33.09C104.804 33.18 104.684 33.23 104.554 33.23L104.574 33.24ZM91.6239 31.23L103.984 32.1L103.834 19.02L93.9639 18.43L91.6239 31.24V31.23Z" fill="#D6D6D6"/>
<path d="M104.502 33.24C104.372 33.24 104.252 33.19 104.162 33.11C104.052 33.01 103.992 32.88 103.992 32.74L103.832 18.48C103.832 18.21 104.032 17.99 104.302 17.96L115.012 17.12C115.272 17.1 115.502 17.27 115.552 17.53L118.422 31.4C118.452 31.54 118.422 31.69 118.332 31.81C118.242 31.93 118.112 32 117.972 32.02L104.552 33.25C104.552 33.25 104.522 33.25 104.502 33.25V33.24ZM104.932 19.01L105.082 32.09L117.222 30.98L114.582 18.25L104.932 19.01Z" fill="#D6D6D6"/>
<path d="M104.572 46.39C104.572 46.39 104.542 46.39 104.532 46.39L91.0819 45.32C90.8219 45.3 90.6119 45.08 90.6119 44.82L90.4219 31.71C90.4219 31.57 90.4819 31.43 90.5819 31.33C90.6819 31.23 90.8319 31.18 90.9719 31.19L104.612 32.15C104.882 32.17 105.082 32.39 105.082 32.66V45.88C105.082 46.02 105.022 46.16 104.922 46.26C104.832 46.35 104.702 46.4 104.572 46.4V46.39ZM91.7019 44.27L103.992 45.25V33.21L91.5319 32.33L91.7019 44.27Z" fill="#D6D6D6"/>
<path d="M104.502 46.39C104.372 46.39 104.252 46.34 104.162 46.26C104.052 46.16 103.992 46.03 103.992 45.88V32.66C103.992 32.4 104.192 32.17 104.452 32.15L117.862 30.92C118.012 30.91 118.152 30.96 118.262 31.06C118.372 31.16 118.432 31.3 118.422 31.45L118.122 44.53C118.122 44.79 117.922 45 117.662 45.03L104.552 46.4C104.552 46.4 104.512 46.4 104.502 46.4V46.39ZM105.082 33.19V45.23L117.032 43.98L117.312 32.07L105.082 33.19Z" fill="#D6D6D6"/>
<path d="M78.6344 3.42995C78.6344 3.42995 78.5744 3.42995 78.5444 3.42995L65.9644 1.29995C65.6944 1.24995 65.5044 0.999949 65.5444 0.729949V0.659949C65.5944 0.389949 65.8344 0.199949 66.1044 0.219949L75.5744 1.07995C75.6244 1.07995 75.6844 1.09995 75.7344 1.11995L78.8344 2.45995C79.0744 2.55995 79.1944 2.82995 79.1244 3.06995C79.0544 3.28995 78.8544 3.43995 78.6344 3.43995V3.42995Z" fill="#D6D6D6"/>
<path d="M75.5321 2.15996C75.5321 2.15996 75.5021 2.15996 75.4821 2.15996L66.0121 1.29996C65.7421 1.27996 65.5321 1.03996 65.5521 0.769961V0.699961C65.5721 0.429961 65.7921 0.209961 66.0721 0.209961L71.0221 0.269961C71.0221 0.269961 71.0821 0.269961 71.1021 0.269961L75.6321 1.06996C75.9021 1.11996 76.0821 1.36996 76.0521 1.63996V1.70996C76.0121 1.96996 75.7921 2.14996 75.5321 2.14996V2.15996Z" fill="#D6D6D6"/>
<path d="M71.0036 1.36L66.0636 1.3C65.9936 1.3 65.9336 1.29 65.8636 1.26L65.2136 0.98C64.9836 0.88 64.8636 0.64 64.9136 0.4C64.9636 0.16 65.1836 0 65.4336 0L71.0336 0.26C71.3136 0.27 71.5236 0.51 71.5236 0.78V0.85C71.5236 1.13 71.2836 1.35 71.0136 1.35L71.0036 1.36Z" fill="#D6D6D6"/>
<path d="M60.2838 1.43001C60.0138 1.43001 59.7838 1.21001 59.7738 0.94001V0.87001C59.7638 0.59001 59.9738 0.36001 60.2538 0.34001L65.5738 0.0100098C65.6538 0.0100098 65.7438 0.0100098 65.8138 0.0500098L66.4338 0.32001C66.6538 0.42001 66.7738 0.65001 66.7338 0.89001C66.6838 1.13001 66.4838 1.30001 66.2438 1.30001L60.3038 1.43001C60.3038 1.43001 60.3038 1.43001 60.2938 1.43001H60.2838Z" fill="#D6D6D6"/>
<path d="M55.9832 2.28996C55.7332 2.28996 55.5132 2.10996 55.4732 1.84996V1.77996C55.4232 1.50996 55.6032 1.25996 55.8632 1.19996L60.1632 0.339961C60.1632 0.339961 60.2232 0.339961 60.2532 0.339961L66.0332 0.209961C66.3032 0.209961 66.5332 0.419961 66.5532 0.689961V0.759961C66.5732 1.02996 66.3732 1.26996 66.0932 1.29996L56.0132 2.28996C56.0132 2.28996 55.9832 2.28996 55.9632 2.28996H55.9832Z" fill="#D6D6D6"/>
<path d="M53.2834 3.59C53.0634 3.59 52.8734 3.45 52.8034 3.24C52.7234 3 52.8334 2.74 53.0534 2.62L55.7434 1.25C55.8034 1.22 55.8634 1.2 55.9334 1.19L66.0134 0.200002C66.2834 0.170002 66.5334 0.370002 66.5734 0.640002V0.710002C66.6234 0.980002 66.4434 1.24 66.1634 1.29L53.3834 3.58C53.3834 3.58 53.3234 3.58 53.2934 3.58L53.2834 3.59Z" fill="#D6D6D6"/>
<path d="M94.2016 25.02C94.0016 25.02 93.8216 24.91 93.7316 24.72L87.2416 10.21C87.1316 9.95002 87.2416 9.65002 87.5016 9.54002L87.5716 9.51002C87.8316 9.39002 88.1316 9.51002 88.2516 9.76002L93.0516 20.29L94.7416 24.27C94.8516 24.53 94.7416 24.83 94.4716 24.94L94.4016 24.97C94.3316 25 94.2716 25.01 94.2016 25.01V25.02Z" fill="#D6D6D6"/>
<path d="M78.8638 4.81989C78.8638 4.81989 78.7738 4.81989 78.7238 4.79989L65.9038 1.27989C65.6438 1.20989 65.4838 0.939889 65.5438 0.679889L65.5638 0.609889C65.6238 0.339889 65.8838 0.169889 66.1438 0.219889L78.4238 2.29989C78.6138 2.32989 78.7838 2.46989 78.8438 2.64989L79.3338 4.15989C79.3938 4.33989 79.3438 4.53989 79.2138 4.66989C79.1138 4.76989 78.9838 4.82989 78.8438 4.82989L78.8638 4.81989ZM76.7038 3.10989L77.9738 3.45989L77.9238 3.31989L76.7038 3.10989Z" fill="#D6D6D6"/>
<path d="M89.0344 13.4499C88.9144 13.4499 88.8044 13.4099 88.7044 13.3299L78.4544 4.6699C78.3844 4.6099 78.3244 4.5299 78.2944 4.4399L77.7844 2.8899C77.7144 2.6799 77.7844 2.4399 77.9744 2.3099C78.1544 2.1799 78.4044 2.1799 78.5844 2.3099L88.0844 9.5399C88.1544 9.5899 88.2144 9.6699 88.2544 9.7499L89.5044 12.7299C89.5944 12.9499 89.5244 13.1999 89.3344 13.3399C89.2444 13.4099 89.1344 13.4399 89.0344 13.4399V13.4499ZM82.8044 6.9099L87.5444 10.9199L87.2944 10.3299L82.7944 6.9099H82.8044Z" fill="#D6D6D6"/>
<path d="M37.9532 25.83C37.9032 25.83 37.8532 25.83 37.7932 25.81C37.5432 25.73 37.3932 25.48 37.4432 25.22L38.3032 20.89C38.3032 20.89 38.3232 20.81 38.3432 20.77L43.4532 9.85996C43.5632 9.62996 43.8232 9.50996 44.0632 9.58996C44.3032 9.65996 44.4532 9.90996 44.4132 10.16L43.9132 13.27C43.9132 13.27 43.8932 13.36 43.8732 13.4L38.4032 25.53C38.3232 25.72 38.1332 25.83 37.9332 25.83H37.9532Z" fill="#D6D6D6"/>
<path d="M53.4319 4.99988C53.3219 4.99988 53.2119 4.95988 53.1219 4.88988C52.9919 4.78988 52.9219 4.62988 52.9219 4.46988L52.9719 2.95988C52.9719 2.71988 53.1519 2.51988 53.3919 2.46988L65.9619 0.209879C66.2319 0.159879 66.4919 0.329879 66.5519 0.599879L66.5719 0.669879C66.6319 0.929879 66.4819 1.19988 66.2219 1.27988L53.5819 4.97988C53.5819 4.97988 53.4819 4.99988 53.4419 4.99988H53.4319ZM54.0519 3.46988V3.69988L56.0919 3.09988L54.0519 3.46988Z" fill="#D6D6D6"/>
<path d="M43.3317 13.78C43.2417 13.78 43.1617 13.76 43.0817 13.72C42.8917 13.62 42.7917 13.4 42.8217 13.19L43.2917 10.22C43.3117 10.09 43.3817 9.96998 43.4917 9.88998L53.2417 2.50998C53.4017 2.38998 53.6117 2.36998 53.7817 2.45998C53.9617 2.54998 54.0617 2.72998 54.0617 2.92998L54.0117 4.45998C54.0117 4.59998 53.9417 4.73998 53.8317 4.82998L43.6617 13.65C43.5617 13.73 43.4517 13.78 43.3317 13.78ZM44.3417 10.63L44.1617 11.78L52.9217 4.17998V4.13998L44.3417 10.63Z" fill="#D6D6D6"/>
<path d="M71.4418 57.63C71.2518 57.63 71.0818 57.53 70.9918 57.35C70.8718 57.12 70.9418 56.83 71.1618 56.69L76.6018 53.07C76.6018 53.07 76.6618 53.03 76.7018 53.02L84.2118 50.18C84.4618 50.09 84.7418 50.2 84.8618 50.45L84.8918 50.52C85.0018 50.76 84.9118 51.05 84.6718 51.18L76.1018 55.88C76.1018 55.88 76.0618 55.9 76.0418 55.91L71.6318 57.6C71.5718 57.62 71.5118 57.63 71.4518 57.63H71.4418ZM77.1518 54.02L76.9218 54.17L77.3018 53.96L77.1418 54.02H77.1518Z" fill="#D6D6D6"/>
<path d="M61.0837 57.7199C61.0337 57.7199 60.9737 57.7199 60.9237 57.6899L56.3337 56.1499C56.3337 56.1499 56.2737 56.1299 56.2437 56.1099L48.1437 51.5999C47.9137 51.4699 47.8137 51.1899 47.9237 50.9499L47.9537 50.8799C48.0637 50.6399 48.3337 50.5199 48.5837 50.5999L56.6237 53.2599C56.6737 53.2799 56.7237 53.2999 56.7737 53.3399L61.3837 56.7999C61.5837 56.9499 61.6437 57.2199 61.5337 57.4499C61.4437 57.6199 61.2637 57.7199 61.0837 57.7199ZM56.7337 55.1299L57.8437 55.4999L56.2037 54.2699L53.7137 53.4499L56.7337 55.1299Z" fill="#D6D6D6"/>
<path d="M84.2126 51.47C84.1126 51.47 84.0026 51.44 83.9226 51.38C83.7126 51.23 83.6426 50.94 83.7726 50.72L89.1826 40.85C89.1826 40.85 89.2226 40.78 89.2526 40.75L93.5526 36.08C93.7326 35.89 94.0226 35.86 94.2326 36.01C94.4426 36.16 94.5026 36.45 94.3726 36.68L88.2526 47.18C88.2526 47.18 88.2126 47.24 88.1926 47.26L84.6026 51.3C84.5026 51.41 84.3626 51.47 84.2226 51.47H84.2126ZM90.1026 41.43L87.2126 46.7L87.3226 46.58L90.7026 40.78L90.1026 41.43Z" fill="#D6D6D6"/>
<path d="M48.5426 51.8C48.4226 51.8 48.2926 51.76 48.2026 51.67L43.9726 47.81C43.9726 47.81 43.9026 47.73 43.8726 47.69L37.9126 37.36C37.7926 37.14 37.8426 36.87 38.0326 36.71C38.2226 36.55 38.5026 36.56 38.6926 36.71L43.8426 41.2C43.8426 41.2 43.9326 41.29 43.9626 41.35L49.0026 51.05C49.1126 51.27 49.0526 51.54 48.8626 51.69C48.7726 51.76 48.6626 51.8 48.5526 51.8H48.5426ZM44.7726 47.06L46.5126 48.64L43.0426 41.96L40.6126 39.84L44.7726 47.05V47.06Z" fill="#D6D6D6"/>
<path d="M66.3831 58.1399C66.3831 58.1399 66.3531 58.1399 66.3331 58.1399L60.8231 57.6499C60.7231 57.6499 60.6331 57.6099 60.5531 57.5499L56.0231 54.1499C55.8431 54.0099 55.7731 53.7699 55.8531 53.5599C55.9331 53.3499 56.1431 53.2099 56.3731 53.2299L66.8631 54.1299C67.0031 54.1399 67.1331 54.2099 67.2231 54.3199C67.3131 54.4299 67.3531 54.5699 67.3331 54.7099L66.8931 57.6999C66.8531 57.9499 66.6431 58.1399 66.3831 58.1399ZM61.0731 56.5699L65.8831 56.9899L66.1531 55.1599L58.3131 54.4899L61.0831 56.5699H61.0731Z" fill="#D6D6D6"/>
<path d="M66.3151 58.1401C66.1751 58.1401 66.0451 58.0801 65.9451 57.9801C65.8351 57.8701 65.7851 57.7101 65.8051 57.5501L66.2451 54.5601C66.2751 54.3301 66.4651 54.1501 66.6951 54.1301L76.9951 52.9701C77.2251 52.9401 77.4551 53.0801 77.5351 53.3001C77.6151 53.5201 77.5351 53.7701 77.3351 53.9001L72.0451 57.4201C71.9751 57.4601 71.8951 57.5001 71.8151 57.5101L66.3851 58.1301C66.3851 58.1301 66.3451 58.1301 66.3251 58.1301L66.3151 58.1401ZM67.2651 55.1701L67.0051 56.9601L71.5451 56.4401L74.7151 54.3301L67.2651 55.1701Z" fill="#D6D6D6"/>
<path d="M76.705 6.1599C76.635 6.1599 76.565 6.1399 76.495 6.1099L65.835 1.2499C65.595 1.1399 65.475 0.859897 65.565 0.609897L65.585 0.539897C65.675 0.289897 65.945 0.149897 66.205 0.219897L79.035 3.7399C79.225 3.7899 79.375 3.9599 79.405 4.1599C79.435 4.3599 79.345 4.5599 79.175 4.6699L76.975 6.0799C76.895 6.1299 76.795 6.1599 76.695 6.1599H76.705ZM72.495 3.0899L76.655 4.9899L77.485 4.4599L72.495 3.0899Z" fill="#D6D6D6"/>
<path d="M55.9834 6.31007C55.9034 6.31007 55.8234 6.29007 55.7534 6.26007L53.1434 4.89007C52.9634 4.79007 52.8534 4.59007 52.8734 4.39007C52.8934 4.18007 53.0434 4.01007 53.2434 3.95007L65.9034 0.23007C66.1534 0.16007 66.4234 0.29007 66.5234 0.53007L66.5534 0.60007C66.6534 0.85007 66.5434 1.13007 66.3034 1.24007L56.2334 6.25007C56.1534 6.29007 56.0734 6.31007 55.9834 6.31007ZM54.9234 4.58007L55.9934 5.14007L60.2834 3.01007L54.9234 4.58007Z" fill="#D6D6D6"/>
<path d="M89.6233 41.7199C89.5533 41.7199 89.4933 41.7099 89.4333 41.6799C89.2333 41.5999 89.1133 41.3999 89.1133 41.1899L89.5833 28.4099C89.5833 28.2799 89.6433 28.1499 89.7433 28.0599L93.9333 24.0299C94.0833 23.8899 94.3033 23.8499 94.4933 23.9299C94.6833 24.0199 94.8033 24.2099 94.7933 24.4199L94.2733 36.7099C94.2733 36.8299 94.2233 36.9599 94.1433 37.0499L90.0033 41.5499C89.9033 41.6599 89.7633 41.7199 89.6233 41.7199ZM90.6633 28.6899L90.2633 39.6499L93.1833 36.4699L93.6333 25.8299L90.6633 28.6899Z" fill="#D6D6D6"/>
<path d="M85.4339 16.1499C85.2939 16.1499 85.1539 16.0899 85.0539 15.9799L76.2839 5.97988L76.2539 5.94988C76.1539 5.83988 76.1139 5.68988 76.1339 5.53988C76.1539 5.38988 76.2439 5.25988 76.3639 5.17988L78.5339 3.78988C78.7239 3.66988 78.9639 3.67988 79.1439 3.82988L89.3239 12.4299C89.4439 12.5299 89.5039 12.6799 89.5039 12.8299C89.5039 12.9799 89.4339 13.1299 89.3139 13.2199L85.7539 16.0399C85.6639 16.1099 85.5439 16.1499 85.4339 16.1499ZM77.5239 5.72988L85.5039 14.8399L88.0639 12.8099L78.7539 4.93988L77.5139 5.72988H77.5239Z" fill="#D6D6D6"/>
<path d="M90.1039 29.0301C90.1039 29.0301 90.0239 29.0301 89.9839 29.0201C89.8139 28.9801 89.6739 28.8601 89.6139 28.7001L84.9139 15.7801V15.7601C84.8339 15.5501 84.8939 15.3201 85.0639 15.1801L88.6139 12.3601C88.7339 12.2601 88.9039 12.2301 89.0539 12.2601C89.2039 12.3001 89.3339 12.4001 89.4039 12.5501L94.7339 24.2901C94.8239 24.4901 94.7839 24.7201 94.6239 24.8701L90.4539 28.8901C90.3539 28.9801 90.2339 29.0301 90.1039 29.0301ZM86.0839 15.7701L90.3439 27.4701L93.5739 24.3601L88.7239 13.6701L86.0839 15.7601V15.7701Z" fill="#D6D6D6"/>
<path d="M43.5122 42.21C43.3922 42.21 43.2722 42.17 43.1722 42.08L38.1122 37.67C38.0022 37.58 37.9422 37.44 37.9322 37.3L37.4922 24.94C37.4922 24.74 37.5922 24.56 37.7722 24.47C37.9522 24.38 38.1622 24.4 38.3222 24.52L43.4422 28.46C43.5622 28.55 43.6522 28.71 43.6522 28.86L44.0222 41.67C44.0222 41.87 43.9122 42.06 43.7322 42.15C43.6622 42.18 43.5922 42.2 43.5122 42.2V42.21ZM39.0322 37.01L42.8922 40.38L42.5722 29.18L38.6422 26.15L39.0322 37.01Z" fill="#D6D6D6"/>
<path d="M72.3132 7.14991C72.1832 7.14991 72.0432 7.09991 71.9532 7.01991L65.5232 1.00991C65.3432 0.839912 65.3132 0.559912 65.4432 0.349912C65.5832 0.139912 65.8532 0.0699123 66.0832 0.169912L77.0232 5.15991C77.2232 5.24991 77.3432 5.45991 77.3232 5.67991C77.3032 5.89991 77.1432 6.07991 76.9232 6.12991L72.4332 7.13991C72.4332 7.13991 72.3532 7.14991 72.3132 7.14991ZM68.8832 2.64991L72.4732 6.00991L74.9932 5.43991L68.8832 2.64991Z" fill="#D6D6D6"/>
<path d="M60.6643 7.23993C60.6643 7.23993 60.6043 7.23993 60.5743 7.23993L55.7743 6.28993C55.5643 6.24993 55.3943 6.06993 55.3643 5.85993C55.3343 5.63993 55.4443 5.42993 55.6443 5.32993L65.9943 0.179933C66.2143 0.0699327 66.4843 0.129933 66.6343 0.329933C66.7843 0.529933 66.7743 0.799933 66.6043 0.979933L61.0743 7.04993C60.9743 7.15993 60.8243 7.22993 60.6743 7.22993L60.6643 7.23993ZM57.6643 5.53993L60.4643 6.08993L63.6943 2.53993L57.6743 5.52993L57.6643 5.53993Z" fill="#D6D6D6"/>
<path d="M47.6436 16.4601C47.5536 16.4601 47.4536 16.4301 47.3636 16.3801L43.0436 13.6101C42.9036 13.5201 42.8236 13.3801 42.8136 13.2201C42.8036 13.0601 42.8636 12.9001 42.9936 12.8001L53.1136 4.03008C53.2736 3.89008 53.5236 3.85008 53.7036 3.95008L56.2836 5.31008C56.4236 5.38008 56.5136 5.51008 56.5436 5.66008C56.5736 5.81008 56.5436 5.97008 56.4336 6.09008L48.0336 16.2901C47.9336 16.4101 47.7836 16.4801 47.6336 16.4801L47.6436 16.4601ZM44.3036 13.1101L47.5236 15.1701L55.1336 5.92008L53.5436 5.08008L44.2936 13.1001L44.3036 13.1101Z" fill="#D6D6D6"/>
<path d="M43.1239 29.4801C43.0139 29.4801 42.9039 29.4401 42.8139 29.3701L37.6939 25.4301C37.5039 25.2901 37.4439 25.0301 37.5439 24.8101L42.9039 12.9101C42.9639 12.7701 43.0839 12.6701 43.2239 12.6301C43.3639 12.5901 43.5239 12.6101 43.6439 12.6901L47.9539 15.4501C48.1539 15.5801 48.2339 15.8201 48.1639 16.0501L43.6139 29.1301C43.5639 29.2901 43.4339 29.4101 43.2739 29.4501C43.2239 29.4601 43.1739 29.4701 43.1239 29.4701V29.4801ZM38.7339 24.8401L42.8439 28.0101L46.9739 16.1301L43.6239 13.9801L38.7339 24.8401Z" fill="#D6D6D6"/>
<path d="M66.5837 7.53998C66.5837 7.53998 66.5637 7.53998 66.5537 7.53998L60.5537 7.22998C60.3537 7.21998 60.1837 7.09998 60.1037 6.90998C60.0237 6.72998 60.0637 6.51998 60.1937 6.36998L65.6937 0.319982C65.8337 0.169982 66.0437 0.109982 66.2337 0.179982C66.4237 0.249982 66.5637 0.419982 66.5737 0.619982L67.0637 6.97998C67.0737 7.12998 67.0237 7.26998 66.9237 7.37998C66.8237 7.47998 66.6937 7.52998 66.5537 7.52998L66.5837 7.53998ZM61.8537 6.19998L65.9537 6.40998L65.6137 2.05998L61.8537 6.19998Z" fill="#D6D6D6"/>
<path d="M66.5139 7.54004C66.2539 7.54004 66.0239 7.34004 66.0039 7.07004L65.5139 0.700039C65.4939 0.490039 65.6139 0.290039 65.8039 0.200039C65.9939 0.110039 66.2239 0.140039 66.3739 0.290039L72.7539 6.26004C72.9039 6.40004 72.9539 6.61004 72.8839 6.81004C72.8139 7.00004 72.6439 7.13004 72.4339 7.15004L66.5439 7.55004C66.5439 7.55004 66.5239 7.55004 66.5139 7.55004V7.54004ZM66.7239 2.12004L67.0539 6.41004L71.0239 6.14004L66.7239 2.12004Z" fill="#D6D6D6"/>
<path d="M76.8434 54.1099C76.7134 54.1099 76.5834 54.0599 76.4834 53.9599C76.3434 53.8199 76.2934 53.6099 76.3634 53.4199L79.6234 44.2899V44.2699C79.6834 44.1299 79.7934 44.0199 79.9434 43.9599L89.5734 40.5599C89.7734 40.4899 89.9934 40.5499 90.1334 40.7099C90.2734 40.8699 90.2934 41.0999 90.1934 41.2899L84.8834 50.9699C84.8234 51.0799 84.7334 51.1599 84.6134 51.1999L77.0234 54.0699C76.9634 54.0899 76.9034 54.0999 76.8434 54.0999V54.1099ZM80.5634 44.9099L77.8134 52.6099L84.0234 50.2599L88.4934 42.1099L80.5634 44.9099Z" fill="#D6D6D6"/>
<path d="M56.5141 54.3499C56.4641 54.3499 56.4041 54.3499 56.3541 54.3199L48.2341 51.6399C48.1041 51.5999 47.9941 51.5099 47.9341 51.3899L42.9541 41.7899C42.8541 41.6099 42.8841 41.3899 43.0141 41.2299C43.1441 41.0699 43.3641 41.0099 43.5541 41.0699L53.8841 44.2499C54.0441 44.2999 54.1941 44.4299 54.2441 44.5999L57.0041 53.6999C57.0641 53.8799 57.0041 54.0799 56.8741 54.2099C56.7741 54.2999 56.6441 54.3599 56.5141 54.3599V54.3499ZM48.8041 50.6699L55.6341 52.9299L53.2941 45.2099L44.5741 42.5299L48.8041 50.6799V50.6699Z" fill="#D6D6D6"/>
<path d="M66.8117 55.2199C66.8117 55.2199 66.7817 55.2199 66.7717 55.2199L56.3917 54.3299C56.1817 54.3099 56.0017 54.1699 55.9417 53.9699L53.1817 44.8899C53.1317 44.7299 53.1717 44.5499 53.2717 44.4199C53.3817 44.2899 53.5417 44.2199 53.7117 44.2299L67.1717 45.2999C67.4417 45.3199 67.6517 45.5499 67.6417 45.8299L67.3217 54.7399C67.3217 54.8799 67.2517 55.0099 67.1517 55.1099C67.0617 55.1899 66.9417 55.2399 66.8117 55.2399V55.2199ZM56.8717 53.2699L66.2517 54.0799L66.5317 46.3399L54.4817 45.3799L56.8717 53.2699Z" fill="#D6D6D6"/>
<path d="M66.7415 55.2201C66.6115 55.2201 66.4915 55.1701 66.3915 55.0801C66.2815 54.9801 66.2215 54.8401 66.2315 54.6901L66.5515 45.7801C66.5515 45.5301 66.7515 45.3201 67.0115 45.2901L80.1415 43.9201C80.3215 43.9001 80.4915 43.9701 80.6015 44.1101C80.7115 44.2501 80.7415 44.4301 80.6815 44.6001L77.4215 53.7301C77.3515 53.9101 77.1915 54.0401 77.0015 54.0701L66.8115 55.2101C66.8115 55.2101 66.7715 55.2101 66.7615 55.2101L66.7415 55.2201ZM67.6315 46.3301L67.3515 54.0501L76.5015 53.0201L79.3315 45.1001L67.6315 46.3201V46.3301Z" fill="#D6D6D6"/>
<path d="M77.5547 18.22C77.3647 18.22 77.1747 18.11 77.0947 17.93L71.7947 6.79003C71.7247 6.65003 71.7247 6.49003 71.7947 6.35003C71.8647 6.21003 71.9947 6.11003 72.1447 6.07003L76.5947 5.07003C76.7747 5.03003 76.9647 5.09003 77.0947 5.23003L85.8947 15.27C86.0147 15.4 86.0547 15.59 85.9947 15.76C85.9447 15.93 85.8047 16.06 85.6347 16.1L77.6847 18.2C77.6847 18.2 77.5947 18.22 77.5547 18.22ZM73.0947 6.98003L77.8747 17.02L84.4447 15.28L76.4947 6.21003L73.0947 6.98003Z" fill="#D6D6D6"/>
<path d="M56.1026 18.41C56.1026 18.41 56.0226 18.41 55.9826 18.4L47.4526 16.43C47.2826 16.39 47.1426 16.26 47.0826 16.1C47.0226 15.93 47.0626 15.75 47.1726 15.61L55.5626 5.42998C55.6826 5.27998 55.8826 5.19998 56.0726 5.23998L60.8126 6.17998C60.9626 6.20998 61.0926 6.29998 61.1626 6.43998C61.2326 6.56998 61.2426 6.72998 61.1826 6.87998L56.5626 18.11C56.4826 18.31 56.2926 18.43 56.0926 18.43L56.1026 18.41ZM48.6226 15.57L55.7526 17.22L59.9126 7.09998L56.2126 6.36998L48.6326 15.57H48.6226Z" fill="#D6D6D6"/>
<path d="M80.4133 32.03C80.3233 32.03 80.2333 32.01 80.1533 31.96C80.0333 31.89 79.9433 31.76 79.9133 31.62L77.0433 17.74C76.9833 17.47 77.1533 17.21 77.4133 17.14L85.3433 15.04C85.6033 14.97 85.8633 15.11 85.9533 15.36L90.6533 28.29C90.7033 28.42 90.6933 28.57 90.6333 28.69C90.5733 28.82 90.4633 28.91 90.3233 28.95L80.5633 31.99C80.5633 31.99 80.4633 32.01 80.4133 32.01V32.03ZM78.2233 18.07L80.8533 30.77L89.4133 28.1L85.1033 16.24L78.2233 18.06V18.07Z" fill="#D6D6D6"/>
<path d="M80.092 45.04C79.982 45.04 79.882 45.01 79.792 44.94C79.652 44.84 79.582 44.68 79.582 44.51L79.882 31.42C79.882 31.2 80.032 31.01 80.242 30.94L90.002 27.9C90.162 27.85 90.332 27.88 90.462 27.98C90.592 28.08 90.672 28.24 90.662 28.4L90.192 41.11C90.192 41.32 90.052 41.53 89.852 41.6L80.252 44.99C80.192 45.01 80.142 45.02 80.082 45.02L80.092 45.04ZM80.972 31.88L80.702 43.7L89.132 40.73L89.552 29.21L80.982 31.88H80.972Z" fill="#D6D6D6"/>
<path d="M53.562 32.29C53.562 32.29 53.472 32.29 53.432 32.27L42.932 29.42C42.792 29.38 42.682 29.29 42.612 29.17C42.542 29.04 42.532 28.9 42.582 28.76L47.132 15.69C47.222 15.44 47.472 15.3 47.732 15.36L56.242 17.33C56.512 17.39 56.682 17.65 56.632 17.92L54.082 31.88C54.052 32.02 53.972 32.15 53.852 32.22C53.772 32.27 53.672 32.3 53.582 32.3L53.562 32.29ZM43.812 28.53L53.102 31.05L55.442 18.26L47.992 16.54L43.822 28.53H43.812Z" fill="#D6D6D6"/>
<path d="M53.7625 45.3399C53.7125 45.3399 53.6625 45.3399 53.6125 45.3199L43.2925 42.1399C43.0825 42.0799 42.9425 41.8899 42.9325 41.6699L42.5625 28.8799C42.5625 28.7199 42.6325 28.5599 42.7625 28.4599C42.8925 28.3599 43.0525 28.3299 43.2125 28.3699L53.7125 31.2199C53.9325 31.2799 54.0925 31.4799 54.0925 31.7099L54.2825 44.8199C54.2825 44.9799 54.2125 45.1399 54.0825 45.2399C53.9925 45.3099 53.8825 45.3399 53.7725 45.3399H53.7625ZM44.0125 41.2199L53.1625 44.0399L52.9925 32.1699L43.6725 29.6399L44.0025 41.2199H44.0125Z" fill="#D6D6D6"/>
<path d="M66.9734 19.0499C66.9734 19.0499 66.9534 19.0499 66.9434 19.0499L55.9934 18.3899C55.8334 18.3899 55.6834 18.2899 55.5934 18.1499C55.5034 18.0099 55.4934 17.8399 55.5534 17.6799L60.1734 6.43992C60.2534 6.23992 60.4534 6.10992 60.6734 6.11992L66.6134 6.42992C66.8734 6.43992 67.0934 6.65992 67.0934 6.91992L67.4934 18.5099C67.4934 18.6499 67.4434 18.7899 67.3434 18.8899C67.2434 18.9799 67.1234 19.0299 66.9834 19.0299L66.9734 19.0499ZM56.8734 17.3499L66.3634 17.9199L66.0034 7.50992L61.0134 7.24992L56.8634 17.3499H56.8734Z" fill="#D6D6D6"/>
<path d="M66.9022 19.05C66.7722 19.05 66.6522 19 66.5622 18.92C66.4622 18.83 66.3922 18.7 66.3922 18.56L65.9922 6.97002C65.9922 6.69002 66.1922 6.46002 66.4722 6.44002L72.2822 6.05002C72.4922 6.03002 72.7122 6.15002 72.8022 6.34002L78.1022 17.48C78.1722 17.63 78.1722 17.81 78.0822 17.96C78.0022 18.11 77.8522 18.2 77.6822 18.21L66.9522 19.05C66.9522 19.05 66.9222 19.05 66.9122 19.05H66.9022ZM67.1122 7.50002L67.4722 17.91L76.7522 17.18L71.9922 7.17002L67.1222 7.50002H67.1122Z" fill="#D6D6D6"/>
<path d="M67.1325 33.24C67.1325 33.24 67.1125 33.24 67.0925 33.24L53.4525 32.28C53.3025 32.28 53.1725 32.2 53.0825 32.08C52.9925 31.97 52.9525 31.82 52.9825 31.67L55.5325 17.71C55.5825 17.46 55.8025 17.27 56.0625 17.29L66.9825 17.95C67.2525 17.97 67.4625 18.19 67.4625 18.45L67.6225 32.71C67.6225 32.85 67.5625 32.99 67.4625 33.09C67.3625 33.18 67.2425 33.23 67.1125 33.23L67.1325 33.24ZM54.1825 31.23L66.5425 32.1L66.3925 19.02L56.5225 18.43L54.1825 31.24V31.23Z" fill="#D6D6D6"/>
<path d="M67.0645 33.24C66.9345 33.24 66.8145 33.19 66.7245 33.11C66.6145 33.01 66.5545 32.88 66.5545 32.74L66.3945 18.48C66.3945 18.21 66.5945 17.99 66.8645 17.96L77.5745 17.12C77.8345 17.1 78.0645 17.27 78.1145 17.53L80.9845 31.4C81.0145 31.54 80.9845 31.69 80.8945 31.81C80.8045 31.93 80.6745 32 80.5345 32.02L67.1145 33.25C67.1145 33.25 67.0845 33.25 67.0645 33.25V33.24ZM67.4945 19.01L67.6445 32.09L79.7845 30.98L77.1445 18.25L67.4945 19.01Z" fill="#D6D6D6"/>
<path d="M67.1344 46.39C67.1344 46.39 67.1044 46.39 67.0944 46.39L53.6444 45.32C53.3844 45.3 53.1744 45.08 53.1744 44.82L52.9844 31.71C52.9844 31.57 53.0444 31.43 53.1444 31.33C53.2444 31.23 53.3944 31.18 53.5344 31.19L67.1744 32.15C67.4444 32.17 67.6444 32.39 67.6444 32.66V45.88C67.6444 46.02 67.5844 46.16 67.4844 46.26C67.3944 46.35 67.2644 46.4 67.1344 46.4V46.39ZM54.2644 44.27L66.5544 45.25V33.21L54.0944 32.33L54.2644 44.27Z" fill="#D6D6D6"/>
<path d="M67.0647 46.39C66.9347 46.39 66.8147 46.34 66.7247 46.26C66.6147 46.16 66.5547 46.03 66.5547 45.88V32.66C66.5547 32.4 66.7547 32.17 67.0147 32.15L80.4247 30.92C80.5747 30.91 80.7147 30.96 80.8247 31.06C80.9347 31.16 80.9947 31.3 80.9847 31.45L80.6847 44.53C80.6847 44.79 80.4847 45 80.2247 45.03L67.1147 46.4C67.1147 46.4 67.0747 46.4 67.0647 46.4V46.39ZM67.6447 33.19V45.23L79.5947 43.98L79.8747 32.07L67.6447 33.19Z" fill="#D6D6D6"/>
<path d="M41.193 3.42995C41.193 3.42995 41.133 3.42995 41.103 3.42995L28.523 1.29995C28.253 1.24995 28.063 0.999949 28.103 0.729949V0.659949C28.153 0.389949 28.393 0.199949 28.663 0.219949L38.133 1.07995C38.183 1.07995 38.243 1.09995 38.293 1.11995L41.393 2.45995C41.633 2.55995 41.753 2.82995 41.683 3.06995C41.613 3.28995 41.413 3.43995 41.193 3.43995V3.42995Z" fill="#D6D6D6"/>
<path d="M38.0829 2.15996C38.0829 2.15996 38.0529 2.15996 38.0329 2.15996L28.5629 1.29996C28.2929 1.27996 28.0829 1.03996 28.1029 0.769961V0.699961C28.1229 0.429961 28.3429 0.209961 28.6229 0.209961L33.5729 0.269961C33.5729 0.269961 33.6329 0.269961 33.6529 0.269961L38.1829 1.06996C38.4529 1.11996 38.6329 1.36996 38.6029 1.63996V1.70996C38.5629 1.96996 38.3429 2.14996 38.0829 2.14996V2.15996Z" fill="#D6D6D6"/>
<path d="M33.5504 1.36L28.6104 1.3C28.5404 1.3 28.4804 1.29 28.4104 1.26L27.7604 0.98C27.5304 0.88 27.4104 0.64 27.4604 0.4C27.5204 0.16 27.7304 0 27.9804 0L33.5804 0.26C33.8604 0.27 34.0704 0.51 34.0704 0.78V0.85C34.0704 1.13 33.8304 1.35 33.5604 1.35L33.5504 1.36Z" fill="#D6D6D6"/>
<path d="M22.8424 1.43001C22.5724 1.43001 22.3424 1.21001 22.3324 0.94001V0.87001C22.3224 0.59001 22.5324 0.36001 22.8124 0.34001L28.1224 0.0100098C28.2024 0.0100098 28.2924 0.0100098 28.3624 0.0500098L28.9824 0.32001C29.2024 0.42001 29.3224 0.65001 29.2824 0.89001C29.2324 1.13001 29.0324 1.30001 28.7924 1.30001L22.8524 1.43001C22.8524 1.43001 22.8524 1.43001 22.8424 1.43001Z" fill="#D6D6D6"/>
<path d="M18.5418 2.28996C18.2918 2.28996 18.0718 2.10996 18.0318 1.84996V1.77996C17.9818 1.50996 18.1618 1.25996 18.4218 1.19996L22.7218 0.339961C22.7218 0.339961 22.7818 0.339961 22.8118 0.339961L28.5918 0.209961C28.8618 0.209961 29.0918 0.419961 29.1118 0.689961V0.759961C29.1318 1.02996 28.9318 1.26996 28.6518 1.29996L18.5718 2.28996C18.5718 2.28996 18.5418 2.28996 18.5218 2.28996H18.5418Z" fill="#D6D6D6"/>
<path d="M15.842 3.59001C15.622 3.59001 15.432 3.45001 15.362 3.24001C15.282 3.00001 15.392 2.74001 15.612 2.62001L18.302 1.25001C18.362 1.22001 18.422 1.20001 18.492 1.19001L28.562 0.210012C28.832 0.180012 29.082 0.380012 29.122 0.650012V0.720012C29.172 0.990012 28.982 1.25001 28.712 1.30001L15.932 3.59001C15.932 3.59001 15.872 3.59001 15.842 3.59001Z" fill="#D6D6D6"/>
<path d="M56.7602 25.02C56.5602 25.02 56.3802 24.91 56.2902 24.72L49.8002 10.21C49.6902 9.95002 49.8002 9.65002 50.0602 9.54002L50.1302 9.51002C50.3902 9.39002 50.6902 9.51002 50.8102 9.76002L55.6102 20.29L57.3002 24.27C57.4102 24.53 57.3002 24.83 57.0302 24.94L56.9602 24.97C56.8902 25 56.8202 25.01 56.7602 25.01V25.02Z" fill="#D6D6D6"/>
<path d="M41.4224 4.81989C41.4224 4.81989 41.3324 4.81989 41.2824 4.79989L28.4624 1.27989C28.2024 1.20989 28.0424 0.939889 28.1024 0.679889L28.1224 0.609889C28.1824 0.339889 28.4424 0.169889 28.7024 0.219889L40.9824 2.29989C41.1724 2.32989 41.3424 2.46989 41.4024 2.64989L41.8924 4.15989C41.9524 4.33989 41.9024 4.53989 41.7724 4.66989C41.6724 4.76989 41.5424 4.82989 41.4024 4.82989L41.4224 4.81989ZM39.2624 3.10989L40.5324 3.45989L40.4824 3.31989L39.2624 3.10989Z" fill="#D6D6D6"/>
<path d="M51.593 13.4499C51.473 13.4499 51.363 13.4099 51.263 13.3299L41.013 4.6699C40.943 4.6099 40.883 4.5299 40.853 4.4399L40.343 2.8899C40.273 2.6799 40.343 2.4399 40.533 2.3099C40.713 2.1799 40.963 2.1799 41.143 2.3099L50.643 9.5399C50.713 9.5899 50.773 9.6699 50.813 9.7499L52.063 12.7299C52.153 12.9499 52.083 13.1999 51.893 13.3399C51.803 13.4099 51.693 13.4399 51.593 13.4399V13.4499ZM45.363 6.9099L50.103 10.9199L49.853 10.3299L45.353 6.9099H45.363Z" fill="#D6D6D6"/>
<path d="M0.511768 25.83C0.461768 25.83 0.411768 25.83 0.351768 25.81C0.101768 25.73 -0.0482324 25.48 0.00176759 25.22L0.861768 20.89C0.861768 20.89 0.881768 20.81 0.901768 20.77L6.01177 9.85996C6.12177 9.62996 6.38177 9.50996 6.62177 9.58996C6.86177 9.65996 7.01177 9.90996 6.97177 10.16L6.47177 13.27C6.47177 13.27 6.45177 13.36 6.43177 13.4L0.981768 25.52C0.901768 25.71 0.711768 25.82 0.511768 25.82V25.83Z" fill="#D6D6D6"/>
<path d="M15.9905 4.99988C15.8805 4.99988 15.7705 4.95988 15.6805 4.88988C15.5505 4.78988 15.4805 4.62988 15.4805 4.46988L15.5305 2.95988C15.5305 2.71988 15.7105 2.51988 15.9505 2.46988L28.5205 0.209879C28.7905 0.159879 29.0505 0.329879 29.1105 0.599879L29.1305 0.669879C29.1905 0.929879 29.0405 1.19988 28.7805 1.27988L16.1405 4.97988C16.1405 4.97988 16.0405 4.99988 16.0005 4.99988H15.9905ZM16.6105 3.46988V3.69988L18.6505 3.09988L16.6105 3.46988Z" fill="#D6D6D6"/>
<path d="M5.89026 13.78C5.80026 13.78 5.72026 13.76 5.64026 13.72C5.45026 13.62 5.35026 13.4 5.38026 13.19L5.85026 10.22C5.87026 10.09 5.94026 9.96999 6.05026 9.88999L15.8103 2.51999C15.9703 2.39999 16.1803 2.37999 16.3503 2.46999C16.5303 2.55999 16.6303 2.73999 16.6303 2.93999L16.5803 4.46999C16.5803 4.60999 16.5103 4.74999 16.4003 4.83999L6.23026 13.66C6.13026 13.74 6.02026 13.79 5.89026 13.79V13.78ZM6.90026 10.63L6.72026 11.78L15.4803 4.17999V4.13999L6.90026 10.63Z" fill="#D6D6D6"/>
<path d="M33.9925 57.63C33.8025 57.63 33.6325 57.53 33.5425 57.35C33.4225 57.12 33.4925 56.83 33.7125 56.69L39.1525 53.07C39.1525 53.07 39.2125 53.03 39.2525 53.02L46.7625 50.18C47.0125 50.09 47.2925 50.2 47.4125 50.45L47.4425 50.52C47.5525 50.76 47.4625 51.05 47.2225 51.18L38.6525 55.88C38.6525 55.88 38.6125 55.9 38.5925 55.91L34.1825 57.6C34.1225 57.62 34.0625 57.63 34.0025 57.63H33.9925ZM39.7025 54.02L39.4725 54.17L39.8525 53.96L39.6925 54.02H39.7025Z" fill="#D6D6D6"/>
<path d="M23.6306 57.7199C23.5806 57.7199 23.5206 57.7199 23.4706 57.6899L18.8806 56.1499C18.8806 56.1499 18.8206 56.1299 18.7906 56.1099L10.6906 51.5999C10.4606 51.4699 10.3606 51.1899 10.4706 50.9499L10.5006 50.8799C10.6106 50.6399 10.8806 50.5199 11.1306 50.5999L19.1706 53.2599C19.2206 53.2799 19.2706 53.2999 19.3206 53.3399L23.9306 56.7999C24.1306 56.9499 24.1906 57.2199 24.0806 57.4499C23.9906 57.6199 23.8106 57.7199 23.6306 57.7199ZM19.2806 55.1299L20.3906 55.4999L18.7506 54.2699L16.2606 53.4499L19.2806 55.1299Z" fill="#D6D6D6"/>
<path d="M46.7712 51.47C46.6712 51.47 46.5612 51.44 46.4812 51.38C46.2712 51.23 46.2012 50.94 46.3312 50.72L51.7412 40.85C51.7412 40.85 51.7812 40.78 51.8112 40.75L56.1112 36.08C56.2912 35.89 56.5812 35.86 56.7912 36.01C57.0012 36.16 57.0612 36.45 56.9312 36.68L50.8112 47.18C50.8112 47.18 50.7712 47.24 50.7512 47.26L47.1612 51.3C47.0612 51.41 46.9212 51.47 46.7812 51.47H46.7712ZM52.6612 41.43L49.7712 46.7L49.8812 46.58L53.2612 40.78L52.6612 41.43Z" fill="#D6D6D6"/>
<path d="M11.0934 51.8C10.9734 51.8 10.8434 51.76 10.7534 51.67L6.52335 47.81C6.52335 47.81 6.45335 47.73 6.42335 47.69L0.463352 37.36C0.343352 37.14 0.393352 36.87 0.583352 36.71C0.773352 36.55 1.05335 36.56 1.24335 36.71L6.39335 41.2C6.39335 41.2 6.48335 41.29 6.51335 41.35L11.5534 51.05C11.6634 51.27 11.6034 51.54 11.4134 51.69C11.3234 51.76 11.2134 51.8 11.1034 51.8H11.0934ZM7.32335 47.06L9.06335 48.64L5.59335 41.96L3.16335 39.84L7.32335 47.05V47.06Z" fill="#D6D6D6"/>
<path d="M28.9417 58.1399C28.9417 58.1399 28.9117 58.1399 28.8917 58.1399L23.3817 57.6499C23.2817 57.6499 23.1917 57.6099 23.1117 57.5499L18.5817 54.1499C18.4017 54.0099 18.3317 53.7699 18.4117 53.5599C18.4917 53.3499 18.7017 53.2099 18.9317 53.2299L29.4217 54.1299C29.5617 54.1399 29.6917 54.2099 29.7817 54.3199C29.8717 54.4299 29.9117 54.5699 29.8917 54.7099L29.4517 57.6999C29.4117 57.9499 29.2017 58.1399 28.9417 58.1399ZM23.6317 56.5699L28.4417 56.9899L28.7117 55.1599L20.8717 54.4899L23.6417 56.5699H23.6317Z" fill="#D6D6D6"/>
<path d="M28.8737 58.1401C28.7337 58.1401 28.6037 58.0801 28.5037 57.9801C28.3937 57.8701 28.3437 57.7101 28.3637 57.5501L28.8037 54.5601C28.8337 54.3301 29.0237 54.1501 29.2537 54.1301L39.5537 52.9701C39.7837 52.9401 40.0137 53.0801 40.0937 53.3001C40.1737 53.5201 40.0937 53.7701 39.8937 53.9001L34.6037 57.4201C34.5337 57.4601 34.4537 57.5001 34.3737 57.5101L28.9437 58.1301C28.9437 58.1301 28.9037 58.1301 28.8837 58.1301L28.8737 58.1401ZM29.8237 55.1701L29.5637 56.9601L34.1037 56.4401L37.2737 54.3301L29.8237 55.1701Z" fill="#D6D6D6"/>
<path d="M39.2536 6.1599C39.1836 6.1599 39.1136 6.1399 39.0436 6.1099L28.3936 1.2499C28.1536 1.1399 28.0336 0.859897 28.1236 0.609897L28.1436 0.539897C28.2336 0.289897 28.5036 0.149897 28.7636 0.219897L41.5936 3.7399C41.7836 3.7899 41.9336 3.9599 41.9636 4.1599C41.9936 4.3599 41.9036 4.5599 41.7336 4.6699L39.5336 6.0799C39.4536 6.1299 39.3536 6.1599 39.2536 6.1599ZM35.0436 3.0899L39.2036 4.9899L40.0336 4.4599L35.0436 3.0899Z" fill="#D6D6D6"/>
<path d="M18.5303 6.31007C18.4503 6.31007 18.3703 6.29007 18.3003 6.26007L15.6903 4.89007C15.5103 4.79007 15.4003 4.59007 15.4203 4.39007C15.4403 4.18007 15.5903 4.01007 15.7903 3.95007L28.4603 0.23007C28.7103 0.16007 28.9803 0.29007 29.0803 0.53007L29.1103 0.60007C29.2103 0.85007 29.1003 1.13007 28.8603 1.24007L18.7903 6.25007C18.7103 6.29007 18.6303 6.31007 18.5403 6.31007H18.5303ZM17.4703 4.58007L18.5403 5.14007L22.8303 3.01007L17.4703 4.58007Z" fill="#D6D6D6"/>
<path d="M52.1702 41.7199C52.1002 41.7199 52.0402 41.7099 51.9802 41.6799C51.7802 41.5999 51.6602 41.3999 51.6602 41.1899L52.1302 28.4099C52.1302 28.2799 52.1902 28.1499 52.2902 28.0599L56.4802 24.0299C56.6302 23.8899 56.8502 23.8499 57.0402 23.9299C57.2302 24.0199 57.3502 24.2099 57.3402 24.4199L56.8202 36.7099C56.8202 36.8299 56.7702 36.9599 56.6902 37.0499L52.5502 41.5499C52.4502 41.6599 52.3102 41.7199 52.1702 41.7199ZM53.2102 28.6899L52.8102 39.6499L55.7302 36.4699L56.1802 25.8299L53.2102 28.6899Z" fill="#D6D6D6"/>
<path d="M47.9925 16.1499C47.8525 16.1499 47.7125 16.0899 47.6125 15.9799L38.8425 5.97988L38.8125 5.94988C38.7125 5.83988 38.6725 5.68988 38.6925 5.53988C38.7125 5.38988 38.8025 5.25988 38.9225 5.17988L41.0925 3.78988C41.2825 3.66988 41.5225 3.67988 41.7025 3.82988L51.8825 12.4299C52.0025 12.5299 52.0625 12.6799 52.0625 12.8299C52.0625 12.9799 51.9925 13.1299 51.8725 13.2199L48.3125 16.0399C48.2225 16.1099 48.1025 16.1499 47.9925 16.1499ZM40.0825 5.72988L48.0625 14.8399L50.6225 12.8099L41.3125 4.93988L40.0725 5.72988H40.0825Z" fill="#D6D6D6"/>
<path d="M52.6625 29.0301C52.6625 29.0301 52.5825 29.0301 52.5425 29.0201C52.3725 28.9801 52.2325 28.8601 52.1725 28.7001L47.4725 15.7801V15.7601C47.3925 15.5501 47.4525 15.3201 47.6225 15.1801L51.1725 12.3601C51.2925 12.2601 51.4625 12.2301 51.6125 12.2601C51.7625 12.3001 51.8925 12.4001 51.9625 12.5501L57.2925 24.2901C57.3825 24.4901 57.3425 24.7201 57.1825 24.8701L53.0125 28.8901C52.9125 28.9801 52.7925 29.0301 52.6625 29.0301ZM48.6425 15.7701L52.9025 27.4701L56.1325 24.3601L51.2825 13.6701L48.6425 15.7601V15.7701Z" fill="#D6D6D6"/>
<path d="M6.0725 42.21C5.9525 42.21 5.8325 42.17 5.7325 42.08L0.6725 37.67C0.5625 37.58 0.5025 37.44 0.5025 37.3L0.0625 24.95C0.0625 24.75 0.1625 24.57 0.3425 24.48C0.5225 24.39 0.7325 24.41 0.8925 24.53L6.0125 28.47C6.1325 28.56 6.2225 28.72 6.2225 28.87L6.5925 41.68C6.5925 41.88 6.4825 42.07 6.3025 42.16C6.2325 42.19 6.1625 42.21 6.0825 42.21H6.0725ZM1.5925 37.01L5.4525 40.38L5.1325 29.18L1.2025 26.15L1.5925 37.01Z" fill="#D6D6D6"/>
<path d="M34.8718 7.14991C34.7418 7.14991 34.6018 7.09991 34.5118 7.01991L28.0818 1.00991C27.9018 0.839912 27.8718 0.559912 28.0018 0.349912C28.1418 0.139912 28.4118 0.0699123 28.6418 0.169912L39.5818 5.15991C39.7818 5.24991 39.9018 5.45991 39.8818 5.67991C39.8618 5.89991 39.7018 6.07991 39.4818 6.12991L34.9918 7.13991C34.9918 7.13991 34.9118 7.14991 34.8718 7.14991ZM31.4418 2.64991L35.0318 6.00991L37.5518 5.43991L31.4418 2.64991Z" fill="#D6D6D6"/>
<path d="M23.2229 7.23993C23.2229 7.23993 23.1629 7.23993 23.1329 7.23993L18.3329 6.28993C18.1229 6.24993 17.9529 6.06993 17.9229 5.85993C17.8929 5.64993 18.0029 5.42993 18.2029 5.32993L28.5429 0.179933C28.7629 0.0699327 29.0329 0.129933 29.1829 0.329933C29.3329 0.529933 29.3229 0.799933 29.1529 0.979933L23.6229 7.04993C23.5229 7.15993 23.3729 7.22993 23.2229 7.22993V7.23993ZM20.2229 5.53993L23.0229 6.08993L26.2529 2.53993L20.2329 5.52993L20.2229 5.53993Z" fill="#D6D6D6"/>
<path d="M10.2022 16.4601C10.1122 16.4601 10.0122 16.4301 9.92217 16.3801L5.60217 13.6101C5.46217 13.5201 5.38217 13.3801 5.37217 13.2201C5.36217 13.0601 5.42217 12.9001 5.54217 12.8001L15.6622 4.02007C15.8222 3.88007 16.0722 3.84007 16.2522 3.94007L18.8322 5.30007C18.9722 5.37007 19.0622 5.50007 19.0922 5.65007C19.1222 5.80007 19.0922 5.96007 18.9822 6.08007L10.5822 16.2801C10.4822 16.4001 10.3322 16.4701 10.1822 16.4701L10.2022 16.4601ZM6.86217 13.1101L10.0822 15.1701L17.6922 5.92007L16.1022 5.08007L6.85217 13.1101H6.86217Z" fill="#D6D6D6"/>
<path d="M5.68252 29.4801C5.57252 29.4801 5.46252 29.4401 5.37252 29.3701L0.252521 25.4301C0.0625208 25.2901 0.00252079 25.0301 0.102521 24.8101L5.46252 12.9101C5.52252 12.7701 5.64252 12.6701 5.78252 12.6301C5.92252 12.5901 6.08252 12.6101 6.20252 12.6901L10.5125 15.4501C10.7125 15.5801 10.7925 15.8201 10.7225 16.0501L6.17252 29.1301C6.12252 29.2901 5.99252 29.4101 5.83252 29.4501C5.78252 29.4601 5.73252 29.4701 5.68252 29.4701V29.4801ZM1.29252 24.8401L5.40252 28.0101L9.53252 16.1301L6.18252 13.9801L1.29252 24.8401Z" fill="#D6D6D6"/>
<path d="M29.1423 7.53998C29.1423 7.53998 29.1223 7.53998 29.1123 7.53998L23.1123 7.22998C22.9123 7.21998 22.7423 7.09998 22.6623 6.90998C22.5823 6.72998 22.6223 6.51998 22.7523 6.36998L28.2723 0.319982C28.4123 0.169982 28.6223 0.109982 28.8123 0.179982C29.0023 0.249982 29.1423 0.419982 29.1523 0.619982L29.6423 6.97998C29.6523 7.12998 29.6023 7.26998 29.5023 7.37998C29.4023 7.47998 29.2723 7.52998 29.1323 7.52998L29.1423 7.53998ZM24.4123 6.19998L28.5123 6.40998L28.1723 2.05998L24.4123 6.19998Z" fill="#D6D6D6"/>
<path d="M29.0608 7.54004C28.8008 7.54004 28.5708 7.34004 28.5508 7.07004L28.0608 0.700039C28.0408 0.490039 28.1608 0.290039 28.3508 0.200039C28.5408 0.110039 28.7708 0.140039 28.9208 0.290039L35.3008 6.26004C35.4508 6.40004 35.5008 6.61004 35.4308 6.81004C35.3608 7.00004 35.1908 7.13004 34.9808 7.15004L29.0908 7.55004C29.0908 7.55004 29.0708 7.55004 29.0608 7.55004V7.54004ZM29.2708 2.12004L29.6008 6.41004L33.5708 6.14004L29.2708 2.12004Z" fill="#D6D6D6"/>
<path d="M39.3903 54.1099C39.2603 54.1099 39.1303 54.0599 39.0303 53.9599C38.8903 53.8199 38.8403 53.6099 38.9103 53.4199L42.1703 44.2899V44.2699C42.2303 44.1299 42.3403 44.0199 42.4903 43.9599L52.1203 40.5599C52.3203 40.4899 52.5403 40.5499 52.6803 40.7099C52.8203 40.8699 52.8403 41.0999 52.7403 41.2899L47.4303 50.9699C47.3703 51.0799 47.2803 51.1599 47.1603 51.1999L39.5703 54.0699C39.5103 54.0899 39.4503 54.0999 39.3903 54.0999V54.1099ZM43.1103 44.9099L40.3603 52.6099L46.5703 50.2599L51.0403 42.1099L43.1103 44.9099Z" fill="#D6D6D6"/>
<path d="M19.0726 54.3499C19.0226 54.3499 18.9626 54.3499 18.9126 54.3199L10.7926 51.6399C10.6626 51.5999 10.5526 51.5099 10.4926 51.3899L5.51265 41.7899C5.41265 41.6099 5.44265 41.3899 5.57265 41.2299C5.70265 41.0699 5.92265 41.0099 6.11265 41.0699L16.4426 44.2499C16.6026 44.2999 16.7526 44.4299 16.8026 44.5999L19.5626 53.6999C19.6226 53.8799 19.5626 54.0799 19.4326 54.2099C19.3326 54.2999 19.2026 54.3599 19.0726 54.3599V54.3499ZM11.3626 50.6699L18.1926 52.9299L15.8526 45.2099L7.13265 42.5299L11.3626 50.6799V50.6699Z" fill="#D6D6D6"/>
<path d="M29.3703 55.2199C29.3703 55.2199 29.3403 55.2199 29.3303 55.2199L18.9503 54.3299C18.7403 54.3099 18.5603 54.1699 18.5003 53.9699L15.7403 44.8899C15.6903 44.7299 15.7303 44.5499 15.8303 44.4199C15.9403 44.2899 16.1003 44.2199 16.2703 44.2299L29.7303 45.2999C30.0003 45.3199 30.2103 45.5499 30.2003 45.8299L29.8803 54.7399C29.8803 54.8799 29.8103 55.0099 29.7103 55.1099C29.6203 55.1899 29.5003 55.2399 29.3703 55.2399V55.2199ZM19.4303 53.2699L28.8103 54.0799L29.0903 46.3399L17.0403 45.3799L19.4303 53.2699Z" fill="#D6D6D6"/>
<path d="M29.3001 55.2201C29.1701 55.2201 29.0501 55.1701 28.9501 55.0801C28.8401 54.9801 28.7801 54.8401 28.7901 54.6901L29.1101 45.7801C29.1101 45.5301 29.3101 45.3201 29.5701 45.2901L42.7001 43.9201C42.8801 43.9001 43.0501 43.9701 43.1601 44.1101C43.2701 44.2501 43.3001 44.4301 43.2401 44.6001L39.9801 53.7301C39.9101 53.9101 39.7501 54.0401 39.5601 54.0701L29.3701 55.2101C29.3701 55.2101 29.3301 55.2101 29.3201 55.2101L29.3001 55.2201ZM30.1901 46.3301L29.9101 54.0501L39.0601 53.0201L41.8901 45.1001L30.1901 46.3201V46.3301Z" fill="#D6D6D6"/>
<path d="M40.1133 18.22C39.9233 18.22 39.7333 18.11 39.6533 17.93L34.3533 6.79003C34.2833 6.65003 34.2833 6.49003 34.3533 6.35003C34.4233 6.21003 34.5533 6.11003 34.7033 6.07003L39.1533 5.07003C39.3333 5.03003 39.5233 5.09003 39.6533 5.23003L48.4533 15.27C48.5733 15.4 48.6133 15.59 48.5533 15.76C48.5033 15.93 48.3633 16.06 48.1933 16.1L40.2433 18.2C40.2433 18.2 40.1533 18.22 40.1133 18.22ZM35.6533 6.98003L40.4333 17.02L47.0033 15.28L39.0533 6.21003L35.6533 6.98003Z" fill="#D6D6D6"/>
<path d="M18.6533 18.41C18.6533 18.41 18.5733 18.41 18.5333 18.4L10.0033 16.43C9.83334 16.39 9.69334 16.26 9.63334 16.1C9.57334 15.93 9.61334 15.75 9.72334 15.61L18.1133 5.42998C18.2333 5.27998 18.4333 5.19998 18.6233 5.23998L23.3633 6.17998C23.5133 6.20998 23.6433 6.29998 23.7133 6.43998C23.7833 6.56998 23.7933 6.72998 23.7333 6.87998L19.1133 18.11C19.0333 18.31 18.8433 18.43 18.6433 18.43L18.6533 18.41ZM11.1733 15.57L18.3033 17.22L22.4633 7.09998L18.7633 6.36998L11.1833 15.57H11.1733Z" fill="#D6D6D6"/>
<path d="M42.9602 32.03C42.8702 32.03 42.7802 32.01 42.7002 31.96C42.5802 31.89 42.4902 31.76 42.4602 31.62L39.5902 17.74C39.5302 17.47 39.7002 17.21 39.9602 17.14L47.8902 15.04C48.1502 14.97 48.4102 15.11 48.5002 15.36L53.2002 28.29C53.2502 28.42 53.2402 28.57 53.1802 28.69C53.1202 28.82 53.0102 28.91 52.8702 28.95L43.1102 31.99C43.1102 31.99 43.0102 32.01 42.9602 32.01V32.03ZM40.7702 18.07L43.4002 30.77L51.9602 28.1L47.6502 16.24L40.7702 18.06V18.07Z" fill="#D6D6D6"/>
<path d="M42.6506 45.04C42.5406 45.04 42.4406 45.01 42.3506 44.94C42.2106 44.84 42.1406 44.68 42.1406 44.51L42.4406 31.42C42.4406 31.2 42.5906 31.01 42.8006 30.94L52.5606 27.9C52.7206 27.85 52.8906 27.88 53.0206 27.98C53.1506 28.08 53.2306 28.24 53.2206 28.4L52.7506 41.11C52.7506 41.32 52.6106 41.53 52.4106 41.6L42.8106 44.99C42.7506 45.01 42.7006 45.02 42.6406 45.02L42.6506 45.04ZM43.5306 31.88L43.2606 43.7L51.6906 40.73L52.1106 29.21L43.5406 31.88H43.5306Z" fill="#D6D6D6"/>
<path d="M16.1206 32.29C16.1206 32.29 16.0306 32.29 15.9906 32.27L5.49062 29.42C5.35062 29.38 5.24063 29.29 5.17063 29.17C5.10063 29.04 5.09062 28.9 5.14062 28.76L9.69062 15.69C9.78062 15.44 10.0306 15.3 10.2906 15.36L18.8006 17.33C19.0706 17.39 19.2406 17.65 19.1906 17.92L16.6406 31.88C16.6106 32.02 16.5306 32.15 16.4106 32.22C16.3306 32.27 16.2306 32.3 16.1406 32.3L16.1206 32.29ZM6.37062 28.53L15.6606 31.05L18.0006 18.26L10.5506 16.54L6.38063 28.53H6.37062Z" fill="#D6D6D6"/>
<path d="M16.3133 45.3399C16.2633 45.3399 16.2133 45.3399 16.1633 45.3199L5.84328 42.1399C5.63328 42.0799 5.49328 41.8899 5.48328 41.6699L5.11328 28.8799C5.11328 28.7199 5.18328 28.5599 5.31328 28.4599C5.44328 28.3599 5.60328 28.3299 5.76328 28.3699L16.2633 31.2199C16.4833 31.2799 16.6433 31.4799 16.6433 31.7099L16.8333 44.8199C16.8333 44.9799 16.7633 45.1399 16.6333 45.2399C16.5433 45.3099 16.4333 45.3399 16.3233 45.3399H16.3133ZM6.56328 41.2199L15.7133 44.0399L15.5433 32.1699L6.22328 29.6399L6.55328 41.2199H6.56328Z" fill="#D6D6D6"/>
<path d="M29.532 19.0499C29.532 19.0499 29.512 19.0499 29.502 19.0499L18.552 18.3899C18.392 18.3899 18.242 18.2899 18.152 18.1499C18.062 18.0099 18.052 17.8399 18.112 17.6799L22.732 6.43992C22.812 6.23992 23.012 6.10992 23.232 6.11992L29.172 6.42992C29.432 6.43992 29.652 6.65992 29.652 6.91992L30.052 18.5099C30.052 18.6499 30.002 18.7899 29.902 18.8899C29.802 18.9799 29.682 19.0299 29.542 19.0299L29.532 19.0499ZM19.432 17.3499L28.922 17.9199L28.562 7.50992L23.572 7.24992L19.422 17.3499H19.432Z" fill="#D6D6D6"/>
<path d="M29.453 19.05C29.323 19.05 29.203 19 29.113 18.92C29.013 18.83 28.943 18.7 28.943 18.56L28.543 6.97002C28.543 6.69002 28.743 6.46002 29.023 6.44002L34.833 6.05002C35.043 6.03002 35.263 6.15002 35.353 6.34002L40.653 17.48C40.723 17.63 40.723 17.81 40.633 17.96C40.553 18.11 40.403 18.2 40.233 18.21L29.503 19.05C29.503 19.05 29.473 19.05 29.463 19.05H29.453ZM29.663 7.50002L30.023 17.91L39.303 17.18L34.543 7.17002L29.673 7.50002H29.663Z" fill="#D6D6D6"/>
<path d="M29.6911 33.24C29.6911 33.24 29.6711 33.24 29.6511 33.24L16.0111 32.28C15.8611 32.28 15.7311 32.2 15.6411 32.08C15.5511 31.97 15.5111 31.82 15.5411 31.67L18.0911 17.71C18.1411 17.46 18.3611 17.27 18.6211 17.29L29.5411 17.95C29.8111 17.97 30.0211 18.19 30.0211 18.45L30.1811 32.71C30.1811 32.85 30.1211 32.99 30.0211 33.09C29.9211 33.18 29.8011 33.23 29.6711 33.23L29.6911 33.24ZM16.7411 31.23L29.1011 32.1L28.9511 19.02L19.0811 18.43L16.7411 31.24V31.23Z" fill="#D6D6D6"/>
<path d="M29.6231 33.24C29.4931 33.24 29.3731 33.19 29.2831 33.11C29.1731 33.01 29.1131 32.88 29.1131 32.74L28.9531 18.48C28.9531 18.21 29.1531 17.99 29.4231 17.96L40.1331 17.12C40.3931 17.1 40.6231 17.27 40.6731 17.53L43.5431 31.4C43.5731 31.54 43.5431 31.69 43.4531 31.81C43.3631 31.93 43.2331 32 43.0931 32.02L29.6731 33.25C29.6731 33.25 29.6431 33.25 29.6231 33.25V33.24ZM30.0531 19.01L30.2031 32.09L42.3431 30.98L39.7031 18.25L30.0531 19.01Z" fill="#D6D6D6"/>
<path d="M29.693 46.39C29.693 46.39 29.663 46.39 29.653 46.39L16.203 45.32C15.943 45.3 15.733 45.08 15.733 44.82L15.543 31.71C15.543 31.57 15.603 31.43 15.703 31.33C15.803 31.23 15.953 31.18 16.093 31.19L29.733 32.15C30.003 32.17 30.203 32.39 30.203 32.66V45.88C30.203 46.02 30.143 46.16 30.043 46.26C29.953 46.35 29.823 46.4 29.693 46.4V46.39ZM16.823 44.27L29.113 45.25V33.21L16.653 32.33L16.823 44.27Z" fill="#D6D6D6"/>
<path d="M29.6233 46.39C29.4933 46.39 29.3733 46.34 29.2833 46.26C29.1733 46.16 29.1133 46.03 29.1133 45.88V32.66C29.1133 32.4 29.3133 32.17 29.5733 32.15L42.9833 30.92C43.1333 30.91 43.2733 30.96 43.3833 31.06C43.4933 31.16 43.5533 31.3 43.5433 31.45L43.2433 44.53C43.2433 44.79 43.0433 45 42.7833 45.03L29.6733 46.4C29.6733 46.4 29.6333 46.4 29.6233 46.4V46.39ZM30.2033 33.19V45.23L42.1533 43.98L42.4333 32.07L30.2033 33.19Z" fill="#D6D6D6"/>
</g>
<defs>
<clipPath id="clip0_656_2648">
<rect width="132.23" height="58.14" fill="white"/>
</clipPath>
</defs>
</svg>
